%TF.GenerationSoftware,KiCad,Pcbnew,10.0.1*%
%TF.CreationDate,2026-05-08T01:31:45+08:00*%
%TF.ProjectId,Sensor Reader V4,53656e73-6f72-4205-9265-616465722056,rev?*%
%TF.SameCoordinates,Original*%
%TF.FileFunction,Legend,Top*%
%TF.FilePolarity,Positive*%
%FSLAX46Y46*%
G04 Gerber Fmt 4.6, Leading zero omitted, Abs format (unit mm)*
G04 Created by KiCad (PCBNEW 10.0.1) date 2026-05-08 01:31:45*
%MOMM*%
%LPD*%
G01*
G04 APERTURE LIST*
G04 Aperture macros list*
%AMRoundRect*
0 Rectangle with rounded corners*
0 $1 Rounding radius*
0 $2 $3 $4 $5 $6 $7 $8 $9 X,Y pos of 4 corners*
0 Add a 4 corners polygon primitive as box body*
4,1,4,$2,$3,$4,$5,$6,$7,$8,$9,$2,$3,0*
0 Add four circle primitives for the rounded corners*
1,1,$1+$1,$2,$3*
1,1,$1+$1,$4,$5*
1,1,$1+$1,$6,$7*
1,1,$1+$1,$8,$9*
0 Add four rect primitives between the rounded corners*
20,1,$1+$1,$2,$3,$4,$5,0*
20,1,$1+$1,$4,$5,$6,$7,0*
20,1,$1+$1,$6,$7,$8,$9,0*
20,1,$1+$1,$8,$9,$2,$3,0*%
G04 Aperture macros list end*
%ADD10C,0.100000*%
%ADD11C,0.150000*%
%ADD12C,0.200000*%
%ADD13C,0.254000*%
%ADD14C,0.127000*%
%ADD15C,0.120000*%
%ADD16C,0.000000*%
%ADD17RoundRect,0.237500X0.237500X-0.300000X0.237500X0.300000X-0.237500X0.300000X-0.237500X-0.300000X0*%
%ADD18RoundRect,0.237500X0.237500X-0.250000X0.237500X0.250000X-0.237500X0.250000X-0.237500X-0.250000X0*%
%ADD19C,1.000000*%
%ADD20RoundRect,0.250000X-0.475000X0.337500X-0.475000X-0.337500X0.475000X-0.337500X0.475000X0.337500X0*%
%ADD21C,2.600000*%
%ADD22C,3.800000*%
%ADD23RoundRect,0.237500X-0.237500X0.250000X-0.237500X-0.250000X0.237500X-0.250000X0.237500X0.250000X0*%
%ADD24RoundRect,0.237500X-0.237500X0.300000X-0.237500X-0.300000X0.237500X-0.300000X0.237500X0.300000X0*%
%ADD25R,1.475000X0.300000*%
%ADD26R,1.400000X0.450000*%
%ADD27R,1.846000X2.150000*%
%ADD28RoundRect,0.250000X0.750000X-0.600000X0.750000X0.600000X-0.750000X0.600000X-0.750000X-0.600000X0*%
%ADD29O,2.000000X1.700000*%
%ADD30R,1.700000X1.700000*%
%ADD31C,1.700000*%
%ADD32R,1.500000X1.500000*%
%ADD33C,1.500000*%
%ADD34R,1.500000X0.900000*%
%ADD35R,0.700000X0.700000*%
%ADD36RoundRect,0.250000X-0.750000X0.600000X-0.750000X-0.600000X0.750000X-0.600000X0.750000X0.600000X0*%
%ADD37R,0.600000X1.150000*%
%ADD38R,0.300000X1.150000*%
%ADD39C,2.280000*%
%ADD40C,2.850000*%
%ADD41RoundRect,0.237500X-0.300000X-0.237500X0.300000X-0.237500X0.300000X0.237500X-0.300000X0.237500X0*%
%ADD42RoundRect,0.237500X0.250000X0.237500X-0.250000X0.237500X-0.250000X-0.237500X0.250000X-0.237500X0*%
G04 APERTURE END LIST*
D10*
X153250000Y-92500000D02*
X158750000Y-92500000D01*
X153250000Y-94500000D02*
X153250000Y-92500000D01*
X153250000Y-95000000D02*
X153250000Y-95750000D01*
X153250000Y-95750000D02*
X155250000Y-95750000D01*
X158750000Y-94500000D02*
X158750000Y-92500000D01*
X158750000Y-95000000D02*
X158750000Y-95750000D01*
X158750000Y-95750000D02*
X156750000Y-95750000D01*
X123180074Y-50872419D02*
X123675312Y-50872419D01*
X123675312Y-50872419D02*
X123408646Y-51253371D01*
X123408646Y-51253371D02*
X123522931Y-51253371D01*
X123522931Y-51253371D02*
X123599122Y-51300990D01*
X123599122Y-51300990D02*
X123637217Y-51348609D01*
X123637217Y-51348609D02*
X123675312Y-51443847D01*
X123675312Y-51443847D02*
X123675312Y-51681942D01*
X123675312Y-51681942D02*
X123637217Y-51777180D01*
X123637217Y-51777180D02*
X123599122Y-51824800D01*
X123599122Y-51824800D02*
X123522931Y-51872419D01*
X123522931Y-51872419D02*
X123294360Y-51872419D01*
X123294360Y-51872419D02*
X123218169Y-51824800D01*
X123218169Y-51824800D02*
X123180074Y-51777180D01*
X124018170Y-51777180D02*
X124056265Y-51824800D01*
X124056265Y-51824800D02*
X124018170Y-51872419D01*
X124018170Y-51872419D02*
X123980074Y-51824800D01*
X123980074Y-51824800D02*
X124018170Y-51777180D01*
X124018170Y-51777180D02*
X124018170Y-51872419D01*
X124322931Y-50872419D02*
X124818169Y-50872419D01*
X124818169Y-50872419D02*
X124551503Y-51253371D01*
X124551503Y-51253371D02*
X124665788Y-51253371D01*
X124665788Y-51253371D02*
X124741979Y-51300990D01*
X124741979Y-51300990D02*
X124780074Y-51348609D01*
X124780074Y-51348609D02*
X124818169Y-51443847D01*
X124818169Y-51443847D02*
X124818169Y-51681942D01*
X124818169Y-51681942D02*
X124780074Y-51777180D01*
X124780074Y-51777180D02*
X124741979Y-51824800D01*
X124741979Y-51824800D02*
X124665788Y-51872419D01*
X124665788Y-51872419D02*
X124437217Y-51872419D01*
X124437217Y-51872419D02*
X124361026Y-51824800D01*
X124361026Y-51824800D02*
X124322931Y-51777180D01*
X125046741Y-50872419D02*
X125313408Y-51872419D01*
X125313408Y-51872419D02*
X125580074Y-50872419D01*
X123675312Y-53650038D02*
X123599122Y-53602419D01*
X123599122Y-53602419D02*
X123484836Y-53602419D01*
X123484836Y-53602419D02*
X123370550Y-53650038D01*
X123370550Y-53650038D02*
X123294360Y-53745276D01*
X123294360Y-53745276D02*
X123256265Y-53840514D01*
X123256265Y-53840514D02*
X123218169Y-54030990D01*
X123218169Y-54030990D02*
X123218169Y-54173847D01*
X123218169Y-54173847D02*
X123256265Y-54364323D01*
X123256265Y-54364323D02*
X123294360Y-54459561D01*
X123294360Y-54459561D02*
X123370550Y-54554800D01*
X123370550Y-54554800D02*
X123484836Y-54602419D01*
X123484836Y-54602419D02*
X123561027Y-54602419D01*
X123561027Y-54602419D02*
X123675312Y-54554800D01*
X123675312Y-54554800D02*
X123713408Y-54507180D01*
X123713408Y-54507180D02*
X123713408Y-54173847D01*
X123713408Y-54173847D02*
X123561027Y-54173847D01*
X124056265Y-54602419D02*
X124056265Y-53602419D01*
X124056265Y-53602419D02*
X124513408Y-54602419D01*
X124513408Y-54602419D02*
X124513408Y-53602419D01*
X124894360Y-54602419D02*
X124894360Y-53602419D01*
X124894360Y-53602419D02*
X125084836Y-53602419D01*
X125084836Y-53602419D02*
X125199122Y-53650038D01*
X125199122Y-53650038D02*
X125275312Y-53745276D01*
X125275312Y-53745276D02*
X125313407Y-53840514D01*
X125313407Y-53840514D02*
X125351503Y-54030990D01*
X125351503Y-54030990D02*
X125351503Y-54173847D01*
X125351503Y-54173847D02*
X125313407Y-54364323D01*
X125313407Y-54364323D02*
X125275312Y-54459561D01*
X125275312Y-54459561D02*
X125199122Y-54554800D01*
X125199122Y-54554800D02*
X125084836Y-54602419D01*
X125084836Y-54602419D02*
X124894360Y-54602419D01*
X134327693Y-57872419D02*
X133756265Y-57872419D01*
X134041979Y-57872419D02*
X134041979Y-56872419D01*
X134041979Y-56872419D02*
X133946741Y-57015276D01*
X133946741Y-57015276D02*
X133851503Y-57110514D01*
X133851503Y-57110514D02*
X133756265Y-57158133D01*
X134946741Y-56872419D02*
X135041979Y-56872419D01*
X135041979Y-56872419D02*
X135137217Y-56920038D01*
X135137217Y-56920038D02*
X135184836Y-56967657D01*
X135184836Y-56967657D02*
X135232455Y-57062895D01*
X135232455Y-57062895D02*
X135280074Y-57253371D01*
X135280074Y-57253371D02*
X135280074Y-57491466D01*
X135280074Y-57491466D02*
X135232455Y-57681942D01*
X135232455Y-57681942D02*
X135184836Y-57777180D01*
X135184836Y-57777180D02*
X135137217Y-57824800D01*
X135137217Y-57824800D02*
X135041979Y-57872419D01*
X135041979Y-57872419D02*
X134946741Y-57872419D01*
X134946741Y-57872419D02*
X134851503Y-57824800D01*
X134851503Y-57824800D02*
X134803884Y-57777180D01*
X134803884Y-57777180D02*
X134756265Y-57681942D01*
X134756265Y-57681942D02*
X134708646Y-57491466D01*
X134708646Y-57491466D02*
X134708646Y-57253371D01*
X134708646Y-57253371D02*
X134756265Y-57062895D01*
X134756265Y-57062895D02*
X134803884Y-56967657D01*
X134803884Y-56967657D02*
X134851503Y-56920038D01*
X134851503Y-56920038D02*
X134946741Y-56872419D01*
X135708646Y-57872419D02*
X135708646Y-56872419D01*
X136280074Y-57872419D02*
X135851503Y-57300990D01*
X136280074Y-56872419D02*
X135708646Y-57443847D01*
X136661027Y-57872419D02*
X136899122Y-57872419D01*
X136899122Y-57872419D02*
X136899122Y-57681942D01*
X136899122Y-57681942D02*
X136803884Y-57634323D01*
X136803884Y-57634323D02*
X136708646Y-57539085D01*
X136708646Y-57539085D02*
X136661027Y-57396228D01*
X136661027Y-57396228D02*
X136661027Y-57158133D01*
X136661027Y-57158133D02*
X136708646Y-57015276D01*
X136708646Y-57015276D02*
X136803884Y-56920038D01*
X136803884Y-56920038D02*
X136946741Y-56872419D01*
X136946741Y-56872419D02*
X137137217Y-56872419D01*
X137137217Y-56872419D02*
X137280074Y-56920038D01*
X137280074Y-56920038D02*
X137375312Y-57015276D01*
X137375312Y-57015276D02*
X137422931Y-57158133D01*
X137422931Y-57158133D02*
X137422931Y-57396228D01*
X137422931Y-57396228D02*
X137375312Y-57539085D01*
X137375312Y-57539085D02*
X137280074Y-57634323D01*
X137280074Y-57634323D02*
X137184836Y-57681942D01*
X137184836Y-57681942D02*
X137184836Y-57872419D01*
X137184836Y-57872419D02*
X137422931Y-57872419D01*
X136375312Y-86872419D02*
X136041979Y-86396228D01*
X135803884Y-86872419D02*
X135803884Y-85872419D01*
X135803884Y-85872419D02*
X136184836Y-85872419D01*
X136184836Y-85872419D02*
X136280074Y-85920038D01*
X136280074Y-85920038D02*
X136327693Y-85967657D01*
X136327693Y-85967657D02*
X136375312Y-86062895D01*
X136375312Y-86062895D02*
X136375312Y-86205752D01*
X136375312Y-86205752D02*
X136327693Y-86300990D01*
X136327693Y-86300990D02*
X136280074Y-86348609D01*
X136280074Y-86348609D02*
X136184836Y-86396228D01*
X136184836Y-86396228D02*
X135803884Y-86396228D01*
X136756265Y-86824800D02*
X136899122Y-86872419D01*
X136899122Y-86872419D02*
X137137217Y-86872419D01*
X137137217Y-86872419D02*
X137232455Y-86824800D01*
X137232455Y-86824800D02*
X137280074Y-86777180D01*
X137280074Y-86777180D02*
X137327693Y-86681942D01*
X137327693Y-86681942D02*
X137327693Y-86586704D01*
X137327693Y-86586704D02*
X137280074Y-86491466D01*
X137280074Y-86491466D02*
X137232455Y-86443847D01*
X137232455Y-86443847D02*
X137137217Y-86396228D01*
X137137217Y-86396228D02*
X136946741Y-86348609D01*
X136946741Y-86348609D02*
X136851503Y-86300990D01*
X136851503Y-86300990D02*
X136803884Y-86253371D01*
X136803884Y-86253371D02*
X136756265Y-86158133D01*
X136756265Y-86158133D02*
X136756265Y-86062895D01*
X136756265Y-86062895D02*
X136803884Y-85967657D01*
X136803884Y-85967657D02*
X136851503Y-85920038D01*
X136851503Y-85920038D02*
X136946741Y-85872419D01*
X136946741Y-85872419D02*
X137184836Y-85872419D01*
X137184836Y-85872419D02*
X137327693Y-85920038D01*
X137613408Y-85872419D02*
X138184836Y-85872419D01*
X137899122Y-86872419D02*
X137899122Y-85872419D01*
X141661027Y-70872419D02*
X142232455Y-70872419D01*
X141946741Y-71872419D02*
X141946741Y-70872419D01*
X143041979Y-71872419D02*
X142565789Y-71872419D01*
X142565789Y-71872419D02*
X142565789Y-70872419D01*
X143232456Y-70872419D02*
X143565789Y-71872419D01*
X143565789Y-71872419D02*
X143899122Y-70872419D01*
X144137218Y-70872419D02*
X144803884Y-70872419D01*
X144803884Y-70872419D02*
X144375313Y-71872419D01*
X145613408Y-70872419D02*
X145422932Y-70872419D01*
X145422932Y-70872419D02*
X145327694Y-70920038D01*
X145327694Y-70920038D02*
X145280075Y-70967657D01*
X145280075Y-70967657D02*
X145184837Y-71110514D01*
X145184837Y-71110514D02*
X145137218Y-71300990D01*
X145137218Y-71300990D02*
X145137218Y-71681942D01*
X145137218Y-71681942D02*
X145184837Y-71777180D01*
X145184837Y-71777180D02*
X145232456Y-71824800D01*
X145232456Y-71824800D02*
X145327694Y-71872419D01*
X145327694Y-71872419D02*
X145518170Y-71872419D01*
X145518170Y-71872419D02*
X145613408Y-71824800D01*
X145613408Y-71824800D02*
X145661027Y-71777180D01*
X145661027Y-71777180D02*
X145708646Y-71681942D01*
X145708646Y-71681942D02*
X145708646Y-71443847D01*
X145708646Y-71443847D02*
X145661027Y-71348609D01*
X145661027Y-71348609D02*
X145613408Y-71300990D01*
X145613408Y-71300990D02*
X145518170Y-71253371D01*
X145518170Y-71253371D02*
X145327694Y-71253371D01*
X145327694Y-71253371D02*
X145232456Y-71300990D01*
X145232456Y-71300990D02*
X145184837Y-71348609D01*
X145184837Y-71348609D02*
X145137218Y-71443847D01*
X146041980Y-70872419D02*
X146708646Y-70872419D01*
X146708646Y-70872419D02*
X146280075Y-71872419D01*
X146994361Y-70872419D02*
X147613408Y-70872419D01*
X147613408Y-70872419D02*
X147280075Y-71253371D01*
X147280075Y-71253371D02*
X147422932Y-71253371D01*
X147422932Y-71253371D02*
X147518170Y-71300990D01*
X147518170Y-71300990D02*
X147565789Y-71348609D01*
X147565789Y-71348609D02*
X147613408Y-71443847D01*
X147613408Y-71443847D02*
X147613408Y-71681942D01*
X147613408Y-71681942D02*
X147565789Y-71777180D01*
X147565789Y-71777180D02*
X147518170Y-71824800D01*
X147518170Y-71824800D02*
X147422932Y-71872419D01*
X147422932Y-71872419D02*
X147137218Y-71872419D01*
X147137218Y-71872419D02*
X147041980Y-71824800D01*
X147041980Y-71824800D02*
X146994361Y-71777180D01*
X147946742Y-70872419D02*
X148565789Y-70872419D01*
X148565789Y-70872419D02*
X148232456Y-71253371D01*
X148232456Y-71253371D02*
X148375313Y-71253371D01*
X148375313Y-71253371D02*
X148470551Y-71300990D01*
X148470551Y-71300990D02*
X148518170Y-71348609D01*
X148518170Y-71348609D02*
X148565789Y-71443847D01*
X148565789Y-71443847D02*
X148565789Y-71681942D01*
X148565789Y-71681942D02*
X148518170Y-71777180D01*
X148518170Y-71777180D02*
X148470551Y-71824800D01*
X148470551Y-71824800D02*
X148375313Y-71872419D01*
X148375313Y-71872419D02*
X148089599Y-71872419D01*
X148089599Y-71872419D02*
X147994361Y-71824800D01*
X147994361Y-71824800D02*
X147946742Y-71777180D01*
X141818765Y-57586704D02*
X142294955Y-57586704D01*
X141723527Y-57872419D02*
X142056860Y-56872419D01*
X142056860Y-56872419D02*
X142390193Y-57872419D01*
X142723527Y-57872419D02*
X142723527Y-56872419D01*
X142723527Y-56872419D02*
X142961622Y-56872419D01*
X142961622Y-56872419D02*
X143104479Y-56920038D01*
X143104479Y-56920038D02*
X143199717Y-57015276D01*
X143199717Y-57015276D02*
X143247336Y-57110514D01*
X143247336Y-57110514D02*
X143294955Y-57300990D01*
X143294955Y-57300990D02*
X143294955Y-57443847D01*
X143294955Y-57443847D02*
X143247336Y-57634323D01*
X143247336Y-57634323D02*
X143199717Y-57729561D01*
X143199717Y-57729561D02*
X143104479Y-57824800D01*
X143104479Y-57824800D02*
X142961622Y-57872419D01*
X142961622Y-57872419D02*
X142723527Y-57872419D01*
X143675908Y-57824800D02*
X143818765Y-57872419D01*
X143818765Y-57872419D02*
X144056860Y-57872419D01*
X144056860Y-57872419D02*
X144152098Y-57824800D01*
X144152098Y-57824800D02*
X144199717Y-57777180D01*
X144199717Y-57777180D02*
X144247336Y-57681942D01*
X144247336Y-57681942D02*
X144247336Y-57586704D01*
X144247336Y-57586704D02*
X144199717Y-57491466D01*
X144199717Y-57491466D02*
X144152098Y-57443847D01*
X144152098Y-57443847D02*
X144056860Y-57396228D01*
X144056860Y-57396228D02*
X143866384Y-57348609D01*
X143866384Y-57348609D02*
X143771146Y-57300990D01*
X143771146Y-57300990D02*
X143723527Y-57253371D01*
X143723527Y-57253371D02*
X143675908Y-57158133D01*
X143675908Y-57158133D02*
X143675908Y-57062895D01*
X143675908Y-57062895D02*
X143723527Y-56967657D01*
X143723527Y-56967657D02*
X143771146Y-56920038D01*
X143771146Y-56920038D02*
X143866384Y-56872419D01*
X143866384Y-56872419D02*
X144104479Y-56872419D01*
X144104479Y-56872419D02*
X144247336Y-56920038D01*
X144818765Y-57300990D02*
X144723527Y-57253371D01*
X144723527Y-57253371D02*
X144675908Y-57205752D01*
X144675908Y-57205752D02*
X144628289Y-57110514D01*
X144628289Y-57110514D02*
X144628289Y-57062895D01*
X144628289Y-57062895D02*
X144675908Y-56967657D01*
X144675908Y-56967657D02*
X144723527Y-56920038D01*
X144723527Y-56920038D02*
X144818765Y-56872419D01*
X144818765Y-56872419D02*
X145009241Y-56872419D01*
X145009241Y-56872419D02*
X145104479Y-56920038D01*
X145104479Y-56920038D02*
X145152098Y-56967657D01*
X145152098Y-56967657D02*
X145199717Y-57062895D01*
X145199717Y-57062895D02*
X145199717Y-57110514D01*
X145199717Y-57110514D02*
X145152098Y-57205752D01*
X145152098Y-57205752D02*
X145104479Y-57253371D01*
X145104479Y-57253371D02*
X145009241Y-57300990D01*
X145009241Y-57300990D02*
X144818765Y-57300990D01*
X144818765Y-57300990D02*
X144723527Y-57348609D01*
X144723527Y-57348609D02*
X144675908Y-57396228D01*
X144675908Y-57396228D02*
X144628289Y-57491466D01*
X144628289Y-57491466D02*
X144628289Y-57681942D01*
X144628289Y-57681942D02*
X144675908Y-57777180D01*
X144675908Y-57777180D02*
X144723527Y-57824800D01*
X144723527Y-57824800D02*
X144818765Y-57872419D01*
X144818765Y-57872419D02*
X145009241Y-57872419D01*
X145009241Y-57872419D02*
X145104479Y-57824800D01*
X145104479Y-57824800D02*
X145152098Y-57777180D01*
X145152098Y-57777180D02*
X145199717Y-57681942D01*
X145199717Y-57681942D02*
X145199717Y-57491466D01*
X145199717Y-57491466D02*
X145152098Y-57396228D01*
X145152098Y-57396228D02*
X145104479Y-57348609D01*
X145104479Y-57348609D02*
X145009241Y-57300990D01*
X146056860Y-56872419D02*
X145866384Y-56872419D01*
X145866384Y-56872419D02*
X145771146Y-56920038D01*
X145771146Y-56920038D02*
X145723527Y-56967657D01*
X145723527Y-56967657D02*
X145628289Y-57110514D01*
X145628289Y-57110514D02*
X145580670Y-57300990D01*
X145580670Y-57300990D02*
X145580670Y-57681942D01*
X145580670Y-57681942D02*
X145628289Y-57777180D01*
X145628289Y-57777180D02*
X145675908Y-57824800D01*
X145675908Y-57824800D02*
X145771146Y-57872419D01*
X145771146Y-57872419D02*
X145961622Y-57872419D01*
X145961622Y-57872419D02*
X146056860Y-57824800D01*
X146056860Y-57824800D02*
X146104479Y-57777180D01*
X146104479Y-57777180D02*
X146152098Y-57681942D01*
X146152098Y-57681942D02*
X146152098Y-57443847D01*
X146152098Y-57443847D02*
X146104479Y-57348609D01*
X146104479Y-57348609D02*
X146056860Y-57300990D01*
X146056860Y-57300990D02*
X145961622Y-57253371D01*
X145961622Y-57253371D02*
X145771146Y-57253371D01*
X145771146Y-57253371D02*
X145675908Y-57300990D01*
X145675908Y-57300990D02*
X145628289Y-57348609D01*
X145628289Y-57348609D02*
X145580670Y-57443847D01*
X146723527Y-57300990D02*
X146628289Y-57253371D01*
X146628289Y-57253371D02*
X146580670Y-57205752D01*
X146580670Y-57205752D02*
X146533051Y-57110514D01*
X146533051Y-57110514D02*
X146533051Y-57062895D01*
X146533051Y-57062895D02*
X146580670Y-56967657D01*
X146580670Y-56967657D02*
X146628289Y-56920038D01*
X146628289Y-56920038D02*
X146723527Y-56872419D01*
X146723527Y-56872419D02*
X146914003Y-56872419D01*
X146914003Y-56872419D02*
X147009241Y-56920038D01*
X147009241Y-56920038D02*
X147056860Y-56967657D01*
X147056860Y-56967657D02*
X147104479Y-57062895D01*
X147104479Y-57062895D02*
X147104479Y-57110514D01*
X147104479Y-57110514D02*
X147056860Y-57205752D01*
X147056860Y-57205752D02*
X147009241Y-57253371D01*
X147009241Y-57253371D02*
X146914003Y-57300990D01*
X146914003Y-57300990D02*
X146723527Y-57300990D01*
X146723527Y-57300990D02*
X146628289Y-57348609D01*
X146628289Y-57348609D02*
X146580670Y-57396228D01*
X146580670Y-57396228D02*
X146533051Y-57491466D01*
X146533051Y-57491466D02*
X146533051Y-57681942D01*
X146533051Y-57681942D02*
X146580670Y-57777180D01*
X146580670Y-57777180D02*
X146628289Y-57824800D01*
X146628289Y-57824800D02*
X146723527Y-57872419D01*
X146723527Y-57872419D02*
X146914003Y-57872419D01*
X146914003Y-57872419D02*
X147009241Y-57824800D01*
X147009241Y-57824800D02*
X147056860Y-57777180D01*
X147056860Y-57777180D02*
X147104479Y-57681942D01*
X147104479Y-57681942D02*
X147104479Y-57491466D01*
X147104479Y-57491466D02*
X147056860Y-57396228D01*
X147056860Y-57396228D02*
X147009241Y-57348609D01*
X147009241Y-57348609D02*
X146914003Y-57300990D01*
X147675908Y-57300990D02*
X147580670Y-57253371D01*
X147580670Y-57253371D02*
X147533051Y-57205752D01*
X147533051Y-57205752D02*
X147485432Y-57110514D01*
X147485432Y-57110514D02*
X147485432Y-57062895D01*
X147485432Y-57062895D02*
X147533051Y-56967657D01*
X147533051Y-56967657D02*
X147580670Y-56920038D01*
X147580670Y-56920038D02*
X147675908Y-56872419D01*
X147675908Y-56872419D02*
X147866384Y-56872419D01*
X147866384Y-56872419D02*
X147961622Y-56920038D01*
X147961622Y-56920038D02*
X148009241Y-56967657D01*
X148009241Y-56967657D02*
X148056860Y-57062895D01*
X148056860Y-57062895D02*
X148056860Y-57110514D01*
X148056860Y-57110514D02*
X148009241Y-57205752D01*
X148009241Y-57205752D02*
X147961622Y-57253371D01*
X147961622Y-57253371D02*
X147866384Y-57300990D01*
X147866384Y-57300990D02*
X147675908Y-57300990D01*
X147675908Y-57300990D02*
X147580670Y-57348609D01*
X147580670Y-57348609D02*
X147533051Y-57396228D01*
X147533051Y-57396228D02*
X147485432Y-57491466D01*
X147485432Y-57491466D02*
X147485432Y-57681942D01*
X147485432Y-57681942D02*
X147533051Y-57777180D01*
X147533051Y-57777180D02*
X147580670Y-57824800D01*
X147580670Y-57824800D02*
X147675908Y-57872419D01*
X147675908Y-57872419D02*
X147866384Y-57872419D01*
X147866384Y-57872419D02*
X147961622Y-57824800D01*
X147961622Y-57824800D02*
X148009241Y-57777180D01*
X148009241Y-57777180D02*
X148056860Y-57681942D01*
X148056860Y-57681942D02*
X148056860Y-57491466D01*
X148056860Y-57491466D02*
X148009241Y-57396228D01*
X148009241Y-57396228D02*
X147961622Y-57348609D01*
X147961622Y-57348609D02*
X147866384Y-57300990D01*
X150827693Y-63872419D02*
X150256265Y-63872419D01*
X150541979Y-63872419D02*
X150541979Y-62872419D01*
X150541979Y-62872419D02*
X150446741Y-63015276D01*
X150446741Y-63015276D02*
X150351503Y-63110514D01*
X150351503Y-63110514D02*
X150256265Y-63158133D01*
X151684836Y-63205752D02*
X151684836Y-63872419D01*
X151256265Y-63205752D02*
X151256265Y-63729561D01*
X151256265Y-63729561D02*
X151303884Y-63824800D01*
X151303884Y-63824800D02*
X151399122Y-63872419D01*
X151399122Y-63872419D02*
X151541979Y-63872419D01*
X151541979Y-63872419D02*
X151637217Y-63824800D01*
X151637217Y-63824800D02*
X151684836Y-63777180D01*
X152494360Y-63348609D02*
X152161027Y-63348609D01*
X152161027Y-63872419D02*
X152161027Y-62872419D01*
X152161027Y-62872419D02*
X152637217Y-62872419D01*
X150827693Y-66372419D02*
X150256265Y-66372419D01*
X150541979Y-66372419D02*
X150541979Y-65372419D01*
X150541979Y-65372419D02*
X150446741Y-65515276D01*
X150446741Y-65515276D02*
X150351503Y-65610514D01*
X150351503Y-65610514D02*
X150256265Y-65658133D01*
X151446741Y-65372419D02*
X151541979Y-65372419D01*
X151541979Y-65372419D02*
X151637217Y-65420038D01*
X151637217Y-65420038D02*
X151684836Y-65467657D01*
X151684836Y-65467657D02*
X151732455Y-65562895D01*
X151732455Y-65562895D02*
X151780074Y-65753371D01*
X151780074Y-65753371D02*
X151780074Y-65991466D01*
X151780074Y-65991466D02*
X151732455Y-66181942D01*
X151732455Y-66181942D02*
X151684836Y-66277180D01*
X151684836Y-66277180D02*
X151637217Y-66324800D01*
X151637217Y-66324800D02*
X151541979Y-66372419D01*
X151541979Y-66372419D02*
X151446741Y-66372419D01*
X151446741Y-66372419D02*
X151351503Y-66324800D01*
X151351503Y-66324800D02*
X151303884Y-66277180D01*
X151303884Y-66277180D02*
X151256265Y-66181942D01*
X151256265Y-66181942D02*
X151208646Y-65991466D01*
X151208646Y-65991466D02*
X151208646Y-65753371D01*
X151208646Y-65753371D02*
X151256265Y-65562895D01*
X151256265Y-65562895D02*
X151303884Y-65467657D01*
X151303884Y-65467657D02*
X151351503Y-65420038D01*
X151351503Y-65420038D02*
X151446741Y-65372419D01*
X152637217Y-65705752D02*
X152637217Y-66372419D01*
X152208646Y-65705752D02*
X152208646Y-66229561D01*
X152208646Y-66229561D02*
X152256265Y-66324800D01*
X152256265Y-66324800D02*
X152351503Y-66372419D01*
X152351503Y-66372419D02*
X152494360Y-66372419D01*
X152494360Y-66372419D02*
X152589598Y-66324800D01*
X152589598Y-66324800D02*
X152637217Y-66277180D01*
X153446741Y-65848609D02*
X153113408Y-65848609D01*
X153113408Y-66372419D02*
X153113408Y-65372419D01*
X153113408Y-65372419D02*
X153589598Y-65372419D01*
X152780074Y-72872419D02*
X152303884Y-72872419D01*
X152303884Y-72872419D02*
X152256265Y-73348609D01*
X152256265Y-73348609D02*
X152303884Y-73300990D01*
X152303884Y-73300990D02*
X152399122Y-73253371D01*
X152399122Y-73253371D02*
X152637217Y-73253371D01*
X152637217Y-73253371D02*
X152732455Y-73300990D01*
X152732455Y-73300990D02*
X152780074Y-73348609D01*
X152780074Y-73348609D02*
X152827693Y-73443847D01*
X152827693Y-73443847D02*
X152827693Y-73681942D01*
X152827693Y-73681942D02*
X152780074Y-73777180D01*
X152780074Y-73777180D02*
X152732455Y-73824800D01*
X152732455Y-73824800D02*
X152637217Y-73872419D01*
X152637217Y-73872419D02*
X152399122Y-73872419D01*
X152399122Y-73872419D02*
X152303884Y-73824800D01*
X152303884Y-73824800D02*
X152256265Y-73777180D01*
X153113408Y-72872419D02*
X153446741Y-73872419D01*
X153446741Y-73872419D02*
X153780074Y-72872419D01*
X153839598Y-92762475D02*
X153839598Y-93476760D01*
X153839598Y-93476760D02*
X153791979Y-93619617D01*
X153791979Y-93619617D02*
X153696741Y-93714856D01*
X153696741Y-93714856D02*
X153553884Y-93762475D01*
X153553884Y-93762475D02*
X153458646Y-93762475D01*
X154268170Y-93714856D02*
X154411027Y-93762475D01*
X154411027Y-93762475D02*
X154649122Y-93762475D01*
X154649122Y-93762475D02*
X154744360Y-93714856D01*
X154744360Y-93714856D02*
X154791979Y-93667236D01*
X154791979Y-93667236D02*
X154839598Y-93571998D01*
X154839598Y-93571998D02*
X154839598Y-93476760D01*
X154839598Y-93476760D02*
X154791979Y-93381522D01*
X154791979Y-93381522D02*
X154744360Y-93333903D01*
X154744360Y-93333903D02*
X154649122Y-93286284D01*
X154649122Y-93286284D02*
X154458646Y-93238665D01*
X154458646Y-93238665D02*
X154363408Y-93191046D01*
X154363408Y-93191046D02*
X154315789Y-93143427D01*
X154315789Y-93143427D02*
X154268170Y-93048189D01*
X154268170Y-93048189D02*
X154268170Y-92952951D01*
X154268170Y-92952951D02*
X154315789Y-92857713D01*
X154315789Y-92857713D02*
X154363408Y-92810094D01*
X154363408Y-92810094D02*
X154458646Y-92762475D01*
X154458646Y-92762475D02*
X154696741Y-92762475D01*
X154696741Y-92762475D02*
X154839598Y-92810094D01*
X155125313Y-92762475D02*
X155696741Y-92762475D01*
X155411027Y-93762475D02*
X155411027Y-92762475D01*
X155791980Y-93857713D02*
X156553884Y-93857713D01*
X156696742Y-92762475D02*
X157363408Y-93762475D01*
X157363408Y-92762475D02*
X156696742Y-93762475D01*
X157744361Y-93762475D02*
X157744361Y-92762475D01*
X157744361Y-93238665D02*
X158315789Y-93238665D01*
X158315789Y-93762475D02*
X158315789Y-92762475D01*
X153553884Y-94991466D02*
X154315789Y-94991466D01*
X153934836Y-95372419D02*
X153934836Y-94610514D01*
X157839599Y-94991466D02*
X158601504Y-94991466D01*
X154137217Y-86348609D02*
X154280074Y-86396228D01*
X154280074Y-86396228D02*
X154327693Y-86443847D01*
X154327693Y-86443847D02*
X154375312Y-86539085D01*
X154375312Y-86539085D02*
X154375312Y-86681942D01*
X154375312Y-86681942D02*
X154327693Y-86777180D01*
X154327693Y-86777180D02*
X154280074Y-86824800D01*
X154280074Y-86824800D02*
X154184836Y-86872419D01*
X154184836Y-86872419D02*
X153803884Y-86872419D01*
X153803884Y-86872419D02*
X153803884Y-85872419D01*
X153803884Y-85872419D02*
X154137217Y-85872419D01*
X154137217Y-85872419D02*
X154232455Y-85920038D01*
X154232455Y-85920038D02*
X154280074Y-85967657D01*
X154280074Y-85967657D02*
X154327693Y-86062895D01*
X154327693Y-86062895D02*
X154327693Y-86158133D01*
X154327693Y-86158133D02*
X154280074Y-86253371D01*
X154280074Y-86253371D02*
X154232455Y-86300990D01*
X154232455Y-86300990D02*
X154137217Y-86348609D01*
X154137217Y-86348609D02*
X153803884Y-86348609D01*
X154994360Y-85872419D02*
X155184836Y-85872419D01*
X155184836Y-85872419D02*
X155280074Y-85920038D01*
X155280074Y-85920038D02*
X155375312Y-86015276D01*
X155375312Y-86015276D02*
X155422931Y-86205752D01*
X155422931Y-86205752D02*
X155422931Y-86539085D01*
X155422931Y-86539085D02*
X155375312Y-86729561D01*
X155375312Y-86729561D02*
X155280074Y-86824800D01*
X155280074Y-86824800D02*
X155184836Y-86872419D01*
X155184836Y-86872419D02*
X154994360Y-86872419D01*
X154994360Y-86872419D02*
X154899122Y-86824800D01*
X154899122Y-86824800D02*
X154803884Y-86729561D01*
X154803884Y-86729561D02*
X154756265Y-86539085D01*
X154756265Y-86539085D02*
X154756265Y-86205752D01*
X154756265Y-86205752D02*
X154803884Y-86015276D01*
X154803884Y-86015276D02*
X154899122Y-85920038D01*
X154899122Y-85920038D02*
X154994360Y-85872419D01*
X156041979Y-85872419D02*
X156232455Y-85872419D01*
X156232455Y-85872419D02*
X156327693Y-85920038D01*
X156327693Y-85920038D02*
X156422931Y-86015276D01*
X156422931Y-86015276D02*
X156470550Y-86205752D01*
X156470550Y-86205752D02*
X156470550Y-86539085D01*
X156470550Y-86539085D02*
X156422931Y-86729561D01*
X156422931Y-86729561D02*
X156327693Y-86824800D01*
X156327693Y-86824800D02*
X156232455Y-86872419D01*
X156232455Y-86872419D02*
X156041979Y-86872419D01*
X156041979Y-86872419D02*
X155946741Y-86824800D01*
X155946741Y-86824800D02*
X155851503Y-86729561D01*
X155851503Y-86729561D02*
X155803884Y-86539085D01*
X155803884Y-86539085D02*
X155803884Y-86205752D01*
X155803884Y-86205752D02*
X155851503Y-86015276D01*
X155851503Y-86015276D02*
X155946741Y-85920038D01*
X155946741Y-85920038D02*
X156041979Y-85872419D01*
X156756265Y-85872419D02*
X157327693Y-85872419D01*
X157041979Y-86872419D02*
X157041979Y-85872419D01*
X155327693Y-40920038D02*
X155232455Y-40872419D01*
X155232455Y-40872419D02*
X155089598Y-40872419D01*
X155089598Y-40872419D02*
X154946741Y-40920038D01*
X154946741Y-40920038D02*
X154851503Y-41015276D01*
X154851503Y-41015276D02*
X154803884Y-41110514D01*
X154803884Y-41110514D02*
X154756265Y-41300990D01*
X154756265Y-41300990D02*
X154756265Y-41443847D01*
X154756265Y-41443847D02*
X154803884Y-41634323D01*
X154803884Y-41634323D02*
X154851503Y-41729561D01*
X154851503Y-41729561D02*
X154946741Y-41824800D01*
X154946741Y-41824800D02*
X155089598Y-41872419D01*
X155089598Y-41872419D02*
X155184836Y-41872419D01*
X155184836Y-41872419D02*
X155327693Y-41824800D01*
X155327693Y-41824800D02*
X155375312Y-41777180D01*
X155375312Y-41777180D02*
X155375312Y-41443847D01*
X155375312Y-41443847D02*
X155184836Y-41443847D01*
X155803884Y-41872419D02*
X155803884Y-40872419D01*
X155803884Y-40872419D02*
X156375312Y-41872419D01*
X156375312Y-41872419D02*
X156375312Y-40872419D01*
X156851503Y-41872419D02*
X156851503Y-40872419D01*
X156851503Y-40872419D02*
X157089598Y-40872419D01*
X157089598Y-40872419D02*
X157232455Y-40920038D01*
X157232455Y-40920038D02*
X157327693Y-41015276D01*
X157327693Y-41015276D02*
X157375312Y-41110514D01*
X157375312Y-41110514D02*
X157422931Y-41300990D01*
X157422931Y-41300990D02*
X157422931Y-41443847D01*
X157422931Y-41443847D02*
X157375312Y-41634323D01*
X157375312Y-41634323D02*
X157327693Y-41729561D01*
X157327693Y-41729561D02*
X157232455Y-41824800D01*
X157232455Y-41824800D02*
X157089598Y-41872419D01*
X157089598Y-41872419D02*
X156851503Y-41872419D01*
X155375312Y-44372419D02*
X155041979Y-43896228D01*
X154803884Y-44372419D02*
X154803884Y-43372419D01*
X154803884Y-43372419D02*
X155184836Y-43372419D01*
X155184836Y-43372419D02*
X155280074Y-43420038D01*
X155280074Y-43420038D02*
X155327693Y-43467657D01*
X155327693Y-43467657D02*
X155375312Y-43562895D01*
X155375312Y-43562895D02*
X155375312Y-43705752D01*
X155375312Y-43705752D02*
X155327693Y-43800990D01*
X155327693Y-43800990D02*
X155280074Y-43848609D01*
X155280074Y-43848609D02*
X155184836Y-43896228D01*
X155184836Y-43896228D02*
X154803884Y-43896228D01*
X155708646Y-43372419D02*
X156375312Y-44372419D01*
X156375312Y-43372419D02*
X155708646Y-44372419D01*
X154661027Y-45872419D02*
X155232455Y-45872419D01*
X154946741Y-46872419D02*
X154946741Y-45872419D01*
X155470551Y-45872419D02*
X156137217Y-46872419D01*
X156137217Y-45872419D02*
X155470551Y-46872419D01*
X155280074Y-48372419D02*
X154803884Y-48372419D01*
X154803884Y-48372419D02*
X154756265Y-48848609D01*
X154756265Y-48848609D02*
X154803884Y-48800990D01*
X154803884Y-48800990D02*
X154899122Y-48753371D01*
X154899122Y-48753371D02*
X155137217Y-48753371D01*
X155137217Y-48753371D02*
X155232455Y-48800990D01*
X155232455Y-48800990D02*
X155280074Y-48848609D01*
X155280074Y-48848609D02*
X155327693Y-48943847D01*
X155327693Y-48943847D02*
X155327693Y-49181942D01*
X155327693Y-49181942D02*
X155280074Y-49277180D01*
X155280074Y-49277180D02*
X155232455Y-49324800D01*
X155232455Y-49324800D02*
X155137217Y-49372419D01*
X155137217Y-49372419D02*
X154899122Y-49372419D01*
X154899122Y-49372419D02*
X154803884Y-49324800D01*
X154803884Y-49324800D02*
X154756265Y-49277180D01*
X155613408Y-48372419D02*
X155946741Y-49372419D01*
X155946741Y-49372419D02*
X156280074Y-48372419D01*
X154803884Y-51348609D02*
X155137217Y-51348609D01*
X155280074Y-51872419D02*
X154803884Y-51872419D01*
X154803884Y-51872419D02*
X154803884Y-50872419D01*
X154803884Y-50872419D02*
X155280074Y-50872419D01*
X155708646Y-51872419D02*
X155708646Y-50872419D01*
X155708646Y-50872419D02*
X156280074Y-51872419D01*
X156280074Y-51872419D02*
X156280074Y-50872419D01*
X155137217Y-53848609D02*
X155280074Y-53896228D01*
X155280074Y-53896228D02*
X155327693Y-53943847D01*
X155327693Y-53943847D02*
X155375312Y-54039085D01*
X155375312Y-54039085D02*
X155375312Y-54181942D01*
X155375312Y-54181942D02*
X155327693Y-54277180D01*
X155327693Y-54277180D02*
X155280074Y-54324800D01*
X155280074Y-54324800D02*
X155184836Y-54372419D01*
X155184836Y-54372419D02*
X154803884Y-54372419D01*
X154803884Y-54372419D02*
X154803884Y-53372419D01*
X154803884Y-53372419D02*
X155137217Y-53372419D01*
X155137217Y-53372419D02*
X155232455Y-53420038D01*
X155232455Y-53420038D02*
X155280074Y-53467657D01*
X155280074Y-53467657D02*
X155327693Y-53562895D01*
X155327693Y-53562895D02*
X155327693Y-53658133D01*
X155327693Y-53658133D02*
X155280074Y-53753371D01*
X155280074Y-53753371D02*
X155232455Y-53800990D01*
X155232455Y-53800990D02*
X155137217Y-53848609D01*
X155137217Y-53848609D02*
X154803884Y-53848609D01*
X155994360Y-53372419D02*
X156184836Y-53372419D01*
X156184836Y-53372419D02*
X156280074Y-53420038D01*
X156280074Y-53420038D02*
X156375312Y-53515276D01*
X156375312Y-53515276D02*
X156422931Y-53705752D01*
X156422931Y-53705752D02*
X156422931Y-54039085D01*
X156422931Y-54039085D02*
X156375312Y-54229561D01*
X156375312Y-54229561D02*
X156280074Y-54324800D01*
X156280074Y-54324800D02*
X156184836Y-54372419D01*
X156184836Y-54372419D02*
X155994360Y-54372419D01*
X155994360Y-54372419D02*
X155899122Y-54324800D01*
X155899122Y-54324800D02*
X155803884Y-54229561D01*
X155803884Y-54229561D02*
X155756265Y-54039085D01*
X155756265Y-54039085D02*
X155756265Y-53705752D01*
X155756265Y-53705752D02*
X155803884Y-53515276D01*
X155803884Y-53515276D02*
X155899122Y-53420038D01*
X155899122Y-53420038D02*
X155994360Y-53372419D01*
X157041979Y-53372419D02*
X157232455Y-53372419D01*
X157232455Y-53372419D02*
X157327693Y-53420038D01*
X157327693Y-53420038D02*
X157422931Y-53515276D01*
X157422931Y-53515276D02*
X157470550Y-53705752D01*
X157470550Y-53705752D02*
X157470550Y-54039085D01*
X157470550Y-54039085D02*
X157422931Y-54229561D01*
X157422931Y-54229561D02*
X157327693Y-54324800D01*
X157327693Y-54324800D02*
X157232455Y-54372419D01*
X157232455Y-54372419D02*
X157041979Y-54372419D01*
X157041979Y-54372419D02*
X156946741Y-54324800D01*
X156946741Y-54324800D02*
X156851503Y-54229561D01*
X156851503Y-54229561D02*
X156803884Y-54039085D01*
X156803884Y-54039085D02*
X156803884Y-53705752D01*
X156803884Y-53705752D02*
X156851503Y-53515276D01*
X156851503Y-53515276D02*
X156946741Y-53420038D01*
X156946741Y-53420038D02*
X157041979Y-53372419D01*
X157756265Y-53372419D02*
X158327693Y-53372419D01*
X158041979Y-54372419D02*
X158041979Y-53372419D01*
X120872419Y-47172306D02*
X120872419Y-47743734D01*
X120872419Y-47458020D02*
X119872419Y-47458020D01*
X119872419Y-47458020D02*
X120015276Y-47553258D01*
X120015276Y-47553258D02*
X120110514Y-47648496D01*
X120110514Y-47648496D02*
X120158133Y-47743734D01*
X119872419Y-46553258D02*
X119872419Y-46458020D01*
X119872419Y-46458020D02*
X119920038Y-46362782D01*
X119920038Y-46362782D02*
X119967657Y-46315163D01*
X119967657Y-46315163D02*
X120062895Y-46267544D01*
X120062895Y-46267544D02*
X120253371Y-46219925D01*
X120253371Y-46219925D02*
X120491466Y-46219925D01*
X120491466Y-46219925D02*
X120681942Y-46267544D01*
X120681942Y-46267544D02*
X120777180Y-46315163D01*
X120777180Y-46315163D02*
X120824800Y-46362782D01*
X120824800Y-46362782D02*
X120872419Y-46458020D01*
X120872419Y-46458020D02*
X120872419Y-46553258D01*
X120872419Y-46553258D02*
X120824800Y-46648496D01*
X120824800Y-46648496D02*
X120777180Y-46696115D01*
X120777180Y-46696115D02*
X120681942Y-46743734D01*
X120681942Y-46743734D02*
X120491466Y-46791353D01*
X120491466Y-46791353D02*
X120253371Y-46791353D01*
X120253371Y-46791353D02*
X120062895Y-46743734D01*
X120062895Y-46743734D02*
X119967657Y-46696115D01*
X119967657Y-46696115D02*
X119920038Y-46648496D01*
X119920038Y-46648496D02*
X119872419Y-46553258D01*
X119872419Y-45600877D02*
X119872419Y-45505639D01*
X119872419Y-45505639D02*
X119920038Y-45410401D01*
X119920038Y-45410401D02*
X119967657Y-45362782D01*
X119967657Y-45362782D02*
X120062895Y-45315163D01*
X120062895Y-45315163D02*
X120253371Y-45267544D01*
X120253371Y-45267544D02*
X120491466Y-45267544D01*
X120491466Y-45267544D02*
X120681942Y-45315163D01*
X120681942Y-45315163D02*
X120777180Y-45362782D01*
X120777180Y-45362782D02*
X120824800Y-45410401D01*
X120824800Y-45410401D02*
X120872419Y-45505639D01*
X120872419Y-45505639D02*
X120872419Y-45600877D01*
X120872419Y-45600877D02*
X120824800Y-45696115D01*
X120824800Y-45696115D02*
X120777180Y-45743734D01*
X120777180Y-45743734D02*
X120681942Y-45791353D01*
X120681942Y-45791353D02*
X120491466Y-45838972D01*
X120491466Y-45838972D02*
X120253371Y-45838972D01*
X120253371Y-45838972D02*
X120062895Y-45791353D01*
X120062895Y-45791353D02*
X119967657Y-45743734D01*
X119967657Y-45743734D02*
X119920038Y-45696115D01*
X119920038Y-45696115D02*
X119872419Y-45600877D01*
X120205752Y-44838972D02*
X120872419Y-44838972D01*
X120300990Y-44838972D02*
X120253371Y-44791353D01*
X120253371Y-44791353D02*
X120205752Y-44696115D01*
X120205752Y-44696115D02*
X120205752Y-44553258D01*
X120205752Y-44553258D02*
X120253371Y-44458020D01*
X120253371Y-44458020D02*
X120348609Y-44410401D01*
X120348609Y-44410401D02*
X120872419Y-44410401D01*
X120348609Y-43600877D02*
X120348609Y-43934210D01*
X120872419Y-43934210D02*
X119872419Y-43934210D01*
X119872419Y-43934210D02*
X119872419Y-43458020D01*
X123872419Y-46672306D02*
X123872419Y-47243734D01*
X123872419Y-46958020D02*
X122872419Y-46958020D01*
X122872419Y-46958020D02*
X123015276Y-47053258D01*
X123015276Y-47053258D02*
X123110514Y-47148496D01*
X123110514Y-47148496D02*
X123158133Y-47243734D01*
X122872419Y-46053258D02*
X122872419Y-45958020D01*
X122872419Y-45958020D02*
X122920038Y-45862782D01*
X122920038Y-45862782D02*
X122967657Y-45815163D01*
X122967657Y-45815163D02*
X123062895Y-45767544D01*
X123062895Y-45767544D02*
X123253371Y-45719925D01*
X123253371Y-45719925D02*
X123491466Y-45719925D01*
X123491466Y-45719925D02*
X123681942Y-45767544D01*
X123681942Y-45767544D02*
X123777180Y-45815163D01*
X123777180Y-45815163D02*
X123824800Y-45862782D01*
X123824800Y-45862782D02*
X123872419Y-45958020D01*
X123872419Y-45958020D02*
X123872419Y-46053258D01*
X123872419Y-46053258D02*
X123824800Y-46148496D01*
X123824800Y-46148496D02*
X123777180Y-46196115D01*
X123777180Y-46196115D02*
X123681942Y-46243734D01*
X123681942Y-46243734D02*
X123491466Y-46291353D01*
X123491466Y-46291353D02*
X123253371Y-46291353D01*
X123253371Y-46291353D02*
X123062895Y-46243734D01*
X123062895Y-46243734D02*
X122967657Y-46196115D01*
X122967657Y-46196115D02*
X122920038Y-46148496D01*
X122920038Y-46148496D02*
X122872419Y-46053258D01*
X123205752Y-44862782D02*
X123872419Y-44862782D01*
X123205752Y-45291353D02*
X123729561Y-45291353D01*
X123729561Y-45291353D02*
X123824800Y-45243734D01*
X123824800Y-45243734D02*
X123872419Y-45148496D01*
X123872419Y-45148496D02*
X123872419Y-45005639D01*
X123872419Y-45005639D02*
X123824800Y-44910401D01*
X123824800Y-44910401D02*
X123777180Y-44862782D01*
X123348609Y-44053258D02*
X123348609Y-44386591D01*
X123872419Y-44386591D02*
X122872419Y-44386591D01*
X122872419Y-44386591D02*
X122872419Y-43910401D01*
X126872419Y-56172306D02*
X126872419Y-56743734D01*
X126872419Y-56458020D02*
X125872419Y-56458020D01*
X125872419Y-56458020D02*
X126015276Y-56553258D01*
X126015276Y-56553258D02*
X126110514Y-56648496D01*
X126110514Y-56648496D02*
X126158133Y-56743734D01*
X125872419Y-55553258D02*
X125872419Y-55458020D01*
X125872419Y-55458020D02*
X125920038Y-55362782D01*
X125920038Y-55362782D02*
X125967657Y-55315163D01*
X125967657Y-55315163D02*
X126062895Y-55267544D01*
X126062895Y-55267544D02*
X126253371Y-55219925D01*
X126253371Y-55219925D02*
X126491466Y-55219925D01*
X126491466Y-55219925D02*
X126681942Y-55267544D01*
X126681942Y-55267544D02*
X126777180Y-55315163D01*
X126777180Y-55315163D02*
X126824800Y-55362782D01*
X126824800Y-55362782D02*
X126872419Y-55458020D01*
X126872419Y-55458020D02*
X126872419Y-55553258D01*
X126872419Y-55553258D02*
X126824800Y-55648496D01*
X126824800Y-55648496D02*
X126777180Y-55696115D01*
X126777180Y-55696115D02*
X126681942Y-55743734D01*
X126681942Y-55743734D02*
X126491466Y-55791353D01*
X126491466Y-55791353D02*
X126253371Y-55791353D01*
X126253371Y-55791353D02*
X126062895Y-55743734D01*
X126062895Y-55743734D02*
X125967657Y-55696115D01*
X125967657Y-55696115D02*
X125920038Y-55648496D01*
X125920038Y-55648496D02*
X125872419Y-55553258D01*
X126872419Y-54791353D02*
X125872419Y-54791353D01*
X126872419Y-54219925D02*
X126300990Y-54648496D01*
X125872419Y-54219925D02*
X126443847Y-54791353D01*
X126872419Y-53838972D02*
X126872419Y-53600877D01*
X126872419Y-53600877D02*
X126681942Y-53600877D01*
X126681942Y-53600877D02*
X126634323Y-53696115D01*
X126634323Y-53696115D02*
X126539085Y-53791353D01*
X126539085Y-53791353D02*
X126396228Y-53838972D01*
X126396228Y-53838972D02*
X126158133Y-53838972D01*
X126158133Y-53838972D02*
X126015276Y-53791353D01*
X126015276Y-53791353D02*
X125920038Y-53696115D01*
X125920038Y-53696115D02*
X125872419Y-53553258D01*
X125872419Y-53553258D02*
X125872419Y-53362782D01*
X125872419Y-53362782D02*
X125920038Y-53219925D01*
X125920038Y-53219925D02*
X126015276Y-53124687D01*
X126015276Y-53124687D02*
X126158133Y-53077068D01*
X126158133Y-53077068D02*
X126396228Y-53077068D01*
X126396228Y-53077068D02*
X126539085Y-53124687D01*
X126539085Y-53124687D02*
X126634323Y-53219925D01*
X126634323Y-53219925D02*
X126681942Y-53315163D01*
X126681942Y-53315163D02*
X126872419Y-53315163D01*
X126872419Y-53315163D02*
X126872419Y-53077068D01*
X126872419Y-60172306D02*
X126872419Y-60743734D01*
X126872419Y-60458020D02*
X125872419Y-60458020D01*
X125872419Y-60458020D02*
X126015276Y-60553258D01*
X126015276Y-60553258D02*
X126110514Y-60648496D01*
X126110514Y-60648496D02*
X126158133Y-60743734D01*
X126872419Y-59743734D02*
X125872419Y-59743734D01*
X126872419Y-59172306D02*
X126300990Y-59600877D01*
X125872419Y-59172306D02*
X126443847Y-59743734D01*
X126872419Y-58791353D02*
X126872419Y-58553258D01*
X126872419Y-58553258D02*
X126681942Y-58553258D01*
X126681942Y-58553258D02*
X126634323Y-58648496D01*
X126634323Y-58648496D02*
X126539085Y-58743734D01*
X126539085Y-58743734D02*
X126396228Y-58791353D01*
X126396228Y-58791353D02*
X126158133Y-58791353D01*
X126158133Y-58791353D02*
X126015276Y-58743734D01*
X126015276Y-58743734D02*
X125920038Y-58648496D01*
X125920038Y-58648496D02*
X125872419Y-58505639D01*
X125872419Y-58505639D02*
X125872419Y-58315163D01*
X125872419Y-58315163D02*
X125920038Y-58172306D01*
X125920038Y-58172306D02*
X126015276Y-58077068D01*
X126015276Y-58077068D02*
X126158133Y-58029449D01*
X126158133Y-58029449D02*
X126396228Y-58029449D01*
X126396228Y-58029449D02*
X126539085Y-58077068D01*
X126539085Y-58077068D02*
X126634323Y-58172306D01*
X126634323Y-58172306D02*
X126681942Y-58267544D01*
X126681942Y-58267544D02*
X126872419Y-58267544D01*
X126872419Y-58267544D02*
X126872419Y-58029449D01*
X126872419Y-64672306D02*
X126872419Y-65243734D01*
X126872419Y-64958020D02*
X125872419Y-64958020D01*
X125872419Y-64958020D02*
X126015276Y-65053258D01*
X126015276Y-65053258D02*
X126110514Y-65148496D01*
X126110514Y-65148496D02*
X126158133Y-65243734D01*
X126872419Y-64243734D02*
X125872419Y-64243734D01*
X126872419Y-63672306D02*
X126300990Y-64100877D01*
X125872419Y-63672306D02*
X126443847Y-64243734D01*
X126872419Y-63291353D02*
X126872419Y-63053258D01*
X126872419Y-63053258D02*
X126681942Y-63053258D01*
X126681942Y-63053258D02*
X126634323Y-63148496D01*
X126634323Y-63148496D02*
X126539085Y-63243734D01*
X126539085Y-63243734D02*
X126396228Y-63291353D01*
X126396228Y-63291353D02*
X126158133Y-63291353D01*
X126158133Y-63291353D02*
X126015276Y-63243734D01*
X126015276Y-63243734D02*
X125920038Y-63148496D01*
X125920038Y-63148496D02*
X125872419Y-63005639D01*
X125872419Y-63005639D02*
X125872419Y-62815163D01*
X125872419Y-62815163D02*
X125920038Y-62672306D01*
X125920038Y-62672306D02*
X126015276Y-62577068D01*
X126015276Y-62577068D02*
X126158133Y-62529449D01*
X126158133Y-62529449D02*
X126396228Y-62529449D01*
X126396228Y-62529449D02*
X126539085Y-62577068D01*
X126539085Y-62577068D02*
X126634323Y-62672306D01*
X126634323Y-62672306D02*
X126681942Y-62767544D01*
X126681942Y-62767544D02*
X126872419Y-62767544D01*
X126872419Y-62767544D02*
X126872419Y-62529449D01*
X126872419Y-69172306D02*
X126872419Y-69743734D01*
X126872419Y-69458020D02*
X125872419Y-69458020D01*
X125872419Y-69458020D02*
X126015276Y-69553258D01*
X126015276Y-69553258D02*
X126110514Y-69648496D01*
X126110514Y-69648496D02*
X126158133Y-69743734D01*
X126872419Y-68743734D02*
X125872419Y-68743734D01*
X126872419Y-68172306D02*
X126300990Y-68600877D01*
X125872419Y-68172306D02*
X126443847Y-68743734D01*
X126872419Y-67791353D02*
X126872419Y-67553258D01*
X126872419Y-67553258D02*
X126681942Y-67553258D01*
X126681942Y-67553258D02*
X126634323Y-67648496D01*
X126634323Y-67648496D02*
X126539085Y-67743734D01*
X126539085Y-67743734D02*
X126396228Y-67791353D01*
X126396228Y-67791353D02*
X126158133Y-67791353D01*
X126158133Y-67791353D02*
X126015276Y-67743734D01*
X126015276Y-67743734D02*
X125920038Y-67648496D01*
X125920038Y-67648496D02*
X125872419Y-67505639D01*
X125872419Y-67505639D02*
X125872419Y-67315163D01*
X125872419Y-67315163D02*
X125920038Y-67172306D01*
X125920038Y-67172306D02*
X126015276Y-67077068D01*
X126015276Y-67077068D02*
X126158133Y-67029449D01*
X126158133Y-67029449D02*
X126396228Y-67029449D01*
X126396228Y-67029449D02*
X126539085Y-67077068D01*
X126539085Y-67077068D02*
X126634323Y-67172306D01*
X126634323Y-67172306D02*
X126681942Y-67267544D01*
X126681942Y-67267544D02*
X126872419Y-67267544D01*
X126872419Y-67267544D02*
X126872419Y-67029449D01*
X126872419Y-73172306D02*
X126872419Y-73743734D01*
X126872419Y-73458020D02*
X125872419Y-73458020D01*
X125872419Y-73458020D02*
X126015276Y-73553258D01*
X126015276Y-73553258D02*
X126110514Y-73648496D01*
X126110514Y-73648496D02*
X126158133Y-73743734D01*
X126872419Y-72743734D02*
X125872419Y-72743734D01*
X126872419Y-72172306D02*
X126300990Y-72600877D01*
X125872419Y-72172306D02*
X126443847Y-72743734D01*
X126872419Y-71791353D02*
X126872419Y-71553258D01*
X126872419Y-71553258D02*
X126681942Y-71553258D01*
X126681942Y-71553258D02*
X126634323Y-71648496D01*
X126634323Y-71648496D02*
X126539085Y-71743734D01*
X126539085Y-71743734D02*
X126396228Y-71791353D01*
X126396228Y-71791353D02*
X126158133Y-71791353D01*
X126158133Y-71791353D02*
X126015276Y-71743734D01*
X126015276Y-71743734D02*
X125920038Y-71648496D01*
X125920038Y-71648496D02*
X125872419Y-71505639D01*
X125872419Y-71505639D02*
X125872419Y-71315163D01*
X125872419Y-71315163D02*
X125920038Y-71172306D01*
X125920038Y-71172306D02*
X126015276Y-71077068D01*
X126015276Y-71077068D02*
X126158133Y-71029449D01*
X126158133Y-71029449D02*
X126396228Y-71029449D01*
X126396228Y-71029449D02*
X126539085Y-71077068D01*
X126539085Y-71077068D02*
X126634323Y-71172306D01*
X126634323Y-71172306D02*
X126681942Y-71267544D01*
X126681942Y-71267544D02*
X126872419Y-71267544D01*
X126872419Y-71267544D02*
X126872419Y-71029449D01*
X128872419Y-86672306D02*
X128872419Y-87243734D01*
X128872419Y-86958020D02*
X127872419Y-86958020D01*
X127872419Y-86958020D02*
X128015276Y-87053258D01*
X128015276Y-87053258D02*
X128110514Y-87148496D01*
X128110514Y-87148496D02*
X128158133Y-87243734D01*
X127872419Y-86053258D02*
X127872419Y-85958020D01*
X127872419Y-85958020D02*
X127920038Y-85862782D01*
X127920038Y-85862782D02*
X127967657Y-85815163D01*
X127967657Y-85815163D02*
X128062895Y-85767544D01*
X128062895Y-85767544D02*
X128253371Y-85719925D01*
X128253371Y-85719925D02*
X128491466Y-85719925D01*
X128491466Y-85719925D02*
X128681942Y-85767544D01*
X128681942Y-85767544D02*
X128777180Y-85815163D01*
X128777180Y-85815163D02*
X128824800Y-85862782D01*
X128824800Y-85862782D02*
X128872419Y-85958020D01*
X128872419Y-85958020D02*
X128872419Y-86053258D01*
X128872419Y-86053258D02*
X128824800Y-86148496D01*
X128824800Y-86148496D02*
X128777180Y-86196115D01*
X128777180Y-86196115D02*
X128681942Y-86243734D01*
X128681942Y-86243734D02*
X128491466Y-86291353D01*
X128491466Y-86291353D02*
X128253371Y-86291353D01*
X128253371Y-86291353D02*
X128062895Y-86243734D01*
X128062895Y-86243734D02*
X127967657Y-86196115D01*
X127967657Y-86196115D02*
X127920038Y-86148496D01*
X127920038Y-86148496D02*
X127872419Y-86053258D01*
X127872419Y-85100877D02*
X127872419Y-85005639D01*
X127872419Y-85005639D02*
X127920038Y-84910401D01*
X127920038Y-84910401D02*
X127967657Y-84862782D01*
X127967657Y-84862782D02*
X128062895Y-84815163D01*
X128062895Y-84815163D02*
X128253371Y-84767544D01*
X128253371Y-84767544D02*
X128491466Y-84767544D01*
X128491466Y-84767544D02*
X128681942Y-84815163D01*
X128681942Y-84815163D02*
X128777180Y-84862782D01*
X128777180Y-84862782D02*
X128824800Y-84910401D01*
X128824800Y-84910401D02*
X128872419Y-85005639D01*
X128872419Y-85005639D02*
X128872419Y-85100877D01*
X128872419Y-85100877D02*
X128824800Y-85196115D01*
X128824800Y-85196115D02*
X128777180Y-85243734D01*
X128777180Y-85243734D02*
X128681942Y-85291353D01*
X128681942Y-85291353D02*
X128491466Y-85338972D01*
X128491466Y-85338972D02*
X128253371Y-85338972D01*
X128253371Y-85338972D02*
X128062895Y-85291353D01*
X128062895Y-85291353D02*
X127967657Y-85243734D01*
X127967657Y-85243734D02*
X127920038Y-85196115D01*
X127920038Y-85196115D02*
X127872419Y-85100877D01*
X128872419Y-84338972D02*
X127872419Y-84338972D01*
X128872419Y-83767544D02*
X128300990Y-84196115D01*
X127872419Y-83767544D02*
X128443847Y-84338972D01*
X128872419Y-83386591D02*
X128872419Y-83148496D01*
X128872419Y-83148496D02*
X128681942Y-83148496D01*
X128681942Y-83148496D02*
X128634323Y-83243734D01*
X128634323Y-83243734D02*
X128539085Y-83338972D01*
X128539085Y-83338972D02*
X128396228Y-83386591D01*
X128396228Y-83386591D02*
X128158133Y-83386591D01*
X128158133Y-83386591D02*
X128015276Y-83338972D01*
X128015276Y-83338972D02*
X127920038Y-83243734D01*
X127920038Y-83243734D02*
X127872419Y-83100877D01*
X127872419Y-83100877D02*
X127872419Y-82910401D01*
X127872419Y-82910401D02*
X127920038Y-82767544D01*
X127920038Y-82767544D02*
X128015276Y-82672306D01*
X128015276Y-82672306D02*
X128158133Y-82624687D01*
X128158133Y-82624687D02*
X128396228Y-82624687D01*
X128396228Y-82624687D02*
X128539085Y-82672306D01*
X128539085Y-82672306D02*
X128634323Y-82767544D01*
X128634323Y-82767544D02*
X128681942Y-82862782D01*
X128681942Y-82862782D02*
X128872419Y-82862782D01*
X128872419Y-82862782D02*
X128872419Y-82624687D01*
X128872419Y-96172306D02*
X128872419Y-96743734D01*
X128872419Y-96458020D02*
X127872419Y-96458020D01*
X127872419Y-96458020D02*
X128015276Y-96553258D01*
X128015276Y-96553258D02*
X128110514Y-96648496D01*
X128110514Y-96648496D02*
X128158133Y-96743734D01*
X127872419Y-95553258D02*
X127872419Y-95458020D01*
X127872419Y-95458020D02*
X127920038Y-95362782D01*
X127920038Y-95362782D02*
X127967657Y-95315163D01*
X127967657Y-95315163D02*
X128062895Y-95267544D01*
X128062895Y-95267544D02*
X128253371Y-95219925D01*
X128253371Y-95219925D02*
X128491466Y-95219925D01*
X128491466Y-95219925D02*
X128681942Y-95267544D01*
X128681942Y-95267544D02*
X128777180Y-95315163D01*
X128777180Y-95315163D02*
X128824800Y-95362782D01*
X128824800Y-95362782D02*
X128872419Y-95458020D01*
X128872419Y-95458020D02*
X128872419Y-95553258D01*
X128872419Y-95553258D02*
X128824800Y-95648496D01*
X128824800Y-95648496D02*
X128777180Y-95696115D01*
X128777180Y-95696115D02*
X128681942Y-95743734D01*
X128681942Y-95743734D02*
X128491466Y-95791353D01*
X128491466Y-95791353D02*
X128253371Y-95791353D01*
X128253371Y-95791353D02*
X128062895Y-95743734D01*
X128062895Y-95743734D02*
X127967657Y-95696115D01*
X127967657Y-95696115D02*
X127920038Y-95648496D01*
X127920038Y-95648496D02*
X127872419Y-95553258D01*
X127872419Y-94600877D02*
X127872419Y-94505639D01*
X127872419Y-94505639D02*
X127920038Y-94410401D01*
X127920038Y-94410401D02*
X127967657Y-94362782D01*
X127967657Y-94362782D02*
X128062895Y-94315163D01*
X128062895Y-94315163D02*
X128253371Y-94267544D01*
X128253371Y-94267544D02*
X128491466Y-94267544D01*
X128491466Y-94267544D02*
X128681942Y-94315163D01*
X128681942Y-94315163D02*
X128777180Y-94362782D01*
X128777180Y-94362782D02*
X128824800Y-94410401D01*
X128824800Y-94410401D02*
X128872419Y-94505639D01*
X128872419Y-94505639D02*
X128872419Y-94600877D01*
X128872419Y-94600877D02*
X128824800Y-94696115D01*
X128824800Y-94696115D02*
X128777180Y-94743734D01*
X128777180Y-94743734D02*
X128681942Y-94791353D01*
X128681942Y-94791353D02*
X128491466Y-94838972D01*
X128491466Y-94838972D02*
X128253371Y-94838972D01*
X128253371Y-94838972D02*
X128062895Y-94791353D01*
X128062895Y-94791353D02*
X127967657Y-94743734D01*
X127967657Y-94743734D02*
X127920038Y-94696115D01*
X127920038Y-94696115D02*
X127872419Y-94600877D01*
X128872419Y-93838972D02*
X127872419Y-93838972D01*
X128872419Y-93267544D02*
X128300990Y-93696115D01*
X127872419Y-93267544D02*
X128443847Y-93838972D01*
X128872419Y-92886591D02*
X128872419Y-92648496D01*
X128872419Y-92648496D02*
X128681942Y-92648496D01*
X128681942Y-92648496D02*
X128634323Y-92743734D01*
X128634323Y-92743734D02*
X128539085Y-92838972D01*
X128539085Y-92838972D02*
X128396228Y-92886591D01*
X128396228Y-92886591D02*
X128158133Y-92886591D01*
X128158133Y-92886591D02*
X128015276Y-92838972D01*
X128015276Y-92838972D02*
X127920038Y-92743734D01*
X127920038Y-92743734D02*
X127872419Y-92600877D01*
X127872419Y-92600877D02*
X127872419Y-92410401D01*
X127872419Y-92410401D02*
X127920038Y-92267544D01*
X127920038Y-92267544D02*
X128015276Y-92172306D01*
X128015276Y-92172306D02*
X128158133Y-92124687D01*
X128158133Y-92124687D02*
X128396228Y-92124687D01*
X128396228Y-92124687D02*
X128539085Y-92172306D01*
X128539085Y-92172306D02*
X128634323Y-92267544D01*
X128634323Y-92267544D02*
X128681942Y-92362782D01*
X128681942Y-92362782D02*
X128872419Y-92362782D01*
X128872419Y-92362782D02*
X128872419Y-92124687D01*
X129872419Y-56172306D02*
X129872419Y-56743734D01*
X129872419Y-56458020D02*
X128872419Y-56458020D01*
X128872419Y-56458020D02*
X129015276Y-56553258D01*
X129015276Y-56553258D02*
X129110514Y-56648496D01*
X129110514Y-56648496D02*
X129158133Y-56743734D01*
X128872419Y-55553258D02*
X128872419Y-55458020D01*
X128872419Y-55458020D02*
X128920038Y-55362782D01*
X128920038Y-55362782D02*
X128967657Y-55315163D01*
X128967657Y-55315163D02*
X129062895Y-55267544D01*
X129062895Y-55267544D02*
X129253371Y-55219925D01*
X129253371Y-55219925D02*
X129491466Y-55219925D01*
X129491466Y-55219925D02*
X129681942Y-55267544D01*
X129681942Y-55267544D02*
X129777180Y-55315163D01*
X129777180Y-55315163D02*
X129824800Y-55362782D01*
X129824800Y-55362782D02*
X129872419Y-55458020D01*
X129872419Y-55458020D02*
X129872419Y-55553258D01*
X129872419Y-55553258D02*
X129824800Y-55648496D01*
X129824800Y-55648496D02*
X129777180Y-55696115D01*
X129777180Y-55696115D02*
X129681942Y-55743734D01*
X129681942Y-55743734D02*
X129491466Y-55791353D01*
X129491466Y-55791353D02*
X129253371Y-55791353D01*
X129253371Y-55791353D02*
X129062895Y-55743734D01*
X129062895Y-55743734D02*
X128967657Y-55696115D01*
X128967657Y-55696115D02*
X128920038Y-55648496D01*
X128920038Y-55648496D02*
X128872419Y-55553258D01*
X129872419Y-54791353D02*
X128872419Y-54791353D01*
X129872419Y-54219925D02*
X129300990Y-54648496D01*
X128872419Y-54219925D02*
X129443847Y-54791353D01*
X129872419Y-53838972D02*
X129872419Y-53600877D01*
X129872419Y-53600877D02*
X129681942Y-53600877D01*
X129681942Y-53600877D02*
X129634323Y-53696115D01*
X129634323Y-53696115D02*
X129539085Y-53791353D01*
X129539085Y-53791353D02*
X129396228Y-53838972D01*
X129396228Y-53838972D02*
X129158133Y-53838972D01*
X129158133Y-53838972D02*
X129015276Y-53791353D01*
X129015276Y-53791353D02*
X128920038Y-53696115D01*
X128920038Y-53696115D02*
X128872419Y-53553258D01*
X128872419Y-53553258D02*
X128872419Y-53362782D01*
X128872419Y-53362782D02*
X128920038Y-53219925D01*
X128920038Y-53219925D02*
X129015276Y-53124687D01*
X129015276Y-53124687D02*
X129158133Y-53077068D01*
X129158133Y-53077068D02*
X129396228Y-53077068D01*
X129396228Y-53077068D02*
X129539085Y-53124687D01*
X129539085Y-53124687D02*
X129634323Y-53219925D01*
X129634323Y-53219925D02*
X129681942Y-53315163D01*
X129681942Y-53315163D02*
X129872419Y-53315163D01*
X129872419Y-53315163D02*
X129872419Y-53077068D01*
X129205752Y-60767544D02*
X129872419Y-60767544D01*
X128824800Y-61005639D02*
X129539085Y-61243734D01*
X129539085Y-61243734D02*
X129539085Y-60624687D01*
X129777180Y-60243734D02*
X129824800Y-60196115D01*
X129824800Y-60196115D02*
X129872419Y-60243734D01*
X129872419Y-60243734D02*
X129824800Y-60291353D01*
X129824800Y-60291353D02*
X129777180Y-60243734D01*
X129777180Y-60243734D02*
X129872419Y-60243734D01*
X128872419Y-59862782D02*
X128872419Y-59196116D01*
X128872419Y-59196116D02*
X129872419Y-59624687D01*
X129205752Y-58815163D02*
X129872419Y-58815163D01*
X129300990Y-58815163D02*
X129253371Y-58767544D01*
X129253371Y-58767544D02*
X129205752Y-58672306D01*
X129205752Y-58672306D02*
X129205752Y-58529449D01*
X129205752Y-58529449D02*
X129253371Y-58434211D01*
X129253371Y-58434211D02*
X129348609Y-58386592D01*
X129348609Y-58386592D02*
X129872419Y-58386592D01*
X129348609Y-57577068D02*
X129348609Y-57910401D01*
X129872419Y-57910401D02*
X128872419Y-57910401D01*
X128872419Y-57910401D02*
X128872419Y-57434211D01*
X129205752Y-65267544D02*
X129872419Y-65267544D01*
X128824800Y-65505639D02*
X129539085Y-65743734D01*
X129539085Y-65743734D02*
X129539085Y-65124687D01*
X129777180Y-64743734D02*
X129824800Y-64696115D01*
X129824800Y-64696115D02*
X129872419Y-64743734D01*
X129872419Y-64743734D02*
X129824800Y-64791353D01*
X129824800Y-64791353D02*
X129777180Y-64743734D01*
X129777180Y-64743734D02*
X129872419Y-64743734D01*
X128872419Y-64362782D02*
X128872419Y-63696116D01*
X128872419Y-63696116D02*
X129872419Y-64124687D01*
X129205752Y-63315163D02*
X129872419Y-63315163D01*
X129300990Y-63315163D02*
X129253371Y-63267544D01*
X129253371Y-63267544D02*
X129205752Y-63172306D01*
X129205752Y-63172306D02*
X129205752Y-63029449D01*
X129205752Y-63029449D02*
X129253371Y-62934211D01*
X129253371Y-62934211D02*
X129348609Y-62886592D01*
X129348609Y-62886592D02*
X129872419Y-62886592D01*
X129348609Y-62077068D02*
X129348609Y-62410401D01*
X129872419Y-62410401D02*
X128872419Y-62410401D01*
X128872419Y-62410401D02*
X128872419Y-61934211D01*
X129205752Y-69767544D02*
X129872419Y-69767544D01*
X128824800Y-70005639D02*
X129539085Y-70243734D01*
X129539085Y-70243734D02*
X129539085Y-69624687D01*
X129777180Y-69243734D02*
X129824800Y-69196115D01*
X129824800Y-69196115D02*
X129872419Y-69243734D01*
X129872419Y-69243734D02*
X129824800Y-69291353D01*
X129824800Y-69291353D02*
X129777180Y-69243734D01*
X129777180Y-69243734D02*
X129872419Y-69243734D01*
X128872419Y-68862782D02*
X128872419Y-68196116D01*
X128872419Y-68196116D02*
X129872419Y-68624687D01*
X129205752Y-67815163D02*
X129872419Y-67815163D01*
X129300990Y-67815163D02*
X129253371Y-67767544D01*
X129253371Y-67767544D02*
X129205752Y-67672306D01*
X129205752Y-67672306D02*
X129205752Y-67529449D01*
X129205752Y-67529449D02*
X129253371Y-67434211D01*
X129253371Y-67434211D02*
X129348609Y-67386592D01*
X129348609Y-67386592D02*
X129872419Y-67386592D01*
X129348609Y-66577068D02*
X129348609Y-66910401D01*
X129872419Y-66910401D02*
X128872419Y-66910401D01*
X128872419Y-66910401D02*
X128872419Y-66434211D01*
X129205752Y-73767544D02*
X129872419Y-73767544D01*
X128824800Y-74005639D02*
X129539085Y-74243734D01*
X129539085Y-74243734D02*
X129539085Y-73624687D01*
X129777180Y-73243734D02*
X129824800Y-73196115D01*
X129824800Y-73196115D02*
X129872419Y-73243734D01*
X129872419Y-73243734D02*
X129824800Y-73291353D01*
X129824800Y-73291353D02*
X129777180Y-73243734D01*
X129777180Y-73243734D02*
X129872419Y-73243734D01*
X128872419Y-72862782D02*
X128872419Y-72196116D01*
X128872419Y-72196116D02*
X129872419Y-72624687D01*
X129205752Y-71815163D02*
X129872419Y-71815163D01*
X129300990Y-71815163D02*
X129253371Y-71767544D01*
X129253371Y-71767544D02*
X129205752Y-71672306D01*
X129205752Y-71672306D02*
X129205752Y-71529449D01*
X129205752Y-71529449D02*
X129253371Y-71434211D01*
X129253371Y-71434211D02*
X129348609Y-71386592D01*
X129348609Y-71386592D02*
X129872419Y-71386592D01*
X129348609Y-70577068D02*
X129348609Y-70910401D01*
X129872419Y-70910401D02*
X128872419Y-70910401D01*
X128872419Y-70910401D02*
X128872419Y-70434211D01*
X129467657Y-86243734D02*
X129420038Y-86196115D01*
X129420038Y-86196115D02*
X129372419Y-86100877D01*
X129372419Y-86100877D02*
X129372419Y-85862782D01*
X129372419Y-85862782D02*
X129420038Y-85767544D01*
X129420038Y-85767544D02*
X129467657Y-85719925D01*
X129467657Y-85719925D02*
X129562895Y-85672306D01*
X129562895Y-85672306D02*
X129658133Y-85672306D01*
X129658133Y-85672306D02*
X129800990Y-85719925D01*
X129800990Y-85719925D02*
X130372419Y-86291353D01*
X130372419Y-86291353D02*
X130372419Y-85672306D01*
X129372419Y-85053258D02*
X129372419Y-84958020D01*
X129372419Y-84958020D02*
X129420038Y-84862782D01*
X129420038Y-84862782D02*
X129467657Y-84815163D01*
X129467657Y-84815163D02*
X129562895Y-84767544D01*
X129562895Y-84767544D02*
X129753371Y-84719925D01*
X129753371Y-84719925D02*
X129991466Y-84719925D01*
X129991466Y-84719925D02*
X130181942Y-84767544D01*
X130181942Y-84767544D02*
X130277180Y-84815163D01*
X130277180Y-84815163D02*
X130324800Y-84862782D01*
X130324800Y-84862782D02*
X130372419Y-84958020D01*
X130372419Y-84958020D02*
X130372419Y-85053258D01*
X130372419Y-85053258D02*
X130324800Y-85148496D01*
X130324800Y-85148496D02*
X130277180Y-85196115D01*
X130277180Y-85196115D02*
X130181942Y-85243734D01*
X130181942Y-85243734D02*
X129991466Y-85291353D01*
X129991466Y-85291353D02*
X129753371Y-85291353D01*
X129753371Y-85291353D02*
X129562895Y-85243734D01*
X129562895Y-85243734D02*
X129467657Y-85196115D01*
X129467657Y-85196115D02*
X129420038Y-85148496D01*
X129420038Y-85148496D02*
X129372419Y-85053258D01*
X130372419Y-84291353D02*
X129372419Y-84291353D01*
X130372419Y-83719925D02*
X129800990Y-84148496D01*
X129372419Y-83719925D02*
X129943847Y-84291353D01*
X130372419Y-83338972D02*
X130372419Y-83100877D01*
X130372419Y-83100877D02*
X130181942Y-83100877D01*
X130181942Y-83100877D02*
X130134323Y-83196115D01*
X130134323Y-83196115D02*
X130039085Y-83291353D01*
X130039085Y-83291353D02*
X129896228Y-83338972D01*
X129896228Y-83338972D02*
X129658133Y-83338972D01*
X129658133Y-83338972D02*
X129515276Y-83291353D01*
X129515276Y-83291353D02*
X129420038Y-83196115D01*
X129420038Y-83196115D02*
X129372419Y-83053258D01*
X129372419Y-83053258D02*
X129372419Y-82862782D01*
X129372419Y-82862782D02*
X129420038Y-82719925D01*
X129420038Y-82719925D02*
X129515276Y-82624687D01*
X129515276Y-82624687D02*
X129658133Y-82577068D01*
X129658133Y-82577068D02*
X129896228Y-82577068D01*
X129896228Y-82577068D02*
X130039085Y-82624687D01*
X130039085Y-82624687D02*
X130134323Y-82719925D01*
X130134323Y-82719925D02*
X130181942Y-82815163D01*
X130181942Y-82815163D02*
X130372419Y-82815163D01*
X130372419Y-82815163D02*
X130372419Y-82577068D01*
X129467657Y-95743734D02*
X129420038Y-95696115D01*
X129420038Y-95696115D02*
X129372419Y-95600877D01*
X129372419Y-95600877D02*
X129372419Y-95362782D01*
X129372419Y-95362782D02*
X129420038Y-95267544D01*
X129420038Y-95267544D02*
X129467657Y-95219925D01*
X129467657Y-95219925D02*
X129562895Y-95172306D01*
X129562895Y-95172306D02*
X129658133Y-95172306D01*
X129658133Y-95172306D02*
X129800990Y-95219925D01*
X129800990Y-95219925D02*
X130372419Y-95791353D01*
X130372419Y-95791353D02*
X130372419Y-95172306D01*
X129372419Y-94553258D02*
X129372419Y-94458020D01*
X129372419Y-94458020D02*
X129420038Y-94362782D01*
X129420038Y-94362782D02*
X129467657Y-94315163D01*
X129467657Y-94315163D02*
X129562895Y-94267544D01*
X129562895Y-94267544D02*
X129753371Y-94219925D01*
X129753371Y-94219925D02*
X129991466Y-94219925D01*
X129991466Y-94219925D02*
X130181942Y-94267544D01*
X130181942Y-94267544D02*
X130277180Y-94315163D01*
X130277180Y-94315163D02*
X130324800Y-94362782D01*
X130324800Y-94362782D02*
X130372419Y-94458020D01*
X130372419Y-94458020D02*
X130372419Y-94553258D01*
X130372419Y-94553258D02*
X130324800Y-94648496D01*
X130324800Y-94648496D02*
X130277180Y-94696115D01*
X130277180Y-94696115D02*
X130181942Y-94743734D01*
X130181942Y-94743734D02*
X129991466Y-94791353D01*
X129991466Y-94791353D02*
X129753371Y-94791353D01*
X129753371Y-94791353D02*
X129562895Y-94743734D01*
X129562895Y-94743734D02*
X129467657Y-94696115D01*
X129467657Y-94696115D02*
X129420038Y-94648496D01*
X129420038Y-94648496D02*
X129372419Y-94553258D01*
X130372419Y-93791353D02*
X129372419Y-93791353D01*
X130372419Y-93219925D02*
X129800990Y-93648496D01*
X129372419Y-93219925D02*
X129943847Y-93791353D01*
X130372419Y-92838972D02*
X130372419Y-92600877D01*
X130372419Y-92600877D02*
X130181942Y-92600877D01*
X130181942Y-92600877D02*
X130134323Y-92696115D01*
X130134323Y-92696115D02*
X130039085Y-92791353D01*
X130039085Y-92791353D02*
X129896228Y-92838972D01*
X129896228Y-92838972D02*
X129658133Y-92838972D01*
X129658133Y-92838972D02*
X129515276Y-92791353D01*
X129515276Y-92791353D02*
X129420038Y-92696115D01*
X129420038Y-92696115D02*
X129372419Y-92553258D01*
X129372419Y-92553258D02*
X129372419Y-92362782D01*
X129372419Y-92362782D02*
X129420038Y-92219925D01*
X129420038Y-92219925D02*
X129515276Y-92124687D01*
X129515276Y-92124687D02*
X129658133Y-92077068D01*
X129658133Y-92077068D02*
X129896228Y-92077068D01*
X129896228Y-92077068D02*
X130039085Y-92124687D01*
X130039085Y-92124687D02*
X130134323Y-92219925D01*
X130134323Y-92219925D02*
X130181942Y-92315163D01*
X130181942Y-92315163D02*
X130372419Y-92315163D01*
X130372419Y-92315163D02*
X130372419Y-92077068D01*
X132872419Y-63172306D02*
X132872419Y-63743734D01*
X132872419Y-63458020D02*
X131872419Y-63458020D01*
X131872419Y-63458020D02*
X132015276Y-63553258D01*
X132015276Y-63553258D02*
X132110514Y-63648496D01*
X132110514Y-63648496D02*
X132158133Y-63743734D01*
X131872419Y-62553258D02*
X131872419Y-62458020D01*
X131872419Y-62458020D02*
X131920038Y-62362782D01*
X131920038Y-62362782D02*
X131967657Y-62315163D01*
X131967657Y-62315163D02*
X132062895Y-62267544D01*
X132062895Y-62267544D02*
X132253371Y-62219925D01*
X132253371Y-62219925D02*
X132491466Y-62219925D01*
X132491466Y-62219925D02*
X132681942Y-62267544D01*
X132681942Y-62267544D02*
X132777180Y-62315163D01*
X132777180Y-62315163D02*
X132824800Y-62362782D01*
X132824800Y-62362782D02*
X132872419Y-62458020D01*
X132872419Y-62458020D02*
X132872419Y-62553258D01*
X132872419Y-62553258D02*
X132824800Y-62648496D01*
X132824800Y-62648496D02*
X132777180Y-62696115D01*
X132777180Y-62696115D02*
X132681942Y-62743734D01*
X132681942Y-62743734D02*
X132491466Y-62791353D01*
X132491466Y-62791353D02*
X132253371Y-62791353D01*
X132253371Y-62791353D02*
X132062895Y-62743734D01*
X132062895Y-62743734D02*
X131967657Y-62696115D01*
X131967657Y-62696115D02*
X131920038Y-62648496D01*
X131920038Y-62648496D02*
X131872419Y-62553258D01*
X132205752Y-61362782D02*
X132872419Y-61362782D01*
X132205752Y-61791353D02*
X132729561Y-61791353D01*
X132729561Y-61791353D02*
X132824800Y-61743734D01*
X132824800Y-61743734D02*
X132872419Y-61648496D01*
X132872419Y-61648496D02*
X132872419Y-61505639D01*
X132872419Y-61505639D02*
X132824800Y-61410401D01*
X132824800Y-61410401D02*
X132777180Y-61362782D01*
X132348609Y-60553258D02*
X132348609Y-60886591D01*
X132872419Y-60886591D02*
X131872419Y-60886591D01*
X131872419Y-60886591D02*
X131872419Y-60410401D01*
X133372419Y-67172306D02*
X133372419Y-67743734D01*
X133372419Y-67458020D02*
X132372419Y-67458020D01*
X132372419Y-67458020D02*
X132515276Y-67553258D01*
X132515276Y-67553258D02*
X132610514Y-67648496D01*
X132610514Y-67648496D02*
X132658133Y-67743734D01*
X132372419Y-66553258D02*
X132372419Y-66458020D01*
X132372419Y-66458020D02*
X132420038Y-66362782D01*
X132420038Y-66362782D02*
X132467657Y-66315163D01*
X132467657Y-66315163D02*
X132562895Y-66267544D01*
X132562895Y-66267544D02*
X132753371Y-66219925D01*
X132753371Y-66219925D02*
X132991466Y-66219925D01*
X132991466Y-66219925D02*
X133181942Y-66267544D01*
X133181942Y-66267544D02*
X133277180Y-66315163D01*
X133277180Y-66315163D02*
X133324800Y-66362782D01*
X133324800Y-66362782D02*
X133372419Y-66458020D01*
X133372419Y-66458020D02*
X133372419Y-66553258D01*
X133372419Y-66553258D02*
X133324800Y-66648496D01*
X133324800Y-66648496D02*
X133277180Y-66696115D01*
X133277180Y-66696115D02*
X133181942Y-66743734D01*
X133181942Y-66743734D02*
X132991466Y-66791353D01*
X132991466Y-66791353D02*
X132753371Y-66791353D01*
X132753371Y-66791353D02*
X132562895Y-66743734D01*
X132562895Y-66743734D02*
X132467657Y-66696115D01*
X132467657Y-66696115D02*
X132420038Y-66648496D01*
X132420038Y-66648496D02*
X132372419Y-66553258D01*
X132705752Y-65362782D02*
X133372419Y-65362782D01*
X132705752Y-65791353D02*
X133229561Y-65791353D01*
X133229561Y-65791353D02*
X133324800Y-65743734D01*
X133324800Y-65743734D02*
X133372419Y-65648496D01*
X133372419Y-65648496D02*
X133372419Y-65505639D01*
X133372419Y-65505639D02*
X133324800Y-65410401D01*
X133324800Y-65410401D02*
X133277180Y-65362782D01*
X132848609Y-64553258D02*
X132848609Y-64886591D01*
X133372419Y-64886591D02*
X132372419Y-64886591D01*
X132372419Y-64886591D02*
X132372419Y-64410401D01*
X135872419Y-63172306D02*
X135872419Y-63743734D01*
X135872419Y-63458020D02*
X134872419Y-63458020D01*
X134872419Y-63458020D02*
X135015276Y-63553258D01*
X135015276Y-63553258D02*
X135110514Y-63648496D01*
X135110514Y-63648496D02*
X135158133Y-63743734D01*
X134872419Y-62553258D02*
X134872419Y-62458020D01*
X134872419Y-62458020D02*
X134920038Y-62362782D01*
X134920038Y-62362782D02*
X134967657Y-62315163D01*
X134967657Y-62315163D02*
X135062895Y-62267544D01*
X135062895Y-62267544D02*
X135253371Y-62219925D01*
X135253371Y-62219925D02*
X135491466Y-62219925D01*
X135491466Y-62219925D02*
X135681942Y-62267544D01*
X135681942Y-62267544D02*
X135777180Y-62315163D01*
X135777180Y-62315163D02*
X135824800Y-62362782D01*
X135824800Y-62362782D02*
X135872419Y-62458020D01*
X135872419Y-62458020D02*
X135872419Y-62553258D01*
X135872419Y-62553258D02*
X135824800Y-62648496D01*
X135824800Y-62648496D02*
X135777180Y-62696115D01*
X135777180Y-62696115D02*
X135681942Y-62743734D01*
X135681942Y-62743734D02*
X135491466Y-62791353D01*
X135491466Y-62791353D02*
X135253371Y-62791353D01*
X135253371Y-62791353D02*
X135062895Y-62743734D01*
X135062895Y-62743734D02*
X134967657Y-62696115D01*
X134967657Y-62696115D02*
X134920038Y-62648496D01*
X134920038Y-62648496D02*
X134872419Y-62553258D01*
X135205752Y-61362782D02*
X135872419Y-61362782D01*
X135205752Y-61791353D02*
X135729561Y-61791353D01*
X135729561Y-61791353D02*
X135824800Y-61743734D01*
X135824800Y-61743734D02*
X135872419Y-61648496D01*
X135872419Y-61648496D02*
X135872419Y-61505639D01*
X135872419Y-61505639D02*
X135824800Y-61410401D01*
X135824800Y-61410401D02*
X135777180Y-61362782D01*
X135348609Y-60553258D02*
X135348609Y-60886591D01*
X135872419Y-60886591D02*
X134872419Y-60886591D01*
X134872419Y-60886591D02*
X134872419Y-60410401D01*
X136372419Y-67172306D02*
X136372419Y-67743734D01*
X136372419Y-67458020D02*
X135372419Y-67458020D01*
X135372419Y-67458020D02*
X135515276Y-67553258D01*
X135515276Y-67553258D02*
X135610514Y-67648496D01*
X135610514Y-67648496D02*
X135658133Y-67743734D01*
X135705752Y-66315163D02*
X136372419Y-66315163D01*
X135705752Y-66743734D02*
X136229561Y-66743734D01*
X136229561Y-66743734D02*
X136324800Y-66696115D01*
X136324800Y-66696115D02*
X136372419Y-66600877D01*
X136372419Y-66600877D02*
X136372419Y-66458020D01*
X136372419Y-66458020D02*
X136324800Y-66362782D01*
X136324800Y-66362782D02*
X136277180Y-66315163D01*
X135848609Y-65505639D02*
X135848609Y-65838972D01*
X136372419Y-65838972D02*
X135372419Y-65838972D01*
X135372419Y-65838972D02*
X135372419Y-65362782D01*
X137205752Y-71767544D02*
X137872419Y-71767544D01*
X136824800Y-72005639D02*
X137539085Y-72243734D01*
X137539085Y-72243734D02*
X137539085Y-71624687D01*
X137777180Y-71243734D02*
X137824800Y-71196115D01*
X137824800Y-71196115D02*
X137872419Y-71243734D01*
X137872419Y-71243734D02*
X137824800Y-71291353D01*
X137824800Y-71291353D02*
X137777180Y-71243734D01*
X137777180Y-71243734D02*
X137872419Y-71243734D01*
X136872419Y-70862782D02*
X136872419Y-70196116D01*
X136872419Y-70196116D02*
X137872419Y-70624687D01*
X137205752Y-69386592D02*
X137872419Y-69386592D01*
X137205752Y-69815163D02*
X137729561Y-69815163D01*
X137729561Y-69815163D02*
X137824800Y-69767544D01*
X137824800Y-69767544D02*
X137872419Y-69672306D01*
X137872419Y-69672306D02*
X137872419Y-69529449D01*
X137872419Y-69529449D02*
X137824800Y-69434211D01*
X137824800Y-69434211D02*
X137777180Y-69386592D01*
X137348609Y-68577068D02*
X137348609Y-68910401D01*
X137872419Y-68910401D02*
X136872419Y-68910401D01*
X136872419Y-68910401D02*
X136872419Y-68434211D01*
X138372419Y-63172306D02*
X138372419Y-63743734D01*
X138372419Y-63458020D02*
X137372419Y-63458020D01*
X137372419Y-63458020D02*
X137515276Y-63553258D01*
X137515276Y-63553258D02*
X137610514Y-63648496D01*
X137610514Y-63648496D02*
X137658133Y-63743734D01*
X137705752Y-62315163D02*
X138372419Y-62315163D01*
X137705752Y-62743734D02*
X138229561Y-62743734D01*
X138229561Y-62743734D02*
X138324800Y-62696115D01*
X138324800Y-62696115D02*
X138372419Y-62600877D01*
X138372419Y-62600877D02*
X138372419Y-62458020D01*
X138372419Y-62458020D02*
X138324800Y-62362782D01*
X138324800Y-62362782D02*
X138277180Y-62315163D01*
X137848609Y-61505639D02*
X137848609Y-61838972D01*
X138372419Y-61838972D02*
X137372419Y-61838972D01*
X137372419Y-61838972D02*
X137372419Y-61362782D01*
X140372419Y-71672306D02*
X140372419Y-72243734D01*
X140372419Y-71958020D02*
X139372419Y-71958020D01*
X139372419Y-71958020D02*
X139515276Y-72053258D01*
X139515276Y-72053258D02*
X139610514Y-72148496D01*
X139610514Y-72148496D02*
X139658133Y-72243734D01*
X139705752Y-70815163D02*
X140372419Y-70815163D01*
X139705752Y-71243734D02*
X140229561Y-71243734D01*
X140229561Y-71243734D02*
X140324800Y-71196115D01*
X140324800Y-71196115D02*
X140372419Y-71100877D01*
X140372419Y-71100877D02*
X140372419Y-70958020D01*
X140372419Y-70958020D02*
X140324800Y-70862782D01*
X140324800Y-70862782D02*
X140277180Y-70815163D01*
X139848609Y-70005639D02*
X139848609Y-70338972D01*
X140372419Y-70338972D02*
X139372419Y-70338972D01*
X139372419Y-70338972D02*
X139372419Y-69862782D01*
X142872419Y-80672306D02*
X142872419Y-81243734D01*
X142872419Y-80958020D02*
X141872419Y-80958020D01*
X141872419Y-80958020D02*
X142015276Y-81053258D01*
X142015276Y-81053258D02*
X142110514Y-81148496D01*
X142110514Y-81148496D02*
X142158133Y-81243734D01*
X141872419Y-80053258D02*
X141872419Y-79958020D01*
X141872419Y-79958020D02*
X141920038Y-79862782D01*
X141920038Y-79862782D02*
X141967657Y-79815163D01*
X141967657Y-79815163D02*
X142062895Y-79767544D01*
X142062895Y-79767544D02*
X142253371Y-79719925D01*
X142253371Y-79719925D02*
X142491466Y-79719925D01*
X142491466Y-79719925D02*
X142681942Y-79767544D01*
X142681942Y-79767544D02*
X142777180Y-79815163D01*
X142777180Y-79815163D02*
X142824800Y-79862782D01*
X142824800Y-79862782D02*
X142872419Y-79958020D01*
X142872419Y-79958020D02*
X142872419Y-80053258D01*
X142872419Y-80053258D02*
X142824800Y-80148496D01*
X142824800Y-80148496D02*
X142777180Y-80196115D01*
X142777180Y-80196115D02*
X142681942Y-80243734D01*
X142681942Y-80243734D02*
X142491466Y-80291353D01*
X142491466Y-80291353D02*
X142253371Y-80291353D01*
X142253371Y-80291353D02*
X142062895Y-80243734D01*
X142062895Y-80243734D02*
X141967657Y-80196115D01*
X141967657Y-80196115D02*
X141920038Y-80148496D01*
X141920038Y-80148496D02*
X141872419Y-80053258D01*
X142872419Y-79291353D02*
X141872419Y-79291353D01*
X142872419Y-78719925D02*
X142300990Y-79148496D01*
X141872419Y-78719925D02*
X142443847Y-79291353D01*
X142872419Y-78338972D02*
X142872419Y-78100877D01*
X142872419Y-78100877D02*
X142681942Y-78100877D01*
X142681942Y-78100877D02*
X142634323Y-78196115D01*
X142634323Y-78196115D02*
X142539085Y-78291353D01*
X142539085Y-78291353D02*
X142396228Y-78338972D01*
X142396228Y-78338972D02*
X142158133Y-78338972D01*
X142158133Y-78338972D02*
X142015276Y-78291353D01*
X142015276Y-78291353D02*
X141920038Y-78196115D01*
X141920038Y-78196115D02*
X141872419Y-78053258D01*
X141872419Y-78053258D02*
X141872419Y-77862782D01*
X141872419Y-77862782D02*
X141920038Y-77719925D01*
X141920038Y-77719925D02*
X142015276Y-77624687D01*
X142015276Y-77624687D02*
X142158133Y-77577068D01*
X142158133Y-77577068D02*
X142396228Y-77577068D01*
X142396228Y-77577068D02*
X142539085Y-77624687D01*
X142539085Y-77624687D02*
X142634323Y-77719925D01*
X142634323Y-77719925D02*
X142681942Y-77815163D01*
X142681942Y-77815163D02*
X142872419Y-77815163D01*
X142872419Y-77815163D02*
X142872419Y-77577068D01*
X143372419Y-85719925D02*
X143372419Y-86196115D01*
X143372419Y-86196115D02*
X143848609Y-86243734D01*
X143848609Y-86243734D02*
X143800990Y-86196115D01*
X143800990Y-86196115D02*
X143753371Y-86100877D01*
X143753371Y-86100877D02*
X143753371Y-85862782D01*
X143753371Y-85862782D02*
X143800990Y-85767544D01*
X143800990Y-85767544D02*
X143848609Y-85719925D01*
X143848609Y-85719925D02*
X143943847Y-85672306D01*
X143943847Y-85672306D02*
X144181942Y-85672306D01*
X144181942Y-85672306D02*
X144277180Y-85719925D01*
X144277180Y-85719925D02*
X144324800Y-85767544D01*
X144324800Y-85767544D02*
X144372419Y-85862782D01*
X144372419Y-85862782D02*
X144372419Y-86100877D01*
X144372419Y-86100877D02*
X144324800Y-86196115D01*
X144324800Y-86196115D02*
X144277180Y-86243734D01*
X144277180Y-85243734D02*
X144324800Y-85196115D01*
X144324800Y-85196115D02*
X144372419Y-85243734D01*
X144372419Y-85243734D02*
X144324800Y-85291353D01*
X144324800Y-85291353D02*
X144277180Y-85243734D01*
X144277180Y-85243734D02*
X144372419Y-85243734D01*
X144372419Y-84243735D02*
X144372419Y-84815163D01*
X144372419Y-84529449D02*
X143372419Y-84529449D01*
X143372419Y-84529449D02*
X143515276Y-84624687D01*
X143515276Y-84624687D02*
X143610514Y-84719925D01*
X143610514Y-84719925D02*
X143658133Y-84815163D01*
X144372419Y-83815163D02*
X143372419Y-83815163D01*
X144372419Y-83243735D02*
X143800990Y-83672306D01*
X143372419Y-83243735D02*
X143943847Y-83815163D01*
X144372419Y-82862782D02*
X144372419Y-82624687D01*
X144372419Y-82624687D02*
X144181942Y-82624687D01*
X144181942Y-82624687D02*
X144134323Y-82719925D01*
X144134323Y-82719925D02*
X144039085Y-82815163D01*
X144039085Y-82815163D02*
X143896228Y-82862782D01*
X143896228Y-82862782D02*
X143658133Y-82862782D01*
X143658133Y-82862782D02*
X143515276Y-82815163D01*
X143515276Y-82815163D02*
X143420038Y-82719925D01*
X143420038Y-82719925D02*
X143372419Y-82577068D01*
X143372419Y-82577068D02*
X143372419Y-82386592D01*
X143372419Y-82386592D02*
X143420038Y-82243735D01*
X143420038Y-82243735D02*
X143515276Y-82148497D01*
X143515276Y-82148497D02*
X143658133Y-82100878D01*
X143658133Y-82100878D02*
X143896228Y-82100878D01*
X143896228Y-82100878D02*
X144039085Y-82148497D01*
X144039085Y-82148497D02*
X144134323Y-82243735D01*
X144134323Y-82243735D02*
X144181942Y-82338973D01*
X144181942Y-82338973D02*
X144372419Y-82338973D01*
X144372419Y-82338973D02*
X144372419Y-82100878D01*
X145872419Y-80172306D02*
X145872419Y-80743734D01*
X145872419Y-80458020D02*
X144872419Y-80458020D01*
X144872419Y-80458020D02*
X145015276Y-80553258D01*
X145015276Y-80553258D02*
X145110514Y-80648496D01*
X145110514Y-80648496D02*
X145158133Y-80743734D01*
X145205752Y-79315163D02*
X145872419Y-79315163D01*
X145205752Y-79743734D02*
X145729561Y-79743734D01*
X145729561Y-79743734D02*
X145824800Y-79696115D01*
X145824800Y-79696115D02*
X145872419Y-79600877D01*
X145872419Y-79600877D02*
X145872419Y-79458020D01*
X145872419Y-79458020D02*
X145824800Y-79362782D01*
X145824800Y-79362782D02*
X145777180Y-79315163D01*
X145348609Y-78505639D02*
X145348609Y-78838972D01*
X145872419Y-78838972D02*
X144872419Y-78838972D01*
X144872419Y-78838972D02*
X144872419Y-78362782D01*
X146372419Y-85719925D02*
X146372419Y-86196115D01*
X146372419Y-86196115D02*
X146848609Y-86243734D01*
X146848609Y-86243734D02*
X146800990Y-86196115D01*
X146800990Y-86196115D02*
X146753371Y-86100877D01*
X146753371Y-86100877D02*
X146753371Y-85862782D01*
X146753371Y-85862782D02*
X146800990Y-85767544D01*
X146800990Y-85767544D02*
X146848609Y-85719925D01*
X146848609Y-85719925D02*
X146943847Y-85672306D01*
X146943847Y-85672306D02*
X147181942Y-85672306D01*
X147181942Y-85672306D02*
X147277180Y-85719925D01*
X147277180Y-85719925D02*
X147324800Y-85767544D01*
X147324800Y-85767544D02*
X147372419Y-85862782D01*
X147372419Y-85862782D02*
X147372419Y-86100877D01*
X147372419Y-86100877D02*
X147324800Y-86196115D01*
X147324800Y-86196115D02*
X147277180Y-86243734D01*
X147277180Y-85243734D02*
X147324800Y-85196115D01*
X147324800Y-85196115D02*
X147372419Y-85243734D01*
X147372419Y-85243734D02*
X147324800Y-85291353D01*
X147324800Y-85291353D02*
X147277180Y-85243734D01*
X147277180Y-85243734D02*
X147372419Y-85243734D01*
X147372419Y-84243735D02*
X147372419Y-84815163D01*
X147372419Y-84529449D02*
X146372419Y-84529449D01*
X146372419Y-84529449D02*
X146515276Y-84624687D01*
X146515276Y-84624687D02*
X146610514Y-84719925D01*
X146610514Y-84719925D02*
X146658133Y-84815163D01*
X147372419Y-83815163D02*
X146372419Y-83815163D01*
X147372419Y-83243735D02*
X146800990Y-83672306D01*
X146372419Y-83243735D02*
X146943847Y-83815163D01*
X147372419Y-82862782D02*
X147372419Y-82624687D01*
X147372419Y-82624687D02*
X147181942Y-82624687D01*
X147181942Y-82624687D02*
X147134323Y-82719925D01*
X147134323Y-82719925D02*
X147039085Y-82815163D01*
X147039085Y-82815163D02*
X146896228Y-82862782D01*
X146896228Y-82862782D02*
X146658133Y-82862782D01*
X146658133Y-82862782D02*
X146515276Y-82815163D01*
X146515276Y-82815163D02*
X146420038Y-82719925D01*
X146420038Y-82719925D02*
X146372419Y-82577068D01*
X146372419Y-82577068D02*
X146372419Y-82386592D01*
X146372419Y-82386592D02*
X146420038Y-82243735D01*
X146420038Y-82243735D02*
X146515276Y-82148497D01*
X146515276Y-82148497D02*
X146658133Y-82100878D01*
X146658133Y-82100878D02*
X146896228Y-82100878D01*
X146896228Y-82100878D02*
X147039085Y-82148497D01*
X147039085Y-82148497D02*
X147134323Y-82243735D01*
X147134323Y-82243735D02*
X147181942Y-82338973D01*
X147181942Y-82338973D02*
X147372419Y-82338973D01*
X147372419Y-82338973D02*
X147372419Y-82100878D01*
X148372419Y-80172306D02*
X148372419Y-80743734D01*
X148372419Y-80458020D02*
X147372419Y-80458020D01*
X147372419Y-80458020D02*
X147515276Y-80553258D01*
X147515276Y-80553258D02*
X147610514Y-80648496D01*
X147610514Y-80648496D02*
X147658133Y-80743734D01*
X147372419Y-79553258D02*
X147372419Y-79458020D01*
X147372419Y-79458020D02*
X147420038Y-79362782D01*
X147420038Y-79362782D02*
X147467657Y-79315163D01*
X147467657Y-79315163D02*
X147562895Y-79267544D01*
X147562895Y-79267544D02*
X147753371Y-79219925D01*
X147753371Y-79219925D02*
X147991466Y-79219925D01*
X147991466Y-79219925D02*
X148181942Y-79267544D01*
X148181942Y-79267544D02*
X148277180Y-79315163D01*
X148277180Y-79315163D02*
X148324800Y-79362782D01*
X148324800Y-79362782D02*
X148372419Y-79458020D01*
X148372419Y-79458020D02*
X148372419Y-79553258D01*
X148372419Y-79553258D02*
X148324800Y-79648496D01*
X148324800Y-79648496D02*
X148277180Y-79696115D01*
X148277180Y-79696115D02*
X148181942Y-79743734D01*
X148181942Y-79743734D02*
X147991466Y-79791353D01*
X147991466Y-79791353D02*
X147753371Y-79791353D01*
X147753371Y-79791353D02*
X147562895Y-79743734D01*
X147562895Y-79743734D02*
X147467657Y-79696115D01*
X147467657Y-79696115D02*
X147420038Y-79648496D01*
X147420038Y-79648496D02*
X147372419Y-79553258D01*
X148372419Y-78791353D02*
X147372419Y-78791353D01*
X148372419Y-78219925D02*
X147800990Y-78648496D01*
X147372419Y-78219925D02*
X147943847Y-78791353D01*
X148372419Y-77838972D02*
X148372419Y-77600877D01*
X148372419Y-77600877D02*
X148181942Y-77600877D01*
X148181942Y-77600877D02*
X148134323Y-77696115D01*
X148134323Y-77696115D02*
X148039085Y-77791353D01*
X148039085Y-77791353D02*
X147896228Y-77838972D01*
X147896228Y-77838972D02*
X147658133Y-77838972D01*
X147658133Y-77838972D02*
X147515276Y-77791353D01*
X147515276Y-77791353D02*
X147420038Y-77696115D01*
X147420038Y-77696115D02*
X147372419Y-77553258D01*
X147372419Y-77553258D02*
X147372419Y-77362782D01*
X147372419Y-77362782D02*
X147420038Y-77219925D01*
X147420038Y-77219925D02*
X147515276Y-77124687D01*
X147515276Y-77124687D02*
X147658133Y-77077068D01*
X147658133Y-77077068D02*
X147896228Y-77077068D01*
X147896228Y-77077068D02*
X148039085Y-77124687D01*
X148039085Y-77124687D02*
X148134323Y-77219925D01*
X148134323Y-77219925D02*
X148181942Y-77315163D01*
X148181942Y-77315163D02*
X148372419Y-77315163D01*
X148372419Y-77315163D02*
X148372419Y-77077068D01*
X149372419Y-74172306D02*
X149372419Y-74743734D01*
X149372419Y-74458020D02*
X148372419Y-74458020D01*
X148372419Y-74458020D02*
X148515276Y-74553258D01*
X148515276Y-74553258D02*
X148610514Y-74648496D01*
X148610514Y-74648496D02*
X148658133Y-74743734D01*
X148705752Y-73315163D02*
X149372419Y-73315163D01*
X148705752Y-73743734D02*
X149229561Y-73743734D01*
X149229561Y-73743734D02*
X149324800Y-73696115D01*
X149324800Y-73696115D02*
X149372419Y-73600877D01*
X149372419Y-73600877D02*
X149372419Y-73458020D01*
X149372419Y-73458020D02*
X149324800Y-73362782D01*
X149324800Y-73362782D02*
X149277180Y-73315163D01*
X148848609Y-72505639D02*
X148848609Y-72838972D01*
X149372419Y-72838972D02*
X148372419Y-72838972D01*
X148372419Y-72838972D02*
X148372419Y-72362782D01*
X150372419Y-61172306D02*
X150372419Y-61743734D01*
X150372419Y-61458020D02*
X149372419Y-61458020D01*
X149372419Y-61458020D02*
X149515276Y-61553258D01*
X149515276Y-61553258D02*
X149610514Y-61648496D01*
X149610514Y-61648496D02*
X149658133Y-61743734D01*
X149372419Y-60553258D02*
X149372419Y-60458020D01*
X149372419Y-60458020D02*
X149420038Y-60362782D01*
X149420038Y-60362782D02*
X149467657Y-60315163D01*
X149467657Y-60315163D02*
X149562895Y-60267544D01*
X149562895Y-60267544D02*
X149753371Y-60219925D01*
X149753371Y-60219925D02*
X149991466Y-60219925D01*
X149991466Y-60219925D02*
X150181942Y-60267544D01*
X150181942Y-60267544D02*
X150277180Y-60315163D01*
X150277180Y-60315163D02*
X150324800Y-60362782D01*
X150324800Y-60362782D02*
X150372419Y-60458020D01*
X150372419Y-60458020D02*
X150372419Y-60553258D01*
X150372419Y-60553258D02*
X150324800Y-60648496D01*
X150324800Y-60648496D02*
X150277180Y-60696115D01*
X150277180Y-60696115D02*
X150181942Y-60743734D01*
X150181942Y-60743734D02*
X149991466Y-60791353D01*
X149991466Y-60791353D02*
X149753371Y-60791353D01*
X149753371Y-60791353D02*
X149562895Y-60743734D01*
X149562895Y-60743734D02*
X149467657Y-60696115D01*
X149467657Y-60696115D02*
X149420038Y-60648496D01*
X149420038Y-60648496D02*
X149372419Y-60553258D01*
X149705752Y-59362782D02*
X150372419Y-59362782D01*
X149705752Y-59791353D02*
X150229561Y-59791353D01*
X150229561Y-59791353D02*
X150324800Y-59743734D01*
X150324800Y-59743734D02*
X150372419Y-59648496D01*
X150372419Y-59648496D02*
X150372419Y-59505639D01*
X150372419Y-59505639D02*
X150324800Y-59410401D01*
X150324800Y-59410401D02*
X150277180Y-59362782D01*
X149848609Y-58553258D02*
X149848609Y-58886591D01*
X150372419Y-58886591D02*
X149372419Y-58886591D01*
X149372419Y-58886591D02*
X149372419Y-58410401D01*
X154705752Y-60541979D02*
X155372419Y-60541979D01*
X154324800Y-60780074D02*
X155039085Y-61018169D01*
X155039085Y-61018169D02*
X155039085Y-60399122D01*
X155277180Y-60018169D02*
X155324800Y-59970550D01*
X155324800Y-59970550D02*
X155372419Y-60018169D01*
X155372419Y-60018169D02*
X155324800Y-60065788D01*
X155324800Y-60065788D02*
X155277180Y-60018169D01*
X155277180Y-60018169D02*
X155372419Y-60018169D01*
X154372419Y-59637217D02*
X154372419Y-58970551D01*
X154372419Y-58970551D02*
X155372419Y-59399122D01*
X154705752Y-58589598D02*
X155372419Y-58589598D01*
X154800990Y-58589598D02*
X154753371Y-58541979D01*
X154753371Y-58541979D02*
X154705752Y-58446741D01*
X154705752Y-58446741D02*
X154705752Y-58303884D01*
X154705752Y-58303884D02*
X154753371Y-58208646D01*
X154753371Y-58208646D02*
X154848609Y-58161027D01*
X154848609Y-58161027D02*
X155372419Y-58161027D01*
X154848609Y-57351503D02*
X154848609Y-57684836D01*
X155372419Y-57684836D02*
X154372419Y-57684836D01*
X154372419Y-57684836D02*
X154372419Y-57208646D01*
X154705752Y-65041979D02*
X155372419Y-65041979D01*
X154324800Y-65280074D02*
X155039085Y-65518169D01*
X155039085Y-65518169D02*
X155039085Y-64899122D01*
X155277180Y-64518169D02*
X155324800Y-64470550D01*
X155324800Y-64470550D02*
X155372419Y-64518169D01*
X155372419Y-64518169D02*
X155324800Y-64565788D01*
X155324800Y-64565788D02*
X155277180Y-64518169D01*
X155277180Y-64518169D02*
X155372419Y-64518169D01*
X154372419Y-64137217D02*
X154372419Y-63470551D01*
X154372419Y-63470551D02*
X155372419Y-63899122D01*
X154705752Y-63089598D02*
X155372419Y-63089598D01*
X154800990Y-63089598D02*
X154753371Y-63041979D01*
X154753371Y-63041979D02*
X154705752Y-62946741D01*
X154705752Y-62946741D02*
X154705752Y-62803884D01*
X154705752Y-62803884D02*
X154753371Y-62708646D01*
X154753371Y-62708646D02*
X154848609Y-62661027D01*
X154848609Y-62661027D02*
X155372419Y-62661027D01*
X154848609Y-61851503D02*
X154848609Y-62184836D01*
X155372419Y-62184836D02*
X154372419Y-62184836D01*
X154372419Y-62184836D02*
X154372419Y-61708646D01*
X154705752Y-69041979D02*
X155372419Y-69041979D01*
X154324800Y-69280074D02*
X155039085Y-69518169D01*
X155039085Y-69518169D02*
X155039085Y-68899122D01*
X155277180Y-68518169D02*
X155324800Y-68470550D01*
X155324800Y-68470550D02*
X155372419Y-68518169D01*
X155372419Y-68518169D02*
X155324800Y-68565788D01*
X155324800Y-68565788D02*
X155277180Y-68518169D01*
X155277180Y-68518169D02*
X155372419Y-68518169D01*
X154372419Y-68137217D02*
X154372419Y-67470551D01*
X154372419Y-67470551D02*
X155372419Y-67899122D01*
X154705752Y-67089598D02*
X155372419Y-67089598D01*
X154800990Y-67089598D02*
X154753371Y-67041979D01*
X154753371Y-67041979D02*
X154705752Y-66946741D01*
X154705752Y-66946741D02*
X154705752Y-66803884D01*
X154705752Y-66803884D02*
X154753371Y-66708646D01*
X154753371Y-66708646D02*
X154848609Y-66661027D01*
X154848609Y-66661027D02*
X155372419Y-66661027D01*
X154848609Y-65851503D02*
X154848609Y-66184836D01*
X155372419Y-66184836D02*
X154372419Y-66184836D01*
X154372419Y-66184836D02*
X154372419Y-65708646D01*
X154705752Y-73041979D02*
X155372419Y-73041979D01*
X154324800Y-73280074D02*
X155039085Y-73518169D01*
X155039085Y-73518169D02*
X155039085Y-72899122D01*
X155277180Y-72518169D02*
X155324800Y-72470550D01*
X155324800Y-72470550D02*
X155372419Y-72518169D01*
X155372419Y-72518169D02*
X155324800Y-72565788D01*
X155324800Y-72565788D02*
X155277180Y-72518169D01*
X155277180Y-72518169D02*
X155372419Y-72518169D01*
X154372419Y-72137217D02*
X154372419Y-71470551D01*
X154372419Y-71470551D02*
X155372419Y-71899122D01*
X154705752Y-71089598D02*
X155372419Y-71089598D01*
X154800990Y-71089598D02*
X154753371Y-71041979D01*
X154753371Y-71041979D02*
X154705752Y-70946741D01*
X154705752Y-70946741D02*
X154705752Y-70803884D01*
X154705752Y-70803884D02*
X154753371Y-70708646D01*
X154753371Y-70708646D02*
X154848609Y-70661027D01*
X154848609Y-70661027D02*
X155372419Y-70661027D01*
X154848609Y-69851503D02*
X154848609Y-70184836D01*
X155372419Y-70184836D02*
X154372419Y-70184836D01*
X154372419Y-70184836D02*
X154372419Y-69708646D01*
X158372419Y-60399122D02*
X158372419Y-60970550D01*
X158372419Y-60684836D02*
X157372419Y-60684836D01*
X157372419Y-60684836D02*
X157515276Y-60780074D01*
X157515276Y-60780074D02*
X157610514Y-60875312D01*
X157610514Y-60875312D02*
X157658133Y-60970550D01*
X158372419Y-59970550D02*
X157372419Y-59970550D01*
X158372419Y-59399122D02*
X157800990Y-59827693D01*
X157372419Y-59399122D02*
X157943847Y-59970550D01*
X158372419Y-59018169D02*
X158372419Y-58780074D01*
X158372419Y-58780074D02*
X158181942Y-58780074D01*
X158181942Y-58780074D02*
X158134323Y-58875312D01*
X158134323Y-58875312D02*
X158039085Y-58970550D01*
X158039085Y-58970550D02*
X157896228Y-59018169D01*
X157896228Y-59018169D02*
X157658133Y-59018169D01*
X157658133Y-59018169D02*
X157515276Y-58970550D01*
X157515276Y-58970550D02*
X157420038Y-58875312D01*
X157420038Y-58875312D02*
X157372419Y-58732455D01*
X157372419Y-58732455D02*
X157372419Y-58541979D01*
X157372419Y-58541979D02*
X157420038Y-58399122D01*
X157420038Y-58399122D02*
X157515276Y-58303884D01*
X157515276Y-58303884D02*
X157658133Y-58256265D01*
X157658133Y-58256265D02*
X157896228Y-58256265D01*
X157896228Y-58256265D02*
X158039085Y-58303884D01*
X158039085Y-58303884D02*
X158134323Y-58399122D01*
X158134323Y-58399122D02*
X158181942Y-58494360D01*
X158181942Y-58494360D02*
X158372419Y-58494360D01*
X158372419Y-58494360D02*
X158372419Y-58256265D01*
X158372419Y-63899122D02*
X158372419Y-64470550D01*
X158372419Y-64184836D02*
X157372419Y-64184836D01*
X157372419Y-64184836D02*
X157515276Y-64280074D01*
X157515276Y-64280074D02*
X157610514Y-64375312D01*
X157610514Y-64375312D02*
X157658133Y-64470550D01*
X158372419Y-63470550D02*
X157372419Y-63470550D01*
X158372419Y-62899122D02*
X157800990Y-63327693D01*
X157372419Y-62899122D02*
X157943847Y-63470550D01*
X158372419Y-62518169D02*
X158372419Y-62280074D01*
X158372419Y-62280074D02*
X158181942Y-62280074D01*
X158181942Y-62280074D02*
X158134323Y-62375312D01*
X158134323Y-62375312D02*
X158039085Y-62470550D01*
X158039085Y-62470550D02*
X157896228Y-62518169D01*
X157896228Y-62518169D02*
X157658133Y-62518169D01*
X157658133Y-62518169D02*
X157515276Y-62470550D01*
X157515276Y-62470550D02*
X157420038Y-62375312D01*
X157420038Y-62375312D02*
X157372419Y-62232455D01*
X157372419Y-62232455D02*
X157372419Y-62041979D01*
X157372419Y-62041979D02*
X157420038Y-61899122D01*
X157420038Y-61899122D02*
X157515276Y-61803884D01*
X157515276Y-61803884D02*
X157658133Y-61756265D01*
X157658133Y-61756265D02*
X157896228Y-61756265D01*
X157896228Y-61756265D02*
X158039085Y-61803884D01*
X158039085Y-61803884D02*
X158134323Y-61899122D01*
X158134323Y-61899122D02*
X158181942Y-61994360D01*
X158181942Y-61994360D02*
X158372419Y-61994360D01*
X158372419Y-61994360D02*
X158372419Y-61756265D01*
X158372419Y-68399122D02*
X158372419Y-68970550D01*
X158372419Y-68684836D02*
X157372419Y-68684836D01*
X157372419Y-68684836D02*
X157515276Y-68780074D01*
X157515276Y-68780074D02*
X157610514Y-68875312D01*
X157610514Y-68875312D02*
X157658133Y-68970550D01*
X158372419Y-67970550D02*
X157372419Y-67970550D01*
X158372419Y-67399122D02*
X157800990Y-67827693D01*
X157372419Y-67399122D02*
X157943847Y-67970550D01*
X158372419Y-67018169D02*
X158372419Y-66780074D01*
X158372419Y-66780074D02*
X158181942Y-66780074D01*
X158181942Y-66780074D02*
X158134323Y-66875312D01*
X158134323Y-66875312D02*
X158039085Y-66970550D01*
X158039085Y-66970550D02*
X157896228Y-67018169D01*
X157896228Y-67018169D02*
X157658133Y-67018169D01*
X157658133Y-67018169D02*
X157515276Y-66970550D01*
X157515276Y-66970550D02*
X157420038Y-66875312D01*
X157420038Y-66875312D02*
X157372419Y-66732455D01*
X157372419Y-66732455D02*
X157372419Y-66541979D01*
X157372419Y-66541979D02*
X157420038Y-66399122D01*
X157420038Y-66399122D02*
X157515276Y-66303884D01*
X157515276Y-66303884D02*
X157658133Y-66256265D01*
X157658133Y-66256265D02*
X157896228Y-66256265D01*
X157896228Y-66256265D02*
X158039085Y-66303884D01*
X158039085Y-66303884D02*
X158134323Y-66399122D01*
X158134323Y-66399122D02*
X158181942Y-66494360D01*
X158181942Y-66494360D02*
X158372419Y-66494360D01*
X158372419Y-66494360D02*
X158372419Y-66256265D01*
X158372419Y-71899122D02*
X158372419Y-72470550D01*
X158372419Y-72184836D02*
X157372419Y-72184836D01*
X157372419Y-72184836D02*
X157515276Y-72280074D01*
X157515276Y-72280074D02*
X157610514Y-72375312D01*
X157610514Y-72375312D02*
X157658133Y-72470550D01*
X158372419Y-71470550D02*
X157372419Y-71470550D01*
X158372419Y-70899122D02*
X157800990Y-71327693D01*
X157372419Y-70899122D02*
X157943847Y-71470550D01*
X158372419Y-70518169D02*
X158372419Y-70280074D01*
X158372419Y-70280074D02*
X158181942Y-70280074D01*
X158181942Y-70280074D02*
X158134323Y-70375312D01*
X158134323Y-70375312D02*
X158039085Y-70470550D01*
X158039085Y-70470550D02*
X157896228Y-70518169D01*
X157896228Y-70518169D02*
X157658133Y-70518169D01*
X157658133Y-70518169D02*
X157515276Y-70470550D01*
X157515276Y-70470550D02*
X157420038Y-70375312D01*
X157420038Y-70375312D02*
X157372419Y-70232455D01*
X157372419Y-70232455D02*
X157372419Y-70041979D01*
X157372419Y-70041979D02*
X157420038Y-69899122D01*
X157420038Y-69899122D02*
X157515276Y-69803884D01*
X157515276Y-69803884D02*
X157658133Y-69756265D01*
X157658133Y-69756265D02*
X157896228Y-69756265D01*
X157896228Y-69756265D02*
X158039085Y-69803884D01*
X158039085Y-69803884D02*
X158134323Y-69899122D01*
X158134323Y-69899122D02*
X158181942Y-69994360D01*
X158181942Y-69994360D02*
X158372419Y-69994360D01*
X158372419Y-69994360D02*
X158372419Y-69756265D01*
D11*
X132241541Y-73369819D02*
X132860588Y-73369819D01*
X132860588Y-73369819D02*
X132527255Y-73750771D01*
X132527255Y-73750771D02*
X132670112Y-73750771D01*
X132670112Y-73750771D02*
X132765350Y-73798390D01*
X132765350Y-73798390D02*
X132812969Y-73846009D01*
X132812969Y-73846009D02*
X132860588Y-73941247D01*
X132860588Y-73941247D02*
X132860588Y-74179342D01*
X132860588Y-74179342D02*
X132812969Y-74274580D01*
X132812969Y-74274580D02*
X132765350Y-74322200D01*
X132765350Y-74322200D02*
X132670112Y-74369819D01*
X132670112Y-74369819D02*
X132384398Y-74369819D01*
X132384398Y-74369819D02*
X132289160Y-74322200D01*
X132289160Y-74322200D02*
X132241541Y-74274580D01*
X133289160Y-74274580D02*
X133336779Y-74322200D01*
X133336779Y-74322200D02*
X133289160Y-74369819D01*
X133289160Y-74369819D02*
X133241541Y-74322200D01*
X133241541Y-74322200D02*
X133289160Y-74274580D01*
X133289160Y-74274580D02*
X133289160Y-74369819D01*
X133670112Y-73369819D02*
X134289159Y-73369819D01*
X134289159Y-73369819D02*
X133955826Y-73750771D01*
X133955826Y-73750771D02*
X134098683Y-73750771D01*
X134098683Y-73750771D02*
X134193921Y-73798390D01*
X134193921Y-73798390D02*
X134241540Y-73846009D01*
X134241540Y-73846009D02*
X134289159Y-73941247D01*
X134289159Y-73941247D02*
X134289159Y-74179342D01*
X134289159Y-74179342D02*
X134241540Y-74274580D01*
X134241540Y-74274580D02*
X134193921Y-74322200D01*
X134193921Y-74322200D02*
X134098683Y-74369819D01*
X134098683Y-74369819D02*
X133812969Y-74369819D01*
X133812969Y-74369819D02*
X133717731Y-74322200D01*
X133717731Y-74322200D02*
X133670112Y-74274580D01*
X134574874Y-73369819D02*
X134908207Y-74369819D01*
X134908207Y-74369819D02*
X135241540Y-73369819D01*
X132860588Y-75917438D02*
X132765350Y-75869819D01*
X132765350Y-75869819D02*
X132622493Y-75869819D01*
X132622493Y-75869819D02*
X132479636Y-75917438D01*
X132479636Y-75917438D02*
X132384398Y-76012676D01*
X132384398Y-76012676D02*
X132336779Y-76107914D01*
X132336779Y-76107914D02*
X132289160Y-76298390D01*
X132289160Y-76298390D02*
X132289160Y-76441247D01*
X132289160Y-76441247D02*
X132336779Y-76631723D01*
X132336779Y-76631723D02*
X132384398Y-76726961D01*
X132384398Y-76726961D02*
X132479636Y-76822200D01*
X132479636Y-76822200D02*
X132622493Y-76869819D01*
X132622493Y-76869819D02*
X132717731Y-76869819D01*
X132717731Y-76869819D02*
X132860588Y-76822200D01*
X132860588Y-76822200D02*
X132908207Y-76774580D01*
X132908207Y-76774580D02*
X132908207Y-76441247D01*
X132908207Y-76441247D02*
X132717731Y-76441247D01*
X133336779Y-76869819D02*
X133336779Y-75869819D01*
X133336779Y-75869819D02*
X133908207Y-76869819D01*
X133908207Y-76869819D02*
X133908207Y-75869819D01*
X134384398Y-76869819D02*
X134384398Y-75869819D01*
X134384398Y-75869819D02*
X134622493Y-75869819D01*
X134622493Y-75869819D02*
X134765350Y-75917438D01*
X134765350Y-75917438D02*
X134860588Y-76012676D01*
X134860588Y-76012676D02*
X134908207Y-76107914D01*
X134908207Y-76107914D02*
X134955826Y-76298390D01*
X134955826Y-76298390D02*
X134955826Y-76441247D01*
X134955826Y-76441247D02*
X134908207Y-76631723D01*
X134908207Y-76631723D02*
X134860588Y-76726961D01*
X134860588Y-76726961D02*
X134765350Y-76822200D01*
X134765350Y-76822200D02*
X134622493Y-76869819D01*
X134622493Y-76869819D02*
X134384398Y-76869819D01*
X153860588Y-75917438D02*
X153765350Y-75869819D01*
X153765350Y-75869819D02*
X153622493Y-75869819D01*
X153622493Y-75869819D02*
X153479636Y-75917438D01*
X153479636Y-75917438D02*
X153384398Y-76012676D01*
X153384398Y-76012676D02*
X153336779Y-76107914D01*
X153336779Y-76107914D02*
X153289160Y-76298390D01*
X153289160Y-76298390D02*
X153289160Y-76441247D01*
X153289160Y-76441247D02*
X153336779Y-76631723D01*
X153336779Y-76631723D02*
X153384398Y-76726961D01*
X153384398Y-76726961D02*
X153479636Y-76822200D01*
X153479636Y-76822200D02*
X153622493Y-76869819D01*
X153622493Y-76869819D02*
X153717731Y-76869819D01*
X153717731Y-76869819D02*
X153860588Y-76822200D01*
X153860588Y-76822200D02*
X153908207Y-76774580D01*
X153908207Y-76774580D02*
X153908207Y-76441247D01*
X153908207Y-76441247D02*
X153717731Y-76441247D01*
X154336779Y-76869819D02*
X154336779Y-75869819D01*
X154336779Y-75869819D02*
X154908207Y-76869819D01*
X154908207Y-76869819D02*
X154908207Y-75869819D01*
X155384398Y-76869819D02*
X155384398Y-75869819D01*
X155384398Y-75869819D02*
X155622493Y-75869819D01*
X155622493Y-75869819D02*
X155765350Y-75917438D01*
X155765350Y-75917438D02*
X155860588Y-76012676D01*
X155860588Y-76012676D02*
X155908207Y-76107914D01*
X155908207Y-76107914D02*
X155955826Y-76298390D01*
X155955826Y-76298390D02*
X155955826Y-76441247D01*
X155955826Y-76441247D02*
X155908207Y-76631723D01*
X155908207Y-76631723D02*
X155860588Y-76726961D01*
X155860588Y-76726961D02*
X155765350Y-76822200D01*
X155765350Y-76822200D02*
X155622493Y-76869819D01*
X155622493Y-76869819D02*
X155384398Y-76869819D01*
D12*
X158322054Y-45819600D02*
X158464911Y-45867219D01*
X158464911Y-45867219D02*
X158703006Y-45867219D01*
X158703006Y-45867219D02*
X158798244Y-45819600D01*
X158798244Y-45819600D02*
X158845863Y-45771980D01*
X158845863Y-45771980D02*
X158893482Y-45676742D01*
X158893482Y-45676742D02*
X158893482Y-45581504D01*
X158893482Y-45581504D02*
X158845863Y-45486266D01*
X158845863Y-45486266D02*
X158798244Y-45438647D01*
X158798244Y-45438647D02*
X158703006Y-45391028D01*
X158703006Y-45391028D02*
X158512530Y-45343409D01*
X158512530Y-45343409D02*
X158417292Y-45295790D01*
X158417292Y-45295790D02*
X158369673Y-45248171D01*
X158369673Y-45248171D02*
X158322054Y-45152933D01*
X158322054Y-45152933D02*
X158322054Y-45057695D01*
X158322054Y-45057695D02*
X158369673Y-44962457D01*
X158369673Y-44962457D02*
X158417292Y-44914838D01*
X158417292Y-44914838D02*
X158512530Y-44867219D01*
X158512530Y-44867219D02*
X158750625Y-44867219D01*
X158750625Y-44867219D02*
X158893482Y-44914838D01*
X159464911Y-45867219D02*
X159369673Y-45819600D01*
X159369673Y-45819600D02*
X159322054Y-45771980D01*
X159322054Y-45771980D02*
X159274435Y-45676742D01*
X159274435Y-45676742D02*
X159274435Y-45391028D01*
X159274435Y-45391028D02*
X159322054Y-45295790D01*
X159322054Y-45295790D02*
X159369673Y-45248171D01*
X159369673Y-45248171D02*
X159464911Y-45200552D01*
X159464911Y-45200552D02*
X159607768Y-45200552D01*
X159607768Y-45200552D02*
X159703006Y-45248171D01*
X159703006Y-45248171D02*
X159750625Y-45295790D01*
X159750625Y-45295790D02*
X159798244Y-45391028D01*
X159798244Y-45391028D02*
X159798244Y-45676742D01*
X159798244Y-45676742D02*
X159750625Y-45771980D01*
X159750625Y-45771980D02*
X159703006Y-45819600D01*
X159703006Y-45819600D02*
X159607768Y-45867219D01*
X159607768Y-45867219D02*
X159464911Y-45867219D01*
X160369673Y-45867219D02*
X160274435Y-45819600D01*
X160274435Y-45819600D02*
X160226816Y-45724361D01*
X160226816Y-45724361D02*
X160226816Y-44867219D01*
X161179197Y-45867219D02*
X161179197Y-45343409D01*
X161179197Y-45343409D02*
X161131578Y-45248171D01*
X161131578Y-45248171D02*
X161036340Y-45200552D01*
X161036340Y-45200552D02*
X160845864Y-45200552D01*
X160845864Y-45200552D02*
X160750626Y-45248171D01*
X161179197Y-45819600D02*
X161083959Y-45867219D01*
X161083959Y-45867219D02*
X160845864Y-45867219D01*
X160845864Y-45867219D02*
X160750626Y-45819600D01*
X160750626Y-45819600D02*
X160703007Y-45724361D01*
X160703007Y-45724361D02*
X160703007Y-45629123D01*
X160703007Y-45629123D02*
X160750626Y-45533885D01*
X160750626Y-45533885D02*
X160845864Y-45486266D01*
X160845864Y-45486266D02*
X161083959Y-45486266D01*
X161083959Y-45486266D02*
X161179197Y-45438647D01*
X161655388Y-45867219D02*
X161655388Y-45200552D01*
X161655388Y-45391028D02*
X161703007Y-45295790D01*
X161703007Y-45295790D02*
X161750626Y-45248171D01*
X161750626Y-45248171D02*
X161845864Y-45200552D01*
X161845864Y-45200552D02*
X161941102Y-45200552D01*
X163036341Y-45867219D02*
X163036341Y-44867219D01*
X163036341Y-44867219D02*
X163417293Y-44867219D01*
X163417293Y-44867219D02*
X163512531Y-44914838D01*
X163512531Y-44914838D02*
X163560150Y-44962457D01*
X163560150Y-44962457D02*
X163607769Y-45057695D01*
X163607769Y-45057695D02*
X163607769Y-45200552D01*
X163607769Y-45200552D02*
X163560150Y-45295790D01*
X163560150Y-45295790D02*
X163512531Y-45343409D01*
X163512531Y-45343409D02*
X163417293Y-45391028D01*
X163417293Y-45391028D02*
X163036341Y-45391028D01*
X164036341Y-45867219D02*
X164036341Y-45200552D01*
X164036341Y-45391028D02*
X164083960Y-45295790D01*
X164083960Y-45295790D02*
X164131579Y-45248171D01*
X164131579Y-45248171D02*
X164226817Y-45200552D01*
X164226817Y-45200552D02*
X164322055Y-45200552D01*
X164798246Y-45867219D02*
X164703008Y-45819600D01*
X164703008Y-45819600D02*
X164655389Y-45771980D01*
X164655389Y-45771980D02*
X164607770Y-45676742D01*
X164607770Y-45676742D02*
X164607770Y-45391028D01*
X164607770Y-45391028D02*
X164655389Y-45295790D01*
X164655389Y-45295790D02*
X164703008Y-45248171D01*
X164703008Y-45248171D02*
X164798246Y-45200552D01*
X164798246Y-45200552D02*
X164941103Y-45200552D01*
X164941103Y-45200552D02*
X165036341Y-45248171D01*
X165036341Y-45248171D02*
X165083960Y-45295790D01*
X165083960Y-45295790D02*
X165131579Y-45391028D01*
X165131579Y-45391028D02*
X165131579Y-45676742D01*
X165131579Y-45676742D02*
X165083960Y-45771980D01*
X165083960Y-45771980D02*
X165036341Y-45819600D01*
X165036341Y-45819600D02*
X164941103Y-45867219D01*
X164941103Y-45867219D02*
X164798246Y-45867219D01*
X165988722Y-45867219D02*
X165988722Y-45343409D01*
X165988722Y-45343409D02*
X165941103Y-45248171D01*
X165941103Y-45248171D02*
X165845865Y-45200552D01*
X165845865Y-45200552D02*
X165655389Y-45200552D01*
X165655389Y-45200552D02*
X165560151Y-45248171D01*
X165988722Y-45819600D02*
X165893484Y-45867219D01*
X165893484Y-45867219D02*
X165655389Y-45867219D01*
X165655389Y-45867219D02*
X165560151Y-45819600D01*
X165560151Y-45819600D02*
X165512532Y-45724361D01*
X165512532Y-45724361D02*
X165512532Y-45629123D01*
X165512532Y-45629123D02*
X165560151Y-45533885D01*
X165560151Y-45533885D02*
X165655389Y-45486266D01*
X165655389Y-45486266D02*
X165893484Y-45486266D01*
X165893484Y-45486266D02*
X165988722Y-45438647D01*
X167226818Y-45867219D02*
X167226818Y-44867219D01*
X167703008Y-45867219D02*
X167703008Y-44867219D01*
D11*
X118619104Y-73607142D02*
X118619104Y-73130952D01*
X118904819Y-73702380D02*
X117904819Y-73369047D01*
X117904819Y-73369047D02*
X118904819Y-73035714D01*
X118904819Y-72702380D02*
X117904819Y-72702380D01*
X118904819Y-72226190D02*
X117904819Y-72226190D01*
X117904819Y-72226190D02*
X118904819Y-71654762D01*
X118904819Y-71654762D02*
X117904819Y-71654762D01*
X119000057Y-71416667D02*
X119000057Y-70654762D01*
X118238152Y-69988095D02*
X118904819Y-69988095D01*
X117857200Y-70226190D02*
X118571485Y-70464285D01*
X118571485Y-70464285D02*
X118571485Y-69845238D01*
D13*
X135056666Y-82263842D02*
X135238095Y-82324318D01*
X135238095Y-82324318D02*
X135540476Y-82324318D01*
X135540476Y-82324318D02*
X135661428Y-82263842D01*
X135661428Y-82263842D02*
X135721904Y-82203365D01*
X135721904Y-82203365D02*
X135782381Y-82082413D01*
X135782381Y-82082413D02*
X135782381Y-81961461D01*
X135782381Y-81961461D02*
X135721904Y-81840508D01*
X135721904Y-81840508D02*
X135661428Y-81780032D01*
X135661428Y-81780032D02*
X135540476Y-81719556D01*
X135540476Y-81719556D02*
X135298571Y-81659080D01*
X135298571Y-81659080D02*
X135177619Y-81598603D01*
X135177619Y-81598603D02*
X135117142Y-81538127D01*
X135117142Y-81538127D02*
X135056666Y-81417175D01*
X135056666Y-81417175D02*
X135056666Y-81296222D01*
X135056666Y-81296222D02*
X135117142Y-81175270D01*
X135117142Y-81175270D02*
X135177619Y-81114794D01*
X135177619Y-81114794D02*
X135298571Y-81054318D01*
X135298571Y-81054318D02*
X135600952Y-81054318D01*
X135600952Y-81054318D02*
X135782381Y-81114794D01*
X136205714Y-81054318D02*
X136508095Y-82324318D01*
X136508095Y-82324318D02*
X136750000Y-81417175D01*
X136750000Y-81417175D02*
X136991905Y-82324318D01*
X136991905Y-82324318D02*
X137294286Y-81054318D01*
X137717619Y-81175270D02*
X137778095Y-81114794D01*
X137778095Y-81114794D02*
X137899048Y-81054318D01*
X137899048Y-81054318D02*
X138201429Y-81054318D01*
X138201429Y-81054318D02*
X138322381Y-81114794D01*
X138322381Y-81114794D02*
X138382857Y-81175270D01*
X138382857Y-81175270D02*
X138443334Y-81296222D01*
X138443334Y-81296222D02*
X138443334Y-81417175D01*
X138443334Y-81417175D02*
X138382857Y-81598603D01*
X138382857Y-81598603D02*
X137657143Y-82324318D01*
X137657143Y-82324318D02*
X138443334Y-82324318D01*
X153556666Y-82263842D02*
X153738095Y-82324318D01*
X153738095Y-82324318D02*
X154040476Y-82324318D01*
X154040476Y-82324318D02*
X154161428Y-82263842D01*
X154161428Y-82263842D02*
X154221904Y-82203365D01*
X154221904Y-82203365D02*
X154282381Y-82082413D01*
X154282381Y-82082413D02*
X154282381Y-81961461D01*
X154282381Y-81961461D02*
X154221904Y-81840508D01*
X154221904Y-81840508D02*
X154161428Y-81780032D01*
X154161428Y-81780032D02*
X154040476Y-81719556D01*
X154040476Y-81719556D02*
X153798571Y-81659080D01*
X153798571Y-81659080D02*
X153677619Y-81598603D01*
X153677619Y-81598603D02*
X153617142Y-81538127D01*
X153617142Y-81538127D02*
X153556666Y-81417175D01*
X153556666Y-81417175D02*
X153556666Y-81296222D01*
X153556666Y-81296222D02*
X153617142Y-81175270D01*
X153617142Y-81175270D02*
X153677619Y-81114794D01*
X153677619Y-81114794D02*
X153798571Y-81054318D01*
X153798571Y-81054318D02*
X154100952Y-81054318D01*
X154100952Y-81054318D02*
X154282381Y-81114794D01*
X154705714Y-81054318D02*
X155008095Y-82324318D01*
X155008095Y-82324318D02*
X155250000Y-81417175D01*
X155250000Y-81417175D02*
X155491905Y-82324318D01*
X155491905Y-82324318D02*
X155794286Y-81054318D01*
X156943334Y-82324318D02*
X156217619Y-82324318D01*
X156580476Y-82324318D02*
X156580476Y-81054318D01*
X156580476Y-81054318D02*
X156459524Y-81235746D01*
X156459524Y-81235746D02*
X156338572Y-81356699D01*
X156338572Y-81356699D02*
X156217619Y-81417175D01*
D14*
X168506015Y-74423047D02*
X168506015Y-74664952D01*
X168506015Y-74664952D02*
X167506015Y-74664952D01*
X168506015Y-74181143D02*
X168458396Y-74229524D01*
X168458396Y-74229524D02*
X168410776Y-74253714D01*
X168410776Y-74253714D02*
X168315538Y-74277905D01*
X168315538Y-74277905D02*
X168029824Y-74277905D01*
X168029824Y-74277905D02*
X167934586Y-74253714D01*
X167934586Y-74253714D02*
X167886967Y-74229524D01*
X167886967Y-74229524D02*
X167839348Y-74181143D01*
X167839348Y-74181143D02*
X167839348Y-74108571D01*
X167839348Y-74108571D02*
X167886967Y-74060190D01*
X167886967Y-74060190D02*
X167934586Y-74036000D01*
X167934586Y-74036000D02*
X168029824Y-74011809D01*
X168029824Y-74011809D02*
X168315538Y-74011809D01*
X168315538Y-74011809D02*
X168410776Y-74036000D01*
X168410776Y-74036000D02*
X168458396Y-74060190D01*
X168458396Y-74060190D02*
X168506015Y-74108571D01*
X168506015Y-74108571D02*
X168506015Y-74181143D01*
X168506015Y-73576381D02*
X167982205Y-73576381D01*
X167982205Y-73576381D02*
X167886967Y-73600571D01*
X167886967Y-73600571D02*
X167839348Y-73648952D01*
X167839348Y-73648952D02*
X167839348Y-73745714D01*
X167839348Y-73745714D02*
X167886967Y-73794095D01*
X168458396Y-73576381D02*
X168506015Y-73624762D01*
X168506015Y-73624762D02*
X168506015Y-73745714D01*
X168506015Y-73745714D02*
X168458396Y-73794095D01*
X168458396Y-73794095D02*
X168363157Y-73818286D01*
X168363157Y-73818286D02*
X168267919Y-73818286D01*
X168267919Y-73818286D02*
X168172681Y-73794095D01*
X168172681Y-73794095D02*
X168125062Y-73745714D01*
X168125062Y-73745714D02*
X168125062Y-73624762D01*
X168125062Y-73624762D02*
X168077443Y-73576381D01*
X168506015Y-73116762D02*
X167506015Y-73116762D01*
X168458396Y-73116762D02*
X168506015Y-73165143D01*
X168506015Y-73165143D02*
X168506015Y-73261905D01*
X168506015Y-73261905D02*
X168458396Y-73310286D01*
X168458396Y-73310286D02*
X168410776Y-73334476D01*
X168410776Y-73334476D02*
X168315538Y-73358667D01*
X168315538Y-73358667D02*
X168029824Y-73358667D01*
X168029824Y-73358667D02*
X167934586Y-73334476D01*
X167934586Y-73334476D02*
X167886967Y-73310286D01*
X167886967Y-73310286D02*
X167839348Y-73261905D01*
X167839348Y-73261905D02*
X167839348Y-73165143D01*
X167839348Y-73165143D02*
X167886967Y-73116762D01*
X168601253Y-72995810D02*
X168601253Y-72608762D01*
X168506015Y-72487809D02*
X167506015Y-72487809D01*
X167839348Y-72245904D02*
X168506015Y-72245904D01*
X167934586Y-72245904D02*
X167886967Y-72221714D01*
X167886967Y-72221714D02*
X167839348Y-72173333D01*
X167839348Y-72173333D02*
X167839348Y-72100761D01*
X167839348Y-72100761D02*
X167886967Y-72052380D01*
X167886967Y-72052380D02*
X167982205Y-72028190D01*
X167982205Y-72028190D02*
X168506015Y-72028190D01*
X167458396Y-71423428D02*
X168744110Y-71858857D01*
X167982205Y-71084762D02*
X168029824Y-71012190D01*
X168029824Y-71012190D02*
X168077443Y-70988000D01*
X168077443Y-70988000D02*
X168172681Y-70963809D01*
X168172681Y-70963809D02*
X168315538Y-70963809D01*
X168315538Y-70963809D02*
X168410776Y-70988000D01*
X168410776Y-70988000D02*
X168458396Y-71012190D01*
X168458396Y-71012190D02*
X168506015Y-71060571D01*
X168506015Y-71060571D02*
X168506015Y-71254095D01*
X168506015Y-71254095D02*
X167506015Y-71254095D01*
X167506015Y-71254095D02*
X167506015Y-71084762D01*
X167506015Y-71084762D02*
X167553634Y-71036381D01*
X167553634Y-71036381D02*
X167601253Y-71012190D01*
X167601253Y-71012190D02*
X167696491Y-70988000D01*
X167696491Y-70988000D02*
X167791729Y-70988000D01*
X167791729Y-70988000D02*
X167886967Y-71012190D01*
X167886967Y-71012190D02*
X167934586Y-71036381D01*
X167934586Y-71036381D02*
X167982205Y-71084762D01*
X167982205Y-71084762D02*
X167982205Y-71254095D01*
X168506015Y-70480000D02*
X168506015Y-70770286D01*
X168506015Y-70625143D02*
X167506015Y-70625143D01*
X167506015Y-70625143D02*
X167648872Y-70673524D01*
X167648872Y-70673524D02*
X167744110Y-70721905D01*
X167744110Y-70721905D02*
X167791729Y-70770286D01*
X168601253Y-70383238D02*
X168601253Y-69996190D01*
X167506015Y-69778475D02*
X167506015Y-69681713D01*
X167506015Y-69681713D02*
X167553634Y-69633332D01*
X167553634Y-69633332D02*
X167648872Y-69584951D01*
X167648872Y-69584951D02*
X167839348Y-69560761D01*
X167839348Y-69560761D02*
X168172681Y-69560761D01*
X168172681Y-69560761D02*
X168363157Y-69584951D01*
X168363157Y-69584951D02*
X168458396Y-69633332D01*
X168458396Y-69633332D02*
X168506015Y-69681713D01*
X168506015Y-69681713D02*
X168506015Y-69778475D01*
X168506015Y-69778475D02*
X168458396Y-69826856D01*
X168458396Y-69826856D02*
X168363157Y-69875237D01*
X168363157Y-69875237D02*
X168172681Y-69899428D01*
X168172681Y-69899428D02*
X167839348Y-69899428D01*
X167839348Y-69899428D02*
X167648872Y-69875237D01*
X167648872Y-69875237D02*
X167553634Y-69826856D01*
X167553634Y-69826856D02*
X167506015Y-69778475D01*
X167839348Y-69125333D02*
X168506015Y-69125333D01*
X167839348Y-69343047D02*
X168363157Y-69343047D01*
X168363157Y-69343047D02*
X168458396Y-69318857D01*
X168458396Y-69318857D02*
X168506015Y-69270476D01*
X168506015Y-69270476D02*
X168506015Y-69197904D01*
X168506015Y-69197904D02*
X168458396Y-69149523D01*
X168458396Y-69149523D02*
X168410776Y-69125333D01*
X167839348Y-68956000D02*
X167839348Y-68762476D01*
X167506015Y-68883428D02*
X168363157Y-68883428D01*
X168363157Y-68883428D02*
X168458396Y-68859238D01*
X168458396Y-68859238D02*
X168506015Y-68810857D01*
X168506015Y-68810857D02*
X168506015Y-68762476D01*
D11*
X138359580Y-55166666D02*
X138407200Y-55214285D01*
X138407200Y-55214285D02*
X138454819Y-55357142D01*
X138454819Y-55357142D02*
X138454819Y-55452380D01*
X138454819Y-55452380D02*
X138407200Y-55595237D01*
X138407200Y-55595237D02*
X138311961Y-55690475D01*
X138311961Y-55690475D02*
X138216723Y-55738094D01*
X138216723Y-55738094D02*
X138026247Y-55785713D01*
X138026247Y-55785713D02*
X137883390Y-55785713D01*
X137883390Y-55785713D02*
X137692914Y-55738094D01*
X137692914Y-55738094D02*
X137597676Y-55690475D01*
X137597676Y-55690475D02*
X137502438Y-55595237D01*
X137502438Y-55595237D02*
X137454819Y-55452380D01*
X137454819Y-55452380D02*
X137454819Y-55357142D01*
X137454819Y-55357142D02*
X137502438Y-55214285D01*
X137502438Y-55214285D02*
X137550057Y-55166666D01*
X138407200Y-54785713D02*
X138454819Y-54642856D01*
X138454819Y-54642856D02*
X138454819Y-54404761D01*
X138454819Y-54404761D02*
X138407200Y-54309523D01*
X138407200Y-54309523D02*
X138359580Y-54261904D01*
X138359580Y-54261904D02*
X138264342Y-54214285D01*
X138264342Y-54214285D02*
X138169104Y-54214285D01*
X138169104Y-54214285D02*
X138073866Y-54261904D01*
X138073866Y-54261904D02*
X138026247Y-54309523D01*
X138026247Y-54309523D02*
X137978628Y-54404761D01*
X137978628Y-54404761D02*
X137931009Y-54595237D01*
X137931009Y-54595237D02*
X137883390Y-54690475D01*
X137883390Y-54690475D02*
X137835771Y-54738094D01*
X137835771Y-54738094D02*
X137740533Y-54785713D01*
X137740533Y-54785713D02*
X137645295Y-54785713D01*
X137645295Y-54785713D02*
X137550057Y-54738094D01*
X137550057Y-54738094D02*
X137502438Y-54690475D01*
X137502438Y-54690475D02*
X137454819Y-54595237D01*
X137454819Y-54595237D02*
X137454819Y-54357142D01*
X137454819Y-54357142D02*
X137502438Y-54214285D01*
X147584200Y-56234523D02*
X147631819Y-56091666D01*
X147631819Y-56091666D02*
X147631819Y-55853571D01*
X147631819Y-55853571D02*
X147584200Y-55758333D01*
X147584200Y-55758333D02*
X147536580Y-55710714D01*
X147536580Y-55710714D02*
X147441342Y-55663095D01*
X147441342Y-55663095D02*
X147346104Y-55663095D01*
X147346104Y-55663095D02*
X147250866Y-55710714D01*
X147250866Y-55710714D02*
X147203247Y-55758333D01*
X147203247Y-55758333D02*
X147155628Y-55853571D01*
X147155628Y-55853571D02*
X147108009Y-56044047D01*
X147108009Y-56044047D02*
X147060390Y-56139285D01*
X147060390Y-56139285D02*
X147012771Y-56186904D01*
X147012771Y-56186904D02*
X146917533Y-56234523D01*
X146917533Y-56234523D02*
X146822295Y-56234523D01*
X146822295Y-56234523D02*
X146727057Y-56186904D01*
X146727057Y-56186904D02*
X146679438Y-56139285D01*
X146679438Y-56139285D02*
X146631819Y-56044047D01*
X146631819Y-56044047D02*
X146631819Y-55805952D01*
X146631819Y-55805952D02*
X146679438Y-55663095D01*
X147631819Y-55234523D02*
X146631819Y-55234523D01*
X146631819Y-55234523D02*
X146631819Y-54996428D01*
X146631819Y-54996428D02*
X146679438Y-54853571D01*
X146679438Y-54853571D02*
X146774676Y-54758333D01*
X146774676Y-54758333D02*
X146869914Y-54710714D01*
X146869914Y-54710714D02*
X147060390Y-54663095D01*
X147060390Y-54663095D02*
X147203247Y-54663095D01*
X147203247Y-54663095D02*
X147393723Y-54710714D01*
X147393723Y-54710714D02*
X147488961Y-54758333D01*
X147488961Y-54758333D02*
X147584200Y-54853571D01*
X147584200Y-54853571D02*
X147631819Y-54996428D01*
X147631819Y-54996428D02*
X147631819Y-55234523D01*
X146631819Y-54044047D02*
X146631819Y-53853571D01*
X146631819Y-53853571D02*
X146679438Y-53758333D01*
X146679438Y-53758333D02*
X146774676Y-53663095D01*
X146774676Y-53663095D02*
X146965152Y-53615476D01*
X146965152Y-53615476D02*
X147298485Y-53615476D01*
X147298485Y-53615476D02*
X147488961Y-53663095D01*
X147488961Y-53663095D02*
X147584200Y-53758333D01*
X147584200Y-53758333D02*
X147631819Y-53853571D01*
X147631819Y-53853571D02*
X147631819Y-54044047D01*
X147631819Y-54044047D02*
X147584200Y-54139285D01*
X147584200Y-54139285D02*
X147488961Y-54234523D01*
X147488961Y-54234523D02*
X147298485Y-54282142D01*
X147298485Y-54282142D02*
X146965152Y-54282142D01*
X146965152Y-54282142D02*
X146774676Y-54234523D01*
X146774676Y-54234523D02*
X146679438Y-54139285D01*
X146679438Y-54139285D02*
X146631819Y-54044047D01*
D14*
X168506015Y-84261714D02*
X167506015Y-84261714D01*
X167506015Y-84261714D02*
X168220300Y-84092381D01*
X168220300Y-84092381D02*
X167506015Y-83923047D01*
X167506015Y-83923047D02*
X168506015Y-83923047D01*
X168506015Y-83681143D02*
X167506015Y-83681143D01*
X167506015Y-83681143D02*
X167506015Y-83487619D01*
X167506015Y-83487619D02*
X167553634Y-83439238D01*
X167553634Y-83439238D02*
X167601253Y-83415048D01*
X167601253Y-83415048D02*
X167696491Y-83390857D01*
X167696491Y-83390857D02*
X167839348Y-83390857D01*
X167839348Y-83390857D02*
X167934586Y-83415048D01*
X167934586Y-83415048D02*
X167982205Y-83439238D01*
X167982205Y-83439238D02*
X168029824Y-83487619D01*
X168029824Y-83487619D02*
X168029824Y-83681143D01*
X168506015Y-83173143D02*
X167506015Y-83173143D01*
X167506015Y-83173143D02*
X167506015Y-82979619D01*
X167506015Y-82979619D02*
X167553634Y-82931238D01*
X167553634Y-82931238D02*
X167601253Y-82907048D01*
X167601253Y-82907048D02*
X167696491Y-82882857D01*
X167696491Y-82882857D02*
X167839348Y-82882857D01*
X167839348Y-82882857D02*
X167934586Y-82907048D01*
X167934586Y-82907048D02*
X167982205Y-82931238D01*
X167982205Y-82931238D02*
X168029824Y-82979619D01*
X168029824Y-82979619D02*
X168029824Y-83173143D01*
X167506015Y-82737715D02*
X167506015Y-82447429D01*
X168506015Y-82592572D02*
X167506015Y-82592572D01*
X168601253Y-82399048D02*
X168601253Y-82012000D01*
X167506015Y-81794285D02*
X167506015Y-81697523D01*
X167506015Y-81697523D02*
X167553634Y-81649142D01*
X167553634Y-81649142D02*
X167648872Y-81600761D01*
X167648872Y-81600761D02*
X167839348Y-81576571D01*
X167839348Y-81576571D02*
X168172681Y-81576571D01*
X168172681Y-81576571D02*
X168363157Y-81600761D01*
X168363157Y-81600761D02*
X168458396Y-81649142D01*
X168458396Y-81649142D02*
X168506015Y-81697523D01*
X168506015Y-81697523D02*
X168506015Y-81794285D01*
X168506015Y-81794285D02*
X168458396Y-81842666D01*
X168458396Y-81842666D02*
X168363157Y-81891047D01*
X168363157Y-81891047D02*
X168172681Y-81915238D01*
X168172681Y-81915238D02*
X167839348Y-81915238D01*
X167839348Y-81915238D02*
X167648872Y-81891047D01*
X167648872Y-81891047D02*
X167553634Y-81842666D01*
X167553634Y-81842666D02*
X167506015Y-81794285D01*
X167839348Y-81141143D02*
X168506015Y-81141143D01*
X167839348Y-81358857D02*
X168363157Y-81358857D01*
X168363157Y-81358857D02*
X168458396Y-81334667D01*
X168458396Y-81334667D02*
X168506015Y-81286286D01*
X168506015Y-81286286D02*
X168506015Y-81213714D01*
X168506015Y-81213714D02*
X168458396Y-81165333D01*
X168458396Y-81165333D02*
X168410776Y-81141143D01*
X167839348Y-80971810D02*
X167839348Y-80778286D01*
X167506015Y-80899238D02*
X168363157Y-80899238D01*
X168363157Y-80899238D02*
X168458396Y-80875048D01*
X168458396Y-80875048D02*
X168506015Y-80826667D01*
X168506015Y-80826667D02*
X168506015Y-80778286D01*
X167458396Y-80246095D02*
X168744110Y-80681524D01*
X167982205Y-79907429D02*
X168029824Y-79834857D01*
X168029824Y-79834857D02*
X168077443Y-79810667D01*
X168077443Y-79810667D02*
X168172681Y-79786476D01*
X168172681Y-79786476D02*
X168315538Y-79786476D01*
X168315538Y-79786476D02*
X168410776Y-79810667D01*
X168410776Y-79810667D02*
X168458396Y-79834857D01*
X168458396Y-79834857D02*
X168506015Y-79883238D01*
X168506015Y-79883238D02*
X168506015Y-80076762D01*
X168506015Y-80076762D02*
X167506015Y-80076762D01*
X167506015Y-80076762D02*
X167506015Y-79907429D01*
X167506015Y-79907429D02*
X167553634Y-79859048D01*
X167553634Y-79859048D02*
X167601253Y-79834857D01*
X167601253Y-79834857D02*
X167696491Y-79810667D01*
X167696491Y-79810667D02*
X167791729Y-79810667D01*
X167791729Y-79810667D02*
X167886967Y-79834857D01*
X167886967Y-79834857D02*
X167934586Y-79859048D01*
X167934586Y-79859048D02*
X167982205Y-79907429D01*
X167982205Y-79907429D02*
X167982205Y-80076762D01*
X168506015Y-79302667D02*
X168506015Y-79592953D01*
X168506015Y-79447810D02*
X167506015Y-79447810D01*
X167506015Y-79447810D02*
X167648872Y-79496191D01*
X167648872Y-79496191D02*
X167744110Y-79544572D01*
X167744110Y-79544572D02*
X167791729Y-79592953D01*
X168601253Y-79205905D02*
X168601253Y-78818857D01*
X168506015Y-78697904D02*
X167506015Y-78697904D01*
X167839348Y-78455999D02*
X168506015Y-78455999D01*
X167934586Y-78455999D02*
X167886967Y-78431809D01*
X167886967Y-78431809D02*
X167839348Y-78383428D01*
X167839348Y-78383428D02*
X167839348Y-78310856D01*
X167839348Y-78310856D02*
X167886967Y-78262475D01*
X167886967Y-78262475D02*
X167982205Y-78238285D01*
X167982205Y-78238285D02*
X168506015Y-78238285D01*
D11*
X118381009Y-83488095D02*
X118428628Y-83345238D01*
X118428628Y-83345238D02*
X118476247Y-83297619D01*
X118476247Y-83297619D02*
X118571485Y-83250000D01*
X118571485Y-83250000D02*
X118714342Y-83250000D01*
X118714342Y-83250000D02*
X118809580Y-83297619D01*
X118809580Y-83297619D02*
X118857200Y-83345238D01*
X118857200Y-83345238D02*
X118904819Y-83440476D01*
X118904819Y-83440476D02*
X118904819Y-83821428D01*
X118904819Y-83821428D02*
X117904819Y-83821428D01*
X117904819Y-83821428D02*
X117904819Y-83488095D01*
X117904819Y-83488095D02*
X117952438Y-83392857D01*
X117952438Y-83392857D02*
X118000057Y-83345238D01*
X118000057Y-83345238D02*
X118095295Y-83297619D01*
X118095295Y-83297619D02*
X118190533Y-83297619D01*
X118190533Y-83297619D02*
X118285771Y-83345238D01*
X118285771Y-83345238D02*
X118333390Y-83392857D01*
X118333390Y-83392857D02*
X118381009Y-83488095D01*
X118381009Y-83488095D02*
X118381009Y-83821428D01*
X118904819Y-82392857D02*
X118381009Y-82392857D01*
X118381009Y-82392857D02*
X118285771Y-82440476D01*
X118285771Y-82440476D02*
X118238152Y-82535714D01*
X118238152Y-82535714D02*
X118238152Y-82726190D01*
X118238152Y-82726190D02*
X118285771Y-82821428D01*
X118857200Y-82392857D02*
X118904819Y-82488095D01*
X118904819Y-82488095D02*
X118904819Y-82726190D01*
X118904819Y-82726190D02*
X118857200Y-82821428D01*
X118857200Y-82821428D02*
X118761961Y-82869047D01*
X118761961Y-82869047D02*
X118666723Y-82869047D01*
X118666723Y-82869047D02*
X118571485Y-82821428D01*
X118571485Y-82821428D02*
X118523866Y-82726190D01*
X118523866Y-82726190D02*
X118523866Y-82488095D01*
X118523866Y-82488095D02*
X118476247Y-82392857D01*
X118238152Y-82059523D02*
X118238152Y-81678571D01*
X117904819Y-81916666D02*
X118761961Y-81916666D01*
X118761961Y-81916666D02*
X118857200Y-81869047D01*
X118857200Y-81869047D02*
X118904819Y-81773809D01*
X118904819Y-81773809D02*
X118904819Y-81678571D01*
X118238152Y-81488094D02*
X118238152Y-81107142D01*
X117904819Y-81345237D02*
X118761961Y-81345237D01*
X118761961Y-81345237D02*
X118857200Y-81297618D01*
X118857200Y-81297618D02*
X118904819Y-81202380D01*
X118904819Y-81202380D02*
X118904819Y-81107142D01*
X118000057Y-80821427D02*
X117952438Y-80773808D01*
X117952438Y-80773808D02*
X117904819Y-80678570D01*
X117904819Y-80678570D02*
X117904819Y-80440475D01*
X117904819Y-80440475D02*
X117952438Y-80345237D01*
X117952438Y-80345237D02*
X118000057Y-80297618D01*
X118000057Y-80297618D02*
X118095295Y-80249999D01*
X118095295Y-80249999D02*
X118190533Y-80249999D01*
X118190533Y-80249999D02*
X118333390Y-80297618D01*
X118333390Y-80297618D02*
X118904819Y-80869046D01*
X118904819Y-80869046D02*
X118904819Y-80249999D01*
X119000057Y-80059523D02*
X119000057Y-79297618D01*
X117904819Y-79202379D02*
X118904819Y-78869046D01*
X118904819Y-78869046D02*
X117904819Y-78535713D01*
X118381009Y-92988095D02*
X118428628Y-92845238D01*
X118428628Y-92845238D02*
X118476247Y-92797619D01*
X118476247Y-92797619D02*
X118571485Y-92750000D01*
X118571485Y-92750000D02*
X118714342Y-92750000D01*
X118714342Y-92750000D02*
X118809580Y-92797619D01*
X118809580Y-92797619D02*
X118857200Y-92845238D01*
X118857200Y-92845238D02*
X118904819Y-92940476D01*
X118904819Y-92940476D02*
X118904819Y-93321428D01*
X118904819Y-93321428D02*
X117904819Y-93321428D01*
X117904819Y-93321428D02*
X117904819Y-92988095D01*
X117904819Y-92988095D02*
X117952438Y-92892857D01*
X117952438Y-92892857D02*
X118000057Y-92845238D01*
X118000057Y-92845238D02*
X118095295Y-92797619D01*
X118095295Y-92797619D02*
X118190533Y-92797619D01*
X118190533Y-92797619D02*
X118285771Y-92845238D01*
X118285771Y-92845238D02*
X118333390Y-92892857D01*
X118333390Y-92892857D02*
X118381009Y-92988095D01*
X118381009Y-92988095D02*
X118381009Y-93321428D01*
X118904819Y-91892857D02*
X118381009Y-91892857D01*
X118381009Y-91892857D02*
X118285771Y-91940476D01*
X118285771Y-91940476D02*
X118238152Y-92035714D01*
X118238152Y-92035714D02*
X118238152Y-92226190D01*
X118238152Y-92226190D02*
X118285771Y-92321428D01*
X118857200Y-91892857D02*
X118904819Y-91988095D01*
X118904819Y-91988095D02*
X118904819Y-92226190D01*
X118904819Y-92226190D02*
X118857200Y-92321428D01*
X118857200Y-92321428D02*
X118761961Y-92369047D01*
X118761961Y-92369047D02*
X118666723Y-92369047D01*
X118666723Y-92369047D02*
X118571485Y-92321428D01*
X118571485Y-92321428D02*
X118523866Y-92226190D01*
X118523866Y-92226190D02*
X118523866Y-91988095D01*
X118523866Y-91988095D02*
X118476247Y-91892857D01*
X118238152Y-91559523D02*
X118238152Y-91178571D01*
X117904819Y-91416666D02*
X118761961Y-91416666D01*
X118761961Y-91416666D02*
X118857200Y-91369047D01*
X118857200Y-91369047D02*
X118904819Y-91273809D01*
X118904819Y-91273809D02*
X118904819Y-91178571D01*
X118238152Y-90988094D02*
X118238152Y-90607142D01*
X117904819Y-90845237D02*
X118761961Y-90845237D01*
X118761961Y-90845237D02*
X118857200Y-90797618D01*
X118857200Y-90797618D02*
X118904819Y-90702380D01*
X118904819Y-90702380D02*
X118904819Y-90607142D01*
X118904819Y-89749999D02*
X118904819Y-90321427D01*
X118904819Y-90035713D02*
X117904819Y-90035713D01*
X117904819Y-90035713D02*
X118047676Y-90130951D01*
X118047676Y-90130951D02*
X118142914Y-90226189D01*
X118142914Y-90226189D02*
X118190533Y-90321427D01*
X119000057Y-89559523D02*
X119000057Y-88797618D01*
X117904819Y-88702379D02*
X118904819Y-88369046D01*
X118904819Y-88369046D02*
X117904819Y-88035713D01*
X167504819Y-92011904D02*
X167504819Y-92488094D01*
X167504819Y-92488094D02*
X167981009Y-92535713D01*
X167981009Y-92535713D02*
X167933390Y-92488094D01*
X167933390Y-92488094D02*
X167885771Y-92392856D01*
X167885771Y-92392856D02*
X167885771Y-92154761D01*
X167885771Y-92154761D02*
X167933390Y-92059523D01*
X167933390Y-92059523D02*
X167981009Y-92011904D01*
X167981009Y-92011904D02*
X168076247Y-91964285D01*
X168076247Y-91964285D02*
X168314342Y-91964285D01*
X168314342Y-91964285D02*
X168409580Y-92011904D01*
X168409580Y-92011904D02*
X168457200Y-92059523D01*
X168457200Y-92059523D02*
X168504819Y-92154761D01*
X168504819Y-92154761D02*
X168504819Y-92392856D01*
X168504819Y-92392856D02*
X168457200Y-92488094D01*
X168457200Y-92488094D02*
X168409580Y-92535713D01*
X167504819Y-91678570D02*
X168504819Y-91345237D01*
X168504819Y-91345237D02*
X167504819Y-91011904D01*
X168600057Y-90916666D02*
X168600057Y-90154761D01*
X168504819Y-89916665D02*
X167504819Y-89916665D01*
X167838152Y-89440475D02*
X168504819Y-89440475D01*
X167933390Y-89440475D02*
X167885771Y-89392856D01*
X167885771Y-89392856D02*
X167838152Y-89297618D01*
X167838152Y-89297618D02*
X167838152Y-89154761D01*
X167838152Y-89154761D02*
X167885771Y-89059523D01*
X167885771Y-89059523D02*
X167981009Y-89011904D01*
X167981009Y-89011904D02*
X168504819Y-89011904D01*
D14*
X167982205Y-64584381D02*
X168029824Y-64511809D01*
X168029824Y-64511809D02*
X168077443Y-64487619D01*
X168077443Y-64487619D02*
X168172681Y-64463428D01*
X168172681Y-64463428D02*
X168315538Y-64463428D01*
X168315538Y-64463428D02*
X168410776Y-64487619D01*
X168410776Y-64487619D02*
X168458396Y-64511809D01*
X168458396Y-64511809D02*
X168506015Y-64560190D01*
X168506015Y-64560190D02*
X168506015Y-64753714D01*
X168506015Y-64753714D02*
X167506015Y-64753714D01*
X167506015Y-64753714D02*
X167506015Y-64584381D01*
X167506015Y-64584381D02*
X167553634Y-64536000D01*
X167553634Y-64536000D02*
X167601253Y-64511809D01*
X167601253Y-64511809D02*
X167696491Y-64487619D01*
X167696491Y-64487619D02*
X167791729Y-64487619D01*
X167791729Y-64487619D02*
X167886967Y-64511809D01*
X167886967Y-64511809D02*
X167934586Y-64536000D01*
X167934586Y-64536000D02*
X167982205Y-64584381D01*
X167982205Y-64584381D02*
X167982205Y-64753714D01*
X168506015Y-63979619D02*
X168506015Y-64269905D01*
X168506015Y-64124762D02*
X167506015Y-64124762D01*
X167506015Y-64124762D02*
X167648872Y-64173143D01*
X167648872Y-64173143D02*
X167744110Y-64221524D01*
X167744110Y-64221524D02*
X167791729Y-64269905D01*
X168601253Y-63882857D02*
X168601253Y-63495809D01*
X168506015Y-63374856D02*
X167506015Y-63374856D01*
X167506015Y-63374856D02*
X168506015Y-63084570D01*
X168506015Y-63084570D02*
X167506015Y-63084570D01*
X168458396Y-62649142D02*
X168506015Y-62697523D01*
X168506015Y-62697523D02*
X168506015Y-62794285D01*
X168506015Y-62794285D02*
X168458396Y-62842666D01*
X168458396Y-62842666D02*
X168363157Y-62866857D01*
X168363157Y-62866857D02*
X167982205Y-62866857D01*
X167982205Y-62866857D02*
X167886967Y-62842666D01*
X167886967Y-62842666D02*
X167839348Y-62794285D01*
X167839348Y-62794285D02*
X167839348Y-62697523D01*
X167839348Y-62697523D02*
X167886967Y-62649142D01*
X167886967Y-62649142D02*
X167982205Y-62624952D01*
X167982205Y-62624952D02*
X168077443Y-62624952D01*
X168077443Y-62624952D02*
X168172681Y-62866857D01*
X167839348Y-62479809D02*
X167839348Y-62286285D01*
X167506015Y-62407237D02*
X168363157Y-62407237D01*
X168363157Y-62407237D02*
X168458396Y-62383047D01*
X168458396Y-62383047D02*
X168506015Y-62334666D01*
X168506015Y-62334666D02*
X168506015Y-62286285D01*
X167458396Y-61754094D02*
X168744110Y-62189523D01*
X167982205Y-61415428D02*
X168029824Y-61342856D01*
X168029824Y-61342856D02*
X168077443Y-61318666D01*
X168077443Y-61318666D02*
X168172681Y-61294475D01*
X168172681Y-61294475D02*
X168315538Y-61294475D01*
X168315538Y-61294475D02*
X168410776Y-61318666D01*
X168410776Y-61318666D02*
X168458396Y-61342856D01*
X168458396Y-61342856D02*
X168506015Y-61391237D01*
X168506015Y-61391237D02*
X168506015Y-61584761D01*
X168506015Y-61584761D02*
X167506015Y-61584761D01*
X167506015Y-61584761D02*
X167506015Y-61415428D01*
X167506015Y-61415428D02*
X167553634Y-61367047D01*
X167553634Y-61367047D02*
X167601253Y-61342856D01*
X167601253Y-61342856D02*
X167696491Y-61318666D01*
X167696491Y-61318666D02*
X167791729Y-61318666D01*
X167791729Y-61318666D02*
X167886967Y-61342856D01*
X167886967Y-61342856D02*
X167934586Y-61367047D01*
X167934586Y-61367047D02*
X167982205Y-61415428D01*
X167982205Y-61415428D02*
X167982205Y-61584761D01*
X167601253Y-61100952D02*
X167553634Y-61076761D01*
X167553634Y-61076761D02*
X167506015Y-61028380D01*
X167506015Y-61028380D02*
X167506015Y-60907428D01*
X167506015Y-60907428D02*
X167553634Y-60859047D01*
X167553634Y-60859047D02*
X167601253Y-60834856D01*
X167601253Y-60834856D02*
X167696491Y-60810666D01*
X167696491Y-60810666D02*
X167791729Y-60810666D01*
X167791729Y-60810666D02*
X167934586Y-60834856D01*
X167934586Y-60834856D02*
X168506015Y-61125142D01*
X168506015Y-61125142D02*
X168506015Y-60810666D01*
X168601253Y-60713904D02*
X168601253Y-60326856D01*
X168506015Y-60205903D02*
X167506015Y-60205903D01*
X167839348Y-59963998D02*
X168506015Y-59963998D01*
X167934586Y-59963998D02*
X167886967Y-59939808D01*
X167886967Y-59939808D02*
X167839348Y-59891427D01*
X167839348Y-59891427D02*
X167839348Y-59818855D01*
X167839348Y-59818855D02*
X167886967Y-59770474D01*
X167886967Y-59770474D02*
X167982205Y-59746284D01*
X167982205Y-59746284D02*
X168506015Y-59746284D01*
X167982205Y-55374667D02*
X168029824Y-55302095D01*
X168029824Y-55302095D02*
X168077443Y-55277905D01*
X168077443Y-55277905D02*
X168172681Y-55253714D01*
X168172681Y-55253714D02*
X168315538Y-55253714D01*
X168315538Y-55253714D02*
X168410776Y-55277905D01*
X168410776Y-55277905D02*
X168458396Y-55302095D01*
X168458396Y-55302095D02*
X168506015Y-55350476D01*
X168506015Y-55350476D02*
X168506015Y-55544000D01*
X168506015Y-55544000D02*
X167506015Y-55544000D01*
X167506015Y-55544000D02*
X167506015Y-55374667D01*
X167506015Y-55374667D02*
X167553634Y-55326286D01*
X167553634Y-55326286D02*
X167601253Y-55302095D01*
X167601253Y-55302095D02*
X167696491Y-55277905D01*
X167696491Y-55277905D02*
X167791729Y-55277905D01*
X167791729Y-55277905D02*
X167886967Y-55302095D01*
X167886967Y-55302095D02*
X167934586Y-55326286D01*
X167934586Y-55326286D02*
X167982205Y-55374667D01*
X167982205Y-55374667D02*
X167982205Y-55544000D01*
X167601253Y-55060191D02*
X167553634Y-55036000D01*
X167553634Y-55036000D02*
X167506015Y-54987619D01*
X167506015Y-54987619D02*
X167506015Y-54866667D01*
X167506015Y-54866667D02*
X167553634Y-54818286D01*
X167553634Y-54818286D02*
X167601253Y-54794095D01*
X167601253Y-54794095D02*
X167696491Y-54769905D01*
X167696491Y-54769905D02*
X167791729Y-54769905D01*
X167791729Y-54769905D02*
X167934586Y-54794095D01*
X167934586Y-54794095D02*
X168506015Y-55084381D01*
X168506015Y-55084381D02*
X168506015Y-54769905D01*
X168601253Y-54673143D02*
X168601253Y-54286095D01*
X168506015Y-54165142D02*
X167506015Y-54165142D01*
X167506015Y-54165142D02*
X168506015Y-53874856D01*
X168506015Y-53874856D02*
X167506015Y-53874856D01*
X168458396Y-53439428D02*
X168506015Y-53487809D01*
X168506015Y-53487809D02*
X168506015Y-53584571D01*
X168506015Y-53584571D02*
X168458396Y-53632952D01*
X168458396Y-53632952D02*
X168363157Y-53657143D01*
X168363157Y-53657143D02*
X167982205Y-53657143D01*
X167982205Y-53657143D02*
X167886967Y-53632952D01*
X167886967Y-53632952D02*
X167839348Y-53584571D01*
X167839348Y-53584571D02*
X167839348Y-53487809D01*
X167839348Y-53487809D02*
X167886967Y-53439428D01*
X167886967Y-53439428D02*
X167982205Y-53415238D01*
X167982205Y-53415238D02*
X168077443Y-53415238D01*
X168077443Y-53415238D02*
X168172681Y-53657143D01*
X167839348Y-53270095D02*
X167839348Y-53076571D01*
X167506015Y-53197523D02*
X168363157Y-53197523D01*
X168363157Y-53197523D02*
X168458396Y-53173333D01*
X168458396Y-53173333D02*
X168506015Y-53124952D01*
X168506015Y-53124952D02*
X168506015Y-53076571D01*
X167458396Y-52544380D02*
X168744110Y-52979809D01*
X167982205Y-52205714D02*
X168029824Y-52133142D01*
X168029824Y-52133142D02*
X168077443Y-52108952D01*
X168077443Y-52108952D02*
X168172681Y-52084761D01*
X168172681Y-52084761D02*
X168315538Y-52084761D01*
X168315538Y-52084761D02*
X168410776Y-52108952D01*
X168410776Y-52108952D02*
X168458396Y-52133142D01*
X168458396Y-52133142D02*
X168506015Y-52181523D01*
X168506015Y-52181523D02*
X168506015Y-52375047D01*
X168506015Y-52375047D02*
X167506015Y-52375047D01*
X167506015Y-52375047D02*
X167506015Y-52205714D01*
X167506015Y-52205714D02*
X167553634Y-52157333D01*
X167553634Y-52157333D02*
X167601253Y-52133142D01*
X167601253Y-52133142D02*
X167696491Y-52108952D01*
X167696491Y-52108952D02*
X167791729Y-52108952D01*
X167791729Y-52108952D02*
X167886967Y-52133142D01*
X167886967Y-52133142D02*
X167934586Y-52157333D01*
X167934586Y-52157333D02*
X167982205Y-52205714D01*
X167982205Y-52205714D02*
X167982205Y-52375047D01*
X167601253Y-51891238D02*
X167553634Y-51867047D01*
X167553634Y-51867047D02*
X167506015Y-51818666D01*
X167506015Y-51818666D02*
X167506015Y-51697714D01*
X167506015Y-51697714D02*
X167553634Y-51649333D01*
X167553634Y-51649333D02*
X167601253Y-51625142D01*
X167601253Y-51625142D02*
X167696491Y-51600952D01*
X167696491Y-51600952D02*
X167791729Y-51600952D01*
X167791729Y-51600952D02*
X167934586Y-51625142D01*
X167934586Y-51625142D02*
X168506015Y-51915428D01*
X168506015Y-51915428D02*
X168506015Y-51600952D01*
X168601253Y-51504190D02*
X168601253Y-51117142D01*
X167506015Y-50899427D02*
X167506015Y-50802665D01*
X167506015Y-50802665D02*
X167553634Y-50754284D01*
X167553634Y-50754284D02*
X167648872Y-50705903D01*
X167648872Y-50705903D02*
X167839348Y-50681713D01*
X167839348Y-50681713D02*
X168172681Y-50681713D01*
X168172681Y-50681713D02*
X168363157Y-50705903D01*
X168363157Y-50705903D02*
X168458396Y-50754284D01*
X168458396Y-50754284D02*
X168506015Y-50802665D01*
X168506015Y-50802665D02*
X168506015Y-50899427D01*
X168506015Y-50899427D02*
X168458396Y-50947808D01*
X168458396Y-50947808D02*
X168363157Y-50996189D01*
X168363157Y-50996189D02*
X168172681Y-51020380D01*
X168172681Y-51020380D02*
X167839348Y-51020380D01*
X167839348Y-51020380D02*
X167648872Y-50996189D01*
X167648872Y-50996189D02*
X167553634Y-50947808D01*
X167553634Y-50947808D02*
X167506015Y-50899427D01*
X167839348Y-50246285D02*
X168506015Y-50246285D01*
X167839348Y-50463999D02*
X168363157Y-50463999D01*
X168363157Y-50463999D02*
X168458396Y-50439809D01*
X168458396Y-50439809D02*
X168506015Y-50391428D01*
X168506015Y-50391428D02*
X168506015Y-50318856D01*
X168506015Y-50318856D02*
X168458396Y-50270475D01*
X168458396Y-50270475D02*
X168410776Y-50246285D01*
X167839348Y-50076952D02*
X167839348Y-49883428D01*
X167506015Y-50004380D02*
X168363157Y-50004380D01*
X168363157Y-50004380D02*
X168458396Y-49980190D01*
X168458396Y-49980190D02*
X168506015Y-49931809D01*
X168506015Y-49931809D02*
X168506015Y-49883428D01*
D11*
X118619104Y-64107142D02*
X118619104Y-63630952D01*
X118904819Y-64202380D02*
X117904819Y-63869047D01*
X117904819Y-63869047D02*
X118904819Y-63535714D01*
X118904819Y-63202380D02*
X117904819Y-63202380D01*
X118904819Y-62726190D02*
X117904819Y-62726190D01*
X117904819Y-62726190D02*
X118904819Y-62154762D01*
X118904819Y-62154762D02*
X117904819Y-62154762D01*
X119000057Y-61916667D02*
X119000057Y-61154762D01*
X117904819Y-60440476D02*
X117904819Y-60916666D01*
X117904819Y-60916666D02*
X118381009Y-60964285D01*
X118381009Y-60964285D02*
X118333390Y-60916666D01*
X118333390Y-60916666D02*
X118285771Y-60821428D01*
X118285771Y-60821428D02*
X118285771Y-60583333D01*
X118285771Y-60583333D02*
X118333390Y-60488095D01*
X118333390Y-60488095D02*
X118381009Y-60440476D01*
X118381009Y-60440476D02*
X118476247Y-60392857D01*
X118476247Y-60392857D02*
X118714342Y-60392857D01*
X118714342Y-60392857D02*
X118809580Y-60440476D01*
X118809580Y-60440476D02*
X118857200Y-60488095D01*
X118857200Y-60488095D02*
X118904819Y-60583333D01*
X118904819Y-60583333D02*
X118904819Y-60821428D01*
X118904819Y-60821428D02*
X118857200Y-60916666D01*
X118857200Y-60916666D02*
X118809580Y-60964285D01*
X144534200Y-55948808D02*
X144581819Y-55805951D01*
X144581819Y-55805951D02*
X144581819Y-55567856D01*
X144581819Y-55567856D02*
X144534200Y-55472618D01*
X144534200Y-55472618D02*
X144486580Y-55424999D01*
X144486580Y-55424999D02*
X144391342Y-55377380D01*
X144391342Y-55377380D02*
X144296104Y-55377380D01*
X144296104Y-55377380D02*
X144200866Y-55424999D01*
X144200866Y-55424999D02*
X144153247Y-55472618D01*
X144153247Y-55472618D02*
X144105628Y-55567856D01*
X144105628Y-55567856D02*
X144058009Y-55758332D01*
X144058009Y-55758332D02*
X144010390Y-55853570D01*
X144010390Y-55853570D02*
X143962771Y-55901189D01*
X143962771Y-55901189D02*
X143867533Y-55948808D01*
X143867533Y-55948808D02*
X143772295Y-55948808D01*
X143772295Y-55948808D02*
X143677057Y-55901189D01*
X143677057Y-55901189D02*
X143629438Y-55853570D01*
X143629438Y-55853570D02*
X143581819Y-55758332D01*
X143581819Y-55758332D02*
X143581819Y-55520237D01*
X143581819Y-55520237D02*
X143629438Y-55377380D01*
X144581819Y-54948808D02*
X143581819Y-54948808D01*
X143581819Y-54948808D02*
X143581819Y-54710713D01*
X143581819Y-54710713D02*
X143629438Y-54567856D01*
X143629438Y-54567856D02*
X143724676Y-54472618D01*
X143724676Y-54472618D02*
X143819914Y-54424999D01*
X143819914Y-54424999D02*
X144010390Y-54377380D01*
X144010390Y-54377380D02*
X144153247Y-54377380D01*
X144153247Y-54377380D02*
X144343723Y-54424999D01*
X144343723Y-54424999D02*
X144438961Y-54472618D01*
X144438961Y-54472618D02*
X144534200Y-54567856D01*
X144534200Y-54567856D02*
X144581819Y-54710713D01*
X144581819Y-54710713D02*
X144581819Y-54948808D01*
X144581819Y-53948808D02*
X143581819Y-53948808D01*
X120190476Y-55874819D02*
X120190476Y-56589104D01*
X120190476Y-56589104D02*
X120142857Y-56731961D01*
X120142857Y-56731961D02*
X120047619Y-56827200D01*
X120047619Y-56827200D02*
X119904762Y-56874819D01*
X119904762Y-56874819D02*
X119809524Y-56874819D01*
X121190476Y-56874819D02*
X120619048Y-56874819D01*
X120904762Y-56874819D02*
X120904762Y-55874819D01*
X120904762Y-55874819D02*
X120809524Y-56017676D01*
X120809524Y-56017676D02*
X120714286Y-56112914D01*
X120714286Y-56112914D02*
X120619048Y-56160533D01*
X122047619Y-55874819D02*
X121857143Y-55874819D01*
X121857143Y-55874819D02*
X121761905Y-55922438D01*
X121761905Y-55922438D02*
X121714286Y-55970057D01*
X121714286Y-55970057D02*
X121619048Y-56112914D01*
X121619048Y-56112914D02*
X121571429Y-56303390D01*
X121571429Y-56303390D02*
X121571429Y-56684342D01*
X121571429Y-56684342D02*
X121619048Y-56779580D01*
X121619048Y-56779580D02*
X121666667Y-56827200D01*
X121666667Y-56827200D02*
X121761905Y-56874819D01*
X121761905Y-56874819D02*
X121952381Y-56874819D01*
X121952381Y-56874819D02*
X122047619Y-56827200D01*
X122047619Y-56827200D02*
X122095238Y-56779580D01*
X122095238Y-56779580D02*
X122142857Y-56684342D01*
X122142857Y-56684342D02*
X122142857Y-56446247D01*
X122142857Y-56446247D02*
X122095238Y-56351009D01*
X122095238Y-56351009D02*
X122047619Y-56303390D01*
X122047619Y-56303390D02*
X121952381Y-56255771D01*
X121952381Y-56255771D02*
X121761905Y-56255771D01*
X121761905Y-56255771D02*
X121666667Y-56303390D01*
X121666667Y-56303390D02*
X121619048Y-56351009D01*
X121619048Y-56351009D02*
X121571429Y-56446247D01*
X141484200Y-56615475D02*
X141531819Y-56472618D01*
X141531819Y-56472618D02*
X141531819Y-56234523D01*
X141531819Y-56234523D02*
X141484200Y-56139285D01*
X141484200Y-56139285D02*
X141436580Y-56091666D01*
X141436580Y-56091666D02*
X141341342Y-56044047D01*
X141341342Y-56044047D02*
X141246104Y-56044047D01*
X141246104Y-56044047D02*
X141150866Y-56091666D01*
X141150866Y-56091666D02*
X141103247Y-56139285D01*
X141103247Y-56139285D02*
X141055628Y-56234523D01*
X141055628Y-56234523D02*
X141008009Y-56424999D01*
X141008009Y-56424999D02*
X140960390Y-56520237D01*
X140960390Y-56520237D02*
X140912771Y-56567856D01*
X140912771Y-56567856D02*
X140817533Y-56615475D01*
X140817533Y-56615475D02*
X140722295Y-56615475D01*
X140722295Y-56615475D02*
X140627057Y-56567856D01*
X140627057Y-56567856D02*
X140579438Y-56520237D01*
X140579438Y-56520237D02*
X140531819Y-56424999D01*
X140531819Y-56424999D02*
X140531819Y-56186904D01*
X140531819Y-56186904D02*
X140579438Y-56044047D01*
X141436580Y-55044047D02*
X141484200Y-55091666D01*
X141484200Y-55091666D02*
X141531819Y-55234523D01*
X141531819Y-55234523D02*
X141531819Y-55329761D01*
X141531819Y-55329761D02*
X141484200Y-55472618D01*
X141484200Y-55472618D02*
X141388961Y-55567856D01*
X141388961Y-55567856D02*
X141293723Y-55615475D01*
X141293723Y-55615475D02*
X141103247Y-55663094D01*
X141103247Y-55663094D02*
X140960390Y-55663094D01*
X140960390Y-55663094D02*
X140769914Y-55615475D01*
X140769914Y-55615475D02*
X140674676Y-55567856D01*
X140674676Y-55567856D02*
X140579438Y-55472618D01*
X140579438Y-55472618D02*
X140531819Y-55329761D01*
X140531819Y-55329761D02*
X140531819Y-55234523D01*
X140531819Y-55234523D02*
X140579438Y-55091666D01*
X140579438Y-55091666D02*
X140627057Y-55044047D01*
X141531819Y-54139285D02*
X141531819Y-54615475D01*
X141531819Y-54615475D02*
X140531819Y-54615475D01*
X141531819Y-53805951D02*
X140531819Y-53805951D01*
X141531819Y-53234523D02*
X140960390Y-53663094D01*
X140531819Y-53234523D02*
X141103247Y-53805951D01*
%TO.C,C16*%
D15*
X130490000Y-72508767D02*
X130490000Y-72216233D01*
X131510000Y-72508767D02*
X131510000Y-72216233D01*
%TO.C,R8*%
X158977500Y-71167224D02*
X158977500Y-70657776D01*
X160022500Y-71167224D02*
X160022500Y-70657776D01*
%TO.C,TP2*%
X136200000Y-75500000D02*
G75*
G02*
X134800000Y-75500000I-700000J0D01*
G01*
X134800000Y-75500000D02*
G75*
G02*
X136200000Y-75500000I700000J0D01*
G01*
%TO.C,C11*%
X150765000Y-60238748D02*
X150765000Y-60761252D01*
X152235000Y-60238748D02*
X152235000Y-60761252D01*
%TO.C,R16*%
X127977500Y-90167224D02*
X127977500Y-89657776D01*
X129022500Y-90167224D02*
X129022500Y-89657776D01*
%TO.C,R6*%
X127477500Y-55342224D02*
X127477500Y-54832776D01*
X128522500Y-55342224D02*
X128522500Y-54832776D01*
%TO.C,R17*%
X129477500Y-89657776D02*
X129477500Y-90167224D01*
X130522500Y-89657776D02*
X130522500Y-90167224D01*
%TO.C,TP1*%
X136200000Y-72450000D02*
G75*
G02*
X134800000Y-72450000I-700000J0D01*
G01*
X134800000Y-72450000D02*
G75*
G02*
X136200000Y-72450000I700000J0D01*
G01*
%TO.C,C18*%
X155990000Y-59508767D02*
X155990000Y-59216233D01*
X157010000Y-59508767D02*
X157010000Y-59216233D01*
%TO.C,R5*%
X130477500Y-55342224D02*
X130477500Y-54832776D01*
X131522500Y-55342224D02*
X131522500Y-54832776D01*
%TO.C,R15*%
X127477500Y-72667224D02*
X127477500Y-72157776D01*
X128522500Y-72667224D02*
X128522500Y-72157776D01*
%TO.C,C4*%
X145990000Y-79216233D02*
X145990000Y-79508767D01*
X147010000Y-79216233D02*
X147010000Y-79508767D01*
%TO.C,U3*%
D12*
X140825000Y-58500000D02*
X142300000Y-58500000D01*
X142650000Y-58650000D02*
X146350000Y-58650000D01*
X142650000Y-68350000D02*
X142650000Y-58650000D01*
X146350000Y-58650000D02*
X146350000Y-68350000D01*
X146350000Y-68350000D02*
X142650000Y-68350000D01*
%TO.C,C5*%
D15*
X133490000Y-62353733D02*
X133490000Y-62646267D01*
X134510000Y-62353733D02*
X134510000Y-62646267D01*
%TO.C,IC1*%
D12*
X142100000Y-72450000D02*
X143500000Y-72450000D01*
%TO.C,R2*%
D15*
X144977500Y-84167224D02*
X144977500Y-83657776D01*
X146022500Y-84167224D02*
X146022500Y-83657776D01*
%TO.C,AIN_4*%
X119250000Y-74600000D02*
X119250000Y-75850000D01*
X119250000Y-75850000D02*
X120500000Y-75850000D01*
X121800000Y-67950000D02*
X121800000Y-68700000D01*
X121800000Y-68700000D02*
X124750000Y-68700000D01*
X121800000Y-74800000D02*
X124750000Y-74800000D01*
X121800000Y-75550000D02*
X121800000Y-74800000D01*
X124750000Y-68700000D02*
X124750000Y-71750000D01*
X124750000Y-74800000D02*
X124750000Y-71750000D01*
X119540000Y-67940000D02*
X125510000Y-67940000D01*
X125510000Y-75560000D01*
X119540000Y-75560000D01*
X119540000Y-67940000D01*
X119550000Y-67950000D02*
X120300000Y-67950000D01*
X120300000Y-69750000D01*
X119550000Y-69750000D01*
X119550000Y-67950000D01*
X119550000Y-71250000D02*
X120300000Y-71250000D01*
X120300000Y-72250000D01*
X119550000Y-72250000D01*
X119550000Y-71250000D01*
X119550000Y-73750000D02*
X120300000Y-73750000D01*
X120300000Y-75550000D01*
X119550000Y-75550000D01*
X119550000Y-73750000D01*
%TO.C,R3*%
X143477500Y-79157776D02*
X143477500Y-79667224D01*
X144522500Y-79157776D02*
X144522500Y-79667224D01*
%TO.C,R13*%
X127477500Y-59842224D02*
X127477500Y-59332776D01*
X128522500Y-59842224D02*
X128522500Y-59332776D01*
%TO.C,R1*%
X147977500Y-84167224D02*
X147977500Y-83657776D01*
X149022500Y-84167224D02*
X149022500Y-83657776D01*
%TO.C,J6*%
X151120000Y-40000000D02*
X152500000Y-40000000D01*
X151120000Y-41380000D02*
X151120000Y-40000000D01*
X151120000Y-42650000D02*
X151120000Y-55460000D01*
X151120000Y-42650000D02*
X153880000Y-42650000D01*
X151120000Y-55460000D02*
X153880000Y-55460000D01*
X153880000Y-42650000D02*
X153880000Y-55460000D01*
%TO.C,TP8*%
X152700000Y-76500000D02*
G75*
G02*
X151300000Y-76500000I-700000J0D01*
G01*
X151300000Y-76500000D02*
G75*
G02*
X152700000Y-76500000I700000J0D01*
G01*
%TO.C,SW2*%
D10*
D16*
X132250000Y-79500000D02*
X132249999Y-79500000D01*
X132249999Y-79500000D01*
X132249999Y-79500000D01*
X132249999Y-79500000D01*
X132249999Y-79500000D01*
X132249999Y-79500000D01*
X132249999Y-79500000D01*
X132249999Y-79499999D01*
X132249999Y-79499999D01*
X132249999Y-79499999D01*
X132249999Y-79499999D01*
X132249999Y-79499999D01*
X132250000Y-79499999D01*
X132250000Y-79499999D01*
X132250000Y-79499999D01*
X132250000Y-79499999D01*
X132250000Y-79499999D01*
X132250000Y-79499999D01*
X132250000Y-79499999D01*
X132250000Y-79499999D01*
X132250000Y-79499999D01*
X132250000Y-79499999D01*
X132250000Y-79499999D01*
X132250000Y-79499999D01*
X132250001Y-79499999D01*
X132250001Y-79499999D01*
X132250001Y-79499999D01*
X132250001Y-79499999D01*
X132250001Y-79499999D01*
X132250001Y-79499999D01*
X132250001Y-79500000D01*
X132250001Y-79500000D01*
X132250001Y-79500000D01*
X132250001Y-79500000D01*
X132250001Y-79500000D01*
X132250001Y-79500000D01*
X132250001Y-79500000D01*
X132250000Y-79500000D01*
X132250000Y-79500000D02*
X132250001Y-79500000D01*
X132250001Y-79500000D01*
X132250001Y-79500000D01*
X132250001Y-79500000D01*
X132250001Y-79500000D01*
X132250001Y-79500000D01*
X132250001Y-79500001D01*
X132250001Y-79500001D01*
X132250001Y-79500001D01*
X132250001Y-79500001D01*
X132250001Y-79500001D01*
X132250001Y-79500001D01*
X132250001Y-79500001D01*
X132250000Y-79500001D01*
X132250000Y-79500001D01*
X132250000Y-79500001D01*
X132250000Y-79500001D01*
X132250000Y-79500001D01*
X132250000Y-79500001D01*
X132250000Y-79500001D01*
X132250000Y-79500001D01*
X132250000Y-79500001D01*
X132250000Y-79500001D01*
X132250000Y-79500001D01*
X132250000Y-79500001D01*
X132249999Y-79500001D01*
X132249999Y-79500001D01*
X132249999Y-79500001D01*
X132249999Y-79500001D01*
X132249999Y-79500001D01*
X132249999Y-79500001D01*
X132249999Y-79500000D01*
X132249999Y-79500000D01*
X132249999Y-79500000D01*
X132249999Y-79500000D01*
X132249999Y-79500000D01*
X132249999Y-79500000D01*
X132250000Y-79500000D01*
D10*
D16*
X132350000Y-79500000D02*
X132349999Y-79500000D01*
X132349999Y-79500000D01*
X132349999Y-79500000D01*
X132349999Y-79500000D01*
X132349999Y-79500000D01*
X132349999Y-79500000D01*
X132349999Y-79500000D01*
X132349999Y-79499999D01*
X132349999Y-79499999D01*
X132349999Y-79499999D01*
X132349999Y-79499999D01*
X132349999Y-79499999D01*
X132350000Y-79499999D01*
X132350000Y-79499999D01*
X132350000Y-79499999D01*
X132350000Y-79499999D01*
X132350000Y-79499999D01*
X132350000Y-79499999D01*
X132350000Y-79499999D01*
X132350000Y-79499999D01*
X132350000Y-79499999D01*
X132350000Y-79499999D01*
X132350000Y-79499999D01*
X132350000Y-79499999D01*
X132350001Y-79499999D01*
X132350001Y-79499999D01*
X132350001Y-79499999D01*
X132350001Y-79499999D01*
X132350001Y-79499999D01*
X132350001Y-79499999D01*
X132350001Y-79500000D01*
X132350001Y-79500000D01*
X132350001Y-79500000D01*
X132350001Y-79500000D01*
X132350001Y-79500000D01*
X132350001Y-79500000D01*
X132350001Y-79500000D01*
X132350000Y-79500000D01*
X132350000Y-79500000D02*
X132350001Y-79500000D01*
X132350001Y-79500000D01*
X132350001Y-79500000D01*
X132350001Y-79500000D01*
X132350001Y-79500000D01*
X132350001Y-79500000D01*
X132350001Y-79500001D01*
X132350001Y-79500001D01*
X132350001Y-79500001D01*
X132350001Y-79500001D01*
X132350001Y-79500001D01*
X132350001Y-79500001D01*
X132350001Y-79500001D01*
X132350000Y-79500001D01*
X132350000Y-79500001D01*
X132350000Y-79500001D01*
X132350000Y-79500001D01*
X132350000Y-79500001D01*
X132350000Y-79500001D01*
X132350000Y-79500001D01*
X132350000Y-79500001D01*
X132350000Y-79500001D01*
X132350000Y-79500001D01*
X132350000Y-79500001D01*
X132350000Y-79500001D01*
X132349999Y-79500001D01*
X132349999Y-79500001D01*
X132349999Y-79500001D01*
X132349999Y-79500001D01*
X132349999Y-79500001D01*
X132349999Y-79500001D01*
X132349999Y-79500000D01*
X132349999Y-79500000D01*
X132349999Y-79500000D01*
X132349999Y-79500000D01*
X132349999Y-79500000D01*
X132349999Y-79500000D01*
X132350000Y-79500000D01*
D12*
X133750000Y-80550000D02*
X133750000Y-82950000D01*
X134750000Y-78750000D02*
X139150000Y-78750000D01*
X139150000Y-84750000D02*
X134350000Y-84750000D01*
X139750000Y-80550000D02*
X139750000Y-82950000D01*
D10*
X132250000Y-79500000D02*
G75*
G02*
X132350000Y-79500000I50000J0D01*
G01*
X132350000Y-79500000D02*
G75*
G02*
X132250000Y-79500000I-50000J0D01*
G01*
%TO.C,SW1*%
D16*
X150750000Y-79500000D02*
X150749999Y-79500000D01*
X150749999Y-79500000D01*
X150749999Y-79500000D01*
X150749999Y-79500000D01*
X150749999Y-79500000D01*
X150749999Y-79500000D01*
X150749999Y-79500000D01*
X150749999Y-79499999D01*
X150749999Y-79499999D01*
X150749999Y-79499999D01*
X150749999Y-79499999D01*
X150749999Y-79499999D01*
X150750000Y-79499999D01*
X150750000Y-79499999D01*
X150750000Y-79499999D01*
X150750000Y-79499999D01*
X150750000Y-79499999D01*
X150750000Y-79499999D01*
X150750000Y-79499999D01*
X150750000Y-79499999D01*
X150750000Y-79499999D01*
X150750000Y-79499999D01*
X150750000Y-79499999D01*
X150750000Y-79499999D01*
X150750001Y-79499999D01*
X150750001Y-79499999D01*
X150750001Y-79499999D01*
X150750001Y-79499999D01*
X150750001Y-79499999D01*
X150750001Y-79499999D01*
X150750001Y-79500000D01*
X150750001Y-79500000D01*
X150750001Y-79500000D01*
X150750001Y-79500000D01*
X150750001Y-79500000D01*
X150750001Y-79500000D01*
X150750001Y-79500000D01*
X150750000Y-79500000D01*
X150750000Y-79500000D02*
X150750001Y-79500000D01*
X150750001Y-79500000D01*
X150750001Y-79500000D01*
X150750001Y-79500000D01*
X150750001Y-79500000D01*
X150750001Y-79500000D01*
X150750001Y-79500001D01*
X150750001Y-79500001D01*
X150750001Y-79500001D01*
X150750001Y-79500001D01*
X150750001Y-79500001D01*
X150750001Y-79500001D01*
X150750001Y-79500001D01*
X150750000Y-79500001D01*
X150750000Y-79500001D01*
X150750000Y-79500001D01*
X150750000Y-79500001D01*
X150750000Y-79500001D01*
X150750000Y-79500001D01*
X150750000Y-79500001D01*
X150750000Y-79500001D01*
X150750000Y-79500001D01*
X150750000Y-79500001D01*
X150750000Y-79500001D01*
X150750000Y-79500001D01*
X150749999Y-79500001D01*
X150749999Y-79500001D01*
X150749999Y-79500001D01*
X150749999Y-79500001D01*
X150749999Y-79500001D01*
X150749999Y-79500001D01*
X150749999Y-79500000D01*
X150749999Y-79500000D01*
X150749999Y-79500000D01*
X150749999Y-79500000D01*
X150749999Y-79500000D01*
X150749999Y-79500000D01*
X150750000Y-79500000D01*
D10*
D16*
X150850000Y-79500000D02*
X150849999Y-79500000D01*
X150849999Y-79500000D01*
X150849999Y-79500000D01*
X150849999Y-79500000D01*
X150849999Y-79500000D01*
X150849999Y-79500000D01*
X150849999Y-79500000D01*
X150849999Y-79499999D01*
X150849999Y-79499999D01*
X150849999Y-79499999D01*
X150849999Y-79499999D01*
X150849999Y-79499999D01*
X150850000Y-79499999D01*
X150850000Y-79499999D01*
X150850000Y-79499999D01*
X150850000Y-79499999D01*
X150850000Y-79499999D01*
X150850000Y-79499999D01*
X150850000Y-79499999D01*
X150850000Y-79499999D01*
X150850000Y-79499999D01*
X150850000Y-79499999D01*
X150850000Y-79499999D01*
X150850000Y-79499999D01*
X150850001Y-79499999D01*
X150850001Y-79499999D01*
X150850001Y-79499999D01*
X150850001Y-79499999D01*
X150850001Y-79499999D01*
X150850001Y-79499999D01*
X150850001Y-79500000D01*
X150850001Y-79500000D01*
X150850001Y-79500000D01*
X150850001Y-79500000D01*
X150850001Y-79500000D01*
X150850001Y-79500000D01*
X150850001Y-79500000D01*
X150850000Y-79500000D01*
X150850000Y-79500000D02*
X150850001Y-79500000D01*
X150850001Y-79500000D01*
X150850001Y-79500000D01*
X150850001Y-79500000D01*
X150850001Y-79500000D01*
X150850001Y-79500000D01*
X150850001Y-79500001D01*
X150850001Y-79500001D01*
X150850001Y-79500001D01*
X150850001Y-79500001D01*
X150850001Y-79500001D01*
X150850001Y-79500001D01*
X150850001Y-79500001D01*
X150850000Y-79500001D01*
X150850000Y-79500001D01*
X150850000Y-79500001D01*
X150850000Y-79500001D01*
X150850000Y-79500001D01*
X150850000Y-79500001D01*
X150850000Y-79500001D01*
X150850000Y-79500001D01*
X150850000Y-79500001D01*
X150850000Y-79500001D01*
X150850000Y-79500001D01*
X150850000Y-79500001D01*
X150849999Y-79500001D01*
X150849999Y-79500001D01*
X150849999Y-79500001D01*
X150849999Y-79500001D01*
X150849999Y-79500001D01*
X150849999Y-79500001D01*
X150849999Y-79500000D01*
X150849999Y-79500000D01*
X150849999Y-79500000D01*
X150849999Y-79500000D01*
X150849999Y-79500000D01*
X150849999Y-79500000D01*
X150850000Y-79500000D01*
D12*
X152250000Y-80550000D02*
X152250000Y-82950000D01*
X153250000Y-78750000D02*
X157650000Y-78750000D01*
X157650000Y-84750000D02*
X152850000Y-84750000D01*
X158250000Y-80550000D02*
X158250000Y-82950000D01*
D10*
X150750000Y-79500000D02*
G75*
G02*
X150850000Y-79500000I50000J0D01*
G01*
X150850000Y-79500000D02*
G75*
G02*
X150750000Y-79500000I-50000J0D01*
G01*
%TO.C,IC2*%
D16*
X126750000Y-39000000D02*
X126749999Y-39000000D01*
X126749999Y-39000000D01*
X126749999Y-39000000D01*
X126749999Y-39000000D01*
X126749999Y-39000000D01*
X126749999Y-39000000D01*
X126749999Y-39000000D01*
X126749999Y-38999999D01*
X126749999Y-38999999D01*
X126749999Y-38999999D01*
X126749999Y-38999999D01*
X126749999Y-38999999D01*
X126750000Y-38999999D01*
X126750000Y-38999999D01*
X126750000Y-38999999D01*
X126750000Y-38999999D01*
X126750000Y-38999999D01*
X126750000Y-38999999D01*
X126750000Y-38999999D01*
X126750000Y-38999999D01*
X126750000Y-38999999D01*
X126750000Y-38999999D01*
X126750000Y-38999999D01*
X126750000Y-38999999D01*
X126750001Y-38999999D01*
X126750001Y-38999999D01*
X126750001Y-38999999D01*
X126750001Y-38999999D01*
X126750001Y-38999999D01*
X126750001Y-38999999D01*
X126750001Y-39000000D01*
X126750001Y-39000000D01*
X126750001Y-39000000D01*
X126750001Y-39000000D01*
X126750001Y-39000000D01*
X126750001Y-39000000D01*
X126750001Y-39000000D01*
X126750000Y-39000000D01*
X126750000Y-39000000D02*
X126750001Y-39000000D01*
X126750001Y-39000000D01*
X126750001Y-39000000D01*
X126750001Y-39000000D01*
X126750001Y-39000000D01*
X126750001Y-39000000D01*
X126750001Y-39000001D01*
X126750001Y-39000001D01*
X126750001Y-39000001D01*
X126750001Y-39000001D01*
X126750001Y-39000001D01*
X126750001Y-39000001D01*
X126750001Y-39000001D01*
X126750000Y-39000001D01*
X126750000Y-39000001D01*
X126750000Y-39000001D01*
X126750000Y-39000001D01*
X126750000Y-39000001D01*
X126750000Y-39000001D01*
X126750000Y-39000001D01*
X126750000Y-39000001D01*
X126750000Y-39000001D01*
X126750000Y-39000001D01*
X126750000Y-39000001D01*
X126750000Y-39000001D01*
X126749999Y-39000001D01*
X126749999Y-39000001D01*
X126749999Y-39000001D01*
X126749999Y-39000001D01*
X126749999Y-39000001D01*
X126749999Y-39000001D01*
X126749999Y-39000000D01*
X126749999Y-39000000D01*
X126749999Y-39000000D01*
X126749999Y-39000000D01*
X126749999Y-39000000D01*
X126749999Y-39000000D01*
X126750000Y-39000000D01*
D10*
D16*
X126750000Y-39100000D02*
X126749999Y-39100000D01*
X126749999Y-39100000D01*
X126749999Y-39100000D01*
X126749999Y-39100000D01*
X126749999Y-39100000D01*
X126749999Y-39100000D01*
X126749999Y-39100000D01*
X126749999Y-39099999D01*
X126749999Y-39099999D01*
X126749999Y-39099999D01*
X126749999Y-39099999D01*
X126749999Y-39099999D01*
X126750000Y-39099999D01*
X126750000Y-39099999D01*
X126750000Y-39099999D01*
X126750000Y-39099999D01*
X126750000Y-39099999D01*
X126750000Y-39099999D01*
X126750000Y-39099999D01*
X126750000Y-39099999D01*
X126750000Y-39099999D01*
X126750000Y-39099999D01*
X126750000Y-39099999D01*
X126750000Y-39099999D01*
X126750001Y-39099999D01*
X126750001Y-39099999D01*
X126750001Y-39099999D01*
X126750001Y-39099999D01*
X126750001Y-39099999D01*
X126750001Y-39099999D01*
X126750001Y-39100000D01*
X126750001Y-39100000D01*
X126750001Y-39100000D01*
X126750001Y-39100000D01*
X126750001Y-39100000D01*
X126750001Y-39100000D01*
X126750001Y-39100000D01*
X126750000Y-39100000D01*
X126750000Y-39100000D02*
X126750001Y-39100000D01*
X126750001Y-39100000D01*
X126750001Y-39100000D01*
X126750001Y-39100000D01*
X126750001Y-39100000D01*
X126750001Y-39100000D01*
X126750001Y-39100001D01*
X126750001Y-39100001D01*
X126750001Y-39100001D01*
X126750001Y-39100001D01*
X126750001Y-39100001D01*
X126750001Y-39100001D01*
X126750001Y-39100001D01*
X126750000Y-39100001D01*
X126750000Y-39100001D01*
X126750000Y-39100001D01*
X126750000Y-39100001D01*
X126750000Y-39100001D01*
X126750000Y-39100001D01*
X126750000Y-39100001D01*
X126750000Y-39100001D01*
X126750000Y-39100001D01*
X126750000Y-39100001D01*
X126750000Y-39100001D01*
X126750000Y-39100001D01*
X126749999Y-39100001D01*
X126749999Y-39100001D01*
X126749999Y-39100001D01*
X126749999Y-39100001D01*
X126749999Y-39100001D01*
X126749999Y-39100001D01*
X126749999Y-39100000D01*
X126749999Y-39100000D01*
X126749999Y-39100000D01*
X126749999Y-39100000D01*
X126749999Y-39100000D01*
X126749999Y-39100000D01*
X126750000Y-39100000D01*
D12*
X127750000Y-31900000D02*
X145750000Y-31900000D01*
X127750000Y-37900000D02*
X127750000Y-31900000D01*
X129750000Y-51900000D02*
X143750000Y-51900000D01*
X145750000Y-31900000D02*
X145750000Y-37900000D01*
D10*
X126750000Y-39000000D02*
G75*
G02*
X126750000Y-39100000I0J-50000D01*
G01*
X126750000Y-39100000D02*
G75*
G02*
X126750000Y-39000000I0J50000D01*
G01*
%TO.C,R10*%
D15*
X158977500Y-63342224D02*
X158977500Y-62832776D01*
X160022500Y-63342224D02*
X160022500Y-62832776D01*
%TO.C,C6*%
X123990000Y-45216233D02*
X123990000Y-45508767D01*
X125010000Y-45216233D02*
X125010000Y-45508767D01*
%TO.C,Load_In/B1_Out*%
X161750000Y-68700000D02*
X161750000Y-71750000D01*
X161750000Y-74800000D02*
X161750000Y-71750000D01*
X164700000Y-67950000D02*
X164700000Y-68700000D01*
X164700000Y-68700000D02*
X161750000Y-68700000D01*
X164700000Y-74800000D02*
X161750000Y-74800000D01*
X164700000Y-75550000D02*
X164700000Y-74800000D01*
X167250000Y-67650000D02*
X166000000Y-67650000D01*
X167250000Y-68900000D02*
X167250000Y-67650000D01*
X166200000Y-67950000D02*
X166950000Y-67950000D01*
X166950000Y-69750000D01*
X166200000Y-69750000D01*
X166200000Y-67950000D01*
X166200000Y-71250000D02*
X166950000Y-71250000D01*
X166950000Y-72250000D01*
X166200000Y-72250000D01*
X166200000Y-71250000D01*
X166200000Y-73750000D02*
X166950000Y-73750000D01*
X166950000Y-75550000D01*
X166200000Y-75550000D01*
X166200000Y-73750000D01*
X160990000Y-67940000D02*
X166960000Y-67940000D01*
X166960000Y-75560000D01*
X160990000Y-75560000D01*
X160990000Y-67940000D01*
%TO.C,R12*%
X127477500Y-64254724D02*
X127477500Y-63745276D01*
X128522500Y-64254724D02*
X128522500Y-63745276D01*
%TO.C,J2*%
D12*
X139955000Y-95375000D02*
X139955000Y-96775000D01*
X139955000Y-99775000D02*
X139955000Y-100275000D01*
X139955000Y-100275000D02*
X148895000Y-100275000D01*
D10*
D16*
X141225000Y-91975000D02*
X141224999Y-91975000D01*
X141224999Y-91975000D01*
X141224999Y-91975000D01*
X141224999Y-91975000D01*
X141224999Y-91975000D01*
X141224999Y-91975000D01*
X141224999Y-91975000D01*
X141224999Y-91974999D01*
X141224999Y-91974999D01*
X141224999Y-91974999D01*
X141224999Y-91974999D01*
X141224999Y-91974999D01*
X141225000Y-91974999D01*
X141225000Y-91974999D01*
X141225000Y-91974999D01*
X141225000Y-91974999D01*
X141225000Y-91974999D01*
X141225000Y-91974999D01*
X141225000Y-91974999D01*
X141225000Y-91974999D01*
X141225000Y-91974999D01*
X141225000Y-91974999D01*
X141225000Y-91974999D01*
X141225000Y-91974999D01*
X141225001Y-91974999D01*
X141225001Y-91974999D01*
X141225001Y-91974999D01*
X141225001Y-91974999D01*
X141225001Y-91974999D01*
X141225001Y-91974999D01*
X141225001Y-91975000D01*
X141225001Y-91975000D01*
X141225001Y-91975000D01*
X141225001Y-91975000D01*
X141225001Y-91975000D01*
X141225001Y-91975000D01*
X141225001Y-91975000D01*
X141225000Y-91975000D01*
X141225000Y-91975000D02*
X141225001Y-91975000D01*
X141225001Y-91975000D01*
X141225001Y-91975000D01*
X141225001Y-91975000D01*
X141225001Y-91975000D01*
X141225001Y-91975000D01*
X141225001Y-91975001D01*
X141225001Y-91975001D01*
X141225001Y-91975001D01*
X141225001Y-91975001D01*
X141225001Y-91975001D01*
X141225001Y-91975001D01*
X141225001Y-91975001D01*
X141225000Y-91975001D01*
X141225000Y-91975001D01*
X141225000Y-91975001D01*
X141225000Y-91975001D01*
X141225000Y-91975001D01*
X141225000Y-91975001D01*
X141225000Y-91975001D01*
X141225000Y-91975001D01*
X141225000Y-91975001D01*
X141225000Y-91975001D01*
X141225000Y-91975001D01*
X141225000Y-91975001D01*
X141224999Y-91975001D01*
X141224999Y-91975001D01*
X141224999Y-91975001D01*
X141224999Y-91975001D01*
X141224999Y-91975001D01*
X141224999Y-91975001D01*
X141224999Y-91975000D01*
X141224999Y-91975000D01*
X141224999Y-91975000D01*
X141224999Y-91975000D01*
X141224999Y-91975000D01*
X141224999Y-91975000D01*
X141225000Y-91975000D01*
D10*
D16*
X141225000Y-92075000D02*
X141224999Y-92075000D01*
X141224999Y-92075000D01*
X141224999Y-92075000D01*
X141224999Y-92075000D01*
X141224999Y-92075000D01*
X141224999Y-92075000D01*
X141224999Y-92075000D01*
X141224999Y-92074999D01*
X141224999Y-92074999D01*
X141224999Y-92074999D01*
X141224999Y-92074999D01*
X141224999Y-92074999D01*
X141225000Y-92074999D01*
X141225000Y-92074999D01*
X141225000Y-92074999D01*
X141225000Y-92074999D01*
X141225000Y-92074999D01*
X141225000Y-92074999D01*
X141225000Y-92074999D01*
X141225000Y-92074999D01*
X141225000Y-92074999D01*
X141225000Y-92074999D01*
X141225000Y-92074999D01*
X141225000Y-92074999D01*
X141225001Y-92074999D01*
X141225001Y-92074999D01*
X141225001Y-92074999D01*
X141225001Y-92074999D01*
X141225001Y-92074999D01*
X141225001Y-92074999D01*
X141225001Y-92075000D01*
X141225001Y-92075000D01*
X141225001Y-92075000D01*
X141225001Y-92075000D01*
X141225001Y-92075000D01*
X141225001Y-92075000D01*
X141225001Y-92075000D01*
X141225000Y-92075000D01*
X141225000Y-92075000D02*
X141225001Y-92075000D01*
X141225001Y-92075000D01*
X141225001Y-92075000D01*
X141225001Y-92075000D01*
X141225001Y-92075000D01*
X141225001Y-92075000D01*
X141225001Y-92075001D01*
X141225001Y-92075001D01*
X141225001Y-92075001D01*
X141225001Y-92075001D01*
X141225001Y-92075001D01*
X141225001Y-92075001D01*
X141225001Y-92075001D01*
X141225000Y-92075001D01*
X141225000Y-92075001D01*
X141225000Y-92075001D01*
X141225000Y-92075001D01*
X141225000Y-92075001D01*
X141225000Y-92075001D01*
X141225000Y-92075001D01*
X141225000Y-92075001D01*
X141225000Y-92075001D01*
X141225000Y-92075001D01*
X141225000Y-92075001D01*
X141225000Y-92075001D01*
X141224999Y-92075001D01*
X141224999Y-92075001D01*
X141224999Y-92075001D01*
X141224999Y-92075001D01*
X141224999Y-92075001D01*
X141224999Y-92075001D01*
X141224999Y-92075000D01*
X141224999Y-92075000D01*
X141224999Y-92075000D01*
X141224999Y-92075000D01*
X141224999Y-92075000D01*
X141224999Y-92075000D01*
X141225000Y-92075000D01*
D12*
X148895000Y-95375000D02*
X148895000Y-96775000D01*
X148895000Y-100275000D02*
X148895000Y-99775000D01*
D10*
X141225000Y-91975000D02*
G75*
G02*
X141225000Y-92075000I0J-50000D01*
G01*
X141225000Y-92075000D02*
G75*
G02*
X141225000Y-91975000I0J50000D01*
G01*
%TO.C,C15*%
D15*
X130490000Y-68508767D02*
X130490000Y-68216233D01*
X131510000Y-68508767D02*
X131510000Y-68216233D01*
%TO.C,R11*%
X158977500Y-59667224D02*
X158977500Y-59157776D01*
X160022500Y-59667224D02*
X160022500Y-59157776D01*
%TO.C,C23*%
X121490000Y-45216233D02*
X121490000Y-45508767D01*
X122510000Y-45216233D02*
X122510000Y-45508767D01*
%TO.C,C19*%
X130490000Y-64176267D02*
X130490000Y-63883733D01*
X131510000Y-64176267D02*
X131510000Y-63883733D01*
%TO.C,CS*%
X140200000Y-55000000D02*
G75*
G02*
X138800000Y-55000000I-700000J0D01*
G01*
X138800000Y-55000000D02*
G75*
G02*
X140200000Y-55000000I700000J0D01*
G01*
%TO.C,R18*%
X127977500Y-80667224D02*
X127977500Y-80157776D01*
X129022500Y-80667224D02*
X129022500Y-80157776D01*
%TO.C,SDO*%
X149325000Y-54925000D02*
G75*
G02*
X147925000Y-54925000I-700000J0D01*
G01*
X147925000Y-54925000D02*
G75*
G02*
X149325000Y-54925000I700000J0D01*
G01*
%TO.C,R9*%
X158977500Y-67167224D02*
X158977500Y-66657776D01*
X160022500Y-67167224D02*
X160022500Y-66657776D01*
%TO.C,R19*%
X129477500Y-80157776D02*
X129477500Y-80667224D01*
X130522500Y-80157776D02*
X130522500Y-80667224D01*
%TO.C,TP3*%
X152700000Y-72000000D02*
G75*
G02*
X151300000Y-72000000I-700000J0D01*
G01*
X151300000Y-72000000D02*
G75*
G02*
X152700000Y-72000000I700000J0D01*
G01*
%TO.C,MPPT_Out/B1_In*%
X161750000Y-78200000D02*
X161750000Y-81250000D01*
X161750000Y-84300000D02*
X161750000Y-81250000D01*
X164700000Y-77450000D02*
X164700000Y-78200000D01*
X164700000Y-78200000D02*
X161750000Y-78200000D01*
X164700000Y-84300000D02*
X161750000Y-84300000D01*
X164700000Y-85050000D02*
X164700000Y-84300000D01*
X167250000Y-77150000D02*
X166000000Y-77150000D01*
X167250000Y-78400000D02*
X167250000Y-77150000D01*
X166200000Y-77450000D02*
X166950000Y-77450000D01*
X166950000Y-79250000D01*
X166200000Y-79250000D01*
X166200000Y-77450000D01*
X166200000Y-80750000D02*
X166950000Y-80750000D01*
X166950000Y-81750000D01*
X166200000Y-81750000D01*
X166200000Y-80750000D01*
X166200000Y-83250000D02*
X166950000Y-83250000D01*
X166950000Y-85050000D01*
X166200000Y-85050000D01*
X166200000Y-83250000D01*
X160990000Y-77440000D02*
X166960000Y-77440000D01*
X166960000Y-85060000D01*
X160990000Y-85060000D01*
X160990000Y-77440000D01*
%TO.C,C10*%
X136990000Y-66353733D02*
X136990000Y-66646267D01*
X138010000Y-66353733D02*
X138010000Y-66646267D01*
%TO.C,C12*%
X151716233Y-66990000D02*
X152008767Y-66990000D01*
X151716233Y-68010000D02*
X152008767Y-68010000D01*
%TO.C,R4*%
X148977500Y-79157776D02*
X148977500Y-79667224D01*
X150022500Y-79157776D02*
X150022500Y-79667224D01*
%TO.C,C21*%
X155990000Y-71008767D02*
X155990000Y-70716233D01*
X157010000Y-71008767D02*
X157010000Y-70716233D01*
%TO.C,C22*%
X155990000Y-67058767D02*
X155990000Y-66766233D01*
X157010000Y-67058767D02*
X157010000Y-66766233D01*
%TO.C,Batt2_V*%
X119250000Y-84100000D02*
X119250000Y-85350000D01*
X119250000Y-85350000D02*
X120500000Y-85350000D01*
X121800000Y-77450000D02*
X121800000Y-78200000D01*
X121800000Y-78200000D02*
X124750000Y-78200000D01*
X121800000Y-84300000D02*
X124750000Y-84300000D01*
X121800000Y-85050000D02*
X121800000Y-84300000D01*
X124750000Y-78200000D02*
X124750000Y-81250000D01*
X124750000Y-84300000D02*
X124750000Y-81250000D01*
X119540000Y-77440000D02*
X125510000Y-77440000D01*
X125510000Y-85060000D01*
X119540000Y-85060000D01*
X119540000Y-77440000D01*
X119550000Y-77450000D02*
X120300000Y-77450000D01*
X120300000Y-79250000D01*
X119550000Y-79250000D01*
X119550000Y-77450000D01*
X119550000Y-80750000D02*
X120300000Y-80750000D01*
X120300000Y-81750000D01*
X119550000Y-81750000D01*
X119550000Y-80750000D01*
X119550000Y-83250000D02*
X120300000Y-83250000D01*
X120300000Y-85050000D01*
X119550000Y-85050000D01*
X119550000Y-83250000D01*
%TO.C,C8*%
X135990000Y-62353733D02*
X135990000Y-62646267D01*
X137010000Y-62353733D02*
X137010000Y-62646267D01*
%TO.C,Batt1_V*%
X119250000Y-93600000D02*
X119250000Y-94850000D01*
X119250000Y-94850000D02*
X120500000Y-94850000D01*
X121800000Y-86950000D02*
X121800000Y-87700000D01*
X121800000Y-87700000D02*
X124750000Y-87700000D01*
X121800000Y-93800000D02*
X124750000Y-93800000D01*
X121800000Y-94550000D02*
X121800000Y-93800000D01*
X124750000Y-87700000D02*
X124750000Y-90750000D01*
X124750000Y-93800000D02*
X124750000Y-90750000D01*
X119540000Y-86940000D02*
X125510000Y-86940000D01*
X125510000Y-94560000D01*
X119540000Y-94560000D01*
X119540000Y-86940000D01*
X119550000Y-86950000D02*
X120300000Y-86950000D01*
X120300000Y-88750000D01*
X119550000Y-88750000D01*
X119550000Y-86950000D01*
X119550000Y-90250000D02*
X120300000Y-90250000D01*
X120300000Y-91250000D01*
X119550000Y-91250000D01*
X119550000Y-90250000D01*
X119550000Y-92750000D02*
X120300000Y-92750000D01*
X120300000Y-94550000D01*
X119550000Y-94550000D01*
X119550000Y-92750000D01*
%TO.C,5V_In*%
X161750000Y-87700000D02*
X161750000Y-90750000D01*
X161750000Y-93800000D02*
X161750000Y-90750000D01*
X164700000Y-86950000D02*
X164700000Y-87700000D01*
X164700000Y-87700000D02*
X161750000Y-87700000D01*
X164700000Y-93800000D02*
X161750000Y-93800000D01*
X164700000Y-94550000D02*
X164700000Y-93800000D01*
X167250000Y-86650000D02*
X166000000Y-86650000D01*
X167250000Y-87900000D02*
X167250000Y-86650000D01*
X166200000Y-86950000D02*
X166950000Y-86950000D01*
X166950000Y-88750000D01*
X166200000Y-88750000D01*
X166200000Y-86950000D01*
X166200000Y-90250000D02*
X166950000Y-90250000D01*
X166950000Y-91250000D01*
X166200000Y-91250000D01*
X166200000Y-90250000D01*
X166200000Y-92750000D02*
X166950000Y-92750000D01*
X166950000Y-94550000D01*
X166200000Y-94550000D01*
X166200000Y-92750000D01*
X160990000Y-86940000D02*
X166960000Y-86940000D01*
X166960000Y-94560000D01*
X160990000Y-94560000D01*
X160990000Y-86940000D01*
%TO.C,B1_Net/B2_In*%
X161750000Y-59200000D02*
X161750000Y-62250000D01*
X161750000Y-65300000D02*
X161750000Y-62250000D01*
X164700000Y-58450000D02*
X164700000Y-59200000D01*
X164700000Y-59200000D02*
X161750000Y-59200000D01*
X164700000Y-65300000D02*
X161750000Y-65300000D01*
X164700000Y-66050000D02*
X164700000Y-65300000D01*
X167250000Y-58150000D02*
X166000000Y-58150000D01*
X167250000Y-59400000D02*
X167250000Y-58150000D01*
X166200000Y-58450000D02*
X166950000Y-58450000D01*
X166950000Y-60250000D01*
X166200000Y-60250000D01*
X166200000Y-58450000D01*
X166200000Y-61750000D02*
X166950000Y-61750000D01*
X166950000Y-62750000D01*
X166200000Y-62750000D01*
X166200000Y-61750000D01*
X166200000Y-64250000D02*
X166950000Y-64250000D01*
X166950000Y-66050000D01*
X166200000Y-66050000D01*
X166200000Y-64250000D01*
X160990000Y-58440000D02*
X166960000Y-58440000D01*
X166960000Y-66060000D01*
X160990000Y-66060000D01*
X160990000Y-58440000D01*
%TO.C,C14*%
X130490000Y-59646267D02*
X130490000Y-59353733D01*
X131510000Y-59646267D02*
X131510000Y-59353733D01*
%TO.C,C7*%
X138490000Y-62353733D02*
X138490000Y-62646267D01*
X139510000Y-62353733D02*
X139510000Y-62646267D01*
%TO.C,C9*%
X151853733Y-63990000D02*
X152146267Y-63990000D01*
X151853733Y-65010000D02*
X152146267Y-65010000D01*
%TO.C,B2_Net/B2_Out*%
X161750000Y-49700000D02*
X161750000Y-52750000D01*
X161750000Y-55800000D02*
X161750000Y-52750000D01*
X164700000Y-48950000D02*
X164700000Y-49700000D01*
X164700000Y-49700000D02*
X161750000Y-49700000D01*
X164700000Y-55800000D02*
X161750000Y-55800000D01*
X164700000Y-56550000D02*
X164700000Y-55800000D01*
X167250000Y-48650000D02*
X166000000Y-48650000D01*
X167250000Y-49900000D02*
X167250000Y-48650000D01*
X166200000Y-48950000D02*
X166950000Y-48950000D01*
X166950000Y-50750000D01*
X166200000Y-50750000D01*
X166200000Y-48950000D01*
X166200000Y-52250000D02*
X166950000Y-52250000D01*
X166950000Y-53250000D01*
X166200000Y-53250000D01*
X166200000Y-52250000D01*
X166200000Y-54750000D02*
X166950000Y-54750000D01*
X166950000Y-56550000D01*
X166200000Y-56550000D01*
X166200000Y-54750000D01*
X160990000Y-48940000D02*
X166960000Y-48940000D01*
X166960000Y-56560000D01*
X160990000Y-56560000D01*
X160990000Y-48940000D01*
%TO.C,C2*%
X149490000Y-73853733D02*
X149490000Y-74146267D01*
X150510000Y-73853733D02*
X150510000Y-74146267D01*
%TO.C,R14*%
X127477500Y-68667224D02*
X127477500Y-68157776D01*
X128522500Y-68667224D02*
X128522500Y-68157776D01*
%TO.C,C17*%
X155990000Y-63283767D02*
X155990000Y-62991233D01*
X157010000Y-63283767D02*
X157010000Y-62991233D01*
%TO.C,C3*%
X136990000Y-73991233D02*
X136990000Y-74283767D01*
X138010000Y-73991233D02*
X138010000Y-74283767D01*
%TO.C,C13*%
X139490000Y-73991233D02*
X139490000Y-74283767D01*
X140510000Y-73991233D02*
X140510000Y-74283767D01*
%TO.C,AIN_5*%
X119250000Y-65100000D02*
X119250000Y-66350000D01*
X119250000Y-66350000D02*
X120500000Y-66350000D01*
X121800000Y-58450000D02*
X121800000Y-59200000D01*
X121800000Y-59200000D02*
X124750000Y-59200000D01*
X121800000Y-65300000D02*
X124750000Y-65300000D01*
X121800000Y-66050000D02*
X121800000Y-65300000D01*
X124750000Y-59200000D02*
X124750000Y-62250000D01*
X124750000Y-65300000D02*
X124750000Y-62250000D01*
X119540000Y-58440000D02*
X125510000Y-58440000D01*
X125510000Y-66060000D01*
X119540000Y-66060000D01*
X119540000Y-58440000D01*
X119550000Y-58450000D02*
X120300000Y-58450000D01*
X120300000Y-60250000D01*
X119550000Y-60250000D01*
X119550000Y-58450000D01*
X119550000Y-61750000D02*
X120300000Y-61750000D01*
X120300000Y-62750000D01*
X119550000Y-62750000D01*
X119550000Y-61750000D01*
X119550000Y-64250000D02*
X120300000Y-64250000D01*
X120300000Y-66050000D01*
X119550000Y-66050000D01*
X119550000Y-64250000D01*
%TO.C,SDI*%
X146275000Y-54925000D02*
G75*
G02*
X144875000Y-54925000I-700000J0D01*
G01*
X144875000Y-54925000D02*
G75*
G02*
X146275000Y-54925000I700000J0D01*
G01*
%TO.C,J16*%
X119620000Y-52770000D02*
X119620000Y-50120000D01*
X122380000Y-50120000D02*
X119620000Y-50120000D01*
X122380000Y-52770000D02*
X119620000Y-52770000D01*
X122380000Y-52770000D02*
X122380000Y-50120000D01*
X122380000Y-54040000D02*
X122380000Y-55420000D01*
X122380000Y-55420000D02*
X121000000Y-55420000D01*
%TO.C,R7*%
X135842224Y-58477500D02*
X135332776Y-58477500D01*
X135842224Y-59522500D02*
X135332776Y-59522500D01*
%TO.C,SCLK*%
X143225000Y-54925000D02*
G75*
G02*
X141825000Y-54925000I-700000J0D01*
G01*
X141825000Y-54925000D02*
G75*
G02*
X143225000Y-54925000I700000J0D01*
G01*
%TO.C,C20*%
X133990000Y-66353733D02*
X133990000Y-66646267D01*
X135010000Y-66353733D02*
X135010000Y-66646267D01*
%TD*%
%LPC*%
D17*
%TO.C,C16*%
X131000000Y-73225000D03*
X131000000Y-71500000D03*
%TD*%
D18*
%TO.C,R8*%
X159500000Y-71825000D03*
X159500000Y-70000000D03*
%TD*%
D19*
%TO.C,TP2*%
X135500000Y-75500000D03*
%TD*%
D20*
%TO.C,C11*%
X151500000Y-59462500D03*
X151500000Y-61537500D03*
%TD*%
D21*
%TO.C,REF\u002A\u002A*%
X166000000Y-41000000D03*
D22*
X166000000Y-41000000D03*
%TD*%
D18*
%TO.C,R16*%
X128500000Y-90825000D03*
X128500000Y-89000000D03*
%TD*%
%TO.C,R6*%
X128000000Y-56000000D03*
X128000000Y-54175000D03*
%TD*%
D23*
%TO.C,R17*%
X130000000Y-89000000D03*
X130000000Y-90825000D03*
%TD*%
D19*
%TO.C,TP1*%
X135500000Y-72450000D03*
%TD*%
D17*
%TO.C,C18*%
X156500000Y-60225000D03*
X156500000Y-58500000D03*
%TD*%
D18*
%TO.C,R5*%
X131000000Y-56000000D03*
X131000000Y-54175000D03*
%TD*%
%TO.C,R15*%
X128000000Y-73325000D03*
X128000000Y-71500000D03*
%TD*%
D24*
%TO.C,C4*%
X146500000Y-78500000D03*
X146500000Y-80225000D03*
%TD*%
D25*
%TO.C,U3*%
X141562000Y-59000000D03*
X141562000Y-59500000D03*
X141562000Y-60000000D03*
X141562000Y-60500000D03*
X141562000Y-61000000D03*
X141562000Y-61500000D03*
X141562000Y-62000000D03*
X141562000Y-62500000D03*
X141562000Y-63000000D03*
X141562000Y-63500000D03*
X141562000Y-64000000D03*
X141562000Y-64500000D03*
X141562000Y-65000000D03*
X141562000Y-65500000D03*
X141562000Y-66000000D03*
X141562000Y-66500000D03*
X141562000Y-67000000D03*
X141562000Y-67500000D03*
X141562000Y-68000000D03*
X147438000Y-68000000D03*
X147438000Y-67500000D03*
X147438000Y-67000000D03*
X147438000Y-66500000D03*
X147438000Y-66000000D03*
X147438000Y-65500000D03*
X147438000Y-65000000D03*
X147438000Y-64500000D03*
X147438000Y-64000000D03*
X147438000Y-63500000D03*
X147438000Y-63000000D03*
X147438000Y-62500000D03*
X147438000Y-62000000D03*
X147438000Y-61500000D03*
X147438000Y-61000000D03*
X147438000Y-60500000D03*
X147438000Y-60000000D03*
X147438000Y-59500000D03*
X147438000Y-59000000D03*
%TD*%
D24*
%TO.C,C5*%
X134000000Y-61637500D03*
X134000000Y-63362500D03*
%TD*%
D26*
%TO.C,IC1*%
X142800000Y-73025000D03*
X142800000Y-73675000D03*
X142800000Y-74325000D03*
X142800000Y-74975000D03*
X147200000Y-74975000D03*
X147200000Y-74325000D03*
X147200000Y-73675000D03*
X147200000Y-73025000D03*
D27*
X145000000Y-74000000D03*
%TD*%
D18*
%TO.C,R2*%
X145500000Y-84825000D03*
X145500000Y-83000000D03*
%TD*%
D28*
%TO.C,AIN_4*%
X122000000Y-73000000D03*
D29*
X122000000Y-70500000D03*
%TD*%
D23*
%TO.C,R3*%
X144000000Y-78500000D03*
X144000000Y-80325000D03*
%TD*%
D18*
%TO.C,R13*%
X128000000Y-60500000D03*
X128000000Y-58675000D03*
%TD*%
%TO.C,R1*%
X148500000Y-84825000D03*
X148500000Y-83000000D03*
%TD*%
D30*
%TO.C,J6*%
X152500000Y-41380000D03*
D31*
X152500000Y-43920000D03*
X152500000Y-46460000D03*
X152500000Y-49000000D03*
X152500000Y-51540000D03*
X152500000Y-54080000D03*
%TD*%
D19*
%TO.C,TP8*%
X152000000Y-76500000D03*
%TD*%
D32*
%TO.C,SW2*%
X133500000Y-79500000D03*
D33*
X140000000Y-79500000D03*
X133500000Y-84000000D03*
X140000000Y-84000000D03*
%TD*%
D32*
%TO.C,SW1*%
X152000000Y-79500000D03*
D33*
X158500000Y-79500000D03*
X152000000Y-84000000D03*
X158500000Y-84000000D03*
%TD*%
D34*
%TO.C,IC2*%
X128000000Y-39000000D03*
X128000000Y-40500000D03*
X128000000Y-42000000D03*
X128000000Y-43500000D03*
X128000000Y-45000000D03*
X128000000Y-46500000D03*
X128000000Y-48000000D03*
X128000000Y-49500000D03*
X128000000Y-51000000D03*
X145500000Y-51000000D03*
X145500000Y-49500000D03*
X145500000Y-48000000D03*
X145500000Y-46500000D03*
X145500000Y-45000000D03*
X145500000Y-43500000D03*
X145500000Y-42000000D03*
X145500000Y-40500000D03*
X145500000Y-39000000D03*
D35*
X137710000Y-45200000D03*
X138810000Y-45200000D03*
X138810000Y-44100000D03*
X137710000Y-44100000D03*
X136610000Y-44100000D03*
X136610000Y-45200000D03*
X136610000Y-46300000D03*
X137710000Y-46300000D03*
X138810000Y-46300000D03*
%TD*%
D18*
%TO.C,R10*%
X159500000Y-64000000D03*
X159500000Y-62175000D03*
%TD*%
D24*
%TO.C,C6*%
X124500000Y-44500000D03*
X124500000Y-46225000D03*
%TD*%
D36*
%TO.C,Load_In/B1_Out*%
X164500000Y-70500000D03*
D29*
X164500000Y-73000000D03*
%TD*%
D18*
%TO.C,R12*%
X128000000Y-64912500D03*
X128000000Y-63087500D03*
%TD*%
D37*
%TO.C,J2*%
X141225000Y-93000000D03*
X142025000Y-93000000D03*
D38*
X143175000Y-93000000D03*
X144175000Y-93000000D03*
X144675000Y-93000000D03*
X145675000Y-93000000D03*
D37*
X147625000Y-93000000D03*
X146825000Y-93000000D03*
D38*
X146175000Y-93000000D03*
X145175000Y-93000000D03*
X143675000Y-93000000D03*
X142675000Y-93000000D03*
D39*
X138850000Y-94175000D03*
X150000000Y-94175000D03*
D40*
X138850000Y-98175000D03*
X150000000Y-98175000D03*
%TD*%
D17*
%TO.C,C15*%
X131000000Y-69225000D03*
X131000000Y-67500000D03*
%TD*%
D18*
%TO.C,R11*%
X159500000Y-60325000D03*
X159500000Y-58500000D03*
%TD*%
D24*
%TO.C,C23*%
X122000000Y-44500000D03*
X122000000Y-46225000D03*
%TD*%
D17*
%TO.C,C19*%
X131000000Y-64892500D03*
X131000000Y-63167500D03*
%TD*%
D21*
%TO.C,REF\u002A\u002A*%
X166000000Y-98000000D03*
D22*
X166000000Y-98000000D03*
%TD*%
D19*
%TO.C,CS*%
X139500000Y-55000000D03*
%TD*%
D21*
%TO.C,REF\u002A\u002A*%
X120500000Y-41000000D03*
D22*
X120500000Y-41000000D03*
%TD*%
D18*
%TO.C,R18*%
X128500000Y-81325000D03*
X128500000Y-79500000D03*
%TD*%
D19*
%TO.C,SDO*%
X148625000Y-54925000D03*
%TD*%
D18*
%TO.C,R9*%
X159500000Y-67825000D03*
X159500000Y-66000000D03*
%TD*%
D23*
%TO.C,R19*%
X130000000Y-79500000D03*
X130000000Y-81325000D03*
%TD*%
D19*
%TO.C,TP3*%
X152000000Y-72000000D03*
%TD*%
D36*
%TO.C,MPPT_Out/B1_In*%
X164500000Y-80000000D03*
D29*
X164500000Y-82500000D03*
%TD*%
D24*
%TO.C,C10*%
X137500000Y-65637500D03*
X137500000Y-67362500D03*
%TD*%
D41*
%TO.C,C12*%
X151000000Y-67500000D03*
X152725000Y-67500000D03*
%TD*%
D23*
%TO.C,R4*%
X149500000Y-78500000D03*
X149500000Y-80325000D03*
%TD*%
D17*
%TO.C,C21*%
X156500000Y-71725000D03*
X156500000Y-70000000D03*
%TD*%
%TO.C,C22*%
X156500000Y-67775000D03*
X156500000Y-66050000D03*
%TD*%
D28*
%TO.C,Batt2_V*%
X122000000Y-82500000D03*
D29*
X122000000Y-80000000D03*
%TD*%
D24*
%TO.C,C8*%
X136500000Y-61637500D03*
X136500000Y-63362500D03*
%TD*%
D28*
%TO.C,Batt1_V*%
X122000000Y-92000000D03*
D29*
X122000000Y-89500000D03*
%TD*%
D36*
%TO.C,5V_In*%
X164500000Y-89500000D03*
D29*
X164500000Y-92000000D03*
%TD*%
D36*
%TO.C,B1_Net/B2_In*%
X164500000Y-61000000D03*
D29*
X164500000Y-63500000D03*
%TD*%
D17*
%TO.C,C14*%
X131000000Y-60362500D03*
X131000000Y-58637500D03*
%TD*%
D21*
%TO.C,REF\u002A\u002A*%
X120500000Y-98000000D03*
D22*
X120500000Y-98000000D03*
%TD*%
D24*
%TO.C,C7*%
X139000000Y-61637500D03*
X139000000Y-63362500D03*
%TD*%
D41*
%TO.C,C9*%
X151137500Y-64500000D03*
X152862500Y-64500000D03*
%TD*%
D36*
%TO.C,B2_Net/B2_Out*%
X164500000Y-51500000D03*
D29*
X164500000Y-54000000D03*
%TD*%
D24*
%TO.C,C2*%
X150000000Y-73137500D03*
X150000000Y-74862500D03*
%TD*%
D18*
%TO.C,R14*%
X128000000Y-69325000D03*
X128000000Y-67500000D03*
%TD*%
D17*
%TO.C,C17*%
X156500000Y-64000000D03*
X156500000Y-62275000D03*
%TD*%
D24*
%TO.C,C3*%
X137500000Y-73275000D03*
X137500000Y-75000000D03*
%TD*%
%TO.C,C13*%
X140000000Y-73275000D03*
X140000000Y-75000000D03*
%TD*%
D28*
%TO.C,AIN_5*%
X122000000Y-63500000D03*
D29*
X122000000Y-61000000D03*
%TD*%
D19*
%TO.C,SDI*%
X145575000Y-54925000D03*
%TD*%
D30*
%TO.C,J16*%
X121000000Y-54040000D03*
D31*
X121000000Y-51500000D03*
%TD*%
D42*
%TO.C,R7*%
X136500000Y-59000000D03*
X134675000Y-59000000D03*
%TD*%
D19*
%TO.C,SCLK*%
X142525000Y-54925000D03*
%TD*%
D24*
%TO.C,C20*%
X134500000Y-65637500D03*
X134500000Y-67362500D03*
%TD*%
%LPD*%
M02*
