M48
; DRILL file KiCad 10.0.1 date 2026-05-08T18:57:09
; FORMAT={-:-/ absolute / metric / decimal}
; #@! TF.CreationDate,2026-05-08T18:57:09+08:00
; #@! TF.GenerationSoftware,Kicad,Pcbnew,10.0.1
; #@! TF.FileFunction,Plated,1,2,PTH
FMAT,2
METRIC
; #@! TA.AperFunction,Plated,PTH,ViaDrill
T1C0.300
; #@! TA.AperFunction,Plated,PTH,ComponentDrill
T2C1.000
; #@! TA.AperFunction,Plated,PTH,ComponentDrill
T3C1.250
; #@! TA.AperFunction,Plated,PTH,ComponentDrill
T4C1.620
; #@! TA.AperFunction,Plated,PTH,ComponentDrill
T5C2.200
%
G90
G05
T1
X120.5Y-76.5
X124.0Y-49.0
X125.5Y-52.0
X126.0Y-56.0
X129.5Y-61.0
X129.5Y-65.5
X129.5Y-70.0
X129.5Y-74.0
X131.5Y-51.5
X132.376Y-71.124
X133.1Y-68.5
X133.124Y-62.224
X133.5Y-59.9
X133.5Y-67.0
X134.0Y-50.0
X135.0Y-41.5
X135.0Y-50.5
X135.75Y-42.25
X137.0Y-60.4
X138.0Y-60.9
X138.0Y-62.1
X138.0Y-63.0
X139.4Y-68.0
X139.5Y-61.6
X139.5Y-70.0
X140.124Y-62.276
X141.0Y-46.0
X141.0Y-51.5
X142.0Y-96.0
X143.4Y-63.5
X143.5Y-59.0
X143.5Y-69.0
X143.9Y-62.49
X144.0Y-56.4
X144.0Y-95.5
X144.5Y-61.5
X144.5Y-66.5
X145.5Y-60.5
X147.0Y-83.5
X147.5Y-70.9
X148.0Y-80.0
X148.5Y-76.5
X149.0Y-65.0
X150.0Y-61.5
X150.5Y-71.5
X151.5Y-67.5
X151.5Y-97.5
X152.5Y-62.0
X153.0Y-71.0
X154.0Y-59.0
X155.5Y-42.0
X158.0Y-60.5
X158.0Y-64.5
X158.0Y-68.5
X158.0Y-72.5
T2
X121.0Y-51.5
X121.0Y-54.04
X122.0Y-61.0
X122.0Y-63.5
X122.0Y-70.5
X122.0Y-73.0
X122.0Y-80.0
X122.0Y-82.5
X122.0Y-89.5
X122.0Y-92.0
X133.5Y-79.5
X133.5Y-84.0
X140.0Y-79.5
X140.0Y-84.0
X152.0Y-79.5
X152.0Y-84.0
X152.5Y-41.38
X152.5Y-43.92
X152.5Y-46.46
X152.5Y-49.0
X152.5Y-51.54
X152.5Y-54.08
X158.5Y-79.5
X158.5Y-84.0
X164.5Y-51.5
X164.5Y-54.0
X164.5Y-61.0
X164.5Y-63.5
X164.5Y-70.5
X164.5Y-73.0
X164.5Y-80.0
X164.5Y-82.5
X164.5Y-89.5
X164.5Y-92.0
T3
X136.68Y-94.65
X147.92Y-94.65
T4
X136.68Y-98.65
X147.92Y-98.65
T5
X120.5Y-41.0
X120.5Y-98.0
X166.0Y-41.0
X166.0Y-98.0
M30
