M48
; DRILL file KiCad 10.0.1 date 2026-05-08T02:27:32
; FORMAT={-:-/ absolute / metric / decimal}
; #@! TF.CreationDate,2026-05-08T02:27:32+08:00
; #@! TF.GenerationSoftware,Kicad,Pcbnew,10.0.1
; #@! TF.FileFunction,Plated,1,2,PTH
FMAT,2
METRIC
; #@! TA.AperFunction,Plated,PTH,ViaDrill
T1C0.300
; #@! TA.AperFunction,Plated,PTH,ComponentDrill
T2C1.000
; #@! TA.AperFunction,Plated,PTH,ComponentDrill
T3C1.520
; #@! TA.AperFunction,Plated,PTH,ComponentDrill
T4C1.900
; #@! TA.AperFunction,Plated,PTH,ComponentDrill
T5C2.200
%
G90
G05
T1
X123.5Y-52.5
X124.0Y-58.0
X124.0Y-60.4
X125.5Y-60.4
X126.5Y-56.5
X126.744Y-62.244
X129.5Y-57.0
X129.72Y-62.26
X129.75Y-49.75
X130.0Y-41.0
X130.0Y-42.0
X130.0Y-43.0
X130.5Y-57.1
X130.5Y-66.5
X131.0Y-70.5
X131.4Y-76.625
X131.991Y-55.082
X132.9Y-55.0
X134.25Y-72.75
X134.5Y-75.5
X136.5Y-55.0
X138.0Y-58.0
X138.05Y-59.4
X139.0Y-57.9
X140.0Y-58.95
X141.833Y-46.833
X142.512Y-54.6
X143.0Y-64.5
X143.0Y-65.5
X143.0Y-66.5
X143.407Y-56.9
X143.5Y-44.5
X144.3Y-65.9
X144.514Y-58.1
X144.9Y-65.3
X145.0Y-56.9
X145.1Y-63.449
X145.5Y-64.7
X146.0Y-81.4
X146.114Y-59.5
X146.9Y-47.0
X146.9Y-48.6
X148.0Y-81.4
X148.5Y-43.0
X148.5Y-77.5
X149.0Y-42.0
X149.0Y-64.1
X149.0Y-69.0
X149.5Y-41.0
X150.0Y-60.0
X150.1Y-45.5
X150.5Y-57.5
X150.75Y-52.25
X151.25Y-44.25
X153.5Y-60.5
X153.5Y-71.5
X153.55Y-69.4
X154.0Y-75.525
X154.1Y-67.5
X155.0Y-70.0
X155.1Y-46.5
X155.1Y-66.0
X155.5Y-45.0
X155.5Y-59.5
X155.6Y-63.0
X155.6Y-69.0
X157.5Y-74.5
X159.5Y-76.0
X161.75Y-83.75
T2
X121.0Y-51.5
X121.0Y-54.04
X122.0Y-61.0
X122.0Y-63.5
X122.0Y-70.5
X122.0Y-73.0
X122.0Y-80.0
X122.0Y-82.5
X122.0Y-89.5
X122.0Y-92.0
X133.5Y-79.5
X133.5Y-84.0
X140.0Y-79.5
X140.0Y-84.0
X152.0Y-79.5
X152.0Y-84.0
X152.5Y-41.38
X152.5Y-43.92
X152.5Y-46.46
X152.5Y-49.0
X152.5Y-51.54
X152.5Y-54.08
X158.5Y-79.5
X158.5Y-84.0
X164.5Y-51.5
X164.5Y-54.0
X164.5Y-61.0
X164.5Y-63.5
X164.5Y-70.5
X164.5Y-73.0
X164.5Y-80.0
X164.5Y-82.5
X164.5Y-89.5
X164.5Y-92.0
T3
X138.85Y-94.175
X150.0Y-94.175
T4
X138.85Y-98.175
X150.0Y-98.175
T5
X120.5Y-41.0
X120.5Y-98.0
X166.0Y-41.0
X166.0Y-98.0
M30
