%TF.GenerationSoftware,KiCad,Pcbnew,10.0.1*%
%TF.CreationDate,2026-05-08T18:57:03+08:00*%
%TF.ProjectId,Sensor Reader V4,53656e73-6f72-4205-9265-616465722056,rev?*%
%TF.SameCoordinates,Original*%
%TF.FileFunction,Copper,L2,Bot*%
%TF.FilePolarity,Positive*%
%FSLAX46Y46*%
G04 Gerber Fmt 4.6, Leading zero omitted, Abs format (unit mm)*
G04 Created by KiCad (PCBNEW 10.0.1) date 2026-05-08 18:57:03*
%MOMM*%
%LPD*%
G01*
G04 APERTURE LIST*
G04 Aperture macros list*
%AMRoundRect*
0 Rectangle with rounded corners*
0 $1 Rounding radius*
0 $2 $3 $4 $5 $6 $7 $8 $9 X,Y pos of 4 corners*
0 Add a 4 corners polygon primitive as box body*
4,1,4,$2,$3,$4,$5,$6,$7,$8,$9,$2,$3,0*
0 Add four circle primitives for the rounded corners*
1,1,$1+$1,$2,$3*
1,1,$1+$1,$4,$5*
1,1,$1+$1,$6,$7*
1,1,$1+$1,$8,$9*
0 Add four rect primitives between the rounded corners*
20,1,$1+$1,$2,$3,$4,$5,0*
20,1,$1+$1,$4,$5,$6,$7,0*
20,1,$1+$1,$6,$7,$8,$9,0*
20,1,$1+$1,$8,$9,$2,$3,0*%
G04 Aperture macros list end*
%TA.AperFunction,ComponentPad*%
%ADD10C,2.600000*%
%TD*%
%TA.AperFunction,ConnectorPad*%
%ADD11C,3.800000*%
%TD*%
%TA.AperFunction,ComponentPad*%
%ADD12RoundRect,0.250000X0.750000X-0.600000X0.750000X0.600000X-0.750000X0.600000X-0.750000X-0.600000X0*%
%TD*%
%TA.AperFunction,ComponentPad*%
%ADD13O,2.000000X1.700000*%
%TD*%
%TA.AperFunction,ComponentPad*%
%ADD14R,1.700000X1.700000*%
%TD*%
%TA.AperFunction,ComponentPad*%
%ADD15C,1.700000*%
%TD*%
%TA.AperFunction,ComponentPad*%
%ADD16R,1.500000X1.500000*%
%TD*%
%TA.AperFunction,ComponentPad*%
%ADD17C,1.500000*%
%TD*%
%TA.AperFunction,ComponentPad*%
%ADD18RoundRect,0.250000X-0.750000X0.600000X-0.750000X-0.600000X0.750000X-0.600000X0.750000X0.600000X0*%
%TD*%
%TA.AperFunction,ComponentPad*%
%ADD19C,1.875000*%
%TD*%
%TA.AperFunction,ComponentPad*%
%ADD20C,2.430000*%
%TD*%
%TA.AperFunction,ViaPad*%
%ADD21C,0.600000*%
%TD*%
%TA.AperFunction,Conductor*%
%ADD22C,0.200000*%
%TD*%
G04 APERTURE END LIST*
D10*
%TO.P,REF\u002A\u002A,1*%
%TO.N,N/C*%
X166000000Y-41000000D03*
D11*
X166000000Y-41000000D03*
%TD*%
D12*
%TO.P,J13,1,Pin_1_1*%
%TO.N,GND*%
X122000000Y-73000000D03*
D13*
%TO.P,J13,2,Pin_2_2*%
%TO.N,AIN_4*%
X122000000Y-70500000D03*
%TD*%
D14*
%TO.P,J6,1,Pin_1_1*%
%TO.N,GND*%
X152500000Y-41380000D03*
D15*
%TO.P,J6,2,Pin_2_2*%
%TO.N,RX*%
X152500000Y-43920000D03*
%TO.P,J6,3,Pin_3_3*%
%TO.N,TX*%
X152500000Y-46460000D03*
%TO.P,J6,4,Pin_4_4*%
%TO.N,+5V*%
X152500000Y-49000000D03*
%TO.P,J6,5,Pin_5_5*%
%TO.N,EN*%
X152500000Y-51540000D03*
%TO.P,J6,6,Pin_6_6*%
%TO.N,BOOT*%
X152500000Y-54080000D03*
%TD*%
D16*
%TO.P,SW2,1,1_1*%
%TO.N,EN*%
X133500000Y-79500000D03*
D17*
%TO.P,SW2,2,2_2*%
X140000000Y-79500000D03*
%TO.P,SW2,3,K_3*%
%TO.N,GND*%
X133500000Y-84000000D03*
%TO.P,SW2,4,A_4*%
X140000000Y-84000000D03*
%TD*%
D16*
%TO.P,SW1,1,1_1*%
%TO.N,BOOT*%
X152000000Y-79500000D03*
D17*
%TO.P,SW1,2,2_2*%
X158500000Y-79500000D03*
%TO.P,SW1,3,K_3*%
%TO.N,GND*%
X152000000Y-84000000D03*
%TO.P,SW1,4,A_4*%
X158500000Y-84000000D03*
%TD*%
D18*
%TO.P,J10,1,Pin_1_1*%
%TO.N,GND*%
X164500000Y-70500000D03*
D13*
%TO.P,J10,2,Pin_2_2*%
%TO.N,Load_In{slash}Batt1_Out*%
X164500000Y-73000000D03*
%TD*%
D10*
%TO.P,REF\u002A\u002A,1*%
%TO.N,N/C*%
X166000000Y-98000000D03*
D11*
X166000000Y-98000000D03*
%TD*%
D10*
%TO.P,REF\u002A\u002A,1*%
%TO.N,N/C*%
X120500000Y-41000000D03*
D11*
X120500000Y-41000000D03*
%TD*%
D18*
%TO.P,J9,1,Pin_1_1*%
%TO.N,GND*%
X164500000Y-80000000D03*
D13*
%TO.P,J9,2,Pin_2_2*%
%TO.N,MPPT_Out{slash}Batt1_In*%
X164500000Y-82500000D03*
%TD*%
D12*
%TO.P,J8,1,Pin_1_1*%
%TO.N,GND*%
X122000000Y-82500000D03*
D13*
%TO.P,J8,2,Pin_2_2*%
%TO.N,Batt2_V*%
X122000000Y-80000000D03*
%TD*%
D12*
%TO.P,J7,1,Pin_1_1*%
%TO.N,GND*%
X122000000Y-92000000D03*
D13*
%TO.P,J7,2,Pin_2_2*%
%TO.N,Batt1_V*%
X122000000Y-89500000D03*
%TD*%
D18*
%TO.P,J15,1,Pin_1_1*%
%TO.N,GND*%
X164500000Y-89500000D03*
D13*
%TO.P,J15,2,Pin_2_2*%
%TO.N,+5V*%
X164500000Y-92000000D03*
%TD*%
D18*
%TO.P,J11,1,Pin_1_1*%
%TO.N,GND*%
X164500000Y-61000000D03*
D13*
%TO.P,J11,2,Pin_2_2*%
%TO.N,Batt1_Net{slash}Batt2_In*%
X164500000Y-63500000D03*
%TD*%
D10*
%TO.P,REF\u002A\u002A,1*%
%TO.N,N/C*%
X120500000Y-98000000D03*
D11*
X120500000Y-98000000D03*
%TD*%
D18*
%TO.P,J12,1,Pin_1_1*%
%TO.N,GND*%
X164500000Y-51500000D03*
D13*
%TO.P,J12,2,Pin_2_2*%
%TO.N,Batt2_Net{slash}Batt2_Out*%
X164500000Y-54000000D03*
%TD*%
D19*
%TO.P,J1,1,MH1_1*%
%TO.N,GND*%
X136680000Y-94650000D03*
%TO.P,J1,2,MH2_2*%
X147920000Y-94650000D03*
D20*
%TO.P,J1,3,MH3_3*%
X136680000Y-98650000D03*
%TO.P,J1,4,MH4_4*%
X147920000Y-98650000D03*
%TD*%
D12*
%TO.P,J14,1,Pin_1_1*%
%TO.N,GND*%
X122000000Y-63500000D03*
D13*
%TO.P,J14,2,Pin_2_2*%
%TO.N,AIN_5*%
X122000000Y-61000000D03*
%TD*%
D14*
%TO.P,J16,1,Pin_1_1*%
%TO.N,GND*%
X121000000Y-54040000D03*
D15*
%TO.P,J16,2,Pin_2_2*%
%TO.N,+3.3V*%
X121000000Y-51500000D03*
%TD*%
D21*
%TO.N,GND*%
X145500000Y-60500000D03*
X129500000Y-70000000D03*
X158000000Y-72500000D03*
X150000000Y-61500000D03*
X152500000Y-62000000D03*
X129500000Y-74000000D03*
X144500000Y-66500000D03*
X148500000Y-76500000D03*
X151500000Y-97500000D03*
X148000000Y-80000000D03*
X149000000Y-65000000D03*
X139500000Y-70000000D03*
X133500000Y-67000000D03*
X129500000Y-61000000D03*
X124000000Y-49000000D03*
X158000000Y-68500000D03*
X147000000Y-83500000D03*
X158000000Y-60500000D03*
X143500000Y-69000000D03*
X141000000Y-46000000D03*
X158000000Y-64500000D03*
X155500000Y-42000000D03*
X129500000Y-65500000D03*
X125500000Y-52000000D03*
%TO.N,Net-(U3-AIN_7P)*%
X133100000Y-68500000D03*
X132375735Y-71124265D03*
%TO.N,+3.3V*%
X133124265Y-62224265D03*
X153000000Y-71000000D03*
X133500000Y-59900000D03*
X126000000Y-56000000D03*
X154000000Y-59000000D03*
%TO.N,Net-(IC2-IO2)*%
X135000000Y-41500000D03*
X134000000Y-50000000D03*
%TO.N,EN*%
X120500000Y-76500000D03*
%TO.N,SDI*%
X144000000Y-56400000D03*
X143500000Y-59000000D03*
%TO.N,RST*%
X135000000Y-50500000D03*
X135750000Y-42250000D03*
%TO.N,Net-(U3-REFIO)*%
X139500000Y-61600000D03*
X138000000Y-62100000D03*
%TO.N,Net-(U3-REFCAP)*%
X138000000Y-63000000D03*
X140124265Y-62275735D03*
%TO.N,+5V*%
X143400000Y-63500000D03*
X147500000Y-70900000D03*
X139400000Y-68000000D03*
X151500000Y-67500000D03*
X150500000Y-71500000D03*
%TO.N,Net-(U3-AIN_4P)*%
X143900000Y-62490389D03*
X138000000Y-60900000D03*
%TO.N,Net-(U3-AIN_5P)*%
X137000000Y-60400000D03*
X144500000Y-61500000D03*
%TO.N,BOOT*%
X141000000Y-51500000D03*
X131500000Y-51500000D03*
%TO.N,USB_D-*%
X144000000Y-95500000D03*
X142000000Y-96000000D03*
%TD*%
%TO.N,Net-(U3-AIN_7P)*%
D22*
X132375735Y-71124265D02*
X133100000Y-70400000D01*
X133100000Y-70400000D02*
X133100000Y-68500000D01*
%TO.N,+3.3V*%
X126000000Y-56000000D02*
X123500000Y-53500000D01*
X122500000Y-51500000D02*
X121000000Y-51500000D01*
X133500000Y-61848530D02*
X133500000Y-59900000D01*
X154500000Y-69500000D02*
X154500000Y-59500000D01*
X123500000Y-53500000D02*
X123500000Y-52500000D01*
X153000000Y-71000000D02*
X154500000Y-69500000D01*
X123500000Y-52500000D02*
X122500000Y-51500000D01*
X154500000Y-59500000D02*
X154000000Y-59000000D01*
X133124265Y-62224265D02*
X133500000Y-61848530D01*
%TO.N,Net-(IC2-IO2)*%
X134000000Y-42500000D02*
X135000000Y-41500000D01*
X134000000Y-50000000D02*
X134000000Y-42500000D01*
%TO.N,EN*%
X120500000Y-76500000D02*
X130500000Y-76500000D01*
X133500000Y-79500000D02*
X140000000Y-79500000D01*
X130500000Y-76500000D02*
X133500000Y-79500000D01*
%TO.N,SDI*%
X144000000Y-58500000D02*
X143500000Y-59000000D01*
X144000000Y-56400000D02*
X144000000Y-58500000D01*
%TO.N,RST*%
X135500000Y-42500000D02*
X135750000Y-42250000D01*
X135000000Y-43000000D02*
X135500000Y-42500000D01*
X135000000Y-50500000D02*
X135000000Y-43000000D01*
%TO.N,Net-(U3-REFIO)*%
X139000000Y-62100000D02*
X139500000Y-61600000D01*
X138000000Y-62100000D02*
X139000000Y-62100000D01*
%TO.N,Net-(U3-REFCAP)*%
X139500000Y-63000000D02*
X138000000Y-63000000D01*
X140124265Y-62275735D02*
X140000000Y-62400000D01*
X140000000Y-62400000D02*
X140000000Y-62500000D01*
X140000000Y-62500000D02*
X139500000Y-63000000D01*
%TO.N,+5V*%
X150500000Y-71500000D02*
X150500000Y-68500000D01*
X149500000Y-71500000D02*
X150500000Y-71500000D01*
X143400000Y-66100000D02*
X142500000Y-67000000D01*
X150500000Y-68500000D02*
X151500000Y-67500000D01*
X142500000Y-67000000D02*
X140400000Y-67000000D01*
X147500000Y-70900000D02*
X148900000Y-70900000D01*
X140400000Y-67000000D02*
X139400000Y-68000000D01*
X143400000Y-63500000D02*
X143400000Y-66100000D01*
X148900000Y-70900000D02*
X149500000Y-71500000D01*
%TO.N,Net-(U3-AIN_4P)*%
X143900000Y-61400000D02*
X143500000Y-61000000D01*
X138100000Y-61000000D02*
X138000000Y-60900000D01*
X143500000Y-61000000D02*
X138100000Y-61000000D01*
X143900000Y-62490389D02*
X143900000Y-61400000D01*
%TO.N,Net-(U3-AIN_5P)*%
X143400000Y-60100000D02*
X137300000Y-60100000D01*
X144500000Y-61200000D02*
X143400000Y-60100000D01*
X137300000Y-60100000D02*
X137000000Y-60400000D01*
X144500000Y-61500000D02*
X144500000Y-61200000D01*
%TO.N,BOOT*%
X152000000Y-79500000D02*
X158500000Y-79500000D01*
X131500000Y-51500000D02*
X141000000Y-51500000D01*
%TO.N,USB_D-*%
X143500000Y-96000000D02*
X144000000Y-95500000D01*
X142000000Y-96000000D02*
X143500000Y-96000000D01*
%TD*%
%TA.AperFunction,Conductor*%
%TO.N,GND*%
G36*
X165212293Y-38520185D02*
G01*
X165258048Y-38572989D01*
X165267992Y-38642147D01*
X165238967Y-38705703D01*
X165186209Y-38741541D01*
X165079917Y-38778734D01*
X164837005Y-38895714D01*
X164608712Y-39039161D01*
X164397915Y-39207265D01*
X164207265Y-39397915D01*
X164039161Y-39608712D01*
X163895714Y-39837005D01*
X163778734Y-40079917D01*
X163689687Y-40334397D01*
X163689684Y-40334405D01*
X163629688Y-40597268D01*
X163629686Y-40597280D01*
X163599500Y-40865186D01*
X163599500Y-41134813D01*
X163629686Y-41402719D01*
X163629688Y-41402731D01*
X163689684Y-41665594D01*
X163689687Y-41665602D01*
X163778734Y-41920082D01*
X163895714Y-42162994D01*
X163895716Y-42162997D01*
X164039162Y-42391289D01*
X164207266Y-42602085D01*
X164397915Y-42792734D01*
X164608711Y-42960838D01*
X164837003Y-43104284D01*
X165079921Y-43221267D01*
X165271049Y-43288145D01*
X165334397Y-43310312D01*
X165334405Y-43310315D01*
X165334408Y-43310315D01*
X165334409Y-43310316D01*
X165597268Y-43370312D01*
X165865187Y-43400499D01*
X165865188Y-43400500D01*
X165865191Y-43400500D01*
X166134812Y-43400500D01*
X166134812Y-43400499D01*
X166402732Y-43370312D01*
X166665591Y-43310316D01*
X166920079Y-43221267D01*
X167162997Y-43104284D01*
X167391289Y-42960838D01*
X167602085Y-42792734D01*
X167792734Y-42602085D01*
X167960838Y-42391289D01*
X168104284Y-42162997D01*
X168221267Y-41920079D01*
X168258460Y-41813787D01*
X168299180Y-41757014D01*
X168364133Y-41731267D01*
X168432695Y-41744723D01*
X168483097Y-41793111D01*
X168499500Y-41854745D01*
X168499500Y-97145254D01*
X168479815Y-97212293D01*
X168427011Y-97258048D01*
X168357853Y-97267992D01*
X168294297Y-97238967D01*
X168258459Y-97186209D01*
X168231290Y-97108566D01*
X168221267Y-97079921D01*
X168104284Y-96837003D01*
X167960838Y-96608711D01*
X167792734Y-96397915D01*
X167602085Y-96207266D01*
X167391289Y-96039162D01*
X167162997Y-95895716D01*
X167162994Y-95895714D01*
X166920082Y-95778734D01*
X166665602Y-95689687D01*
X166665594Y-95689684D01*
X166468446Y-95644687D01*
X166402732Y-95629688D01*
X166402728Y-95629687D01*
X166402719Y-95629686D01*
X166134813Y-95599500D01*
X166134809Y-95599500D01*
X165865191Y-95599500D01*
X165865186Y-95599500D01*
X165597280Y-95629686D01*
X165597268Y-95629688D01*
X165334405Y-95689684D01*
X165334397Y-95689687D01*
X165079917Y-95778734D01*
X164837005Y-95895714D01*
X164608712Y-96039161D01*
X164397915Y-96207265D01*
X164207265Y-96397915D01*
X164039161Y-96608712D01*
X163895714Y-96837005D01*
X163778734Y-97079917D01*
X163689687Y-97334397D01*
X163689684Y-97334405D01*
X163629688Y-97597268D01*
X163629686Y-97597280D01*
X163599500Y-97865186D01*
X163599500Y-98134813D01*
X163629686Y-98402719D01*
X163629688Y-98402731D01*
X163689684Y-98665594D01*
X163689687Y-98665602D01*
X163778734Y-98920082D01*
X163895714Y-99162994D01*
X163895716Y-99162997D01*
X164039162Y-99391289D01*
X164207266Y-99602085D01*
X164397915Y-99792734D01*
X164608711Y-99960838D01*
X164837003Y-100104284D01*
X165079921Y-100221267D01*
X165150411Y-100245932D01*
X165186209Y-100258459D01*
X165242985Y-100299180D01*
X165268732Y-100364133D01*
X165255276Y-100432695D01*
X165206888Y-100483098D01*
X165145254Y-100499500D01*
X148559814Y-100499500D01*
X148492775Y-100479815D01*
X148447020Y-100427011D01*
X148437076Y-100357853D01*
X148466101Y-100294297D01*
X148512361Y-100260939D01*
X148680149Y-100191438D01*
X148680160Y-100191433D01*
X148874839Y-100079034D01*
X148874847Y-100079028D01*
X148943101Y-100026655D01*
X148289946Y-99373500D01*
X148303679Y-99367812D01*
X148436345Y-99279168D01*
X148549168Y-99166345D01*
X148637812Y-99033679D01*
X148643500Y-99019946D01*
X149296655Y-99673101D01*
X149349028Y-99604847D01*
X149349034Y-99604839D01*
X149461433Y-99410160D01*
X149461438Y-99410149D01*
X149547470Y-99202450D01*
X149605654Y-98985300D01*
X149605657Y-98985287D01*
X149634998Y-98762417D01*
X149635000Y-98762400D01*
X149635000Y-98537599D01*
X149634998Y-98537582D01*
X149605657Y-98314712D01*
X149605654Y-98314699D01*
X149547470Y-98097549D01*
X149461438Y-97889850D01*
X149461433Y-97889839D01*
X149349036Y-97695163D01*
X149349030Y-97695155D01*
X149296655Y-97626897D01*
X148643499Y-98280052D01*
X148637812Y-98266321D01*
X148549168Y-98133655D01*
X148436345Y-98020832D01*
X148303679Y-97932188D01*
X148289946Y-97926499D01*
X148943101Y-97273343D01*
X148943101Y-97273342D01*
X148874844Y-97220969D01*
X148874836Y-97220963D01*
X148680160Y-97108566D01*
X148680149Y-97108561D01*
X148472450Y-97022529D01*
X148255300Y-96964345D01*
X148255287Y-96964342D01*
X148032417Y-96935001D01*
X148032400Y-96935000D01*
X147807600Y-96935000D01*
X147807582Y-96935001D01*
X147584712Y-96964342D01*
X147584699Y-96964345D01*
X147367549Y-97022529D01*
X147159850Y-97108561D01*
X147159839Y-97108566D01*
X146965161Y-97220964D01*
X146965146Y-97220974D01*
X146896896Y-97273343D01*
X147550053Y-97926499D01*
X147536321Y-97932188D01*
X147403655Y-98020832D01*
X147290832Y-98133655D01*
X147202188Y-98266321D01*
X147196499Y-98280052D01*
X146543343Y-97626896D01*
X146490974Y-97695146D01*
X146490964Y-97695161D01*
X146378566Y-97889839D01*
X146378561Y-97889850D01*
X146292529Y-98097549D01*
X146234345Y-98314699D01*
X146234342Y-98314712D01*
X146205001Y-98537582D01*
X146205000Y-98537599D01*
X146205000Y-98762400D01*
X146205001Y-98762417D01*
X146234342Y-98985287D01*
X146234345Y-98985300D01*
X146292529Y-99202450D01*
X146378561Y-99410149D01*
X146378566Y-99410160D01*
X146490963Y-99604836D01*
X146490969Y-99604844D01*
X146543343Y-99673101D01*
X147196499Y-99019945D01*
X147202188Y-99033679D01*
X147290832Y-99166345D01*
X147403655Y-99279168D01*
X147536321Y-99367812D01*
X147550053Y-99373500D01*
X146896897Y-100026655D01*
X146896897Y-100026656D01*
X146965155Y-100079030D01*
X146965163Y-100079036D01*
X147159839Y-100191433D01*
X147159850Y-100191438D01*
X147327639Y-100260939D01*
X147382042Y-100304780D01*
X147404107Y-100371074D01*
X147386828Y-100438773D01*
X147335691Y-100486384D01*
X147280186Y-100499500D01*
X137319814Y-100499500D01*
X137252775Y-100479815D01*
X137207020Y-100427011D01*
X137197076Y-100357853D01*
X137226101Y-100294297D01*
X137272361Y-100260939D01*
X137440149Y-100191438D01*
X137440160Y-100191433D01*
X137634839Y-100079034D01*
X137634847Y-100079028D01*
X137703101Y-100026655D01*
X137049946Y-99373500D01*
X137063679Y-99367812D01*
X137196345Y-99279168D01*
X137309168Y-99166345D01*
X137397812Y-99033679D01*
X137403500Y-99019946D01*
X138056655Y-99673101D01*
X138109028Y-99604847D01*
X138109034Y-99604839D01*
X138221433Y-99410160D01*
X138221438Y-99410149D01*
X138307470Y-99202450D01*
X138365654Y-98985300D01*
X138365657Y-98985287D01*
X138394998Y-98762417D01*
X138395000Y-98762400D01*
X138395000Y-98537599D01*
X138394998Y-98537582D01*
X138365657Y-98314712D01*
X138365654Y-98314699D01*
X138307470Y-98097549D01*
X138221438Y-97889850D01*
X138221433Y-97889839D01*
X138109036Y-97695163D01*
X138109030Y-97695155D01*
X138056655Y-97626897D01*
X137403499Y-98280052D01*
X137397812Y-98266321D01*
X137309168Y-98133655D01*
X137196345Y-98020832D01*
X137063679Y-97932188D01*
X137049946Y-97926499D01*
X137703101Y-97273343D01*
X137703101Y-97273342D01*
X137634844Y-97220969D01*
X137634836Y-97220963D01*
X137440160Y-97108566D01*
X137440149Y-97108561D01*
X137232450Y-97022529D01*
X137015300Y-96964345D01*
X137015287Y-96964342D01*
X136792417Y-96935001D01*
X136792400Y-96935000D01*
X136567600Y-96935000D01*
X136567582Y-96935001D01*
X136344712Y-96964342D01*
X136344699Y-96964345D01*
X136127549Y-97022529D01*
X135919850Y-97108561D01*
X135919839Y-97108566D01*
X135725161Y-97220964D01*
X135725146Y-97220974D01*
X135656896Y-97273343D01*
X136310053Y-97926499D01*
X136296321Y-97932188D01*
X136163655Y-98020832D01*
X136050832Y-98133655D01*
X135962188Y-98266321D01*
X135956499Y-98280052D01*
X135303343Y-97626896D01*
X135250974Y-97695146D01*
X135250964Y-97695161D01*
X135138566Y-97889839D01*
X135138561Y-97889850D01*
X135052529Y-98097549D01*
X134994345Y-98314699D01*
X134994342Y-98314712D01*
X134965001Y-98537582D01*
X134965000Y-98537599D01*
X134965000Y-98762400D01*
X134965001Y-98762417D01*
X134994342Y-98985287D01*
X134994345Y-98985300D01*
X135052529Y-99202450D01*
X135138561Y-99410149D01*
X135138566Y-99410160D01*
X135250963Y-99604836D01*
X135250969Y-99604844D01*
X135303343Y-99673101D01*
X135956499Y-99019945D01*
X135962188Y-99033679D01*
X136050832Y-99166345D01*
X136163655Y-99279168D01*
X136296321Y-99367812D01*
X136310053Y-99373500D01*
X135656897Y-100026655D01*
X135656897Y-100026656D01*
X135725155Y-100079030D01*
X135725163Y-100079036D01*
X135919839Y-100191433D01*
X135919850Y-100191438D01*
X136087639Y-100260939D01*
X136142042Y-100304780D01*
X136164107Y-100371074D01*
X136146828Y-100438773D01*
X136095691Y-100486384D01*
X136040186Y-100499500D01*
X121354746Y-100499500D01*
X121287707Y-100479815D01*
X121241952Y-100427011D01*
X121232008Y-100357853D01*
X121261033Y-100294297D01*
X121313791Y-100258459D01*
X121339608Y-100249424D01*
X121420079Y-100221267D01*
X121662997Y-100104284D01*
X121891289Y-99960838D01*
X122102085Y-99792734D01*
X122292734Y-99602085D01*
X122460838Y-99391289D01*
X122604284Y-99162997D01*
X122721267Y-98920079D01*
X122810316Y-98665591D01*
X122870312Y-98402732D01*
X122900500Y-98134809D01*
X122900500Y-97865191D01*
X122870312Y-97597268D01*
X122810316Y-97334409D01*
X122721267Y-97079921D01*
X122604284Y-96837003D01*
X122460838Y-96608711D01*
X122292734Y-96397915D01*
X122102085Y-96207266D01*
X121891289Y-96039162D01*
X121662997Y-95895716D01*
X121662994Y-95895714D01*
X121656058Y-95892374D01*
X121656056Y-95892372D01*
X121420090Y-95778737D01*
X121420082Y-95778734D01*
X121165602Y-95689687D01*
X121165594Y-95689684D01*
X120968446Y-95644687D01*
X120902732Y-95629688D01*
X120902728Y-95629687D01*
X120902719Y-95629686D01*
X120634813Y-95599500D01*
X120634809Y-95599500D01*
X120365191Y-95599500D01*
X120365186Y-95599500D01*
X120097280Y-95629686D01*
X120097268Y-95629688D01*
X119834405Y-95689684D01*
X119834397Y-95689687D01*
X119579917Y-95778734D01*
X119337005Y-95895714D01*
X119108712Y-96039161D01*
X118897915Y-96207265D01*
X118707265Y-96397915D01*
X118539161Y-96608712D01*
X118395714Y-96837005D01*
X118278734Y-97079917D01*
X118241541Y-97186209D01*
X118200820Y-97242985D01*
X118135867Y-97268732D01*
X118067305Y-97255276D01*
X118016902Y-97206888D01*
X118000500Y-97145254D01*
X118000500Y-94536866D01*
X135242500Y-94536866D01*
X135242500Y-94763133D01*
X135277895Y-94986611D01*
X135347818Y-95201810D01*
X135450542Y-95403418D01*
X135502084Y-95474359D01*
X135502085Y-95474360D01*
X136098092Y-94878353D01*
X136126132Y-94946048D01*
X136194531Y-95048414D01*
X136281586Y-95135469D01*
X136383952Y-95203868D01*
X136451645Y-95231907D01*
X135855638Y-95827913D01*
X135926585Y-95879459D01*
X136128189Y-95982181D01*
X136343388Y-96052104D01*
X136343387Y-96052104D01*
X136566867Y-96087500D01*
X136793133Y-96087500D01*
X137016611Y-96052104D01*
X137231810Y-95982181D01*
X137351585Y-95921153D01*
X141199500Y-95921153D01*
X141199500Y-96078846D01*
X141230261Y-96233489D01*
X141230264Y-96233501D01*
X141290602Y-96379172D01*
X141290609Y-96379185D01*
X141378210Y-96510288D01*
X141378213Y-96510292D01*
X141489707Y-96621786D01*
X141489711Y-96621789D01*
X141620814Y-96709390D01*
X141620827Y-96709397D01*
X141766498Y-96769735D01*
X141766503Y-96769737D01*
X141921153Y-96800499D01*
X141921156Y-96800500D01*
X141921158Y-96800500D01*
X142078844Y-96800500D01*
X142078845Y-96800499D01*
X142233497Y-96769737D01*
X142379179Y-96709394D01*
X142379185Y-96709390D01*
X142510875Y-96621398D01*
X142577553Y-96600520D01*
X142579766Y-96600500D01*
X143413331Y-96600500D01*
X143413347Y-96600501D01*
X143420943Y-96600501D01*
X143579054Y-96600501D01*
X143579057Y-96600501D01*
X143731785Y-96559577D01*
X143781904Y-96530639D01*
X143868716Y-96480520D01*
X143980520Y-96368716D01*
X143980521Y-96368714D01*
X144014662Y-96334572D01*
X144075983Y-96301089D01*
X144078150Y-96300638D01*
X144136085Y-96289113D01*
X144233497Y-96269737D01*
X144379179Y-96209394D01*
X144510289Y-96121789D01*
X144621789Y-96010289D01*
X144709394Y-95879179D01*
X144769737Y-95733497D01*
X144800500Y-95578842D01*
X144800500Y-95421158D01*
X144800500Y-95421155D01*
X144800499Y-95421153D01*
X144788653Y-95361602D01*
X144769737Y-95266503D01*
X144763308Y-95250981D01*
X144709397Y-95120827D01*
X144709390Y-95120814D01*
X144621789Y-94989711D01*
X144621786Y-94989707D01*
X144510292Y-94878213D01*
X144510288Y-94878210D01*
X144379185Y-94790609D01*
X144379172Y-94790602D01*
X144233501Y-94730264D01*
X144233489Y-94730261D01*
X144078845Y-94699500D01*
X144078842Y-94699500D01*
X143921158Y-94699500D01*
X143921155Y-94699500D01*
X143766510Y-94730261D01*
X143766498Y-94730264D01*
X143620827Y-94790602D01*
X143620814Y-94790609D01*
X143489711Y-94878210D01*
X143489707Y-94878213D01*
X143378213Y-94989707D01*
X143378210Y-94989711D01*
X143290609Y-95120814D01*
X143290602Y-95120827D01*
X143230264Y-95266498D01*
X143230261Y-95266510D01*
X143223661Y-95299691D01*
X143191276Y-95361602D01*
X143130561Y-95396176D01*
X143102044Y-95399500D01*
X142579766Y-95399500D01*
X142512727Y-95379815D01*
X142510875Y-95378602D01*
X142379185Y-95290609D01*
X142379172Y-95290602D01*
X142233501Y-95230264D01*
X142233489Y-95230261D01*
X142078845Y-95199500D01*
X142078842Y-95199500D01*
X141921158Y-95199500D01*
X141921155Y-95199500D01*
X141766510Y-95230261D01*
X141766498Y-95230264D01*
X141620827Y-95290602D01*
X141620814Y-95290609D01*
X141489711Y-95378210D01*
X141489707Y-95378213D01*
X141378213Y-95489707D01*
X141378210Y-95489711D01*
X141290609Y-95620814D01*
X141290602Y-95620827D01*
X141230264Y-95766498D01*
X141230261Y-95766510D01*
X141199500Y-95921153D01*
X137351585Y-95921153D01*
X137433406Y-95879463D01*
X137433419Y-95879455D01*
X137504359Y-95827914D01*
X137504360Y-95827913D01*
X136908353Y-95231907D01*
X136976048Y-95203868D01*
X137078414Y-95135469D01*
X137165469Y-95048414D01*
X137233868Y-94946048D01*
X137261907Y-94878354D01*
X137857913Y-95474360D01*
X137857913Y-95474359D01*
X137909459Y-95403412D01*
X137909463Y-95403406D01*
X138012181Y-95201810D01*
X138082104Y-94986611D01*
X138117500Y-94763133D01*
X138117500Y-94536866D01*
X146482500Y-94536866D01*
X146482500Y-94763133D01*
X146517895Y-94986611D01*
X146587818Y-95201810D01*
X146690542Y-95403418D01*
X146742084Y-95474359D01*
X146742085Y-95474360D01*
X147338092Y-94878353D01*
X147366132Y-94946048D01*
X147434531Y-95048414D01*
X147521586Y-95135469D01*
X147623952Y-95203868D01*
X147691645Y-95231907D01*
X147095638Y-95827913D01*
X147166585Y-95879459D01*
X147368189Y-95982181D01*
X147583388Y-96052104D01*
X147583387Y-96052104D01*
X147806867Y-96087500D01*
X148033133Y-96087500D01*
X148256611Y-96052104D01*
X148471810Y-95982181D01*
X148673406Y-95879463D01*
X148673412Y-95879459D01*
X148744359Y-95827913D01*
X148744360Y-95827913D01*
X148148353Y-95231907D01*
X148216048Y-95203868D01*
X148318414Y-95135469D01*
X148405469Y-95048414D01*
X148473868Y-94946048D01*
X148501907Y-94878353D01*
X149097913Y-95474360D01*
X149097913Y-95474359D01*
X149149459Y-95403412D01*
X149149463Y-95403406D01*
X149252181Y-95201810D01*
X149322104Y-94986611D01*
X149357500Y-94763133D01*
X149357500Y-94536866D01*
X149322104Y-94313388D01*
X149252181Y-94098189D01*
X149149459Y-93896585D01*
X149097913Y-93825639D01*
X149097913Y-93825638D01*
X148501907Y-94421645D01*
X148473868Y-94353952D01*
X148405469Y-94251586D01*
X148318414Y-94164531D01*
X148216048Y-94096132D01*
X148148353Y-94068092D01*
X148744360Y-93472085D01*
X148744359Y-93472084D01*
X148673418Y-93420542D01*
X148471810Y-93317818D01*
X148256611Y-93247895D01*
X148256612Y-93247895D01*
X148033133Y-93212500D01*
X147806867Y-93212500D01*
X147583388Y-93247895D01*
X147368189Y-93317818D01*
X147166587Y-93420539D01*
X147095639Y-93472085D01*
X147691646Y-94068092D01*
X147623952Y-94096132D01*
X147521586Y-94164531D01*
X147434531Y-94251586D01*
X147366132Y-94353952D01*
X147338092Y-94421646D01*
X146742085Y-93825639D01*
X146690539Y-93896587D01*
X146587818Y-94098189D01*
X146517895Y-94313388D01*
X146482500Y-94536866D01*
X138117500Y-94536866D01*
X138082104Y-94313388D01*
X138012181Y-94098189D01*
X137909459Y-93896585D01*
X137857913Y-93825639D01*
X137857913Y-93825638D01*
X137261907Y-94421645D01*
X137233868Y-94353952D01*
X137165469Y-94251586D01*
X137078414Y-94164531D01*
X136976048Y-94096132D01*
X136908353Y-94068092D01*
X137504360Y-93472085D01*
X137504359Y-93472084D01*
X137433418Y-93420542D01*
X137231810Y-93317818D01*
X137016611Y-93247895D01*
X137016612Y-93247895D01*
X136793133Y-93212500D01*
X136566867Y-93212500D01*
X136343388Y-93247895D01*
X136128189Y-93317818D01*
X135926587Y-93420539D01*
X135855639Y-93472085D01*
X136451646Y-94068092D01*
X136383952Y-94096132D01*
X136281586Y-94164531D01*
X136194531Y-94251586D01*
X136126132Y-94353952D01*
X136098092Y-94421646D01*
X135502085Y-93825639D01*
X135450539Y-93896587D01*
X135347818Y-94098189D01*
X135277895Y-94313388D01*
X135242500Y-94536866D01*
X118000500Y-94536866D01*
X118000500Y-89393713D01*
X120499500Y-89393713D01*
X120499500Y-89606286D01*
X120532753Y-89816239D01*
X120598444Y-90018414D01*
X120694951Y-90207820D01*
X120819890Y-90379786D01*
X120959068Y-90518964D01*
X120992553Y-90580287D01*
X120987569Y-90649979D01*
X120945697Y-90705912D01*
X120936484Y-90712183D01*
X120781659Y-90807680D01*
X120781655Y-90807683D01*
X120657684Y-90931654D01*
X120565643Y-91080875D01*
X120565641Y-91080880D01*
X120510494Y-91247302D01*
X120510493Y-91247309D01*
X120500000Y-91350013D01*
X120500000Y-91750000D01*
X121566988Y-91750000D01*
X121534075Y-91807007D01*
X121500000Y-91934174D01*
X121500000Y-92065826D01*
X121534075Y-92192993D01*
X121566988Y-92250000D01*
X120500001Y-92250000D01*
X120500001Y-92649986D01*
X120510494Y-92752697D01*
X120565641Y-92919119D01*
X120565643Y-92919124D01*
X120657684Y-93068345D01*
X120781654Y-93192315D01*
X120930875Y-93284356D01*
X120930880Y-93284358D01*
X121097302Y-93339505D01*
X121097309Y-93339506D01*
X121200019Y-93349999D01*
X121749999Y-93349999D01*
X121750000Y-93349998D01*
X121750000Y-92433012D01*
X121807007Y-92465925D01*
X121934174Y-92500000D01*
X122065826Y-92500000D01*
X122192993Y-92465925D01*
X122250000Y-92433012D01*
X122250000Y-93349999D01*
X122799972Y-93349999D01*
X122799986Y-93349998D01*
X122902697Y-93339505D01*
X123069119Y-93284358D01*
X123069124Y-93284356D01*
X123218345Y-93192315D01*
X123342315Y-93068345D01*
X123434356Y-92919124D01*
X123434358Y-92919119D01*
X123489505Y-92752697D01*
X123489506Y-92752690D01*
X123499999Y-92649986D01*
X123500000Y-92649973D01*
X123500000Y-92250000D01*
X122433012Y-92250000D01*
X122465925Y-92192993D01*
X122500000Y-92065826D01*
X122500000Y-91934174D01*
X122489158Y-91893713D01*
X162999500Y-91893713D01*
X162999500Y-92106286D01*
X163032753Y-92316239D01*
X163098444Y-92518414D01*
X163194951Y-92707820D01*
X163319890Y-92879786D01*
X163470213Y-93030109D01*
X163642179Y-93155048D01*
X163642181Y-93155049D01*
X163642184Y-93155051D01*
X163831588Y-93251557D01*
X164033757Y-93317246D01*
X164243713Y-93350500D01*
X164243714Y-93350500D01*
X164756286Y-93350500D01*
X164756287Y-93350500D01*
X164966243Y-93317246D01*
X165168412Y-93251557D01*
X165357816Y-93155051D01*
X165379789Y-93139086D01*
X165529786Y-93030109D01*
X165529788Y-93030106D01*
X165529792Y-93030104D01*
X165680104Y-92879792D01*
X165680106Y-92879788D01*
X165680109Y-92879786D01*
X165805048Y-92707820D01*
X165805047Y-92707820D01*
X165805051Y-92707816D01*
X165901557Y-92518412D01*
X165967246Y-92316243D01*
X166000500Y-92106287D01*
X166000500Y-91893713D01*
X165967246Y-91683757D01*
X165901557Y-91481588D01*
X165805051Y-91292184D01*
X165805049Y-91292181D01*
X165805048Y-91292179D01*
X165680109Y-91120213D01*
X165540931Y-90981035D01*
X165507446Y-90919712D01*
X165512430Y-90850020D01*
X165554302Y-90794087D01*
X165563516Y-90787815D01*
X165718343Y-90692317D01*
X165842315Y-90568345D01*
X165934356Y-90419124D01*
X165934358Y-90419119D01*
X165989505Y-90252697D01*
X165989506Y-90252690D01*
X165999999Y-90149986D01*
X166000000Y-90149973D01*
X166000000Y-89750000D01*
X164933012Y-89750000D01*
X164965925Y-89692993D01*
X165000000Y-89565826D01*
X165000000Y-89434174D01*
X164965925Y-89307007D01*
X164933012Y-89250000D01*
X165999999Y-89250000D01*
X165999999Y-88850028D01*
X165999998Y-88850013D01*
X165989505Y-88747302D01*
X165934358Y-88580880D01*
X165934356Y-88580875D01*
X165842315Y-88431654D01*
X165718345Y-88307684D01*
X165569124Y-88215643D01*
X165569119Y-88215641D01*
X165402697Y-88160494D01*
X165402690Y-88160493D01*
X165299986Y-88150000D01*
X164750000Y-88150000D01*
X164750000Y-89066988D01*
X164692993Y-89034075D01*
X164565826Y-89000000D01*
X164434174Y-89000000D01*
X164307007Y-89034075D01*
X164250000Y-89066988D01*
X164250000Y-88150000D01*
X163700028Y-88150000D01*
X163700012Y-88150001D01*
X163597302Y-88160494D01*
X163430880Y-88215641D01*
X163430875Y-88215643D01*
X163281654Y-88307684D01*
X163157684Y-88431654D01*
X163065643Y-88580875D01*
X163065641Y-88580880D01*
X163010494Y-88747302D01*
X163010493Y-88747309D01*
X163000000Y-88850013D01*
X163000000Y-89250000D01*
X164066988Y-89250000D01*
X164034075Y-89307007D01*
X164000000Y-89434174D01*
X164000000Y-89565826D01*
X164034075Y-89692993D01*
X164066988Y-89750000D01*
X163000001Y-89750000D01*
X163000001Y-90149986D01*
X163010494Y-90252697D01*
X163065641Y-90419119D01*
X163065643Y-90419124D01*
X163157684Y-90568345D01*
X163281654Y-90692315D01*
X163436484Y-90787815D01*
X163483208Y-90839763D01*
X163494431Y-90908726D01*
X163466587Y-90972808D01*
X163459069Y-90981035D01*
X163319889Y-91120215D01*
X163194951Y-91292179D01*
X163098444Y-91481585D01*
X163032753Y-91683760D01*
X162999500Y-91893713D01*
X122489158Y-91893713D01*
X122465925Y-91807007D01*
X122433012Y-91750000D01*
X123499999Y-91750000D01*
X123499999Y-91350028D01*
X123499998Y-91350013D01*
X123489505Y-91247302D01*
X123434358Y-91080880D01*
X123434356Y-91080875D01*
X123342315Y-90931654D01*
X123218345Y-90807684D01*
X123063515Y-90712184D01*
X123016791Y-90660236D01*
X123005568Y-90591273D01*
X123033412Y-90527191D01*
X123040909Y-90518986D01*
X123180104Y-90379792D01*
X123305051Y-90207816D01*
X123401557Y-90018412D01*
X123467246Y-89816243D01*
X123500500Y-89606287D01*
X123500500Y-89393713D01*
X123467246Y-89183757D01*
X123401557Y-88981588D01*
X123401554Y-88981582D01*
X123361597Y-88903160D01*
X123361596Y-88903159D01*
X123334516Y-88850013D01*
X123305051Y-88792184D01*
X123272443Y-88747302D01*
X123180109Y-88620213D01*
X123029786Y-88469890D01*
X122857820Y-88344951D01*
X122668414Y-88248444D01*
X122668413Y-88248443D01*
X122668412Y-88248443D01*
X122466243Y-88182754D01*
X122466241Y-88182753D01*
X122466240Y-88182753D01*
X122304957Y-88157208D01*
X122256287Y-88149500D01*
X121743713Y-88149500D01*
X121695042Y-88157208D01*
X121533760Y-88182753D01*
X121331585Y-88248444D01*
X121142179Y-88344951D01*
X120970213Y-88469890D01*
X120819890Y-88620213D01*
X120694951Y-88792179D01*
X120598444Y-88981585D01*
X120532753Y-89183760D01*
X120499500Y-89393713D01*
X118000500Y-89393713D01*
X118000500Y-83901617D01*
X132250000Y-83901617D01*
X132250000Y-84098382D01*
X132280778Y-84292705D01*
X132341581Y-84479835D01*
X132430905Y-84655145D01*
X132456319Y-84690125D01*
X132456320Y-84690125D01*
X133017037Y-84129408D01*
X133034075Y-84192993D01*
X133099901Y-84307007D01*
X133192993Y-84400099D01*
X133307007Y-84465925D01*
X133370590Y-84482962D01*
X132809873Y-85043677D01*
X132809873Y-85043678D01*
X132844858Y-85069096D01*
X133020164Y-85158418D01*
X133207294Y-85219221D01*
X133401618Y-85250000D01*
X133598382Y-85250000D01*
X133792705Y-85219221D01*
X133979835Y-85158418D01*
X134155143Y-85069095D01*
X134190125Y-85043678D01*
X134190126Y-85043678D01*
X133629410Y-84482962D01*
X133692993Y-84465925D01*
X133807007Y-84400099D01*
X133900099Y-84307007D01*
X133965925Y-84192993D01*
X133982962Y-84129410D01*
X134543678Y-84690126D01*
X134543678Y-84690125D01*
X134569095Y-84655143D01*
X134658418Y-84479835D01*
X134719221Y-84292705D01*
X134750000Y-84098382D01*
X134750000Y-83901617D01*
X138750000Y-83901617D01*
X138750000Y-84098382D01*
X138780778Y-84292705D01*
X138841581Y-84479835D01*
X138930905Y-84655145D01*
X138956319Y-84690125D01*
X138956320Y-84690125D01*
X139517037Y-84129408D01*
X139534075Y-84192993D01*
X139599901Y-84307007D01*
X139692993Y-84400099D01*
X139807007Y-84465925D01*
X139870590Y-84482962D01*
X139309873Y-85043677D01*
X139309873Y-85043678D01*
X139344858Y-85069096D01*
X139520164Y-85158418D01*
X139707294Y-85219221D01*
X139901618Y-85250000D01*
X140098382Y-85250000D01*
X140292705Y-85219221D01*
X140479835Y-85158418D01*
X140655143Y-85069095D01*
X140690125Y-85043678D01*
X140690126Y-85043678D01*
X140129410Y-84482962D01*
X140192993Y-84465925D01*
X140307007Y-84400099D01*
X140400099Y-84307007D01*
X140465925Y-84192993D01*
X140482962Y-84129410D01*
X141043678Y-84690126D01*
X141043678Y-84690125D01*
X141069095Y-84655143D01*
X141158418Y-84479835D01*
X141219221Y-84292705D01*
X141250000Y-84098382D01*
X141250000Y-83901617D01*
X150750000Y-83901617D01*
X150750000Y-84098382D01*
X150780778Y-84292705D01*
X150841581Y-84479835D01*
X150930905Y-84655145D01*
X150956319Y-84690125D01*
X150956320Y-84690125D01*
X151517037Y-84129408D01*
X151534075Y-84192993D01*
X151599901Y-84307007D01*
X151692993Y-84400099D01*
X151807007Y-84465925D01*
X151870590Y-84482962D01*
X151309873Y-85043677D01*
X151309873Y-85043678D01*
X151344858Y-85069096D01*
X151520164Y-85158418D01*
X151707294Y-85219221D01*
X151901618Y-85250000D01*
X152098382Y-85250000D01*
X152292705Y-85219221D01*
X152479835Y-85158418D01*
X152655143Y-85069095D01*
X152690125Y-85043678D01*
X152690126Y-85043678D01*
X152129410Y-84482962D01*
X152192993Y-84465925D01*
X152307007Y-84400099D01*
X152400099Y-84307007D01*
X152465925Y-84192993D01*
X152482962Y-84129410D01*
X153043678Y-84690126D01*
X153043678Y-84690125D01*
X153069095Y-84655143D01*
X153158418Y-84479835D01*
X153219221Y-84292705D01*
X153250000Y-84098382D01*
X153250000Y-83901617D01*
X157250000Y-83901617D01*
X157250000Y-84098382D01*
X157280778Y-84292705D01*
X157341581Y-84479835D01*
X157430905Y-84655145D01*
X157456319Y-84690125D01*
X157456320Y-84690125D01*
X158017037Y-84129408D01*
X158034075Y-84192993D01*
X158099901Y-84307007D01*
X158192993Y-84400099D01*
X158307007Y-84465925D01*
X158370590Y-84482962D01*
X157809873Y-85043677D01*
X157809873Y-85043678D01*
X157844858Y-85069096D01*
X158020164Y-85158418D01*
X158207294Y-85219221D01*
X158401618Y-85250000D01*
X158598382Y-85250000D01*
X158792705Y-85219221D01*
X158979835Y-85158418D01*
X159155143Y-85069095D01*
X159190125Y-85043678D01*
X159190126Y-85043678D01*
X158629410Y-84482962D01*
X158692993Y-84465925D01*
X158807007Y-84400099D01*
X158900099Y-84307007D01*
X158965925Y-84192993D01*
X158982962Y-84129409D01*
X159543678Y-84690126D01*
X159543678Y-84690125D01*
X159569095Y-84655143D01*
X159658418Y-84479835D01*
X159719221Y-84292705D01*
X159750000Y-84098382D01*
X159750000Y-83901617D01*
X159719221Y-83707294D01*
X159658418Y-83520164D01*
X159569096Y-83344858D01*
X159543678Y-83309873D01*
X159543677Y-83309873D01*
X158982962Y-83870589D01*
X158965925Y-83807007D01*
X158900099Y-83692993D01*
X158807007Y-83599901D01*
X158692993Y-83534075D01*
X158629409Y-83517037D01*
X159190125Y-82956320D01*
X159190125Y-82956319D01*
X159155145Y-82930905D01*
X158979835Y-82841581D01*
X158792705Y-82780778D01*
X158598382Y-82750000D01*
X158401618Y-82750000D01*
X158207294Y-82780778D01*
X158020161Y-82841582D01*
X157844863Y-82930899D01*
X157844859Y-82930902D01*
X157809873Y-82956320D01*
X157809872Y-82956320D01*
X158370590Y-83517037D01*
X158307007Y-83534075D01*
X158192993Y-83599901D01*
X158099901Y-83692993D01*
X158034075Y-83807007D01*
X158017037Y-83870590D01*
X157456320Y-83309872D01*
X157456320Y-83309873D01*
X157430902Y-83344859D01*
X157430899Y-83344863D01*
X157341582Y-83520161D01*
X157280778Y-83707294D01*
X157250000Y-83901617D01*
X153250000Y-83901617D01*
X153219221Y-83707294D01*
X153158418Y-83520164D01*
X153069096Y-83344858D01*
X153043678Y-83309873D01*
X153043677Y-83309873D01*
X152482962Y-83870589D01*
X152465925Y-83807007D01*
X152400099Y-83692993D01*
X152307007Y-83599901D01*
X152192993Y-83534075D01*
X152129409Y-83517037D01*
X152690125Y-82956320D01*
X152690125Y-82956319D01*
X152655145Y-82930905D01*
X152479835Y-82841581D01*
X152292705Y-82780778D01*
X152098382Y-82750000D01*
X151901618Y-82750000D01*
X151707294Y-82780778D01*
X151520161Y-82841582D01*
X151344863Y-82930899D01*
X151344859Y-82930902D01*
X151309873Y-82956320D01*
X151309872Y-82956320D01*
X151870590Y-83517037D01*
X151807007Y-83534075D01*
X151692993Y-83599901D01*
X151599901Y-83692993D01*
X151534075Y-83807007D01*
X151517037Y-83870590D01*
X150956320Y-83309872D01*
X150956320Y-83309873D01*
X150930902Y-83344859D01*
X150930899Y-83344863D01*
X150841582Y-83520161D01*
X150780778Y-83707294D01*
X150750000Y-83901617D01*
X141250000Y-83901617D01*
X141219221Y-83707294D01*
X141158418Y-83520164D01*
X141069096Y-83344858D01*
X141043678Y-83309873D01*
X141043677Y-83309873D01*
X140482962Y-83870589D01*
X140465925Y-83807007D01*
X140400099Y-83692993D01*
X140307007Y-83599901D01*
X140192993Y-83534075D01*
X140129409Y-83517037D01*
X140690125Y-82956320D01*
X140690125Y-82956319D01*
X140655145Y-82930905D01*
X140479835Y-82841581D01*
X140292705Y-82780778D01*
X140098382Y-82750000D01*
X139901618Y-82750000D01*
X139707294Y-82780778D01*
X139520161Y-82841582D01*
X139344863Y-82930899D01*
X139344859Y-82930902D01*
X139309873Y-82956320D01*
X139309872Y-82956320D01*
X139870590Y-83517037D01*
X139807007Y-83534075D01*
X139692993Y-83599901D01*
X139599901Y-83692993D01*
X139534075Y-83807007D01*
X139517037Y-83870590D01*
X138956320Y-83309872D01*
X138956320Y-83309873D01*
X138930902Y-83344859D01*
X138930899Y-83344863D01*
X138841582Y-83520161D01*
X138780778Y-83707294D01*
X138750000Y-83901617D01*
X134750000Y-83901617D01*
X134719221Y-83707294D01*
X134658418Y-83520164D01*
X134569096Y-83344858D01*
X134543678Y-83309873D01*
X134543677Y-83309873D01*
X133982962Y-83870589D01*
X133965925Y-83807007D01*
X133900099Y-83692993D01*
X133807007Y-83599901D01*
X133692993Y-83534075D01*
X133629409Y-83517037D01*
X134190125Y-82956320D01*
X134190125Y-82956319D01*
X134155145Y-82930905D01*
X133979835Y-82841581D01*
X133792705Y-82780778D01*
X133598382Y-82750000D01*
X133401618Y-82750000D01*
X133207294Y-82780778D01*
X133020161Y-82841582D01*
X132844863Y-82930899D01*
X132844859Y-82930902D01*
X132809873Y-82956320D01*
X132809872Y-82956320D01*
X133370590Y-83517037D01*
X133307007Y-83534075D01*
X133192993Y-83599901D01*
X133099901Y-83692993D01*
X133034075Y-83807007D01*
X133017037Y-83870590D01*
X132456320Y-83309872D01*
X132456320Y-83309873D01*
X132430902Y-83344859D01*
X132430899Y-83344863D01*
X132341582Y-83520161D01*
X132280778Y-83707294D01*
X132250000Y-83901617D01*
X118000500Y-83901617D01*
X118000500Y-79893713D01*
X120499500Y-79893713D01*
X120499500Y-80106287D01*
X120532754Y-80316243D01*
X120577458Y-80453828D01*
X120598444Y-80518414D01*
X120694951Y-80707820D01*
X120819890Y-80879786D01*
X120959068Y-81018964D01*
X120992553Y-81080287D01*
X120987569Y-81149979D01*
X120945697Y-81205912D01*
X120936484Y-81212183D01*
X120781659Y-81307680D01*
X120781655Y-81307683D01*
X120657684Y-81431654D01*
X120565643Y-81580875D01*
X120565641Y-81580880D01*
X120510494Y-81747302D01*
X120510493Y-81747309D01*
X120500000Y-81850013D01*
X120500000Y-82250000D01*
X121566988Y-82250000D01*
X121534075Y-82307007D01*
X121500000Y-82434174D01*
X121500000Y-82565826D01*
X121534075Y-82692993D01*
X121566988Y-82750000D01*
X120500001Y-82750000D01*
X120500001Y-83149986D01*
X120510494Y-83252697D01*
X120565641Y-83419119D01*
X120565643Y-83419124D01*
X120657684Y-83568345D01*
X120781654Y-83692315D01*
X120930875Y-83784356D01*
X120930880Y-83784358D01*
X121097302Y-83839505D01*
X121097309Y-83839506D01*
X121200019Y-83849999D01*
X121749999Y-83849999D01*
X121750000Y-83849998D01*
X121750000Y-82933012D01*
X121807007Y-82965925D01*
X121934174Y-83000000D01*
X122065826Y-83000000D01*
X122192993Y-82965925D01*
X122250000Y-82933012D01*
X122250000Y-83849999D01*
X122799972Y-83849999D01*
X122799986Y-83849998D01*
X122902697Y-83839505D01*
X123069121Y-83784357D01*
X123218345Y-83692315D01*
X123342315Y-83568345D01*
X123434356Y-83419124D01*
X123434358Y-83419119D01*
X123489505Y-83252697D01*
X123489506Y-83252690D01*
X123499999Y-83149986D01*
X123500000Y-83149973D01*
X123500000Y-82750000D01*
X122433012Y-82750000D01*
X122465925Y-82692993D01*
X122500000Y-82565826D01*
X122500000Y-82434174D01*
X122489158Y-82393713D01*
X162999500Y-82393713D01*
X162999500Y-82606286D01*
X163032753Y-82816239D01*
X163098444Y-83018414D01*
X163194951Y-83207820D01*
X163319890Y-83379786D01*
X163470213Y-83530109D01*
X163642179Y-83655048D01*
X163642181Y-83655049D01*
X163642184Y-83655051D01*
X163831588Y-83751557D01*
X164033757Y-83817246D01*
X164243713Y-83850500D01*
X164243714Y-83850500D01*
X164756286Y-83850500D01*
X164756287Y-83850500D01*
X164966243Y-83817246D01*
X165168412Y-83751557D01*
X165357816Y-83655051D01*
X165433724Y-83599901D01*
X165529786Y-83530109D01*
X165529788Y-83530106D01*
X165529792Y-83530104D01*
X165680104Y-83379792D01*
X165680106Y-83379788D01*
X165680109Y-83379786D01*
X165805048Y-83207820D01*
X165805047Y-83207820D01*
X165805051Y-83207816D01*
X165901557Y-83018412D01*
X165967246Y-82816243D01*
X166000500Y-82606287D01*
X166000500Y-82393713D01*
X165967246Y-82183757D01*
X165901557Y-81981588D01*
X165805051Y-81792184D01*
X165805049Y-81792181D01*
X165805048Y-81792179D01*
X165680109Y-81620213D01*
X165540931Y-81481035D01*
X165507446Y-81419712D01*
X165512430Y-81350020D01*
X165554302Y-81294087D01*
X165563516Y-81287815D01*
X165718343Y-81192317D01*
X165842315Y-81068345D01*
X165934356Y-80919124D01*
X165934358Y-80919119D01*
X165989505Y-80752697D01*
X165989506Y-80752690D01*
X165999999Y-80649986D01*
X166000000Y-80649973D01*
X166000000Y-80250000D01*
X164933012Y-80250000D01*
X164965925Y-80192993D01*
X165000000Y-80065826D01*
X165000000Y-79934174D01*
X164965925Y-79807007D01*
X164933012Y-79750000D01*
X165999999Y-79750000D01*
X165999999Y-79350028D01*
X165999998Y-79350013D01*
X165989505Y-79247302D01*
X165934358Y-79080880D01*
X165934356Y-79080875D01*
X165842315Y-78931654D01*
X165718345Y-78807684D01*
X165569124Y-78715643D01*
X165569119Y-78715641D01*
X165402697Y-78660494D01*
X165402690Y-78660493D01*
X165299986Y-78650000D01*
X164750000Y-78650000D01*
X164750000Y-79566988D01*
X164692993Y-79534075D01*
X164565826Y-79500000D01*
X164434174Y-79500000D01*
X164307007Y-79534075D01*
X164250000Y-79566988D01*
X164250000Y-78650000D01*
X163700028Y-78650000D01*
X163700012Y-78650001D01*
X163597302Y-78660494D01*
X163430880Y-78715641D01*
X163430875Y-78715643D01*
X163281654Y-78807684D01*
X163157684Y-78931654D01*
X163065643Y-79080875D01*
X163065641Y-79080880D01*
X163010494Y-79247302D01*
X163010493Y-79247309D01*
X163000000Y-79350013D01*
X163000000Y-79750000D01*
X164066988Y-79750000D01*
X164034075Y-79807007D01*
X164000000Y-79934174D01*
X164000000Y-80065826D01*
X164034075Y-80192993D01*
X164066988Y-80250000D01*
X163000001Y-80250000D01*
X163000001Y-80649986D01*
X163010494Y-80752697D01*
X163065641Y-80919119D01*
X163065643Y-80919124D01*
X163157684Y-81068345D01*
X163281654Y-81192315D01*
X163436484Y-81287815D01*
X163483208Y-81339763D01*
X163494431Y-81408726D01*
X163466587Y-81472808D01*
X163459069Y-81481035D01*
X163319889Y-81620215D01*
X163194951Y-81792179D01*
X163098444Y-81981585D01*
X163032753Y-82183760D01*
X162999500Y-82393713D01*
X122489158Y-82393713D01*
X122465925Y-82307007D01*
X122433012Y-82250000D01*
X123499999Y-82250000D01*
X123499999Y-81850028D01*
X123499998Y-81850013D01*
X123489505Y-81747302D01*
X123434358Y-81580880D01*
X123434356Y-81580875D01*
X123342315Y-81431654D01*
X123218345Y-81307684D01*
X123063515Y-81212184D01*
X123016791Y-81160236D01*
X123005568Y-81091273D01*
X123033412Y-81027191D01*
X123040909Y-81018986D01*
X123180104Y-80879792D01*
X123305051Y-80707816D01*
X123401557Y-80518412D01*
X123467246Y-80316243D01*
X123500500Y-80106287D01*
X123500500Y-79893713D01*
X123467246Y-79683757D01*
X123401557Y-79481588D01*
X123305051Y-79292184D01*
X123305049Y-79292181D01*
X123305048Y-79292179D01*
X123180109Y-79120213D01*
X123029786Y-78969890D01*
X122857820Y-78844951D01*
X122668414Y-78748444D01*
X122668413Y-78748443D01*
X122668412Y-78748443D01*
X122466243Y-78682754D01*
X122466241Y-78682753D01*
X122466240Y-78682753D01*
X122304957Y-78657208D01*
X122256287Y-78649500D01*
X121743713Y-78649500D01*
X121695042Y-78657208D01*
X121533760Y-78682753D01*
X121331585Y-78748444D01*
X121142179Y-78844951D01*
X120970213Y-78969890D01*
X120819890Y-79120213D01*
X120694951Y-79292179D01*
X120598444Y-79481585D01*
X120532753Y-79683760D01*
X120531291Y-79692993D01*
X120499500Y-79893713D01*
X118000500Y-79893713D01*
X118000500Y-76421153D01*
X119699500Y-76421153D01*
X119699500Y-76578846D01*
X119730261Y-76733489D01*
X119730264Y-76733501D01*
X119790602Y-76879172D01*
X119790609Y-76879185D01*
X119878210Y-77010288D01*
X119878213Y-77010292D01*
X119989707Y-77121786D01*
X119989711Y-77121789D01*
X120120814Y-77209390D01*
X120120827Y-77209397D01*
X120266498Y-77269735D01*
X120266503Y-77269737D01*
X120421153Y-77300499D01*
X120421156Y-77300500D01*
X120421158Y-77300500D01*
X120578844Y-77300500D01*
X120578845Y-77300499D01*
X120733497Y-77269737D01*
X120879179Y-77209394D01*
X120879185Y-77209390D01*
X121010875Y-77121398D01*
X121077553Y-77100520D01*
X121079766Y-77100500D01*
X130199903Y-77100500D01*
X130266942Y-77120185D01*
X130287584Y-77136819D01*
X132213181Y-79062416D01*
X132246666Y-79123739D01*
X132249500Y-79150097D01*
X132249500Y-80297870D01*
X132249501Y-80297876D01*
X132255908Y-80357483D01*
X132306202Y-80492328D01*
X132306206Y-80492335D01*
X132392452Y-80607544D01*
X132392455Y-80607547D01*
X132507664Y-80693793D01*
X132507671Y-80693797D01*
X132642517Y-80744091D01*
X132642516Y-80744091D01*
X132649444Y-80744835D01*
X132702127Y-80750500D01*
X134297872Y-80750499D01*
X134357483Y-80744091D01*
X134492331Y-80693796D01*
X134607546Y-80607546D01*
X134693796Y-80492331D01*
X134744091Y-80357483D01*
X134750500Y-80297873D01*
X134750500Y-80224500D01*
X134770185Y-80157461D01*
X134822989Y-80111706D01*
X134874500Y-80100500D01*
X138827404Y-80100500D01*
X138894443Y-80120185D01*
X138927722Y-80151614D01*
X138930475Y-80155403D01*
X138930476Y-80155405D01*
X139046172Y-80314646D01*
X139185354Y-80453828D01*
X139344595Y-80569524D01*
X139419214Y-80607544D01*
X139519970Y-80658882D01*
X139519972Y-80658882D01*
X139519975Y-80658884D01*
X139620317Y-80691487D01*
X139707173Y-80719709D01*
X139901578Y-80750500D01*
X139901583Y-80750500D01*
X140098422Y-80750500D01*
X140292826Y-80719709D01*
X140329416Y-80707820D01*
X140480025Y-80658884D01*
X140655405Y-80569524D01*
X140814646Y-80453828D01*
X140953828Y-80314646D01*
X141069524Y-80155405D01*
X141158884Y-79980025D01*
X141219709Y-79792826D01*
X141235521Y-79692993D01*
X141250500Y-79598422D01*
X141250500Y-79401577D01*
X141219709Y-79207173D01*
X141158882Y-79019970D01*
X141087469Y-78879815D01*
X141069524Y-78844595D01*
X140966020Y-78702135D01*
X150749500Y-78702135D01*
X150749500Y-80297870D01*
X150749501Y-80297876D01*
X150755908Y-80357483D01*
X150806202Y-80492328D01*
X150806206Y-80492335D01*
X150892452Y-80607544D01*
X150892455Y-80607547D01*
X151007664Y-80693793D01*
X151007671Y-80693797D01*
X151142517Y-80744091D01*
X151142516Y-80744091D01*
X151149444Y-80744835D01*
X151202127Y-80750500D01*
X152797872Y-80750499D01*
X152857483Y-80744091D01*
X152992331Y-80693796D01*
X153107546Y-80607546D01*
X153193796Y-80492331D01*
X153244091Y-80357483D01*
X153250500Y-80297873D01*
X153250500Y-80224500D01*
X153270185Y-80157461D01*
X153322989Y-80111706D01*
X153374500Y-80100500D01*
X157327404Y-80100500D01*
X157394443Y-80120185D01*
X157427722Y-80151614D01*
X157430475Y-80155403D01*
X157430476Y-80155405D01*
X157546172Y-80314646D01*
X157685354Y-80453828D01*
X157844595Y-80569524D01*
X157919214Y-80607544D01*
X158019970Y-80658882D01*
X158019972Y-80658882D01*
X158019975Y-80658884D01*
X158120317Y-80691487D01*
X158207173Y-80719709D01*
X158401578Y-80750500D01*
X158401583Y-80750500D01*
X158598422Y-80750500D01*
X158792826Y-80719709D01*
X158829416Y-80707820D01*
X158980025Y-80658884D01*
X159155405Y-80569524D01*
X159314646Y-80453828D01*
X159453828Y-80314646D01*
X159569524Y-80155405D01*
X159658884Y-79980025D01*
X159719709Y-79792826D01*
X159735521Y-79692993D01*
X159750500Y-79598422D01*
X159750500Y-79401580D01*
X159744906Y-79366264D01*
X159744906Y-79366262D01*
X159733172Y-79292179D01*
X159719709Y-79207174D01*
X159658884Y-79019975D01*
X159658882Y-79019972D01*
X159658882Y-79019970D01*
X159587469Y-78879815D01*
X159569524Y-78844595D01*
X159453828Y-78685354D01*
X159314646Y-78546172D01*
X159155405Y-78430476D01*
X158980029Y-78341117D01*
X158792826Y-78280290D01*
X158598422Y-78249500D01*
X158598417Y-78249500D01*
X158401583Y-78249500D01*
X158401578Y-78249500D01*
X158207173Y-78280290D01*
X158019970Y-78341117D01*
X157844594Y-78430476D01*
X157753741Y-78496485D01*
X157685354Y-78546172D01*
X157685352Y-78546174D01*
X157685351Y-78546174D01*
X157546174Y-78685351D01*
X157546174Y-78685352D01*
X157546172Y-78685354D01*
X157480677Y-78775500D01*
X157427722Y-78848386D01*
X157372392Y-78891051D01*
X157327404Y-78899500D01*
X153374499Y-78899500D01*
X153307460Y-78879815D01*
X153261705Y-78827011D01*
X153250499Y-78775500D01*
X153250499Y-78702129D01*
X153250498Y-78702123D01*
X153250497Y-78702116D01*
X153244091Y-78642517D01*
X153208157Y-78546174D01*
X153193797Y-78507671D01*
X153193793Y-78507664D01*
X153107547Y-78392455D01*
X153107544Y-78392452D01*
X152992335Y-78306206D01*
X152992328Y-78306202D01*
X152857482Y-78255908D01*
X152857483Y-78255908D01*
X152797883Y-78249501D01*
X152797881Y-78249500D01*
X152797873Y-78249500D01*
X152797864Y-78249500D01*
X151202129Y-78249500D01*
X151202123Y-78249501D01*
X151142516Y-78255908D01*
X151007671Y-78306202D01*
X151007664Y-78306206D01*
X150892455Y-78392452D01*
X150892452Y-78392455D01*
X150806206Y-78507664D01*
X150806202Y-78507671D01*
X150755908Y-78642517D01*
X150751303Y-78685354D01*
X150749501Y-78702123D01*
X150749500Y-78702135D01*
X140966020Y-78702135D01*
X140953828Y-78685354D01*
X140814646Y-78546172D01*
X140655405Y-78430476D01*
X140480029Y-78341117D01*
X140292826Y-78280290D01*
X140098422Y-78249500D01*
X140098417Y-78249500D01*
X139901583Y-78249500D01*
X139901578Y-78249500D01*
X139707173Y-78280290D01*
X139519970Y-78341117D01*
X139344594Y-78430476D01*
X139253741Y-78496485D01*
X139185354Y-78546172D01*
X139185352Y-78546174D01*
X139185351Y-78546174D01*
X139046174Y-78685351D01*
X139046174Y-78685352D01*
X139046172Y-78685354D01*
X138980677Y-78775500D01*
X138927722Y-78848386D01*
X138872392Y-78891051D01*
X138827404Y-78899500D01*
X134874499Y-78899500D01*
X134807460Y-78879815D01*
X134761705Y-78827011D01*
X134750499Y-78775500D01*
X134750499Y-78702129D01*
X134750498Y-78702123D01*
X134750497Y-78702116D01*
X134744091Y-78642517D01*
X134708157Y-78546174D01*
X134693797Y-78507671D01*
X134693793Y-78507664D01*
X134607547Y-78392455D01*
X134607544Y-78392452D01*
X134492335Y-78306206D01*
X134492328Y-78306202D01*
X134357482Y-78255908D01*
X134357483Y-78255908D01*
X134297883Y-78249501D01*
X134297881Y-78249500D01*
X134297873Y-78249500D01*
X134297865Y-78249500D01*
X133150098Y-78249500D01*
X133083059Y-78229815D01*
X133062417Y-78213181D01*
X130987590Y-76138355D01*
X130987588Y-76138352D01*
X130868717Y-76019481D01*
X130868716Y-76019480D01*
X130781904Y-75969360D01*
X130781904Y-75969359D01*
X130781900Y-75969358D01*
X130731785Y-75940423D01*
X130579057Y-75899499D01*
X130420943Y-75899499D01*
X130413347Y-75899499D01*
X130413331Y-75899500D01*
X121079766Y-75899500D01*
X121012727Y-75879815D01*
X121010875Y-75878602D01*
X120879185Y-75790609D01*
X120879172Y-75790602D01*
X120733501Y-75730264D01*
X120733489Y-75730261D01*
X120578845Y-75699500D01*
X120578842Y-75699500D01*
X120421158Y-75699500D01*
X120421155Y-75699500D01*
X120266510Y-75730261D01*
X120266498Y-75730264D01*
X120120827Y-75790602D01*
X120120814Y-75790609D01*
X119989711Y-75878210D01*
X119989707Y-75878213D01*
X119878213Y-75989707D01*
X119878210Y-75989711D01*
X119790609Y-76120814D01*
X119790602Y-76120827D01*
X119730264Y-76266498D01*
X119730261Y-76266510D01*
X119699500Y-76421153D01*
X118000500Y-76421153D01*
X118000500Y-70393713D01*
X120499500Y-70393713D01*
X120499500Y-70606286D01*
X120521482Y-70745079D01*
X120532754Y-70816243D01*
X120589117Y-70989711D01*
X120598444Y-71018414D01*
X120694951Y-71207820D01*
X120819890Y-71379786D01*
X120959068Y-71518964D01*
X120992553Y-71580287D01*
X120987569Y-71649979D01*
X120945697Y-71705912D01*
X120936484Y-71712183D01*
X120781659Y-71807680D01*
X120781655Y-71807683D01*
X120657684Y-71931654D01*
X120565643Y-72080875D01*
X120565641Y-72080880D01*
X120510494Y-72247302D01*
X120510493Y-72247309D01*
X120500000Y-72350013D01*
X120500000Y-72750000D01*
X121566988Y-72750000D01*
X121534075Y-72807007D01*
X121500000Y-72934174D01*
X121500000Y-73065826D01*
X121534075Y-73192993D01*
X121566988Y-73250000D01*
X120500001Y-73250000D01*
X120500001Y-73649986D01*
X120510494Y-73752697D01*
X120565641Y-73919119D01*
X120565643Y-73919124D01*
X120657684Y-74068345D01*
X120781654Y-74192315D01*
X120930875Y-74284356D01*
X120930880Y-74284358D01*
X121097302Y-74339505D01*
X121097309Y-74339506D01*
X121200019Y-74349999D01*
X121749999Y-74349999D01*
X121750000Y-74349998D01*
X121750000Y-73433012D01*
X121807007Y-73465925D01*
X121934174Y-73500000D01*
X122065826Y-73500000D01*
X122192993Y-73465925D01*
X122250000Y-73433012D01*
X122250000Y-74349999D01*
X122799972Y-74349999D01*
X122799986Y-74349998D01*
X122902697Y-74339505D01*
X123069119Y-74284358D01*
X123069124Y-74284356D01*
X123218345Y-74192315D01*
X123342315Y-74068345D01*
X123434356Y-73919124D01*
X123434358Y-73919119D01*
X123489505Y-73752697D01*
X123489506Y-73752690D01*
X123499999Y-73649986D01*
X123500000Y-73649973D01*
X123500000Y-73250000D01*
X122433012Y-73250000D01*
X122465925Y-73192993D01*
X122500000Y-73065826D01*
X122500000Y-72934174D01*
X122489158Y-72893713D01*
X162999500Y-72893713D01*
X162999500Y-73106286D01*
X163032753Y-73316239D01*
X163098444Y-73518414D01*
X163194951Y-73707820D01*
X163319890Y-73879786D01*
X163470213Y-74030109D01*
X163642179Y-74155048D01*
X163642181Y-74155049D01*
X163642184Y-74155051D01*
X163831588Y-74251557D01*
X164033757Y-74317246D01*
X164243713Y-74350500D01*
X164243714Y-74350500D01*
X164756286Y-74350500D01*
X164756287Y-74350500D01*
X164966243Y-74317246D01*
X165168412Y-74251557D01*
X165357816Y-74155051D01*
X165379789Y-74139086D01*
X165529786Y-74030109D01*
X165529788Y-74030106D01*
X165529792Y-74030104D01*
X165680104Y-73879792D01*
X165680106Y-73879788D01*
X165680109Y-73879786D01*
X165805048Y-73707820D01*
X165805047Y-73707820D01*
X165805051Y-73707816D01*
X165901557Y-73518412D01*
X165967246Y-73316243D01*
X166000500Y-73106287D01*
X166000500Y-72893713D01*
X165967246Y-72683757D01*
X165901557Y-72481588D01*
X165805051Y-72292184D01*
X165805049Y-72292181D01*
X165805048Y-72292179D01*
X165680109Y-72120213D01*
X165540931Y-71981035D01*
X165507446Y-71919712D01*
X165512430Y-71850020D01*
X165554302Y-71794087D01*
X165563516Y-71787815D01*
X165718343Y-71692317D01*
X165842315Y-71568345D01*
X165934356Y-71419124D01*
X165934358Y-71419119D01*
X165989505Y-71252697D01*
X165989506Y-71252690D01*
X165999999Y-71149986D01*
X166000000Y-71149973D01*
X166000000Y-70750000D01*
X164933012Y-70750000D01*
X164965925Y-70692993D01*
X165000000Y-70565826D01*
X165000000Y-70434174D01*
X164965925Y-70307007D01*
X164933012Y-70250000D01*
X165999999Y-70250000D01*
X165999999Y-69850028D01*
X165999998Y-69850013D01*
X165989505Y-69747302D01*
X165934358Y-69580880D01*
X165934356Y-69580875D01*
X165842315Y-69431654D01*
X165718345Y-69307684D01*
X165569124Y-69215643D01*
X165569119Y-69215641D01*
X165402697Y-69160494D01*
X165402690Y-69160493D01*
X165299986Y-69150000D01*
X164750000Y-69150000D01*
X164750000Y-70066988D01*
X164692993Y-70034075D01*
X164565826Y-70000000D01*
X164434174Y-70000000D01*
X164307007Y-70034075D01*
X164250000Y-70066988D01*
X164250000Y-69150000D01*
X163700028Y-69150000D01*
X163700012Y-69150001D01*
X163597302Y-69160494D01*
X163430880Y-69215641D01*
X163430875Y-69215643D01*
X163281654Y-69307684D01*
X163157684Y-69431654D01*
X163065643Y-69580875D01*
X163065641Y-69580880D01*
X163010494Y-69747302D01*
X163010493Y-69747309D01*
X163000000Y-69850013D01*
X163000000Y-70250000D01*
X164066988Y-70250000D01*
X164034075Y-70307007D01*
X164000000Y-70434174D01*
X164000000Y-70565826D01*
X164034075Y-70692993D01*
X164066988Y-70750000D01*
X163000001Y-70750000D01*
X163000001Y-71149986D01*
X163010494Y-71252697D01*
X163065641Y-71419119D01*
X163065643Y-71419124D01*
X163157684Y-71568345D01*
X163281654Y-71692315D01*
X163436484Y-71787815D01*
X163483208Y-71839763D01*
X163494431Y-71908726D01*
X163466587Y-71972808D01*
X163459069Y-71981035D01*
X163319889Y-72120215D01*
X163194951Y-72292179D01*
X163098444Y-72481585D01*
X163032753Y-72683760D01*
X162999500Y-72893713D01*
X122489158Y-72893713D01*
X122465925Y-72807007D01*
X122433012Y-72750000D01*
X123499999Y-72750000D01*
X123499999Y-72350028D01*
X123499998Y-72350013D01*
X123489505Y-72247302D01*
X123434358Y-72080880D01*
X123434356Y-72080875D01*
X123342315Y-71931654D01*
X123218345Y-71807684D01*
X123063515Y-71712184D01*
X123016791Y-71660236D01*
X123005568Y-71591273D01*
X123033412Y-71527191D01*
X123040909Y-71518986D01*
X123180104Y-71379792D01*
X123180550Y-71379179D01*
X123305048Y-71207820D01*
X123305047Y-71207820D01*
X123305051Y-71207816D01*
X123387797Y-71045418D01*
X131575235Y-71045418D01*
X131575235Y-71203111D01*
X131605996Y-71357754D01*
X131605999Y-71357766D01*
X131666337Y-71503437D01*
X131666344Y-71503450D01*
X131753945Y-71634553D01*
X131753948Y-71634557D01*
X131865442Y-71746051D01*
X131865446Y-71746054D01*
X131996549Y-71833655D01*
X131996562Y-71833662D01*
X132106466Y-71879185D01*
X132142238Y-71894002D01*
X132271490Y-71919712D01*
X132296888Y-71924764D01*
X132296891Y-71924765D01*
X132296893Y-71924765D01*
X132454579Y-71924765D01*
X132454580Y-71924764D01*
X132609232Y-71894002D01*
X132754914Y-71833659D01*
X132886024Y-71746054D01*
X132997524Y-71634554D01*
X133085129Y-71503444D01*
X133086349Y-71500500D01*
X133120057Y-71419119D01*
X133145472Y-71357762D01*
X133175298Y-71207820D01*
X133176373Y-71202415D01*
X133208758Y-71140504D01*
X133210260Y-71138974D01*
X133468713Y-70880521D01*
X133468716Y-70880520D01*
X133528083Y-70821153D01*
X146699500Y-70821153D01*
X146699500Y-70978846D01*
X146730261Y-71133489D01*
X146730264Y-71133501D01*
X146790602Y-71279172D01*
X146790609Y-71279185D01*
X146878210Y-71410288D01*
X146878213Y-71410292D01*
X146989707Y-71521786D01*
X146989711Y-71521789D01*
X147120814Y-71609390D01*
X147120827Y-71609397D01*
X147243565Y-71660236D01*
X147266503Y-71669737D01*
X147380010Y-71692315D01*
X147421153Y-71700499D01*
X147421156Y-71700500D01*
X147421158Y-71700500D01*
X147578844Y-71700500D01*
X147578845Y-71700499D01*
X147733497Y-71669737D01*
X147879179Y-71609394D01*
X147922741Y-71580287D01*
X148010875Y-71521398D01*
X148077553Y-71500520D01*
X148079766Y-71500500D01*
X148599903Y-71500500D01*
X148666942Y-71520185D01*
X148687584Y-71536819D01*
X149015139Y-71864374D01*
X149015149Y-71864385D01*
X149019479Y-71868715D01*
X149019480Y-71868716D01*
X149131284Y-71980520D01*
X149182845Y-72010288D01*
X149218095Y-72030639D01*
X149218097Y-72030641D01*
X149256151Y-72052611D01*
X149268215Y-72059577D01*
X149420943Y-72100500D01*
X149579057Y-72100500D01*
X149920234Y-72100500D01*
X149987273Y-72120185D01*
X149989125Y-72121398D01*
X150120814Y-72209390D01*
X150120827Y-72209397D01*
X150266498Y-72269735D01*
X150266503Y-72269737D01*
X150379326Y-72292179D01*
X150421153Y-72300499D01*
X150421156Y-72300500D01*
X150421158Y-72300500D01*
X150578844Y-72300500D01*
X150578845Y-72300499D01*
X150733497Y-72269737D01*
X150879179Y-72209394D01*
X151010289Y-72121789D01*
X151121789Y-72010289D01*
X151209394Y-71879179D01*
X151269737Y-71733497D01*
X151300500Y-71578842D01*
X151300500Y-71421158D01*
X151300500Y-71421155D01*
X151300499Y-71421153D01*
X151292272Y-71379792D01*
X151269737Y-71266503D01*
X151269735Y-71266498D01*
X151209397Y-71120827D01*
X151209390Y-71120814D01*
X151121398Y-70989125D01*
X151115826Y-70971332D01*
X151111706Y-70966577D01*
X151111118Y-70963875D01*
X151105523Y-70955169D01*
X151101071Y-70924207D01*
X151100520Y-70922447D01*
X151100508Y-70921153D01*
X152199500Y-70921153D01*
X152199500Y-71078846D01*
X152230261Y-71233489D01*
X152230264Y-71233501D01*
X152290602Y-71379172D01*
X152290609Y-71379185D01*
X152378210Y-71510288D01*
X152378213Y-71510292D01*
X152489707Y-71621786D01*
X152489711Y-71621789D01*
X152620814Y-71709390D01*
X152620827Y-71709397D01*
X152715094Y-71748443D01*
X152766503Y-71769737D01*
X152857387Y-71787815D01*
X152921153Y-71800499D01*
X152921156Y-71800500D01*
X152921158Y-71800500D01*
X153078844Y-71800500D01*
X153078845Y-71800499D01*
X153233497Y-71769737D01*
X153379179Y-71709394D01*
X153510289Y-71621789D01*
X153621789Y-71510289D01*
X153709394Y-71379179D01*
X153718264Y-71357766D01*
X153723067Y-71346166D01*
X153769737Y-71233497D01*
X153792151Y-71120814D01*
X153800638Y-71078150D01*
X153833023Y-71016239D01*
X153834520Y-71014714D01*
X154858506Y-69990727D01*
X154858511Y-69990724D01*
X154868714Y-69980520D01*
X154868716Y-69980520D01*
X154980520Y-69868716D01*
X154999727Y-69835447D01*
X155028932Y-69784864D01*
X155038736Y-69767881D01*
X155059577Y-69731784D01*
X155100500Y-69579057D01*
X155100500Y-63393713D01*
X162999500Y-63393713D01*
X162999500Y-63606286D01*
X163030260Y-63800500D01*
X163032754Y-63816243D01*
X163096595Y-64012726D01*
X163098444Y-64018414D01*
X163194951Y-64207820D01*
X163319890Y-64379786D01*
X163470213Y-64530109D01*
X163642179Y-64655048D01*
X163642181Y-64655049D01*
X163642184Y-64655051D01*
X163831588Y-64751557D01*
X164033757Y-64817246D01*
X164243713Y-64850500D01*
X164243714Y-64850500D01*
X164756286Y-64850500D01*
X164756287Y-64850500D01*
X164966243Y-64817246D01*
X165168412Y-64751557D01*
X165357816Y-64655051D01*
X165379789Y-64639086D01*
X165529786Y-64530109D01*
X165529788Y-64530106D01*
X165529792Y-64530104D01*
X165680104Y-64379792D01*
X165680106Y-64379788D01*
X165680109Y-64379786D01*
X165805048Y-64207820D01*
X165805047Y-64207820D01*
X165805051Y-64207816D01*
X165901557Y-64018412D01*
X165967246Y-63816243D01*
X166000500Y-63606287D01*
X166000500Y-63393713D01*
X165967246Y-63183757D01*
X165901557Y-62981588D01*
X165805051Y-62792184D01*
X165805049Y-62792181D01*
X165805048Y-62792179D01*
X165680109Y-62620213D01*
X165540931Y-62481035D01*
X165507446Y-62419712D01*
X165512430Y-62350020D01*
X165554302Y-62294087D01*
X165563516Y-62287815D01*
X165718343Y-62192317D01*
X165842315Y-62068345D01*
X165934356Y-61919124D01*
X165934358Y-61919119D01*
X165989505Y-61752697D01*
X165989506Y-61752690D01*
X165999999Y-61649986D01*
X166000000Y-61649973D01*
X166000000Y-61250000D01*
X164933012Y-61250000D01*
X164965925Y-61192993D01*
X165000000Y-61065826D01*
X165000000Y-60934174D01*
X164965925Y-60807007D01*
X164933012Y-60750000D01*
X165999999Y-60750000D01*
X165999999Y-60350028D01*
X165999998Y-60350013D01*
X165989505Y-60247302D01*
X165934358Y-60080880D01*
X165934356Y-60080875D01*
X165842315Y-59931654D01*
X165718345Y-59807684D01*
X165569124Y-59715643D01*
X165569119Y-59715641D01*
X165402697Y-59660494D01*
X165402690Y-59660493D01*
X165299986Y-59650000D01*
X164750000Y-59650000D01*
X164750000Y-60566988D01*
X164692993Y-60534075D01*
X164565826Y-60500000D01*
X164434174Y-60500000D01*
X164307007Y-60534075D01*
X164250000Y-60566988D01*
X164250000Y-59650000D01*
X163700028Y-59650000D01*
X163700012Y-59650001D01*
X163597302Y-59660494D01*
X163430880Y-59715641D01*
X163430875Y-59715643D01*
X163281654Y-59807684D01*
X163157684Y-59931654D01*
X163065643Y-60080875D01*
X163065641Y-60080880D01*
X163010494Y-60247302D01*
X163010493Y-60247309D01*
X163000000Y-60350013D01*
X163000000Y-60750000D01*
X164066988Y-60750000D01*
X164034075Y-60807007D01*
X164000000Y-60934174D01*
X164000000Y-61065826D01*
X164034075Y-61192993D01*
X164066988Y-61250000D01*
X163000001Y-61250000D01*
X163000001Y-61649986D01*
X163010494Y-61752697D01*
X163065641Y-61919119D01*
X163065643Y-61919124D01*
X163157684Y-62068345D01*
X163281654Y-62192315D01*
X163436484Y-62287815D01*
X163483208Y-62339763D01*
X163494431Y-62408726D01*
X163466587Y-62472808D01*
X163459069Y-62481035D01*
X163319889Y-62620215D01*
X163194951Y-62792179D01*
X163098444Y-62981585D01*
X163098443Y-62981587D01*
X163098443Y-62981588D01*
X163095805Y-62989707D01*
X163032753Y-63183760D01*
X162999500Y-63393713D01*
X155100500Y-63393713D01*
X155100500Y-59589060D01*
X155100501Y-59589047D01*
X155100501Y-59420944D01*
X155092131Y-59389707D01*
X155059577Y-59268216D01*
X155059573Y-59268209D01*
X154980524Y-59131290D01*
X154980518Y-59131282D01*
X154834573Y-58985337D01*
X154801088Y-58924014D01*
X154800637Y-58921847D01*
X154800499Y-58921153D01*
X154769737Y-58766503D01*
X154755359Y-58731790D01*
X154709397Y-58620827D01*
X154709390Y-58620814D01*
X154621789Y-58489711D01*
X154621786Y-58489707D01*
X154510292Y-58378213D01*
X154510288Y-58378210D01*
X154379185Y-58290609D01*
X154379172Y-58290602D01*
X154233501Y-58230264D01*
X154233489Y-58230261D01*
X154078845Y-58199500D01*
X154078842Y-58199500D01*
X153921158Y-58199500D01*
X153921155Y-58199500D01*
X153766510Y-58230261D01*
X153766498Y-58230264D01*
X153620827Y-58290602D01*
X153620814Y-58290609D01*
X153489711Y-58378210D01*
X153489707Y-58378213D01*
X153378213Y-58489707D01*
X153378210Y-58489711D01*
X153290609Y-58620814D01*
X153290602Y-58620827D01*
X153230264Y-58766498D01*
X153230261Y-58766510D01*
X153199500Y-58921153D01*
X153199500Y-59078846D01*
X153230261Y-59233489D01*
X153230264Y-59233501D01*
X153290602Y-59379172D01*
X153290609Y-59379185D01*
X153378210Y-59510288D01*
X153378213Y-59510292D01*
X153489707Y-59621786D01*
X153489711Y-59621789D01*
X153620814Y-59709390D01*
X153620827Y-59709397D01*
X153673673Y-59731286D01*
X153766503Y-59769737D01*
X153799691Y-59776338D01*
X153861600Y-59808721D01*
X153896176Y-59869436D01*
X153899500Y-59897955D01*
X153899500Y-69199903D01*
X153879815Y-69266942D01*
X153863181Y-69287584D01*
X152985339Y-70165425D01*
X152924016Y-70198910D01*
X152921850Y-70199361D01*
X152766508Y-70230261D01*
X152766498Y-70230264D01*
X152620827Y-70290602D01*
X152620814Y-70290609D01*
X152489711Y-70378210D01*
X152489707Y-70378213D01*
X152378213Y-70489707D01*
X152378210Y-70489711D01*
X152290609Y-70620814D01*
X152290602Y-70620827D01*
X152230264Y-70766498D01*
X152230261Y-70766510D01*
X152199500Y-70921153D01*
X151100508Y-70921153D01*
X151100500Y-70920234D01*
X151100500Y-68800097D01*
X151120185Y-68733058D01*
X151136819Y-68712416D01*
X151270393Y-68578842D01*
X151514665Y-68334570D01*
X151575984Y-68301088D01*
X151578151Y-68300637D01*
X151578840Y-68300500D01*
X151578842Y-68300500D01*
X151733497Y-68269737D01*
X151879179Y-68209394D01*
X152010289Y-68121789D01*
X152121789Y-68010289D01*
X152209394Y-67879179D01*
X152269737Y-67733497D01*
X152300500Y-67578842D01*
X152300500Y-67421158D01*
X152300500Y-67421155D01*
X152300499Y-67421153D01*
X152291957Y-67378210D01*
X152269737Y-67266503D01*
X152269735Y-67266498D01*
X152209397Y-67120827D01*
X152209390Y-67120814D01*
X152121789Y-66989711D01*
X152121786Y-66989707D01*
X152010292Y-66878213D01*
X152010288Y-66878210D01*
X151879185Y-66790609D01*
X151879172Y-66790602D01*
X151733501Y-66730264D01*
X151733489Y-66730261D01*
X151578845Y-66699500D01*
X151578842Y-66699500D01*
X151421158Y-66699500D01*
X151421155Y-66699500D01*
X151266510Y-66730261D01*
X151266498Y-66730264D01*
X151120827Y-66790602D01*
X151120814Y-66790609D01*
X150989711Y-66878210D01*
X150989707Y-66878213D01*
X150878213Y-66989707D01*
X150878210Y-66989711D01*
X150790609Y-67120814D01*
X150790602Y-67120827D01*
X150730264Y-67266498D01*
X150730261Y-67266508D01*
X150699362Y-67421848D01*
X150666977Y-67483759D01*
X150665426Y-67485337D01*
X150131286Y-68019478D01*
X150019481Y-68131282D01*
X150019479Y-68131285D01*
X149974385Y-68209392D01*
X149974384Y-68209393D01*
X149940423Y-68268214D01*
X149940423Y-68268215D01*
X149899499Y-68420943D01*
X149899499Y-68420945D01*
X149899499Y-68589046D01*
X149899500Y-68589059D01*
X149899500Y-70750903D01*
X149879815Y-70817942D01*
X149827011Y-70863697D01*
X149757853Y-70873641D01*
X149694297Y-70844616D01*
X149687819Y-70838584D01*
X149387590Y-70538355D01*
X149387588Y-70538352D01*
X149268717Y-70419481D01*
X149268709Y-70419475D01*
X149156216Y-70354528D01*
X149156215Y-70354527D01*
X149139043Y-70344613D01*
X149131785Y-70340423D01*
X148979057Y-70299499D01*
X148820943Y-70299499D01*
X148813347Y-70299499D01*
X148813331Y-70299500D01*
X148079766Y-70299500D01*
X148012727Y-70279815D01*
X148010875Y-70278602D01*
X147879185Y-70190609D01*
X147879172Y-70190602D01*
X147733501Y-70130264D01*
X147733489Y-70130261D01*
X147578845Y-70099500D01*
X147578842Y-70099500D01*
X147421158Y-70099500D01*
X147421155Y-70099500D01*
X147266510Y-70130261D01*
X147266498Y-70130264D01*
X147120827Y-70190602D01*
X147120814Y-70190609D01*
X146989711Y-70278210D01*
X146989707Y-70278213D01*
X146878213Y-70389707D01*
X146878210Y-70389711D01*
X146790609Y-70520814D01*
X146790602Y-70520827D01*
X146730264Y-70666498D01*
X146730261Y-70666510D01*
X146699500Y-70821153D01*
X133528083Y-70821153D01*
X133580520Y-70768716D01*
X133659577Y-70631784D01*
X133700500Y-70479057D01*
X133700500Y-69079765D01*
X133720185Y-69012726D01*
X133721398Y-69010874D01*
X133809390Y-68879185D01*
X133809390Y-68879184D01*
X133809394Y-68879179D01*
X133869737Y-68733497D01*
X133900500Y-68578842D01*
X133900500Y-68421158D01*
X133900500Y-68421155D01*
X133900499Y-68421153D01*
X133876616Y-68301088D01*
X133869737Y-68266503D01*
X133846082Y-68209394D01*
X133809397Y-68120827D01*
X133809390Y-68120814D01*
X133721789Y-67989711D01*
X133721786Y-67989707D01*
X133610292Y-67878213D01*
X133610288Y-67878210D01*
X133479185Y-67790609D01*
X133479172Y-67790602D01*
X133333501Y-67730264D01*
X133333489Y-67730261D01*
X133178845Y-67699500D01*
X133178842Y-67699500D01*
X133021158Y-67699500D01*
X133021155Y-67699500D01*
X132866510Y-67730261D01*
X132866498Y-67730264D01*
X132720827Y-67790602D01*
X132720814Y-67790609D01*
X132589711Y-67878210D01*
X132589707Y-67878213D01*
X132478213Y-67989707D01*
X132478210Y-67989711D01*
X132390609Y-68120814D01*
X132390602Y-68120827D01*
X132330264Y-68266498D01*
X132330261Y-68266510D01*
X132299500Y-68421153D01*
X132299500Y-68578846D01*
X132330261Y-68733489D01*
X132330264Y-68733501D01*
X132390602Y-68879172D01*
X132390609Y-68879185D01*
X132478602Y-69010874D01*
X132499480Y-69077551D01*
X132499500Y-69079765D01*
X132499500Y-70099903D01*
X132490855Y-70129342D01*
X132484332Y-70159330D01*
X132480577Y-70164345D01*
X132479815Y-70166942D01*
X132463185Y-70187579D01*
X132400765Y-70250000D01*
X132361074Y-70289691D01*
X132299751Y-70323175D01*
X132297585Y-70323626D01*
X132142243Y-70354526D01*
X132142233Y-70354529D01*
X131996562Y-70414867D01*
X131996549Y-70414874D01*
X131865446Y-70502475D01*
X131865442Y-70502478D01*
X131753948Y-70613972D01*
X131753945Y-70613976D01*
X131666344Y-70745079D01*
X131666337Y-70745092D01*
X131605999Y-70890763D01*
X131605996Y-70890775D01*
X131575235Y-71045418D01*
X123387797Y-71045418D01*
X123401557Y-71018412D01*
X123467246Y-70816243D01*
X123500500Y-70606287D01*
X123500500Y-70393713D01*
X123467246Y-70183757D01*
X123401557Y-69981588D01*
X123305051Y-69792184D01*
X123305049Y-69792181D01*
X123305048Y-69792179D01*
X123180109Y-69620213D01*
X123029786Y-69469890D01*
X122857820Y-69344951D01*
X122668414Y-69248444D01*
X122668413Y-69248443D01*
X122668412Y-69248443D01*
X122466243Y-69182754D01*
X122466241Y-69182753D01*
X122466240Y-69182753D01*
X122304957Y-69157208D01*
X122256287Y-69149500D01*
X121743713Y-69149500D01*
X121695042Y-69157208D01*
X121533760Y-69182753D01*
X121331585Y-69248444D01*
X121142179Y-69344951D01*
X120970213Y-69469890D01*
X120819890Y-69620213D01*
X120694951Y-69792179D01*
X120598444Y-69981585D01*
X120532753Y-70183760D01*
X120499500Y-70393713D01*
X118000500Y-70393713D01*
X118000500Y-60893713D01*
X120499500Y-60893713D01*
X120499500Y-61106287D01*
X120499992Y-61109394D01*
X120526883Y-61279179D01*
X120532754Y-61316243D01*
X120597293Y-61514874D01*
X120598444Y-61518414D01*
X120694951Y-61707820D01*
X120819890Y-61879786D01*
X120959068Y-62018964D01*
X120992553Y-62080287D01*
X120987569Y-62149979D01*
X120945697Y-62205912D01*
X120936484Y-62212183D01*
X120781659Y-62307680D01*
X120781655Y-62307683D01*
X120657684Y-62431654D01*
X120565643Y-62580875D01*
X120565641Y-62580880D01*
X120510494Y-62747302D01*
X120510493Y-62747309D01*
X120500000Y-62850013D01*
X120500000Y-63250000D01*
X121566988Y-63250000D01*
X121534075Y-63307007D01*
X121500000Y-63434174D01*
X121500000Y-63565826D01*
X121534075Y-63692993D01*
X121566988Y-63750000D01*
X120500001Y-63750000D01*
X120500001Y-64149986D01*
X120510494Y-64252697D01*
X120565641Y-64419119D01*
X120565643Y-64419124D01*
X120657684Y-64568345D01*
X120781654Y-64692315D01*
X120930875Y-64784356D01*
X120930880Y-64784358D01*
X121097302Y-64839505D01*
X121097309Y-64839506D01*
X121200019Y-64849999D01*
X121749999Y-64849999D01*
X121750000Y-64849998D01*
X121750000Y-63933012D01*
X121807007Y-63965925D01*
X121934174Y-64000000D01*
X122065826Y-64000000D01*
X122192993Y-63965925D01*
X122250000Y-63933012D01*
X122250000Y-64849999D01*
X122799972Y-64849999D01*
X122799986Y-64849998D01*
X122902697Y-64839505D01*
X123069119Y-64784358D01*
X123069124Y-64784356D01*
X123218345Y-64692315D01*
X123342315Y-64568345D01*
X123434356Y-64419124D01*
X123434358Y-64419119D01*
X123489505Y-64252697D01*
X123489506Y-64252690D01*
X123499999Y-64149986D01*
X123500000Y-64149973D01*
X123500000Y-63750000D01*
X122433012Y-63750000D01*
X122465925Y-63692993D01*
X122500000Y-63565826D01*
X122500000Y-63434174D01*
X122465925Y-63307007D01*
X122433012Y-63250000D01*
X123499999Y-63250000D01*
X123499999Y-62850028D01*
X123499998Y-62850013D01*
X123489505Y-62747302D01*
X123434358Y-62580880D01*
X123434356Y-62580875D01*
X123342315Y-62431654D01*
X123218345Y-62307684D01*
X123116507Y-62244870D01*
X123116507Y-62244869D01*
X123063515Y-62212183D01*
X123016790Y-62160235D01*
X123014379Y-62145418D01*
X132323765Y-62145418D01*
X132323765Y-62303111D01*
X132354526Y-62457754D01*
X132354529Y-62457766D01*
X132414867Y-62603437D01*
X132414874Y-62603450D01*
X132502475Y-62734553D01*
X132502478Y-62734557D01*
X132613972Y-62846051D01*
X132613976Y-62846054D01*
X132745079Y-62933655D01*
X132745092Y-62933662D01*
X132890763Y-62994000D01*
X132890768Y-62994002D01*
X133045418Y-63024764D01*
X133045421Y-63024765D01*
X133045423Y-63024765D01*
X133203109Y-63024765D01*
X133203110Y-63024764D01*
X133357762Y-62994002D01*
X133503444Y-62933659D01*
X133634554Y-62846054D01*
X133746054Y-62734554D01*
X133833659Y-62603444D01*
X133894002Y-62457762D01*
X133924765Y-62303107D01*
X133924765Y-62303105D01*
X133924902Y-62302417D01*
X133957286Y-62240506D01*
X133958805Y-62238959D01*
X133980520Y-62217246D01*
X134059577Y-62080314D01*
X134100501Y-61927587D01*
X134100501Y-61769472D01*
X134100501Y-61761877D01*
X134100500Y-61761859D01*
X134100500Y-60479765D01*
X134105403Y-60462848D01*
X134105285Y-60445652D01*
X134118918Y-60416225D01*
X134119724Y-60413447D01*
X134121608Y-60410469D01*
X134121789Y-60410289D01*
X134181348Y-60321153D01*
X136199500Y-60321153D01*
X136199500Y-60478846D01*
X136230261Y-60633489D01*
X136230264Y-60633501D01*
X136290602Y-60779172D01*
X136290609Y-60779185D01*
X136378210Y-60910288D01*
X136378213Y-60910292D01*
X136489707Y-61021786D01*
X136489711Y-61021789D01*
X136620814Y-61109390D01*
X136620827Y-61109397D01*
X136756450Y-61165573D01*
X136766503Y-61169737D01*
X136886736Y-61193653D01*
X136921153Y-61200499D01*
X136921156Y-61200500D01*
X136921158Y-61200500D01*
X137078843Y-61200500D01*
X137095304Y-61197225D01*
X137144568Y-61187426D01*
X137214158Y-61193653D01*
X137269336Y-61236515D01*
X137272806Y-61241588D01*
X137278979Y-61251111D01*
X137290606Y-61279179D01*
X137378211Y-61410289D01*
X137389488Y-61421566D01*
X137396606Y-61432545D01*
X137402998Y-61453997D01*
X137413725Y-61473642D01*
X137412781Y-61486831D01*
X137416558Y-61499505D01*
X137410337Y-61521006D01*
X137408741Y-61543334D01*
X137399897Y-61557093D01*
X137397141Y-61566623D01*
X137389463Y-61573329D01*
X137382001Y-61584939D01*
X137382076Y-61585001D01*
X137381552Y-61585639D01*
X137380240Y-61587681D01*
X137378213Y-61589707D01*
X137378210Y-61589711D01*
X137290609Y-61720814D01*
X137290602Y-61720827D01*
X137230264Y-61866498D01*
X137230261Y-61866510D01*
X137199500Y-62021153D01*
X137199500Y-62178846D01*
X137230261Y-62333489D01*
X137230264Y-62333501D01*
X137290604Y-62479177D01*
X137290605Y-62479179D01*
X137291899Y-62481115D01*
X137292264Y-62482282D01*
X137293476Y-62484549D01*
X137293045Y-62484778D01*
X137312773Y-62547794D01*
X137294285Y-62615173D01*
X137291899Y-62618885D01*
X137290605Y-62620820D01*
X137290604Y-62620822D01*
X137230264Y-62766498D01*
X137230261Y-62766510D01*
X137199500Y-62921153D01*
X137199500Y-63078846D01*
X137230261Y-63233489D01*
X137230264Y-63233501D01*
X137290602Y-63379172D01*
X137290609Y-63379185D01*
X137378210Y-63510288D01*
X137378213Y-63510292D01*
X137489707Y-63621786D01*
X137489711Y-63621789D01*
X137620814Y-63709390D01*
X137620827Y-63709397D01*
X137718853Y-63750000D01*
X137766503Y-63769737D01*
X137921153Y-63800499D01*
X137921156Y-63800500D01*
X137921158Y-63800500D01*
X138078844Y-63800500D01*
X138078845Y-63800499D01*
X138233497Y-63769737D01*
X138379179Y-63709394D01*
X138403725Y-63692993D01*
X138510875Y-63621398D01*
X138577553Y-63600520D01*
X138579766Y-63600500D01*
X139413331Y-63600500D01*
X139413347Y-63600501D01*
X139420943Y-63600501D01*
X139579054Y-63600501D01*
X139579057Y-63600501D01*
X139731785Y-63559577D01*
X139781904Y-63530639D01*
X139868716Y-63480520D01*
X139980520Y-63368716D01*
X139980521Y-63368714D01*
X140263758Y-63085476D01*
X140325079Y-63051993D01*
X140327166Y-63051557D01*
X140357762Y-63045472D01*
X140503444Y-62985129D01*
X140634554Y-62897524D01*
X140746054Y-62786024D01*
X140833659Y-62654914D01*
X140894002Y-62509232D01*
X140924765Y-62354577D01*
X140924765Y-62196893D01*
X140924765Y-62196890D01*
X140924764Y-62196888D01*
X140909825Y-62121786D01*
X140894002Y-62042238D01*
X140887769Y-62027191D01*
X140833662Y-61896562D01*
X140833655Y-61896549D01*
X140764727Y-61793391D01*
X140743849Y-61726713D01*
X140762334Y-61659333D01*
X140814312Y-61612643D01*
X140867829Y-61600500D01*
X143175500Y-61600500D01*
X143184185Y-61603050D01*
X143193147Y-61601762D01*
X143217187Y-61612740D01*
X143242539Y-61620185D01*
X143248466Y-61627025D01*
X143256703Y-61630787D01*
X143270992Y-61653021D01*
X143288294Y-61672989D01*
X143290581Y-61683503D01*
X143294477Y-61689565D01*
X143299500Y-61724500D01*
X143299500Y-61910623D01*
X143279815Y-61977662D01*
X143278602Y-61979514D01*
X143190609Y-62111203D01*
X143190602Y-62111216D01*
X143130264Y-62256887D01*
X143130261Y-62256899D01*
X143099500Y-62411542D01*
X143099500Y-62569235D01*
X143114339Y-62643836D01*
X143108112Y-62713428D01*
X143065249Y-62768605D01*
X143040179Y-62782586D01*
X143020827Y-62790602D01*
X143020818Y-62790607D01*
X142889715Y-62878207D01*
X142889707Y-62878213D01*
X142778213Y-62989707D01*
X142778210Y-62989711D01*
X142690609Y-63120814D01*
X142690602Y-63120827D01*
X142630264Y-63266498D01*
X142630261Y-63266510D01*
X142599500Y-63421153D01*
X142599500Y-63578846D01*
X142630261Y-63733489D01*
X142630264Y-63733501D01*
X142690602Y-63879172D01*
X142690609Y-63879185D01*
X142778602Y-64010874D01*
X142799480Y-64077551D01*
X142799500Y-64079765D01*
X142799500Y-65799903D01*
X142779815Y-65866942D01*
X142763181Y-65887584D01*
X142287584Y-66363181D01*
X142226261Y-66396666D01*
X142199903Y-66399500D01*
X140486670Y-66399500D01*
X140486654Y-66399499D01*
X140479058Y-66399499D01*
X140320943Y-66399499D01*
X140244579Y-66419961D01*
X140168214Y-66440423D01*
X140168209Y-66440426D01*
X140031290Y-66519475D01*
X140031282Y-66519481D01*
X139385339Y-67165425D01*
X139324016Y-67198910D01*
X139321850Y-67199361D01*
X139166508Y-67230261D01*
X139166498Y-67230264D01*
X139020827Y-67290602D01*
X139020814Y-67290609D01*
X138889711Y-67378210D01*
X138889707Y-67378213D01*
X138778213Y-67489707D01*
X138778210Y-67489711D01*
X138690609Y-67620814D01*
X138690602Y-67620827D01*
X138630264Y-67766498D01*
X138630261Y-67766510D01*
X138599500Y-67921153D01*
X138599500Y-68078846D01*
X138630261Y-68233489D01*
X138630264Y-68233501D01*
X138690602Y-68379172D01*
X138690609Y-68379185D01*
X138778210Y-68510288D01*
X138778213Y-68510292D01*
X138889707Y-68621786D01*
X138889711Y-68621789D01*
X139020814Y-68709390D01*
X139020827Y-68709397D01*
X139115799Y-68748735D01*
X139166503Y-68769737D01*
X139319132Y-68800097D01*
X139321153Y-68800499D01*
X139321156Y-68800500D01*
X139321158Y-68800500D01*
X139478844Y-68800500D01*
X139478845Y-68800499D01*
X139633497Y-68769737D01*
X139779179Y-68709394D01*
X139910289Y-68621789D01*
X140021789Y-68510289D01*
X140109394Y-68379179D01*
X140169737Y-68233497D01*
X140192151Y-68120814D01*
X140200638Y-68078150D01*
X140233023Y-68016239D01*
X140234514Y-68014720D01*
X140612417Y-67636819D01*
X140673740Y-67603334D01*
X140700098Y-67600500D01*
X142413331Y-67600500D01*
X142413347Y-67600501D01*
X142420943Y-67600501D01*
X142579054Y-67600501D01*
X142579057Y-67600501D01*
X142731785Y-67559577D01*
X142781904Y-67530639D01*
X142868716Y-67480520D01*
X142980520Y-67368716D01*
X142980520Y-67368714D01*
X142990728Y-67358507D01*
X142990730Y-67358504D01*
X143768713Y-66580521D01*
X143768716Y-66580520D01*
X143880520Y-66468716D01*
X143930639Y-66381904D01*
X143959577Y-66331785D01*
X144000500Y-66179058D01*
X144000500Y-66020943D01*
X144000500Y-64079765D01*
X144020185Y-64012726D01*
X144021398Y-64010874D01*
X144109390Y-63879185D01*
X144109390Y-63879184D01*
X144109394Y-63879179D01*
X144169737Y-63733497D01*
X144200500Y-63578842D01*
X144200500Y-63421158D01*
X144200500Y-63421155D01*
X144185660Y-63346552D01*
X144191887Y-63276960D01*
X144234750Y-63221783D01*
X144259825Y-63207799D01*
X144279179Y-63199783D01*
X144410289Y-63112178D01*
X144521789Y-63000678D01*
X144609394Y-62869568D01*
X144669737Y-62723886D01*
X144700500Y-62569231D01*
X144700500Y-62411547D01*
X144696804Y-62392968D01*
X144703030Y-62323380D01*
X144745891Y-62268201D01*
X144770960Y-62254219D01*
X144879179Y-62209394D01*
X145010289Y-62121789D01*
X145121789Y-62010289D01*
X145209394Y-61879179D01*
X145269737Y-61733497D01*
X145300500Y-61578842D01*
X145300500Y-61421158D01*
X145300500Y-61421155D01*
X145300499Y-61421153D01*
X145269738Y-61266510D01*
X145269737Y-61266503D01*
X145242398Y-61200500D01*
X145209397Y-61120827D01*
X145209390Y-61120814D01*
X145121789Y-60989711D01*
X145121786Y-60989707D01*
X145015500Y-60883421D01*
X145010923Y-60878592D01*
X145002269Y-60868956D01*
X144980520Y-60831284D01*
X144868716Y-60719480D01*
X144868713Y-60719478D01*
X143973700Y-59824465D01*
X143940215Y-59763142D01*
X143945199Y-59693450D01*
X143987071Y-59637517D01*
X143992491Y-59633681D01*
X143997605Y-59630264D01*
X144010289Y-59621789D01*
X144121789Y-59510289D01*
X144209394Y-59379179D01*
X144269737Y-59233497D01*
X144285738Y-59153052D01*
X144300638Y-59078151D01*
X144333023Y-59016240D01*
X144334510Y-59014724D01*
X144480520Y-58868716D01*
X144559577Y-58731784D01*
X144600501Y-58579057D01*
X144600501Y-58420942D01*
X144600501Y-58413347D01*
X144600500Y-58413329D01*
X144600500Y-56979765D01*
X144620185Y-56912726D01*
X144621398Y-56910874D01*
X144709390Y-56779185D01*
X144709390Y-56779184D01*
X144709394Y-56779179D01*
X144769737Y-56633497D01*
X144800500Y-56478842D01*
X144800500Y-56321158D01*
X144800500Y-56321155D01*
X144800499Y-56321153D01*
X144769738Y-56166510D01*
X144769737Y-56166503D01*
X144732243Y-56075983D01*
X144709397Y-56020827D01*
X144709390Y-56020814D01*
X144621789Y-55889711D01*
X144621786Y-55889707D01*
X144510292Y-55778213D01*
X144510288Y-55778210D01*
X144379185Y-55690609D01*
X144379172Y-55690602D01*
X144233501Y-55630264D01*
X144233489Y-55630261D01*
X144078845Y-55599500D01*
X144078842Y-55599500D01*
X143921158Y-55599500D01*
X143921155Y-55599500D01*
X143766510Y-55630261D01*
X143766498Y-55630264D01*
X143620827Y-55690602D01*
X143620814Y-55690609D01*
X143489711Y-55778210D01*
X143489707Y-55778213D01*
X143378213Y-55889707D01*
X143378210Y-55889711D01*
X143290609Y-56020814D01*
X143290602Y-56020827D01*
X143230264Y-56166498D01*
X143230261Y-56166510D01*
X143199500Y-56321153D01*
X143199500Y-56478846D01*
X143230261Y-56633489D01*
X143230264Y-56633501D01*
X143290602Y-56779172D01*
X143290609Y-56779185D01*
X143378602Y-56910874D01*
X143399480Y-56977551D01*
X143399500Y-56979765D01*
X143399500Y-58102044D01*
X143379815Y-58169083D01*
X143327011Y-58214838D01*
X143299691Y-58223661D01*
X143266510Y-58230261D01*
X143266498Y-58230264D01*
X143120827Y-58290602D01*
X143120814Y-58290609D01*
X142989711Y-58378210D01*
X142989707Y-58378213D01*
X142878213Y-58489707D01*
X142878210Y-58489711D01*
X142790609Y-58620814D01*
X142790602Y-58620827D01*
X142730264Y-58766498D01*
X142730261Y-58766510D01*
X142699500Y-58921153D01*
X142699500Y-59078846D01*
X142730261Y-59233489D01*
X142730263Y-59233497D01*
X142769427Y-59328047D01*
X142776896Y-59397517D01*
X142745621Y-59459996D01*
X142685532Y-59495648D01*
X142654866Y-59499500D01*
X137220943Y-59499500D01*
X137068214Y-59540423D01*
X137035040Y-59559577D01*
X137035039Y-59559576D01*
X136994667Y-59582886D01*
X136932666Y-59599500D01*
X136921155Y-59599500D01*
X136766510Y-59630261D01*
X136766498Y-59630264D01*
X136620827Y-59690602D01*
X136620814Y-59690609D01*
X136489711Y-59778210D01*
X136489707Y-59778213D01*
X136378213Y-59889707D01*
X136378210Y-59889711D01*
X136290609Y-60020814D01*
X136290602Y-60020827D01*
X136230264Y-60166498D01*
X136230261Y-60166510D01*
X136199500Y-60321153D01*
X134181348Y-60321153D01*
X134209394Y-60279179D01*
X134269737Y-60133497D01*
X134300500Y-59978842D01*
X134300500Y-59821158D01*
X134300500Y-59821155D01*
X134300499Y-59821153D01*
X134282623Y-59731284D01*
X134269737Y-59666503D01*
X134256142Y-59633681D01*
X134209397Y-59520827D01*
X134209390Y-59520814D01*
X134121789Y-59389711D01*
X134121786Y-59389707D01*
X134010292Y-59278213D01*
X134010288Y-59278210D01*
X133879185Y-59190609D01*
X133879172Y-59190602D01*
X133733501Y-59130264D01*
X133733489Y-59130261D01*
X133578845Y-59099500D01*
X133578842Y-59099500D01*
X133421158Y-59099500D01*
X133421155Y-59099500D01*
X133266510Y-59130261D01*
X133266498Y-59130264D01*
X133120827Y-59190602D01*
X133120814Y-59190609D01*
X132989711Y-59278210D01*
X132989707Y-59278213D01*
X132878213Y-59389707D01*
X132878210Y-59389711D01*
X132790609Y-59520814D01*
X132790602Y-59520827D01*
X132730264Y-59666498D01*
X132730261Y-59666510D01*
X132699500Y-59821153D01*
X132699500Y-59978846D01*
X132730261Y-60133489D01*
X132730264Y-60133501D01*
X132790602Y-60279172D01*
X132790609Y-60279185D01*
X132878602Y-60410874D01*
X132899480Y-60477551D01*
X132899500Y-60479765D01*
X132899500Y-61368056D01*
X132879815Y-61435095D01*
X132827011Y-61480850D01*
X132822953Y-61482617D01*
X132745089Y-61514869D01*
X132745079Y-61514874D01*
X132613976Y-61602475D01*
X132613972Y-61602478D01*
X132502478Y-61713972D01*
X132502475Y-61713976D01*
X132414874Y-61845079D01*
X132414867Y-61845092D01*
X132354529Y-61990763D01*
X132354526Y-61990775D01*
X132323765Y-62145418D01*
X123014379Y-62145418D01*
X123005569Y-62091273D01*
X123033412Y-62027191D01*
X123040909Y-62018986D01*
X123180104Y-61879792D01*
X123180550Y-61879179D01*
X123295607Y-61720814D01*
X123305051Y-61707816D01*
X123401557Y-61518412D01*
X123467246Y-61316243D01*
X123500500Y-61106287D01*
X123500500Y-60893713D01*
X123467246Y-60683757D01*
X123401557Y-60481588D01*
X123305051Y-60292184D01*
X123305049Y-60292181D01*
X123305048Y-60292179D01*
X123180109Y-60120213D01*
X123029786Y-59969890D01*
X122857820Y-59844951D01*
X122668414Y-59748444D01*
X122668413Y-59748443D01*
X122668412Y-59748443D01*
X122466243Y-59682754D01*
X122466241Y-59682753D01*
X122466240Y-59682753D01*
X122304957Y-59657208D01*
X122256287Y-59649500D01*
X121743713Y-59649500D01*
X121695042Y-59657208D01*
X121533760Y-59682753D01*
X121331585Y-59748444D01*
X121142179Y-59844951D01*
X120970213Y-59969890D01*
X120819890Y-60120213D01*
X120694951Y-60292179D01*
X120598444Y-60481585D01*
X120532753Y-60683760D01*
X120513233Y-60807007D01*
X120499500Y-60893713D01*
X118000500Y-60893713D01*
X118000500Y-51393713D01*
X119649500Y-51393713D01*
X119649500Y-51606287D01*
X119682754Y-51816243D01*
X119745803Y-52010288D01*
X119748444Y-52018414D01*
X119844951Y-52207820D01*
X119969890Y-52379786D01*
X120083818Y-52493714D01*
X120117303Y-52555037D01*
X120112319Y-52624729D01*
X120070447Y-52680662D01*
X120039471Y-52697577D01*
X119907912Y-52746646D01*
X119907906Y-52746649D01*
X119792812Y-52832809D01*
X119792809Y-52832812D01*
X119706649Y-52947906D01*
X119706645Y-52947913D01*
X119656403Y-53082620D01*
X119656401Y-53082627D01*
X119650000Y-53142155D01*
X119650000Y-53790000D01*
X120566988Y-53790000D01*
X120534075Y-53847007D01*
X120500000Y-53974174D01*
X120500000Y-54105826D01*
X120534075Y-54232993D01*
X120566988Y-54290000D01*
X119650000Y-54290000D01*
X119650000Y-54937844D01*
X119656401Y-54997372D01*
X119656403Y-54997379D01*
X119706645Y-55132086D01*
X119706649Y-55132093D01*
X119792809Y-55247187D01*
X119792812Y-55247190D01*
X119907906Y-55333350D01*
X119907913Y-55333354D01*
X120042620Y-55383596D01*
X120042627Y-55383598D01*
X120102155Y-55389999D01*
X120102172Y-55390000D01*
X120750000Y-55390000D01*
X120750000Y-54473012D01*
X120807007Y-54505925D01*
X120934174Y-54540000D01*
X121065826Y-54540000D01*
X121192993Y-54505925D01*
X121250000Y-54473012D01*
X121250000Y-55390000D01*
X121897828Y-55390000D01*
X121897844Y-55389999D01*
X121957372Y-55383598D01*
X121957379Y-55383596D01*
X122092086Y-55333354D01*
X122092093Y-55333350D01*
X122207187Y-55247190D01*
X122207190Y-55247187D01*
X122293350Y-55132093D01*
X122293354Y-55132086D01*
X122343596Y-54997379D01*
X122343598Y-54997372D01*
X122349999Y-54937844D01*
X122350000Y-54937827D01*
X122350000Y-54290000D01*
X121433012Y-54290000D01*
X121465925Y-54232993D01*
X121500000Y-54105826D01*
X121500000Y-53974174D01*
X121465925Y-53847007D01*
X121433012Y-53790000D01*
X122350000Y-53790000D01*
X122350000Y-53142172D01*
X122349999Y-53142155D01*
X122343598Y-53082627D01*
X122343596Y-53082620D01*
X122293354Y-52947913D01*
X122293350Y-52947906D01*
X122207190Y-52832812D01*
X122207187Y-52832809D01*
X122092093Y-52746649D01*
X122092088Y-52746646D01*
X121960528Y-52697577D01*
X121904595Y-52655705D01*
X121880178Y-52590241D01*
X121895030Y-52521968D01*
X121916175Y-52493720D01*
X122030104Y-52379792D01*
X122155051Y-52207816D01*
X122155052Y-52207812D01*
X122155359Y-52207391D01*
X122210689Y-52164724D01*
X122280302Y-52158745D01*
X122342097Y-52191350D01*
X122343359Y-52192594D01*
X122863181Y-52712416D01*
X122896666Y-52773739D01*
X122899500Y-52800097D01*
X122899500Y-53413330D01*
X122899499Y-53413348D01*
X122899499Y-53579054D01*
X122899498Y-53579054D01*
X122940423Y-53731786D01*
X122940424Y-53731787D01*
X122958882Y-53763757D01*
X123006946Y-53847007D01*
X123019481Y-53868717D01*
X123138349Y-53987585D01*
X123138355Y-53987590D01*
X125165425Y-56014660D01*
X125198910Y-56075983D01*
X125199361Y-56078149D01*
X125230261Y-56233491D01*
X125230264Y-56233501D01*
X125290602Y-56379172D01*
X125290609Y-56379185D01*
X125378210Y-56510288D01*
X125378213Y-56510292D01*
X125489707Y-56621786D01*
X125489711Y-56621789D01*
X125620814Y-56709390D01*
X125620827Y-56709397D01*
X125766498Y-56769735D01*
X125766503Y-56769737D01*
X125921153Y-56800499D01*
X125921156Y-56800500D01*
X125921158Y-56800500D01*
X126078844Y-56800500D01*
X126078845Y-56800499D01*
X126233497Y-56769737D01*
X126379179Y-56709394D01*
X126510289Y-56621789D01*
X126621789Y-56510289D01*
X126709394Y-56379179D01*
X126769737Y-56233497D01*
X126800500Y-56078842D01*
X126800500Y-55921158D01*
X126800500Y-55921155D01*
X126800499Y-55921153D01*
X126772066Y-55778211D01*
X126769737Y-55766503D01*
X126738298Y-55690602D01*
X126709397Y-55620827D01*
X126709390Y-55620814D01*
X126621789Y-55489711D01*
X126621786Y-55489707D01*
X126510292Y-55378213D01*
X126510288Y-55378210D01*
X126379185Y-55290609D01*
X126379172Y-55290602D01*
X126233501Y-55230264D01*
X126233491Y-55230261D01*
X126078149Y-55199361D01*
X126016238Y-55166976D01*
X126014660Y-55165425D01*
X124136819Y-53287584D01*
X124103334Y-53226261D01*
X124100500Y-53199903D01*
X124100500Y-52589060D01*
X124100501Y-52589047D01*
X124100501Y-52420944D01*
X124100501Y-52420943D01*
X124059577Y-52268216D01*
X124050613Y-52252690D01*
X123980524Y-52131290D01*
X123980518Y-52131282D01*
X123705475Y-51856239D01*
X123270388Y-51421153D01*
X130699500Y-51421153D01*
X130699500Y-51578846D01*
X130730261Y-51733489D01*
X130730264Y-51733501D01*
X130790602Y-51879172D01*
X130790609Y-51879185D01*
X130878210Y-52010288D01*
X130878213Y-52010292D01*
X130989707Y-52121786D01*
X130989711Y-52121789D01*
X131120814Y-52209390D01*
X131120827Y-52209397D01*
X131225364Y-52252697D01*
X131266503Y-52269737D01*
X131421153Y-52300499D01*
X131421156Y-52300500D01*
X131421158Y-52300500D01*
X131578844Y-52300500D01*
X131578845Y-52300499D01*
X131733497Y-52269737D01*
X131879179Y-52209394D01*
X131906184Y-52191350D01*
X132010875Y-52121398D01*
X132077553Y-52100520D01*
X132079766Y-52100500D01*
X140420234Y-52100500D01*
X140487273Y-52120185D01*
X140489125Y-52121398D01*
X140620814Y-52209390D01*
X140620827Y-52209397D01*
X140725364Y-52252697D01*
X140766503Y-52269737D01*
X140921153Y-52300499D01*
X140921156Y-52300500D01*
X140921158Y-52300500D01*
X141078844Y-52300500D01*
X141078845Y-52300499D01*
X141233497Y-52269737D01*
X141379179Y-52209394D01*
X141510289Y-52121789D01*
X141621789Y-52010289D01*
X141709394Y-51879179D01*
X141769737Y-51733497D01*
X141800500Y-51578842D01*
X141800500Y-51421158D01*
X141800500Y-51421155D01*
X141800499Y-51421153D01*
X141769738Y-51266510D01*
X141769737Y-51266503D01*
X141762901Y-51250000D01*
X141709397Y-51120827D01*
X141709390Y-51120814D01*
X141621789Y-50989711D01*
X141621786Y-50989707D01*
X141510292Y-50878213D01*
X141510288Y-50878210D01*
X141379185Y-50790609D01*
X141379172Y-50790602D01*
X141233501Y-50730264D01*
X141233489Y-50730261D01*
X141078845Y-50699500D01*
X141078842Y-50699500D01*
X140921158Y-50699500D01*
X140921155Y-50699500D01*
X140766510Y-50730261D01*
X140766498Y-50730264D01*
X140620827Y-50790602D01*
X140620814Y-50790609D01*
X140489125Y-50878602D01*
X140422447Y-50899480D01*
X140420234Y-50899500D01*
X135886555Y-50899500D01*
X135819516Y-50879815D01*
X135773761Y-50827011D01*
X135763817Y-50757853D01*
X135768840Y-50739588D01*
X135767969Y-50739324D01*
X135769731Y-50733509D01*
X135769737Y-50733497D01*
X135800500Y-50578842D01*
X135800500Y-50421158D01*
X135800500Y-50421155D01*
X135800499Y-50421153D01*
X135793298Y-50384951D01*
X135769737Y-50266503D01*
X135748670Y-50215643D01*
X135709397Y-50120827D01*
X135709390Y-50120814D01*
X135621398Y-49989125D01*
X135600520Y-49922447D01*
X135600500Y-49920234D01*
X135600500Y-43813713D01*
X151149500Y-43813713D01*
X151149500Y-44026286D01*
X151182753Y-44236239D01*
X151248444Y-44438414D01*
X151344951Y-44627820D01*
X151469890Y-44799786D01*
X151620213Y-44950109D01*
X151792182Y-45075050D01*
X151800946Y-45079516D01*
X151851742Y-45127491D01*
X151868536Y-45195312D01*
X151845998Y-45261447D01*
X151800946Y-45300484D01*
X151792182Y-45304949D01*
X151620213Y-45429890D01*
X151469890Y-45580213D01*
X151344951Y-45752179D01*
X151248444Y-45941585D01*
X151182753Y-46143760D01*
X151149500Y-46353713D01*
X151149500Y-46566286D01*
X151182753Y-46776239D01*
X151248444Y-46978414D01*
X151344951Y-47167820D01*
X151469890Y-47339786D01*
X151620213Y-47490109D01*
X151792182Y-47615050D01*
X151800946Y-47619516D01*
X151851742Y-47667491D01*
X151868536Y-47735312D01*
X151845998Y-47801447D01*
X151800946Y-47840484D01*
X151792182Y-47844949D01*
X151620213Y-47969890D01*
X151469890Y-48120213D01*
X151344951Y-48292179D01*
X151248444Y-48481585D01*
X151182753Y-48683760D01*
X151149500Y-48893713D01*
X151149500Y-49106287D01*
X151182754Y-49316243D01*
X151239117Y-49489711D01*
X151248444Y-49518414D01*
X151344951Y-49707820D01*
X151469890Y-49879786D01*
X151620213Y-50030109D01*
X151792182Y-50155050D01*
X151800946Y-50159516D01*
X151851742Y-50207491D01*
X151868536Y-50275312D01*
X151845998Y-50341447D01*
X151800946Y-50380484D01*
X151792182Y-50384949D01*
X151620213Y-50509890D01*
X151469890Y-50660213D01*
X151344951Y-50832179D01*
X151248444Y-51021585D01*
X151182753Y-51223760D01*
X151149500Y-51433713D01*
X151149500Y-51646286D01*
X151176418Y-51816243D01*
X151182754Y-51856243D01*
X151232806Y-52010288D01*
X151248444Y-52058414D01*
X151344951Y-52247820D01*
X151469890Y-52419786D01*
X151620213Y-52570109D01*
X151792182Y-52695050D01*
X151800946Y-52699516D01*
X151851742Y-52747491D01*
X151868536Y-52815312D01*
X151845998Y-52881447D01*
X151800946Y-52920484D01*
X151792182Y-52924949D01*
X151620213Y-53049890D01*
X151469890Y-53200213D01*
X151344951Y-53372179D01*
X151248444Y-53561585D01*
X151182754Y-53763757D01*
X151149500Y-53973713D01*
X151149500Y-54186286D01*
X151174955Y-54347007D01*
X151182754Y-54396243D01*
X151222449Y-54518412D01*
X151248444Y-54598414D01*
X151344951Y-54787820D01*
X151469890Y-54959786D01*
X151620213Y-55110109D01*
X151792179Y-55235048D01*
X151792181Y-55235049D01*
X151792184Y-55235051D01*
X151981588Y-55331557D01*
X152183757Y-55397246D01*
X152393713Y-55430500D01*
X152393714Y-55430500D01*
X152606286Y-55430500D01*
X152606287Y-55430500D01*
X152816243Y-55397246D01*
X153018412Y-55331557D01*
X153207816Y-55235051D01*
X153256748Y-55199500D01*
X153379786Y-55110109D01*
X153379788Y-55110106D01*
X153379792Y-55110104D01*
X153530104Y-54959792D01*
X153530106Y-54959788D01*
X153530109Y-54959786D01*
X153655048Y-54787820D01*
X153655047Y-54787820D01*
X153655051Y-54787816D01*
X153751557Y-54598412D01*
X153817246Y-54396243D01*
X153850500Y-54186287D01*
X153850500Y-53973713D01*
X153837829Y-53893713D01*
X162999500Y-53893713D01*
X162999500Y-54106287D01*
X163032754Y-54316243D01*
X163072997Y-54440099D01*
X163098444Y-54518414D01*
X163194951Y-54707820D01*
X163319890Y-54879786D01*
X163470213Y-55030109D01*
X163642179Y-55155048D01*
X163642181Y-55155049D01*
X163642184Y-55155051D01*
X163831588Y-55251557D01*
X164033757Y-55317246D01*
X164243713Y-55350500D01*
X164243714Y-55350500D01*
X164756286Y-55350500D01*
X164756287Y-55350500D01*
X164966243Y-55317246D01*
X165168412Y-55251557D01*
X165357816Y-55155051D01*
X165419681Y-55110104D01*
X165529786Y-55030109D01*
X165529788Y-55030106D01*
X165529792Y-55030104D01*
X165680104Y-54879792D01*
X165680106Y-54879788D01*
X165680109Y-54879786D01*
X165805048Y-54707820D01*
X165805047Y-54707820D01*
X165805051Y-54707816D01*
X165901557Y-54518412D01*
X165967246Y-54316243D01*
X166000500Y-54106287D01*
X166000500Y-53893713D01*
X165967246Y-53683757D01*
X165901557Y-53481588D01*
X165805051Y-53292184D01*
X165805049Y-53292181D01*
X165805048Y-53292179D01*
X165680109Y-53120213D01*
X165540931Y-52981035D01*
X165507446Y-52919712D01*
X165512430Y-52850020D01*
X165554302Y-52794087D01*
X165563516Y-52787815D01*
X165718343Y-52692317D01*
X165842315Y-52568345D01*
X165934356Y-52419124D01*
X165934358Y-52419119D01*
X165989505Y-52252697D01*
X165989506Y-52252690D01*
X165999999Y-52149986D01*
X166000000Y-52149973D01*
X166000000Y-51750000D01*
X164933012Y-51750000D01*
X164965925Y-51692993D01*
X165000000Y-51565826D01*
X165000000Y-51434174D01*
X164965925Y-51307007D01*
X164933012Y-51250000D01*
X165999999Y-51250000D01*
X165999999Y-50850028D01*
X165999998Y-50850013D01*
X165989505Y-50747302D01*
X165934358Y-50580880D01*
X165934356Y-50580875D01*
X165842315Y-50431654D01*
X165718345Y-50307684D01*
X165569124Y-50215643D01*
X165569119Y-50215641D01*
X165402697Y-50160494D01*
X165402690Y-50160493D01*
X165299986Y-50150000D01*
X164750000Y-50150000D01*
X164750000Y-51066988D01*
X164692993Y-51034075D01*
X164565826Y-51000000D01*
X164434174Y-51000000D01*
X164307007Y-51034075D01*
X164250000Y-51066988D01*
X164250000Y-50150000D01*
X163700028Y-50150000D01*
X163700012Y-50150001D01*
X163597302Y-50160494D01*
X163430880Y-50215641D01*
X163430875Y-50215643D01*
X163281654Y-50307684D01*
X163157684Y-50431654D01*
X163065643Y-50580875D01*
X163065641Y-50580880D01*
X163010494Y-50747302D01*
X163010493Y-50747309D01*
X163000000Y-50850013D01*
X163000000Y-51250000D01*
X164066988Y-51250000D01*
X164034075Y-51307007D01*
X164000000Y-51434174D01*
X164000000Y-51565826D01*
X164034075Y-51692993D01*
X164066988Y-51750000D01*
X163000001Y-51750000D01*
X163000001Y-52149986D01*
X163010494Y-52252697D01*
X163065641Y-52419119D01*
X163065643Y-52419124D01*
X163157684Y-52568345D01*
X163281654Y-52692315D01*
X163436484Y-52787815D01*
X163483208Y-52839763D01*
X163494431Y-52908726D01*
X163466587Y-52972808D01*
X163459069Y-52981035D01*
X163319889Y-53120215D01*
X163194951Y-53292179D01*
X163098444Y-53481585D01*
X163032753Y-53683760D01*
X163003459Y-53868716D01*
X162999500Y-53893713D01*
X153837829Y-53893713D01*
X153817246Y-53763757D01*
X153751557Y-53561588D01*
X153655051Y-53372184D01*
X153655049Y-53372181D01*
X153655048Y-53372179D01*
X153530109Y-53200213D01*
X153379786Y-53049890D01*
X153207820Y-52924951D01*
X153207115Y-52924591D01*
X153199054Y-52920485D01*
X153148259Y-52872512D01*
X153131463Y-52804692D01*
X153153999Y-52738556D01*
X153199054Y-52699515D01*
X153207816Y-52695051D01*
X153352076Y-52590241D01*
X153379786Y-52570109D01*
X153379788Y-52570106D01*
X153379792Y-52570104D01*
X153530104Y-52419792D01*
X153530106Y-52419788D01*
X153530109Y-52419786D01*
X153655048Y-52247820D01*
X153655047Y-52247820D01*
X153655051Y-52247816D01*
X153751557Y-52058412D01*
X153817246Y-51856243D01*
X153850500Y-51646287D01*
X153850500Y-51433713D01*
X153817246Y-51223757D01*
X153751557Y-51021588D01*
X153655051Y-50832184D01*
X153655050Y-50832182D01*
X153530109Y-50660213D01*
X153379786Y-50509890D01*
X153207820Y-50384951D01*
X153207115Y-50384591D01*
X153199054Y-50380485D01*
X153148259Y-50332512D01*
X153131463Y-50264692D01*
X153153999Y-50198556D01*
X153199054Y-50159515D01*
X153207816Y-50155051D01*
X153312704Y-50078846D01*
X153379786Y-50030109D01*
X153379788Y-50030106D01*
X153379792Y-50030104D01*
X153530104Y-49879792D01*
X153530106Y-49879788D01*
X153530109Y-49879786D01*
X153655048Y-49707820D01*
X153655047Y-49707820D01*
X153655051Y-49707816D01*
X153751557Y-49518412D01*
X153817246Y-49316243D01*
X153850500Y-49106287D01*
X153850500Y-48893713D01*
X153817246Y-48683757D01*
X153751557Y-48481588D01*
X153655051Y-48292184D01*
X153655049Y-48292181D01*
X153655048Y-48292179D01*
X153530109Y-48120213D01*
X153379786Y-47969890D01*
X153207820Y-47844951D01*
X153207115Y-47844591D01*
X153199054Y-47840485D01*
X153148259Y-47792512D01*
X153131463Y-47724692D01*
X153153999Y-47658556D01*
X153199054Y-47619515D01*
X153207816Y-47615051D01*
X153229789Y-47599086D01*
X153379786Y-47490109D01*
X153379788Y-47490106D01*
X153379792Y-47490104D01*
X153530104Y-47339792D01*
X153530106Y-47339788D01*
X153530109Y-47339786D01*
X153655048Y-47167820D01*
X153655047Y-47167820D01*
X153655051Y-47167816D01*
X153751557Y-46978412D01*
X153817246Y-46776243D01*
X153850500Y-46566287D01*
X153850500Y-46353713D01*
X153817246Y-46143757D01*
X153751557Y-45941588D01*
X153655051Y-45752184D01*
X153655049Y-45752181D01*
X153655048Y-45752179D01*
X153530109Y-45580213D01*
X153379786Y-45429890D01*
X153207820Y-45304951D01*
X153207115Y-45304591D01*
X153199054Y-45300485D01*
X153148259Y-45252512D01*
X153131463Y-45184692D01*
X153153999Y-45118556D01*
X153199054Y-45079515D01*
X153207816Y-45075051D01*
X153229789Y-45059086D01*
X153379786Y-44950109D01*
X153379788Y-44950106D01*
X153379792Y-44950104D01*
X153530104Y-44799792D01*
X153530106Y-44799788D01*
X153530109Y-44799786D01*
X153655048Y-44627820D01*
X153655047Y-44627820D01*
X153655051Y-44627816D01*
X153751557Y-44438412D01*
X153817246Y-44236243D01*
X153850500Y-44026287D01*
X153850500Y-43813713D01*
X153817246Y-43603757D01*
X153751557Y-43401588D01*
X153655051Y-43212184D01*
X153655049Y-43212181D01*
X153655048Y-43212179D01*
X153530109Y-43040213D01*
X153416181Y-42926285D01*
X153382696Y-42864962D01*
X153387680Y-42795270D01*
X153429552Y-42739337D01*
X153460529Y-42722422D01*
X153592086Y-42673354D01*
X153592093Y-42673350D01*
X153707187Y-42587190D01*
X153707190Y-42587187D01*
X153793350Y-42472093D01*
X153793354Y-42472086D01*
X153843596Y-42337379D01*
X153843598Y-42337372D01*
X153849999Y-42277844D01*
X153850000Y-42277827D01*
X153850000Y-41630000D01*
X152933012Y-41630000D01*
X152965925Y-41572993D01*
X153000000Y-41445826D01*
X153000000Y-41314174D01*
X152965925Y-41187007D01*
X152933012Y-41130000D01*
X153850000Y-41130000D01*
X153850000Y-40482172D01*
X153849999Y-40482155D01*
X153843598Y-40422627D01*
X153843596Y-40422620D01*
X153793354Y-40287913D01*
X153793350Y-40287906D01*
X153707190Y-40172812D01*
X153707187Y-40172809D01*
X153592093Y-40086649D01*
X153592086Y-40086645D01*
X153457379Y-40036403D01*
X153457372Y-40036401D01*
X153397844Y-40030000D01*
X152750000Y-40030000D01*
X152750000Y-40946988D01*
X152692993Y-40914075D01*
X152565826Y-40880000D01*
X152434174Y-40880000D01*
X152307007Y-40914075D01*
X152250000Y-40946988D01*
X152250000Y-40030000D01*
X151602155Y-40030000D01*
X151542627Y-40036401D01*
X151542620Y-40036403D01*
X151407913Y-40086645D01*
X151407906Y-40086649D01*
X151292812Y-40172809D01*
X151292809Y-40172812D01*
X151206649Y-40287906D01*
X151206645Y-40287913D01*
X151156403Y-40422620D01*
X151156401Y-40422627D01*
X151150000Y-40482155D01*
X151150000Y-41130000D01*
X152066988Y-41130000D01*
X152034075Y-41187007D01*
X152000000Y-41314174D01*
X152000000Y-41445826D01*
X152034075Y-41572993D01*
X152066988Y-41630000D01*
X151150000Y-41630000D01*
X151150000Y-42277844D01*
X151156401Y-42337372D01*
X151156403Y-42337379D01*
X151206645Y-42472086D01*
X151206649Y-42472093D01*
X151292809Y-42587187D01*
X151292812Y-42587190D01*
X151407906Y-42673350D01*
X151407913Y-42673354D01*
X151539470Y-42722422D01*
X151595404Y-42764293D01*
X151619821Y-42829758D01*
X151604969Y-42898031D01*
X151583819Y-42926285D01*
X151469889Y-43040215D01*
X151344951Y-43212179D01*
X151248444Y-43401585D01*
X151182753Y-43603760D01*
X151149500Y-43813713D01*
X135600500Y-43813713D01*
X135600500Y-43300097D01*
X135609145Y-43270653D01*
X135615668Y-43240671D01*
X135619422Y-43235655D01*
X135620185Y-43233058D01*
X135636813Y-43212422D01*
X135764666Y-43084569D01*
X135825983Y-43051088D01*
X135828151Y-43050637D01*
X135828840Y-43050500D01*
X135828842Y-43050500D01*
X135983497Y-43019737D01*
X136129179Y-42959394D01*
X136260289Y-42871789D01*
X136371789Y-42760289D01*
X136459394Y-42629179D01*
X136519737Y-42483497D01*
X136550500Y-42328842D01*
X136550500Y-42171158D01*
X136550500Y-42171155D01*
X136550499Y-42171153D01*
X136542569Y-42131285D01*
X136519737Y-42016503D01*
X136479802Y-41920090D01*
X136459397Y-41870827D01*
X136459390Y-41870814D01*
X136371789Y-41739711D01*
X136371786Y-41739707D01*
X136260292Y-41628213D01*
X136260288Y-41628210D01*
X136129185Y-41540609D01*
X136129172Y-41540602D01*
X135983501Y-41480264D01*
X135983491Y-41480261D01*
X135886463Y-41460961D01*
X135824552Y-41428576D01*
X135789978Y-41367860D01*
X135789038Y-41363535D01*
X135769738Y-41266510D01*
X135769738Y-41266508D01*
X135769737Y-41266503D01*
X135715188Y-41134809D01*
X135709397Y-41120827D01*
X135709390Y-41120814D01*
X135621789Y-40989711D01*
X135621786Y-40989707D01*
X135510292Y-40878213D01*
X135510288Y-40878210D01*
X135379185Y-40790609D01*
X135379172Y-40790602D01*
X135233501Y-40730264D01*
X135233489Y-40730261D01*
X135078845Y-40699500D01*
X135078842Y-40699500D01*
X134921158Y-40699500D01*
X134921155Y-40699500D01*
X134766510Y-40730261D01*
X134766498Y-40730264D01*
X134620827Y-40790602D01*
X134620814Y-40790609D01*
X134489711Y-40878210D01*
X134489707Y-40878213D01*
X134378213Y-40989707D01*
X134378210Y-40989711D01*
X134290609Y-41120814D01*
X134290602Y-41120827D01*
X134230264Y-41266498D01*
X134230261Y-41266508D01*
X134199362Y-41421848D01*
X134166977Y-41483759D01*
X134165426Y-41485337D01*
X133631286Y-42019478D01*
X133519481Y-42131282D01*
X133519479Y-42131285D01*
X133474385Y-42209392D01*
X133474384Y-42209393D01*
X133440423Y-42268214D01*
X133440423Y-42268215D01*
X133399499Y-42420943D01*
X133399499Y-42420945D01*
X133399499Y-42589046D01*
X133399500Y-42589059D01*
X133399500Y-49420234D01*
X133379815Y-49487273D01*
X133378602Y-49489125D01*
X133290609Y-49620814D01*
X133290602Y-49620827D01*
X133230264Y-49766498D01*
X133230261Y-49766510D01*
X133199500Y-49921153D01*
X133199500Y-50078846D01*
X133230261Y-50233489D01*
X133230264Y-50233501D01*
X133290602Y-50379172D01*
X133290609Y-50379185D01*
X133378210Y-50510288D01*
X133378213Y-50510292D01*
X133489707Y-50621786D01*
X133489711Y-50621789D01*
X133565452Y-50672398D01*
X133610257Y-50726010D01*
X133618964Y-50795335D01*
X133588810Y-50858363D01*
X133529366Y-50895082D01*
X133496561Y-50899500D01*
X132079766Y-50899500D01*
X132012727Y-50879815D01*
X132010875Y-50878602D01*
X131879185Y-50790609D01*
X131879172Y-50790602D01*
X131733501Y-50730264D01*
X131733489Y-50730261D01*
X131578845Y-50699500D01*
X131578842Y-50699500D01*
X131421158Y-50699500D01*
X131421155Y-50699500D01*
X131266510Y-50730261D01*
X131266498Y-50730264D01*
X131120827Y-50790602D01*
X131120814Y-50790609D01*
X130989711Y-50878210D01*
X130989707Y-50878213D01*
X130878213Y-50989707D01*
X130878210Y-50989711D01*
X130790609Y-51120814D01*
X130790602Y-51120827D01*
X130730264Y-51266498D01*
X130730261Y-51266510D01*
X130699500Y-51421153D01*
X123270388Y-51421153D01*
X122987589Y-51138354D01*
X122987588Y-51138352D01*
X122868717Y-51019481D01*
X122868716Y-51019480D01*
X122781904Y-50969360D01*
X122781904Y-50969359D01*
X122781900Y-50969358D01*
X122731785Y-50940423D01*
X122579057Y-50899499D01*
X122420943Y-50899499D01*
X122413347Y-50899499D01*
X122413331Y-50899500D01*
X122285719Y-50899500D01*
X122218680Y-50879815D01*
X122175235Y-50831795D01*
X122155052Y-50792185D01*
X122155051Y-50792184D01*
X122030109Y-50620213D01*
X121879786Y-50469890D01*
X121707820Y-50344951D01*
X121518414Y-50248444D01*
X121518413Y-50248443D01*
X121518412Y-50248443D01*
X121316243Y-50182754D01*
X121316241Y-50182753D01*
X121316240Y-50182753D01*
X121141315Y-50155048D01*
X121106287Y-50149500D01*
X120893713Y-50149500D01*
X120858685Y-50155048D01*
X120683760Y-50182753D01*
X120683757Y-50182754D01*
X120527612Y-50233489D01*
X120481585Y-50248444D01*
X120292179Y-50344951D01*
X120120213Y-50469890D01*
X119969890Y-50620213D01*
X119844951Y-50792179D01*
X119748444Y-50981585D01*
X119682753Y-51183760D01*
X119676418Y-51223760D01*
X119649500Y-51393713D01*
X118000500Y-51393713D01*
X118000500Y-41854745D01*
X118020185Y-41787706D01*
X118072989Y-41741951D01*
X118142147Y-41732007D01*
X118205703Y-41761032D01*
X118241539Y-41813786D01*
X118278733Y-41920079D01*
X118278737Y-41920087D01*
X118278738Y-41920090D01*
X118395714Y-42162994D01*
X118395716Y-42162997D01*
X118539162Y-42391289D01*
X118707266Y-42602085D01*
X118897915Y-42792734D01*
X119108711Y-42960838D01*
X119337003Y-43104284D01*
X119579921Y-43221267D01*
X119771049Y-43288145D01*
X119834397Y-43310312D01*
X119834405Y-43310315D01*
X119834408Y-43310315D01*
X119834409Y-43310316D01*
X120097268Y-43370312D01*
X120365187Y-43400499D01*
X120365188Y-43400500D01*
X120365191Y-43400500D01*
X120634812Y-43400500D01*
X120634812Y-43400499D01*
X120902732Y-43370312D01*
X121165591Y-43310316D01*
X121420079Y-43221267D01*
X121662997Y-43104284D01*
X121891289Y-42960838D01*
X122102085Y-42792734D01*
X122292734Y-42602085D01*
X122460838Y-42391289D01*
X122604284Y-42162997D01*
X122721267Y-41920079D01*
X122810316Y-41665591D01*
X122870312Y-41402732D01*
X122900500Y-41134809D01*
X122900500Y-40865191D01*
X122870312Y-40597268D01*
X122810316Y-40334409D01*
X122721267Y-40079921D01*
X122604284Y-39837003D01*
X122460838Y-39608711D01*
X122292734Y-39397915D01*
X122102085Y-39207266D01*
X121891289Y-39039162D01*
X121662997Y-38895716D01*
X121662994Y-38895714D01*
X121420082Y-38778734D01*
X121313791Y-38741541D01*
X121257015Y-38700820D01*
X121231268Y-38635867D01*
X121244724Y-38567305D01*
X121293112Y-38516902D01*
X121354746Y-38500500D01*
X165145254Y-38500500D01*
X165212293Y-38520185D01*
G37*
%TD.AperFunction*%
%TD*%
M02*
