M48
; DRILL file KiCad 10.0.1 date 2026-05-08T01:31:45
; FORMAT={-:-/ absolute / inch / decimal}
; #@! TF.CreationDate,2026-05-08T01:31:45+08:00
; #@! TF.GenerationSoftware,Kicad,Pcbnew,10.0.1
; #@! TF.FileFunction,Plated,1,2,PTH
FMAT,2
INCH
; #@! TA.AperFunction,Plated,PTH,ViaDrill
T1C0.0118
; #@! TA.AperFunction,Plated,PTH,ComponentDrill
T2C0.0394
; #@! TA.AperFunction,Plated,PTH,ComponentDrill
T3C0.0598
; #@! TA.AperFunction,Plated,PTH,ComponentDrill
T4C0.0748
; #@! TA.AperFunction,Plated,PTH,ComponentDrill
T5C0.0866
%
G90
G05
T1
X4.8622Y-2.0669
X4.9016Y-2.2791
X4.9136Y-2.3622
X4.9409Y-2.378
X4.9803Y-2.2244
X5.0731Y-2.4506
X5.0984Y-2.2441
X5.1071Y-2.4512
X5.1083Y-1.9587
X5.1181Y-1.6142
X5.1181Y-1.6535
X5.1181Y-1.6929
X5.1378Y-2.248
X5.1378Y-2.6181
X5.1575Y-2.7756
X5.1732Y-3.0167
X5.1965Y-2.1686
X5.2323Y-2.1654
X5.2854Y-2.8642
X5.2953Y-2.9724
X5.425Y-2.2795
X5.4331Y-2.1654
X5.435Y-2.3386
X5.4724Y-2.2795
X5.5118Y-2.3209
X5.584Y-1.8438
X5.6299Y-2.5394
X5.6299Y-2.5787
X5.6299Y-2.6181
X5.6459Y-2.2402
X5.6496Y-1.7687
X5.6726Y-2.1496
X5.6811Y-2.5945
X5.6895Y-2.2874
X5.7047Y-2.5709
X5.7087Y-2.2402
X5.7126Y-2.498
X5.7283Y-2.5472
X5.748Y-3.2047
X5.7525Y-2.3425
X5.7835Y-1.8504
X5.7835Y-1.9134
X5.8268Y-3.2047
X5.8465Y-1.6929
X5.8489Y-3.0536
X5.8525Y-2.5315
X5.8661Y-1.6535
X5.8661Y-2.7165
X5.8858Y-1.6142
X5.9055Y-2.3622
X5.9183Y-1.7451
X5.9252Y-2.2638
X5.935Y-2.0571
X5.9547Y-1.7421
X6.0433Y-2.3819
X6.0433Y-2.815
X6.0453Y-2.7323
X6.063Y-2.9734
X6.0669Y-2.6575
X6.1024Y-2.7559
X6.1063Y-1.8307
X6.1063Y-2.5984
X6.122Y-1.7717
X6.122Y-2.3425
X6.126Y-2.4803
X6.126Y-2.7165
X6.2573Y-2.9685
X6.2795Y-2.9921
X6.3681Y-3.2972
T2
X4.7638Y-2.0276
X4.7638Y-2.1276
X4.8031Y-2.4016
X4.8031Y-2.5
X4.8031Y-2.7756
X4.8031Y-2.874
X4.8031Y-3.1496
X4.8031Y-3.248
X4.8031Y-3.5236
X4.8031Y-3.622
X5.2559Y-3.1299
X5.2559Y-3.3071
X5.5118Y-3.1299
X5.5118Y-3.3071
X5.9843Y-3.1299
X5.9843Y-3.3071
X6.0039Y-1.6291
X6.0039Y-1.7291
X6.0039Y-1.8291
X6.0039Y-1.9291
X6.0039Y-2.0291
X6.0039Y-2.1291
X6.2402Y-3.1299
X6.2402Y-3.3071
X6.4764Y-2.0276
X6.4764Y-2.126
X6.4764Y-2.4016
X6.4764Y-2.5
X6.4764Y-2.7756
X6.4764Y-2.874
X6.4764Y-3.1496
X6.4764Y-3.248
X6.4764Y-3.5236
X6.4764Y-3.622
T3
X5.4665Y-3.7077
X5.9055Y-3.7077
T4
X5.4665Y-3.8652
X5.9055Y-3.8652
T5
X4.7441Y-1.6142
X4.7441Y-3.8583
X6.5354Y-1.6142
X6.5354Y-3.8583
M30
