%TF.GenerationSoftware,KiCad,Pcbnew,10.0.1*%
%TF.CreationDate,2026-05-08T01:31:45+08:00*%
%TF.ProjectId,Sensor Reader V4,53656e73-6f72-4205-9265-616465722056,rev?*%
%TF.SameCoordinates,Original*%
%TF.FileFunction,Soldermask,Bot*%
%TF.FilePolarity,Negative*%
%FSLAX46Y46*%
G04 Gerber Fmt 4.6, Leading zero omitted, Abs format (unit mm)*
G04 Created by KiCad (PCBNEW 10.0.1) date 2026-05-08 01:31:45*
%MOMM*%
%LPD*%
G01*
G04 APERTURE LIST*
G04 Aperture macros list*
%AMRoundRect*
0 Rectangle with rounded corners*
0 $1 Rounding radius*
0 $2 $3 $4 $5 $6 $7 $8 $9 X,Y pos of 4 corners*
0 Add a 4 corners polygon primitive as box body*
4,1,4,$2,$3,$4,$5,$6,$7,$8,$9,$2,$3,0*
0 Add four circle primitives for the rounded corners*
1,1,$1+$1,$2,$3*
1,1,$1+$1,$4,$5*
1,1,$1+$1,$6,$7*
1,1,$1+$1,$8,$9*
0 Add four rect primitives between the rounded corners*
20,1,$1+$1,$2,$3,$4,$5,0*
20,1,$1+$1,$4,$5,$6,$7,0*
20,1,$1+$1,$6,$7,$8,$9,0*
20,1,$1+$1,$8,$9,$2,$3,0*%
G04 Aperture macros list end*
%ADD10C,2.600000*%
%ADD11C,3.800000*%
%ADD12RoundRect,0.250000X0.750000X-0.600000X0.750000X0.600000X-0.750000X0.600000X-0.750000X-0.600000X0*%
%ADD13O,2.000000X1.700000*%
%ADD14R,1.700000X1.700000*%
%ADD15C,1.700000*%
%ADD16R,1.500000X1.500000*%
%ADD17C,1.500000*%
%ADD18RoundRect,0.250000X-0.750000X0.600000X-0.750000X-0.600000X0.750000X-0.600000X0.750000X0.600000X0*%
%ADD19C,2.280000*%
%ADD20C,2.850000*%
G04 APERTURE END LIST*
D10*
%TO.C,REF\u002A\u002A*%
X166000000Y-41000000D03*
D11*
X166000000Y-41000000D03*
%TD*%
D12*
%TO.C,AIN_4*%
X122000000Y-73000000D03*
D13*
X122000000Y-70500000D03*
%TD*%
D14*
%TO.C,J6*%
X152500000Y-41380000D03*
D15*
X152500000Y-43920000D03*
X152500000Y-46460000D03*
X152500000Y-49000000D03*
X152500000Y-51540000D03*
X152500000Y-54080000D03*
%TD*%
D16*
%TO.C,SW2*%
X133500000Y-79500000D03*
D17*
X140000000Y-79500000D03*
X133500000Y-84000000D03*
X140000000Y-84000000D03*
%TD*%
D16*
%TO.C,SW1*%
X152000000Y-79500000D03*
D17*
X158500000Y-79500000D03*
X152000000Y-84000000D03*
X158500000Y-84000000D03*
%TD*%
D18*
%TO.C,Load_In/B1_Out*%
X164500000Y-70500000D03*
D13*
X164500000Y-73000000D03*
%TD*%
D19*
%TO.C,J2*%
X138850000Y-94175000D03*
X150000000Y-94175000D03*
D20*
X138850000Y-98175000D03*
X150000000Y-98175000D03*
%TD*%
D10*
%TO.C,REF\u002A\u002A*%
X166000000Y-98000000D03*
D11*
X166000000Y-98000000D03*
%TD*%
D10*
%TO.C,REF\u002A\u002A*%
X120500000Y-41000000D03*
D11*
X120500000Y-41000000D03*
%TD*%
D18*
%TO.C,MPPT_Out/B1_In*%
X164500000Y-80000000D03*
D13*
X164500000Y-82500000D03*
%TD*%
D12*
%TO.C,Batt2_V*%
X122000000Y-82500000D03*
D13*
X122000000Y-80000000D03*
%TD*%
D12*
%TO.C,Batt1_V*%
X122000000Y-92000000D03*
D13*
X122000000Y-89500000D03*
%TD*%
D18*
%TO.C,5V_In*%
X164500000Y-89500000D03*
D13*
X164500000Y-92000000D03*
%TD*%
D18*
%TO.C,B1_Net/B2_In*%
X164500000Y-61000000D03*
D13*
X164500000Y-63500000D03*
%TD*%
D10*
%TO.C,REF\u002A\u002A*%
X120500000Y-98000000D03*
D11*
X120500000Y-98000000D03*
%TD*%
D18*
%TO.C,B2_Net/B2_Out*%
X164500000Y-51500000D03*
D13*
X164500000Y-54000000D03*
%TD*%
D12*
%TO.C,AIN_5*%
X122000000Y-63500000D03*
D13*
X122000000Y-61000000D03*
%TD*%
D14*
%TO.C,J16*%
X121000000Y-54040000D03*
D15*
X121000000Y-51500000D03*
%TD*%
M02*
